<?xml version="1.0" encoding="UTF-8"?>
<svg width="24px" height="24px" viewBox="0 0 24 24" version="1.1" xmlns="http://www.w3.org/2000/svg" xmlns:xlink="http://www.w3.org/1999/xlink">
    <title>课程备份 3</title>
    <g id="页面-1" stroke="none" stroke-width="1" fill="none" fill-rule="evenodd">
        <g id="管理员工作台" transform="translate(-47.000000, -162.000000)">
            <g id="编组-52" transform="translate(24.000000, 72.000000)">
                <g id="编组-73" transform="translate(14.000000, 16.000000)">
                    <g id="编组-68备份" transform="translate(7.000000, 74.000000)">
                        <g id="课程备份-3" transform="translate(2.000000, 0.000000)">
                            <rect id="矩形" fill="#000000" fill-rule="nonzero" opacity="0" x="0" y="0" width="24" height="24"></rect>
                            <g id="编组-42" transform="translate(3.000000, 3.000000)" stroke="#999999">
                                <path d="M8.74792818,0.500539515 L16.0441941,1.72365102 C16.4631639,1.79375548 16.8259678,2.01375994 17.0843753,2.32364052 C17.3452377,2.63646512 17.4999277,3.04080923 17.5,3.47694461 L17.5000272,14.2076432 C17.495628,14.6290437 17.3491396,15.0212197 17.102267,15.3305507 C16.8575825,15.63714 16.5141064,15.8623057 16.1173208,15.9511817 L9.19230267,17.4423137 C8.53818578,17.454424 8.00643273,17.2842324 7.63360897,16.9767166 C7.2542729,16.6638292 7.05198899,16.2119932 7.051561,15.7138778 L7.05155981,2.27702244 C7.05263403,1.78570612 7.24791272,1.34064654 7.56433083,1.01840035 C7.86883229,0.708290303 8.28577259,0.512145469 8.74792818,0.500539515 Z M1.61908593,1.19821898 L3.83988665,1.54955145 C4.09641896,1.58979235 4.31861889,1.72337427 4.47656144,1.91225294 C4.63702142,2.10414213 4.73139227,2.35303006 4.72951352,2.62474234 L4.72953578,14.9972957 C4.72708585,15.25689 4.63751791,15.4987708 4.48595249,15.6899031 C4.33655754,15.8782983 4.12675038,16.0173531 3.88893064,16.0720015 L1.9379157,16.4882676 C1.49722954,16.4941183 1.13617394,16.3818152 0.882964609,16.1729644 C0.632907275,15.9667135 0.500220087,15.6687277 0.500018954,15.3406579 L0.500013443,2.38951381 C0.498527556,2.07303149 0.62019558,1.76858823 0.839480214,1.54405162 C1.04692372,1.33163975 1.32578759,1.20774382 1.61908593,1.19821898 Z" id="形状"></path>
                                <path d="M15.3787085,8.39603319 C15.5831322,8.33502348 15.6358907,8.36021814 15.6743247,8.39941633 C15.7159717,8.44189135 15.7411178,8.50060352 15.7415437,8.56168374 L15.7415603,9.76879419 C15.7410355,9.83319585 15.7158617,9.89182147 15.6742251,9.93422495 C15.6358056,9.97335214 15.5830989,9.99849065 15.523522,9.99899488 C15.4689855,9.99954606 15.4169536,9.97700217 15.3785207,9.93791609 C15.3366267,9.89531015 15.3140875,9.83714068 15.3146079,9.7728686 L15.3145905,8.55751122 C15.3140872,8.49720519 15.3366926,8.43882302 15.3787085,8.39603319 Z" id="路径"></path>
                            </g>
                        </g>
                    </g>
                </g>
            </g>
        </g>
    </g>
</svg>