<?xml version="1.0" encoding="UTF-8"?>
<svg width="24px" height="24px" viewBox="0 0 24 24" version="1.1" xmlns="http://www.w3.org/2000/svg" xmlns:xlink="http://www.w3.org/1999/xlink">
    <title>课程备份 15</title>
    <g id="页面-1" stroke="none" stroke-width="1" fill="none" fill-rule="evenodd">
        <g id="管理员工作台-其他状态及切图" transform="translate(-114.000000, -323.000000)" fill="#FFFFFF" fill-rule="nonzero">
            <g id="编组-50" transform="translate(90.000000, 234.000000)">
                <g id="编组-74" transform="translate(15.000000, 16.000000)">
                    <g id="编组-16备份" transform="translate(2.000000, 67.000000)">
                        <g id="编组-57" transform="translate(7.000000, 6.000000)">
                            <path d="M6.91737155,4.05559184 L4.93024607,3.71694822 C4.83926771,3.70094123 4.74691867,3.69446677 4.65464475,3.69762621 C4.21433647,3.69789145 3.79226873,3.8767692 3.48176809,4.19470647 C3.17126745,4.51264375 2.99791365,4.94344815 3.00001895,5.39186128 L3.00001895,18.3406579 C3.00058911,19.2710709 3.74105908,20.0251795 4.65464475,20.025821 C4.76959589,20.0269753 4.88426943,20.0139991 4.99615073,19.9870965 L6.99326177,19.5609953 C7.71057009,19.3963498 8.22244658,18.7508247 8.22951352,18.0020143 L8.22951352,5.62474234 C8.2349565,4.8425996 7.67643671,4.17466248 6.91737155,4.05559184 Z M19.1267099,4.23050687 L12.1667779,3.02949149 C12.0408502,3.01010864 11.9136858,3.00025118 11.7863282,3 C10.5532395,3.00279627 9.5543067,4.0201283 9.551561,5.27592923 L9.551561,18.7138778 C9.55264157,19.9720346 10.5509433,20.9932668 11.7863282,20.9999885 C11.9432689,21.0005475 12.0996401,20.9807266 12.2516551,20.9409935 L19.2225712,19.4399785 C20.2518568,19.209474 20.9887958,18.2860904 21,17.2128628 L21,6.47694461 C20.9998151,5.36204554 20.2069618,4.41126092 19.1267099,4.23050687 L19.1267099,4.23050687 Z M19.2415437,12.7728686 C19.2382871,13.1725011 18.9209799,13.4956527 18.5285751,13.4989693 C18.3388217,13.5008871 18.1562774,13.4250365 18.022001,13.2884781 C17.8877246,13.1519198 17.8129904,12.9661195 17.8146079,12.7728686 L17.8146079,11.5616837 C17.8129944,11.3683411 17.8876975,11.1824396 18.0219437,11.0457207 C18.1561898,10.9090019 18.3387292,10.8329228 18.5285751,10.83454 C18.9213657,10.8378902 19.2388295,11.1616541 19.2415437,11.5616837 L19.2415437,12.7728686 Z" id="形状"></path>
                        </g>
                    </g>
                </g>
            </g>
        </g>
    </g>
</svg>