<?xml version="1.0" encoding="UTF-8"?>
<svg width="24px" height="24px" viewBox="0 0 24 24" version="1.1" xmlns="http://www.w3.org/2000/svg" xmlns:xlink="http://www.w3.org/1999/xlink">
    <title>我的备份 2</title>
    <g id="页面-1" stroke="none" stroke-width="1" fill="none" fill-rule="evenodd">
        <g id="管理员工作台" transform="translate(-47.000000, -227.000000)" fill="#979797" fill-rule="nonzero">
            <g id="编组-52" transform="translate(24.000000, 72.000000)">
                <g id="编组-73" transform="translate(14.000000, 16.000000)">
                    <g id="编组-70备份" transform="translate(7.000000, 139.000000)">
                        <g id="我的" transform="translate(2.000000, 0.000000)">
                            <path d="M12,4.08333333 C14.3011865,4.08333333 16.1666667,5.94881354 16.1666667,8.25 C16.1666667,10.5511865 14.3011865,12.4166667 12,12.4166667 C9.69881354,12.4166667 7.83333333,10.5511865 7.83333333,8.25 C7.83333333,5.94881354 9.69881354,4.08333333 12,4.08333333 Z M12,5.33333333 C10.3891695,5.33333333 9.08333333,6.63916948 9.08333333,8.25 C9.08333333,9.86083052 10.3891695,11.1666667 12,11.1666667 C13.6108305,11.1666667 14.9166667,9.86083052 14.9166667,8.25 C14.9166667,6.63916948 13.6108305,5.33333333 12,5.33333333 Z M12,13.25 C13.6251129,13.25 15.2502259,13.4769297 16.8753388,13.9307891 C18.4269614,14.3641172 19.5,15.7778936 19.5,17.3888889 L19.5,18.25 C19.5,19.1704746 18.7538079,19.9166667 17.8333333,19.9166667 L6.16666667,19.9166667 C5.24619208,19.9166667 4.5,19.1704746 4.5,18.25 L4.5,17.3888889 C4.5,15.7778936 5.57303857,14.3641172 7.12466117,13.9307891 C8.74977411,13.4769297 10.3748871,13.25 12,13.25 Z M12,14.5 C10.4896393,14.5 8.97756627,14.7111449 7.46088817,15.1347207 C6.48208907,15.408074 5.79545123,16.279966 5.75217054,17.2876817 L5.75,17.3888889 L5.75,18.25 C5.75,18.4636816 5.91085008,18.6397947 6.11807453,18.6638634 L6.16666667,18.6666667 L17.8333333,18.6666667 C18.0470149,18.6666667 18.223128,18.5058166 18.2471968,18.2985921 L18.25,18.25 L18.25,17.3888889 C18.25,16.3387572 17.5505376,15.4171858 16.5391068,15.1347193 C15.0224337,14.7111449 13.5103607,14.5 12,14.5 Z"></path>
                        </g>
                    </g>
                </g>
            </g>
        </g>
    </g>
</svg>