<?xml version="1.0" encoding="UTF-8"?>
<svg width="24px" height="24px" viewBox="0 0 24 24" version="1.1" xmlns="http://www.w3.org/2000/svg" xmlns:xlink="http://www.w3.org/1999/xlink">
    <title>我的_面备份</title>
    <g id="页面-1" stroke="none" stroke-width="1" fill="none" fill-rule="evenodd">
        <g id="管理员工作台-其他状态及切图" transform="translate(-114.000000, -391.000000)" fill="#FFFFFF" fill-rule="nonzero">
            <g id="编组-50" transform="translate(90.000000, 234.000000)">
                <g id="编组-74" transform="translate(15.000000, 16.000000)">
                    <g id="编组-4备份-7" transform="translate(2.000000, 134.000000)">
                        <g id="我的_面" transform="translate(7.000000, 7.000000)">
                            <path d="M12,4.08333333 C14.3011865,4.08333333 16.1666667,5.94881354 16.1666667,8.25 C16.1666667,10.5511865 14.3011865,12.4166667 12,12.4166667 C9.69881354,12.4166667 7.83333333,10.5511865 7.83333333,8.25 C7.83333333,5.94881354 9.69881354,4.08333333 12,4.08333333 Z M12,13.25 C13.6251129,13.25 15.2502259,13.4769297 16.8753388,13.9307891 C18.4269614,14.3641172 19.5,15.7778936 19.5,17.3888889 L19.5,18.25 C19.5,19.1704746 18.7538079,19.9166667 17.8333333,19.9166667 L6.16666667,19.9166667 C5.24619208,19.9166667 4.5,19.1704746 4.5,18.25 L4.5,17.3888889 C4.5,15.7778936 5.57303857,14.3641172 7.12466117,13.9307891 C8.74977411,13.4769297 10.3748871,13.25 12,13.25 Z"></path>
                        </g>
                    </g>
                </g>
            </g>
        </g>
    </g>
</svg>