<?xml version="1.0" encoding="UTF-8"?>
<svg width="24px" height="24px" viewBox="0 0 24 24" version="1.1" xmlns="http://www.w3.org/2000/svg" xmlns:xlink="http://www.w3.org/1999/xlink">
    <title>我的</title>
    <g id="页面-1" stroke="none" stroke-width="1" fill="none" fill-rule="evenodd">
        <g id="管理员工作台" transform="translate(-47.000000, -293.000000)">
            <g id="编组-52" transform="translate(24.000000, 72.000000)">
                <g id="编组-73" transform="translate(14.000000, 16.000000)">
                    <g id="编组-70" transform="translate(0.000000, 205.000000)">
                        <g id="我的" transform="translate(9.000000, 0.000000)">
                            <g id="编组-47" transform="translate(3.000000, 4.000000)">
                                <path d="M15.3853315,8.5137952 C15.7846827,8.5137952 16.1536984,8.73329604 16.3533739,9.08961388 L17.814764,11.6974407 C18.0144396,12.0537586 18.0144396,12.4927602 17.814764,12.8490781 L16.3533739,15.4569049 C16.1536984,15.8132227 15.7846827,16.0327236 15.3853315,16.0327236 L12.4625514,16.0327236 C12.0632002,16.0327236 11.6941845,15.8132227 11.494509,15.4569049 L10.0331189,12.8490781 C9.83344333,12.4927602 9.83344333,12.0537586 10.0331189,11.6974407 L11.494509,9.08961388 C11.6941845,8.73329604 12.0632002,8.5137952 12.4625514,8.5137952 L15.3853315,8.5137952 Z M15.0842699,0 C16.4940997,0 17.6369925,1.11933666 17.6369925,2.5001084 L17.6368829,7.36071847 C17.3173488,7.05786036 16.8845667,6.88189859 16.4259994,6.88189859 L11.4278171,6.88189859 C10.8083327,6.88189859 10.2359054,7.20302271 9.92616318,7.7243066 L7.65921492,11.5394906 C7.34947269,12.0607745 7.34947269,12.7030227 7.65921492,13.2243066 L8.445,14.546 L2.5527226,14.5460852 C1.19928603,14.5460852 0.0918585261,13.5145045 0.00542982444,12.2103596 L0,12.0459768 L0,2.5001084 C0,1.11933666 1.14289284,0 2.5527226,0 L15.0842699,0 Z M13.9239415,11.0610856 C13.2318432,11.0610856 12.6707867,11.6037943 12.6707867,12.2732594 C12.6707867,12.9427245 13.2318432,13.4854332 13.9239415,13.4854332 C14.6160397,13.4854332 15.1770962,12.9427245 15.1770962,12.2732594 C15.1770962,11.6037943 14.6160397,11.0610856 13.9239415,11.0610856 Z" id="形状结合" stroke="#999999" stroke-linejoin="round"></path>
                                <rect id="矩形" fill="#999999" x="3.24891967" y="4.09108646" width="8.35436487" height="1.36369549" rx="0.681847744"></rect>
                                <rect id="矩形备份" fill="#999999" x="3.24891967" y="7.2730426" width="4.64131382" height="1.36369549" rx="0.681847744"></rect>
                            </g>
                        </g>
                    </g>
                </g>
            </g>
        </g>
    </g>
</svg>