<?xml version="1.0" encoding="UTF-8"?>
<svg width="24px" height="24px" viewBox="0 0 24 24" version="1.1" xmlns="http://www.w3.org/2000/svg" xmlns:xlink="http://www.w3.org/1999/xlink">
    <title>我的_面</title>
    <g id="页面-1" stroke="none" stroke-width="1" fill="none" fill-rule="evenodd">
        <g id="管理员工作台-其他状态及切图" transform="translate(-114.000000, -458.000000)" fill="#FFFFFF" fill-rule="nonzero">
            <g id="编组-50" transform="translate(90.000000, 234.000000)">
                <g id="编组-74" transform="translate(15.000000, 16.000000)">
                    <g id="编组-4备份-5" transform="translate(0.000000, 201.000000)">
                        <g id="我的_面" transform="translate(9.000000, 7.000000)">
                            <path d="M18.3853315,12.5137952 C18.7846827,12.5137952 19.1536984,12.733296 19.3533739,13.0896139 L20.814764,15.6974407 C21.0144396,16.0537586 21.0144396,16.4927602 20.814764,16.8490781 L19.3533739,19.4569049 C19.1536984,19.8132227 18.7846827,20.0327236 18.3853315,20.0327236 L15.4625514,20.0327236 C15.0632002,20.0327236 14.6941845,19.8132227 14.494509,19.4569049 L13.0331189,16.8490781 C12.8334433,16.4927602 12.8334433,16.0537586 13.0331189,15.6974407 L14.494509,13.0896139 C14.6941845,12.733296 15.0632002,12.5137952 15.4625514,12.5137952 L18.3853315,12.5137952 Z M18.0842699,4 C19.4940997,4 20.6369925,5.11933666 20.6369925,6.5001084 L20.636,12.526 L20.3073612,11.9507494 C20.045413,11.4924061 19.5613128,11.210055 19.0374163,11.210055 L14.8104666,11.210055 C14.2865701,11.210055 13.8024699,11.4924061 13.5405217,11.9507494 L11.6233694,15.3052824 C11.3614212,15.7636257 11.3614212,16.3283279 11.6233694,16.7866712 L12.629,18.546 L5.5527226,18.5460852 C4.19928603,18.5460852 3.09185853,17.5145045 3.00542982,16.2103596 L3,16.0459768 L3,6.5001084 C3,5.11933666 4.14289284,4 5.5527226,4 L18.0842699,4 Z M16.9239415,15.0610856 C16.2318432,15.0610856 15.6707867,15.6037943 15.6707867,16.2732594 C15.6707867,16.9427245 16.2318432,17.4854332 16.9239415,17.4854332 C17.6160397,17.4854332 18.1770962,16.9427245 18.1770962,16.2732594 C18.1770962,15.6037943 17.6160397,15.0610856 16.9239415,15.0610856 Z M10.2083857,11.2730426 L6.93076742,11.2730426 C6.55419331,11.2730426 6.24891967,11.5783162 6.24891967,11.9548903 C6.24891967,12.3314645 6.55419331,12.6367381 6.93076742,12.6367381 L10.2083857,12.6367381 C10.5849599,12.6367381 10.8902335,12.3314645 10.8902335,11.9548903 C10.8902335,11.5783162 10.5849599,11.2730426 10.2083857,11.2730426 Z M13.9214368,8.09108646 L6.93076742,8.09108646 C6.55419331,8.09108646 6.24891967,8.3963601 6.24891967,8.77293421 C6.24891967,9.14950832 6.55419331,9.45478195 6.93076742,9.45478195 L13.9214368,9.45478195 C14.2980109,9.45478195 14.6032845,9.14950832 14.6032845,8.77293421 C14.6032845,8.3963601 14.2980109,8.09108646 13.9214368,8.09108646 Z" id="形状结合"></path>
                        </g>
                    </g>
                </g>
            </g>
        </g>
    </g>
</svg>