<?xml version="1.0" encoding="UTF-8"?>
<svg width="24px" height="24px" viewBox="0 0 24 24" version="1.1" xmlns="http://www.w3.org/2000/svg" xmlns:xlink="http://www.w3.org/1999/xlink">
    <title>我的</title>
    <g id="页面-1" stroke="none" stroke-width="1" fill="none" fill-rule="evenodd">
        <g id="管理员工作台-其他状态及切图" transform="translate(-114.000000, -525.000000)" fill-rule="nonzero">
            <g id="编组-50" transform="translate(90.000000, 234.000000)">
                <g id="编组-74" transform="translate(15.000000, 16.000000)">
                    <g id="编组-4备份-6" transform="translate(2.000000, 268.000000)">
                        <g id="我的_面" transform="translate(7.000000, 7.000000)">
                            <path d="M19.9453125,3 L4.0546875,3 C3.47460938,3 3,3.47460938 3,4.0546875 L3,15.8496094 C3,16.4296875 3.47460938,16.9042969 4.0546875,16.9042969 L19.9453125,16.9042969 C20.5253906,16.9042969 21,16.4296875 21,15.8496094 L21,4.0546875 C21,3.47460938 20.5253906,3 19.9453125,3 Z M19.875,20.1474609 C19.875,20.6164453 19.4914453,21 19.0224609,21 L4.98632812,21 C4.51751953,21 4.13378906,20.6162695 4.13378906,20.1474609 C4.13378906,19.6786523 4.51734375,19.2949219 4.98632812,19.2949219 L19.0224609,19.2949219 C19.4914453,19.2949219 19.875,19.6784766 19.875,20.1474609 Z" id="形状" fill="#FFFFFF"></path>
                            <path d="M14.538358,7.70295994 L15.80299,9.79704024 C16.06567,10.2320333 16.06567,10.7679668 15.80299,11.2029599 L14.538358,13.2970402 C14.2756709,13.7320451 13.7901997,14.0000001 13.2648255,14.0000001 L10.7355614,14.0000001 C10.2103255,13.9998815 9.72503392,13.7319306 9.46241596,13.2970402 L8.19700996,11.2029599 C7.93433001,10.7679668 7.93433001,10.2320333 8.19700996,9.79704024 L9.46164201,7.70295994 C9.72439822,7.26784055 10.210049,6.99985423 10.7355614,7.00000006 L13.2648255,7.00000006 C13.7900615,7.0001186 14.275353,7.2680695 14.537971,7.70295994 L14.538358,7.70295994 Z M13.2648255,7.59196628 L10.7355614,7.59196628 C10.4314411,7.59196628 10.1504356,7.74713423 9.99837538,7.99894302 L8.73374333,10.0930233 C8.58166547,10.3448614 8.58166547,10.6551387 8.73374333,10.9069768 L9.99837538,13.0010571 C10.1504356,13.2528659 10.4314411,13.4080338 10.7355614,13.4080338 L13.2648255,13.4080338 C13.5689459,13.4080338 13.8499514,13.2528659 14.0020116,13.0010571 L15.2666436,10.9069768 C15.4187215,10.6551387 15.4187215,10.3448614 15.2666436,10.0930233 L14.0020116,7.99894302 C13.8499514,7.74713423 13.5689459,7.59196628 13.2648255,7.59196628 L13.2648255,7.59196628 Z M12.0001935,11.9059197 C11.1880574,11.9059197 10.5296911,11.276468 10.5296911,10.5000001 C10.5296911,9.72353208 11.1880574,9.09408042 12.0001935,9.09408042 C12.8123295,9.09408042 13.4706959,9.72353208 13.4706959,10.5000001 C13.4706959,11.276468 12.8123295,11.9059197 12.0001935,11.9059197 Z M12.0001935,11.3139535 C12.4703775,11.3139535 12.851537,10.9495342 12.851537,10.5000001 C12.851537,10.050466 12.4703775,9.68604658 12.0001935,9.68604658 C11.5300095,9.68604658 11.14885,10.050466 11.14885,10.5000001 C11.14885,10.9495341 11.5300095,11.3139535 12.0001935,11.3139535 L12.0001935,11.3139535 Z" id="形状" stroke="#FF2739" stroke-width="0.571428571" fill="#FF2739"></path>
                        </g>
                    </g>
                </g>
            </g>
        </g>
    </g>
</svg>