<?xml version="1.0" encoding="UTF-8"?>
<svg width="24px" height="24px" viewBox="0 0 24 24" version="1.1" xmlns="http://www.w3.org/2000/svg" xmlns:xlink="http://www.w3.org/1999/xlink">
    <title>客资中心</title>
    <g id="页面-1" stroke="none" stroke-width="1" fill="none" fill-rule="evenodd">
        <g id="管理员工作台" transform="translate(-682.000000, -294.000000)" fill="#FF6900" fill-rule="nonzero">
            <g id="总销售额" transform="translate(112.000000, 272.000000)">
                <g id="编组-3" transform="translate(30.000000, 22.000000)">
                    <g id="客资中心" transform="translate(540.000000, 0.000000)">
                        <path d="M10.4210844,3.5 C12.7464875,3.5 14.6315992,5.71619049 14.6315992,8.45 C14.6315992,10.4153215 13.657355,12.1131325 12.2456635,12.9123594 C12.2168497,13.0695464 12.2220429,13.2282566 12.2603571,13.3884104 C12.4067214,14.0002148 12.9161178,14.406145 13.7885463,14.6062008 L15.192994,15.053013 C15.427045,15.1254682 15.6610889,15.1953679 15.8951329,15.260389 L16.1588293,15.3356344 L16.4135065,15.4130727 C17.8717679,15.8730113 18.8421106,16.4926276 18.8421106,18.1074359 C18.831224,19.3691453 18.0514998,20 16.5029381,20 L4.33922452,20 C2.81868418,20 2.03894267,19.3691453 2,18.1074359 C2,16.5387649 2.91572618,15.9092304 4.30486607,15.4529065 L4.55483271,15.3740209 L4.81408782,15.297796 C4.85804104,15.2852616 4.90235877,15.2727991 4.94702976,15.260389 C5.62608499,15.0717367 6.30514021,14.8420155 6.98419544,14.6279203 C7.91518787,14.3617516 8.44724309,13.9504499 8.58036109,13.3940151 C8.61877274,13.2334539 8.62218118,13.0715007 8.59058641,12.9081555 C7.18179122,12.1078603 6.21056968,10.4122704 6.21056968,8.45 C6.21056968,5.71619049 8.09568135,3.5 10.4210844,3.5 Z M15.1579372,4.05 C17.0473214,4.05 18.57897,5.82295239 18.57897,8.01 C18.57897,9.58194047 17.7877179,10.9399587 16.6410964,11.579501 C16.6169788,11.7052361 16.6211623,11.832403 16.6523417,11.9607283 C16.8463012,12.7590106 17.7985917,12.9048018 18.035828,12.978951 L18.8207079,13.226286 C19.0823346,13.3077914 19.3439613,13.3867452 19.6055879,13.4583112 L19.8580212,13.5296188 L20.100108,13.6035668 C21.2440233,13.969353 22,14.4709456 22,15.7359487 C21.9911547,16.7453162 21.3576307,17.2500528 20.0994282,17.2500528 L19.8758598,17.2500528 C19.7588428,16.345209 19.4142608,15.7069264 18.8421139,15.3352051 C18.4112055,15.0552473 17.9771718,14.8288174 17.4791827,14.6156138 L17.2008439,14.5003904 C17.1532751,14.4813243 17.1050864,14.4623071 17.056232,14.4433082 L16.7547519,14.3292948 L16.435102,14.2142713 L16.0950888,14.0967842 L15.345197,13.848606 L13.6864629,13.3152577 L13.8006881,13.226286 C14.9352617,12.3034149 15.7919707,10.7672913 15.7919707,8.65490723 L15.7944163,8.45947073 C15.7919707,6.25 15.1626396,5.20797806 14.2797164,4.19931641 C14.5724038,4.1050739 14.8391996,4.05 15.1579372,4.05 Z" id="形状"></path>
                    </g>
                </g>
            </g>
        </g>
    </g>
</svg>