<?xml version="1.0" encoding="UTF-8"?>
<svg width="24px" height="24px" viewBox="0 0 24 24" version="1.1" xmlns="http://www.w3.org/2000/svg" xmlns:xlink="http://www.w3.org/1999/xlink">
    <title>客资中心</title>
    <g id="页面-1" stroke="none" stroke-width="1" fill="none" fill-rule="evenodd">
        <g id="管理员工作台" transform="translate(-1002.000000, -494.000000)">
            <g id="总销售额备份-3" transform="translate(752.000000, 472.000000)">
                <g id="编组-3" transform="translate(30.000000, 16.000000)">
                    <g id="客资中心" transform="translate(220.000000, 6.000000)">
                        <g id="编组-5" transform="translate(3.750000, 4.062500)">
                            <path d="M15.75,0 L0.75,0 C0.33515625,0 0,0.33515625 0,0.75 L0,15.6875 C0,16.1023437 0.33515625,16.4375 0.75,16.4375 L15.75,16.4375 C16.1648438,16.4375 16.5,16.1023437 16.5,15.6875 L16.5,0.75 C16.5,0.33515625 16.1648438,0 15.75,0 Z M3.375,4.9375 C3.375,5.45526695 3.79473305,5.875 4.3125,5.875 C4.83026695,5.875 5.25,5.45526695 5.25,4.9375 C5.25,4.41973305 4.83026695,4 4.3125,4 C3.79473305,4 3.375,4.41973305 3.375,4.9375 L3.375,4.9375 Z M3.375,11.3125 C3.375,11.830267 3.79473305,12.25 4.3125,12.25 C4.83026695,12.25 5.25,11.830267 5.25,11.3125 C5.25,10.794733 4.83026695,10.375 4.3125,10.375 C3.79473305,10.375 3.375,10.794733 3.375,11.3125 L3.375,11.3125 Z" id="形状" fill-opacity="0.9" fill="#FF3C4C" fill-rule="nonzero"></path>
                            <polygon id="矩形" fill="#E8FDFC" points="-3.39680541e-14 7.9375 16.5 7.9375 16.5 8.9375 -3.39680541e-14 8.9375"></polygon>
                            <circle id="椭圆形" fill="#E8FDFC" cx="3.25" cy="4.9375" r="1"></circle>
                            <circle id="椭圆形备份-14" fill="#E8FDFC" cx="3.25" cy="11.9375" r="1"></circle>
                        </g>
                    </g>
                </g>
            </g>
        </g>
    </g>
</svg>