<?xml version="1.0" encoding="UTF-8"?>
<svg width="24px" height="24px" viewBox="0 0 24 24" version="1.1" xmlns="http://www.w3.org/2000/svg" xmlns:xlink="http://www.w3.org/1999/xlink">
    <title>矩形</title>
    <g id="页面-1" stroke="none" stroke-width="1" fill="none" fill-rule="evenodd">
        <g id="管理员工作台" transform="translate(-682.000000, -494.000000)">
            <g id="总销售额备份-4" transform="translate(432.000000, 472.000000)">
                <g id="编组-3" transform="translate(30.000000, 16.000000)">
                    <g id="博士帽1" transform="translate(220.000000, 6.000000)">
                        <rect id="矩形" fill="#000000" fill-rule="nonzero" opacity="0" x="0" y="0" width="24" height="24"></rect>
                        <g id="编组-28" transform="translate(2.000000, 4.000000)" fill="#1BCBC3">
                            <path d="M9.46501928,9.10543955 L0.963193858,5.14334912 C0.712897089,5.02670377 0.60455121,4.7292384 0.721196563,4.47894163 C0.770350025,4.37346848 0.854752037,4.28844224 0.959860132,4.23851292 L9.45842974,0.201452153 C9.72708453,0.0738335334 10.0386051,0.0724255305 10.3084025,0.197610467 L19.0131389,4.23657397 C19.2636303,4.35280095 19.372473,4.65008487 19.256246,4.90057619 C19.205969,5.00893282 19.1185603,5.09570942 19.0098416,5.14519871 L10.3017299,9.10917496 C10.0356854,9.23027973 9.72997181,9.2289149 9.46501928,9.10543955 Z" id="路径-2" stroke="#1BCBC3"></path>
                            <path d="M18.797465,4.69447362 L19.797465,4.69447362 L19.797465,10.9237789 C19.797465,11.1999213 19.5736074,11.4237789 19.297465,11.4237789 C19.0213226,11.4237789 18.797465,11.1999213 18.797465,10.9237789 L18.797465,4.69447362 L18.797465,4.69447362 Z" id="矩形"></path>
                            <path d="M9.52120135,12.6707279 L3.17477077,9.80791996 L3.17477077,9.80791996 L3.17477077,13.3108922 C3.17477077,13.706308 3.38067374,14.0731906 3.71819664,14.2791808 L3.93627886,14.4122764 L3.93627886,14.4122764 C5.65237898,15.3612347 7.65336203,15.8357139 9.93922801,15.8357139 C12.2251723,15.8357139 14.1713566,15.3612022 15.7777807,14.4121788 L15.9115387,14.3243474 C16.2696954,14.0891658 16.4853948,13.6894825 16.4853948,13.2610125 L16.4853948,13.2610125 L16.4853948,13.2610125 L16.4853948,9.80791996 L10.3548789,12.6655473 C10.0909909,12.7885538 9.78659764,12.7904453 9.52120135,12.6707279 Z" id="路径-6" stroke="#1BCBC3" stroke-linecap="round" stroke-linejoin="round"></path>
                        </g>
                    </g>
                </g>
            </g>
        </g>
    </g>
</svg>