<?xml version="1.0" encoding="UTF-8"?>
<svg width="24px" height="24px" viewBox="0 0 24 24" version="1.1" xmlns="http://www.w3.org/2000/svg" xmlns:xlink="http://www.w3.org/1999/xlink">
    <title>矩形</title>
    <g id="页面-1" stroke="none" stroke-width="1" fill="none" fill-rule="evenodd">
        <g id="管理员工作台" transform="translate(-362.000000, -694.000000)">
            <g id="总销售额备份-5" transform="translate(112.000000, 672.000000)">
                <g id="编组-3" transform="translate(30.000000, 22.000000)">
                    <g id="database" transform="translate(220.000000, 0.000000)">
                        <rect id="矩形" fill="#000000" fill-rule="nonzero" opacity="0" x="0" y="0" width="24" height="24"></rect>
                        <path d="M20,15 L20,18 L20,18 C20,19.1045695 19.1045695,20 18,20 L7,20 C5.8954305,20 5,19.1045695 5,18 L5,15 C5,13.8954305 5.8954305,13 7,13 L18,13 C19.1045695,13 20,13.8954305 20,15 Z M6.75,11 L6.75,7 C6.75,5.8954305 7.6454305,5 8.75,5 L11.25,5 C12.3545695,5 13.25,5.8954305 13.25,7 L13.25,11 L6.75,11 Z" id="形状结合" stroke="#FF6900" fill="#FF6900" stroke-linecap="round"></path>
                    </g>
                </g>
            </g>
        </g>
    </g>
</svg>