<?xml version="1.0" encoding="UTF-8"?>
<svg width="24px" height="24px" viewBox="0 0 24 24" version="1.1" xmlns="http://www.w3.org/2000/svg" xmlns:xlink="http://www.w3.org/1999/xlink">
    <title>客资中心</title>
    <g id="页面-1" stroke="none" stroke-width="1" fill="none" fill-rule="evenodd">
        <g id="管理员工作台" transform="translate(-1002.000000, -294.000000)" fill="#A175F6" fill-rule="nonzero">
            <g id="客资中心" transform="translate(1002.000000, 294.000000)">
                <path d="M5.99690721,17.9925788 L20,17.9925788 C20.5522847,17.9925788 21,17.5448636 21,16.9925788 L21,3 C21,2.44771525 20.5522847,2 20,2 L4.8556701,2 L4.8556701,2 C3.8308118,2 3,2.83064054 3,3.85528757 L3,19.2170686 C3,20.7540392 4.24621771,22 5.78350516,22 L20,22 C20.5522847,22 21,21.5522847 21,21 L21,20.9962894 C21,20.4440047 20.5522847,19.9962894 20,19.9962894 L5.99690721,19.9962894 L5.99690721,19.9962894 C5.44348373,19.9962894 4.99484535,19.5477435 4.99484535,18.9944341 C4.99484535,18.4411247 5.44348373,17.9925788 5.99690721,17.9925788 Z M10.914433,6.97217068 L12,4.78293134 L13.085567,6.98144711 L15.5072165,7.33395176 L13.7536082,9.04081633 L14.171134,11.4526902 L12,10.3487941 L9.83814432,11.4897959 L10.2556701,9.07792208 L8.4927835,7.32467532 L10.914433,6.97217068 Z M8.42783505,13.3079777 L15.3865979,13.3079777 C15.7709198,13.3079777 16.0824742,13.6194679 16.0824742,14.0037106 C16.0824742,14.3879532 15.7709198,14.6994434 15.3865979,14.6994434 L8.42783505,14.6994434 C8.04351319,14.6994434 7.73195876,14.3879532 7.73195876,14.0037106 C7.73195876,13.6194679 8.04351319,13.3079777 8.42783505,13.3079777 Z" id="形状"></path>
            </g>
        </g>
    </g>
</svg>