<?xml version="1.0" encoding="UTF-8"?>
<svg width="24px" height="24px" viewBox="0 0 24 24" version="1.1" xmlns="http://www.w3.org/2000/svg" xmlns:xlink="http://www.w3.org/1999/xlink">
    <title>客资中心</title>
    <g id="页面-1" stroke="none" stroke-width="1" fill="none" fill-rule="evenodd">
        <g id="管理员工作台" transform="translate(-1002.000000, -694.000000)">
            <g id="总销售额备份-7" transform="translate(752.000000, 672.000000)">
                <g id="编组-3" transform="translate(30.000000, 16.000000)">
                    <g id="客资中心" transform="translate(220.000000, 6.000000)">
                        <g id="编组-17" transform="translate(5.000000, 5.000000)">
                            <path d="M0.612549681,7.75414827 L0.612549681,0 L13.4494477,0 L13.4494477,7.75414827 L9.97287194,7.75414827 C9.42058719,7.75414827 8.97287194,8.20186352 8.97287194,8.75414827 L8.97287194,10.0488592 L8.97287194,10.0488592 L5.38545638,10.0488592 L5.38545638,8.75414827 C5.38545638,8.20186352 4.93774113,7.75414827 4.38545638,7.75414827 L0.612549681,7.75414827 L0.612549681,7.75414827 Z M0,13.6229157 L0,9.49763407 L0,9.49763407 L3.6844514,9.49763407 L3.6844514,10.7234114 C3.6844514,11.2309599 4.09875948,11.6427445 4.60941828,11.6427445 L9.61760809,11.6427445 C10.1282669,11.6427445 10.542575,11.2309599 10.542575,10.7234114 L10.542575,9.49763407 L14.2270264,9.49763407 L14.2270264,13.6229157 C14.2270264,14.1752005 13.7793111,14.6229157 13.2270264,14.6229157 L1,14.6229157 C0.44771525,14.6229157 6.76353751e-17,14.1752005 0,13.6229157 Z" id="形状" stroke="#6A81FF" fill="#6A81FF" fill-rule="nonzero" stroke-linejoin="round"></path>
                            <path d="" id="矩形备份-26" stroke="#FBFAFF" fill="#D8D8D8"></path>
                        </g>
                    </g>
                </g>
            </g>
        </g>
    </g>
</svg>