<?xml version="1.0" encoding="UTF-8"?>
<svg width="24px" height="24px" viewBox="0 0 24 24" version="1.1" xmlns="http://www.w3.org/2000/svg" xmlns:xlink="http://www.w3.org/1999/xlink">
    <title>hover备份 4</title>
    <g id="页面-1" stroke="none" stroke-width="1" fill="none" fill-rule="evenodd">
        <g id="教师-课程内容" transform="translate(-1302.000000, -285.000000)">
            <g id="编组-16" transform="translate(1016.000000, 285.000000)">
                <g id="hover备份-4" transform="translate(286.000000, 0.000000)">
                    <rect id="矩形" fill="#FFFFFF" x="0" y="0" width="24" height="24" rx="4"></rect>
                    <path d="M19.5,4 C19.7761424,4 20,4.22385763 20,4.5 L20,8.5 C20,8.77614237 19.7761424,9 19.5,9 C19.2238576,9 19,8.77614237 19,8.5 L18.9994661,5.707 L15.0251263,9.68198052 C14.8298641,9.87724266 14.5132816,9.87724266 14.3180195,9.68198052 C14.1227573,9.48671837 14.1227573,9.17013588 14.3180195,8.97487373 L18.2924661,5 L15.5,5 C15.2238576,5 15,4.77614237 15,4.5 C15,4.22385763 15.2238576,4 15.5,4 L19.5,4 Z" id="形状结合备份-4" fill="#666666" fill-rule="nonzero"></path>
                    <path d="M9.29289322,14.2071068 C9.56903559,14.2071068 9.79289322,14.4309644 9.79289322,14.7071068 L9.79289322,18.7071068 C9.79289322,18.9832492 9.56903559,19.2071068 9.29289322,19.2071068 C9.01675084,19.2071068 8.79289322,18.9832492 8.79289322,18.7071068 L8.79246609,15.9141068 L4.81801948,19.8890873 C4.62275734,20.0843494 4.30617485,20.0843494 4.1109127,19.8890873 C3.91565056,19.6938252 3.91565056,19.3772427 4.1109127,19.1819805 L8.08546609,15.2071068 L5.29289322,15.2071068 C5.01675084,15.2071068 4.79289322,14.9832492 4.79289322,14.7071068 C4.79289322,14.4309644 5.01675084,14.2071068 5.29289322,14.2071068 L9.29289322,14.2071068 Z" id="形状结合备份" fill="#666666" fill-rule="nonzero" transform="translate(6.878680, 17.121320) scale(-1, -1) translate(-6.878680, -17.121320) "></path>
                </g>
            </g>
        </g>
    </g>
</svg>