<?xml version="1.0" encoding="UTF-8"?>
<svg width="18px" height="18px" viewBox="0 0 18 18" version="1.1" xmlns="http://www.w3.org/2000/svg" xmlns:xlink="http://www.w3.org/1999/xlink">
    <title>日历备份 11</title>
    <g id="教师端" stroke="none" stroke-width="1" fill="none" fill-rule="evenodd">
        <g id="其他状态补充" transform="translate(-123.000000, -262.000000)" fill-rule="nonzero">
            <g id="编组-14" transform="translate(123.000000, 262.000000)">
                <path d="M15.3966984,5.12491511 C15.0981428,5.12491511 14.8678769,5.35702346 14.8678769,5.63886277 C14.8678769,5.92070208 15.1152623,6.15271901 15.4051641,6.15271901 C15.6952539,6.15271901 15.9339855,6.38482735 15.9339855,6.66666667 L15.9339855,12.3777752 C15.9339855,12.6679334 15.6952539,12.8916314 15.4051641,12.8916314 L14.8678769,12.8916314 C14.5693214,12.8916314 14.3390555,13.1238312 14.3390555,13.4055791 L14.3390555,13.413898 L14.3390555,14.2179126 L13.1194363,13.0409157 C13.0170959,12.9414538 12.8807048,12.8916314 12.7356598,12.8916314 C12.7356598,12.8916314 12.7356598,12.8916314 12.7271942,12.8916314 L10.0661556,12.8916314 C9.76760004,12.8916314 9.53733414,13.1238312 9.53733414,13.4055791 C9.53733414,13.6874184 9.77615977,13.9195267 10.0661556,13.9195267 L12.5138596,13.9195267 L14.4754467,15.8424881 C14.5778811,15.9420415 14.7142723,16 14.8506634,16 C14.9190471,16 14.9871487,15.9834535 15.0554383,15.958588 C15.2515594,15.8756726 15.3880446,15.6933866 15.3880446,15.4779162 L15.3966043,13.9195267 L15.40507,13.9195267 C16.2836172,13.9195267 17,13.2232017 17,12.3611372 L17,6.6583477 C17.0000941,5.82114872 16.2837113,5.12491511 15.3966984,5.12491511 Z" id="路径备份-2" fill="#F32424"></path>
                <path d="M13.7933027,10.2972105 L13.7933027,3.55829807 C13.7933027,2.70455258 13.0768258,2 12.189813,2 L2.60339567,2 C1.72494253,2 1,2.69632503 1,3.55829807 L1,10.2888915 C1,11.1427284 1.71638281,11.847281 2.60339567,11.847281 L2.61195539,11.847281 L2.60339567,14.4417019 C2.60339567,14.6571723 2.73988089,14.8478687 2.93600198,14.9224651 C3.00429162,14.9473306 3.06392748,14.9556496 3.13221712,14.9556496 C3.277168,14.9556496 3.42221295,14.8975082 3.52445929,14.7899101 L6.35603384,11.8473724 L12.189813,11.8473724 C13.0768258,11.847281 13.7933027,11.150956 13.7933027,10.2972105 Z" id="形状备份" fill="#F32424"></path>
                <path d="M6.9604442,8.90136646 C7.15400846,8.90136646 7.32472816,8.96538635 7.44913362,9.09037822 C7.5944114,9.22112822 7.6684442,9.39880694 7.6684442,9.60136646 C7.6684442,9.79315831 7.59667833,9.9653964 7.44913362,10.1123547 C7.31287337,10.2349889 7.14518277,10.3013665 6.9604442,10.3013665 C6.76414484,10.3013665 6.58698829,10.2259807 6.47864236,10.1033485 C6.32917156,9.96746593 6.2524442,9.79939648 6.2524442,9.60136646 C6.2524442,9.42705403 6.30745981,9.272252 6.39859307,9.16852889 L6.45745596,9.11267704 C6.5873816,8.96831521 6.76219224,8.90136646 6.9604442,8.90136646 Z M7.0644442,4 C7.64959702,4 8.12552519,4.17048173 8.47843126,4.51389605 C8.82931818,4.84528926 9.0044442,5.29283353 9.0044442,5.836 C9.0044442,6.23093531 8.88309476,6.59741063 8.63622118,6.93523741 L8.55404521,7.02534195 L8.2846514,7.2907044 L7.96849952,7.58646638 C7.80270302,7.72463013 7.69050566,7.85002719 7.62470377,7.96798408 C7.58080275,8.04010719 7.54847586,7.99467858 7.52816875,8.07220943 L7.50677863,8.18815564 L7.5004442,8.30536646 L7.5004442,8.32700284 C7.5004442,8.49268826 7.36612963,8.62700284 7.2004442,8.62700284 L6.7124442,8.62700284 C6.54675878,8.62700284 6.4124442,8.49268826 6.4124442,8.32700284 L6.4124442,8.30536646 L6.4124442,8.30536646 C6.4124442,8.02688385 6.47115788,7.88775226 6.58458926,7.66113436 C6.72154167,7.36766491 6.995865,7.03937633 7.38507741,6.69920744 L7.66263981,6.42537553 L7.72737704,6.35343173 C7.85589169,6.17993696 7.9164442,6.01702188 7.9164442,5.852 C7.9164442,5.58790446 7.84322988,5.3887615 7.70831217,5.24813203 C7.56574804,5.10556791 7.34945839,5.032 7.0404442,5.032 C6.70125844,5.032 6.47381399,5.13150695 6.31766131,5.33965196 C6.21777976,5.46866564 6.14892999,5.63599327 6.11332777,5.83900444 L6.09289463,5.99791237 L6.08405498,6.1712768 C6.07592019,6.33081743 5.94419209,6.456 5.7844442,6.456 L5.3044442,6.456 C5.13875878,6.456 5.0044442,6.32168542 5.0044442,6.156 C5.0044442,6.15452951 5.00445501,6.15305904 5.00447664,6.15158871 L5.00447664,6.15158871 L5.00447664,6.15158871 C5.013389,5.54554791 5.1859718,5.04390725 5.52361711,4.64999442 C5.89286671,4.21446926 6.4147419,4 7.0644442,4 Z" id="形状结合" fill="#FFFFFF"></path>
            </g>
        </g>
    </g>
</svg>