<?xml version="1.0" encoding="UTF-8"?>
<svg width="18px" height="18px" viewBox="0 0 18 18" version="1.1" xmlns="http://www.w3.org/2000/svg" xmlns:xlink="http://www.w3.org/1999/xlink">
    <title>日历备份 12</title>
    <g id="教师端" stroke="none" stroke-width="1" fill="none" fill-rule="evenodd">
        <g id="其他状态补充" transform="translate(-146.000000, -262.000000)" fill="#666666" fill-rule="nonzero">
            <g id="编组-7" transform="translate(146.000000, 262.000000)">
                <path d="M15.3965994,5.12492093 C16.2835807,5.12492093 17,5.82117496 17,6.65839387 L17,6.65839387 L17,12.3611599 C17,13.2231972 16.2835991,13.9195405 15.4050687,13.9195405 L15.4050687,13.9195405 L15.3966178,13.9195405 L15.388075,15.4779211 C15.388075,15.6933411 15.2515739,15.8756402 15.055457,15.9585765 C14.9872065,15.9834842 14.9190478,16 14.8507054,16 C14.7142962,16 14.577887,15.9420607 14.4754653,15.8425193 L14.4754653,15.8425193 L12.5138367,13.9195405 L10.0660953,13.9195405 C9.77609945,13.9195405 9.53726853,13.687426 9.53726853,13.4055855 C9.53726853,13.1238343 9.76755666,12.8916306 10.0660953,12.8916306 L10.0660953,12.8916306 L12.7355636,12.8916306 C12.8806075,12.8916306 13.0170167,12.9414459 13.1193466,13.0408981 L13.1193466,13.0408981 L14.3389459,14.2178968 L14.3389459,13.4055855 C14.3389459,13.1238343 14.569234,12.8916306 14.8677726,12.8916306 L14.8677726,12.8916306 L15.4050504,12.8916306 C15.6951381,12.8916306 15.9338771,12.667908 15.9338771,12.377765 L15.9338771,12.377765 L15.9338771,6.66669642 C15.9338771,6.38485594 15.6951381,6.1527415 15.4050504,6.1527415 C15.1151464,6.1527415 14.8677726,5.92066278 14.8677726,5.63887585 C14.8677726,5.35703536 15.0980608,5.12492093 15.3965994,5.12492093 Z M12.1897431,2 C13.0767244,2 13.7932172,2.70459229 13.7932172,3.55832704 L13.7932172,3.55832704 L13.7932172,10.2972162 C13.7932172,11.1509509 13.0767244,11.8472942 12.1897431,11.8472942 L12.1897431,11.8472942 L6.35604064,11.8472942 L3.5244796,14.7898803 C3.42214973,14.8975457 3.27716099,14.9556636 3.13220899,14.9556636 C3.06395846,14.9556636 3.00425073,14.947361 2.9360002,14.9224534 C2.73988327,14.8479089 2.60338221,14.657218 2.60338221,14.4417087 L2.60338221,14.4417087 L2.61192501,11.8472942 C1.71640091,11.8472942 1,11.0201041 1,10.1662801 L1,10.1662801 L1,3.55832704 C1,2.69628974 1.72494371,2 2.60338221,2 L2.60338221,2 Z M12.1982859,3.04437212 L2.60336384,3.04437212 C2.3134231,3.04437212 2.07459218,3.27648655 2.07459218,3.55832704 L2.07459218,3.55832704 L2.07459218,10.1828852 C2.07459218,10.4647257 2.3134231,10.8193844 2.60336384,10.8193844 L2.60336384,10.8193844 L3.16626995,10.8193844 C3.45626581,10.8193844 3.69504162,11.0431962 3.69504162,11.3333393 C3.69504162,11.3581577 3.67801114,11.3747628 3.67801114,11.3996704 L3.67801114,11.3996704 L3.66946834,13.1238343 L5.7419696,10.9769544 C5.7505124,10.9769544 5.75905519,10.9686518 5.75905519,10.9686518 C5.76759799,10.9520467 5.78459173,10.9437441 5.80167733,10.9354416 C5.83581178,10.9023206 5.87841554,10.8691997 5.92109279,10.8525946 C5.93817839,10.8525946 5.95517212,10.8525946 5.97225772,10.844292 C6.02342265,10.8277762 6.0746427,10.8111711 6.12575252,10.8111711 L6.12575252,10.8111711 L6.13429532,10.8111711 L6.13429532,10.8028685 L12.1982859,10.8028685 C12.4882818,10.8028685 12.7271127,10.5790566 12.7271127,10.2889136 L12.7271127,10.2889136 L12.7271127,3.55832704 C12.7271127,3.27648655 12.4968246,3.04437212 12.1982859,3.04437212 L12.1982859,3.04437212 Z M7.056,8.77736646 C7.24956426,8.77736646 7.42028396,8.84138635 7.54468942,8.96637822 C7.6899672,9.09712822 7.764,9.27480694 7.764,9.47736646 C7.764,9.66915831 7.69223413,9.8413964 7.54468942,9.9883547 C7.40842917,10.1109889 7.24073857,10.1773665 7.056,10.1773665 C6.85970064,10.1773665 6.68254409,10.1019807 6.57419816,9.97934848 C6.42472736,9.84346593 6.348,9.67539648 6.348,9.47736646 C6.348,9.30305403 6.40301561,9.148252 6.49414887,9.04452889 L6.55301176,8.98867704 C6.6829374,8.84431521 6.85774803,8.77736646 7.056,8.77736646 Z M7.16,3.876 C7.74515281,3.876 8.22108099,4.04648173 8.57398706,4.38989605 C8.92487398,4.72128926 9.1,5.16883353 9.1,5.712 C9.1,6.10693531 8.97865056,6.47341063 8.73177698,6.81123741 L8.64960101,6.90134195 L8.3802072,7.1667044 L8.06405532,7.46246638 C7.89825882,7.60063013 7.78606146,7.72602719 7.72025957,7.84398408 C7.67635855,7.91610719 7.64403166,7.99331212 7.62372455,8.07084297 L7.60233442,8.18678918 L7.596,8.18136646 L7.596,8.20300284 C7.596,8.36868826 7.46168542,8.50300284 7.296,8.50300284 L6.808,8.50300284 C6.64231458,8.50300284 6.508,8.36868826 6.508,8.20300284 L6.508,8.18136646 C6.508,7.90288385 6.56671368,7.76375226 6.68014506,7.53713436 C6.81709747,7.24366491 7.0914208,6.91537633 7.48063321,6.57520744 L7.75819561,6.30137553 L7.82293284,6.22943173 C7.95144749,6.05593696 8.012,5.89302188 8.012,5.728 C8.012,5.46390446 7.93878568,5.2647615 7.80386797,5.12413203 C7.66130384,4.98156791 7.44501419,4.908 7.136,4.908 C6.79681424,4.908 6.56936979,5.00750695 6.41321711,5.21565196 C6.31333556,5.34466564 6.24448579,5.51199327 6.20888356,5.71500444 L6.18845043,5.87391237 L6.17961078,6.0472768 C6.17147599,6.20681743 6.03974788,6.332 5.88,6.332 L5.4,6.332 C5.23431458,6.332 5.1,6.19768542 5.1,6.032 L5.10000811,6.0297943 L5.10003243,6.02758871 C5.1089448,5.42154791 5.2815276,4.91990725 5.61917291,4.52599442 C5.98842251,4.09046926 6.5102977,3.876 7.16,3.876 Z" id="形状结合"></path>
            </g>
        </g>
    </g>
</svg>