<?xml version="1.0" encoding="UTF-8"?>
<svg width="18px" height="18px" viewBox="0 0 18 18" version="1.1" xmlns="http://www.w3.org/2000/svg" xmlns:xlink="http://www.w3.org/1999/xlink">
    <title>日历备份 18</title>
    <g id="教师端" stroke="none" stroke-width="1" fill="none" fill-rule="evenodd">
        <g id="其他状态补充" transform="translate(-123.000000, -189.000000)" fill-rule="nonzero">
            <g id="编组-10" transform="translate(123.000000, 189.000000)">
                <path d="M14.0625,3.375 L3.9375,3.375 C2.7984127,3.375 1.875,4.2984127 1.875,5.4375 L1.875,13.3125 C1.875,14.4515873 2.7984127,15.375 3.9375,15.375 L14.0625,15.375 C15.2015873,15.375 16.125,14.4515873 16.125,13.3125 L16.125,5.4375 C16.125,4.2984127 15.2015873,3.375 14.0625,3.375 Z" id="路径" fill="#F32424"></path>
                <path d="M6.57569665,8.75 L13.3125,8.75 C13.6231602,8.75 13.875,9.00183983 13.875,9.3125 C13.875,9.62316017 13.6231602,9.875 13.3125,9.875 L6.57569665,9.875 C6.26503647,9.875 6.01319665,9.62316017 6.01319665,9.3125 C6.01319665,9.00183983 6.26503647,8.75 6.57569665,8.75 Z" id="矩形备份-4" fill="#FFFFFF"></path>
                <path d="M4.6875,6.5 L13.3049931,6.5 C13.6156533,6.5 13.8674931,6.75183983 13.8674931,7.0625 C13.8674931,7.37316017 13.6156533,7.625 13.3049931,7.625 L4.6875,7.625 C4.37683983,7.625 4.125,7.37316017 4.125,7.0625 C4.125,6.75183983 4.37683983,6.5 4.6875,6.5 Z" id="矩形" fill="#FFFFFF"></path>
                <rect id="矩形" fill="#FFFFFF" x="8.875" y="11" width="5" height="1.125" rx="0.5625"></rect>
            </g>
        </g>
    </g>
</svg>