<?xml version="1.0" encoding="UTF-8"?>
<svg width="45px" height="34px" viewBox="0 0 45 34" version="1.1" xmlns="http://www.w3.org/2000/svg" xmlns:xlink="http://www.w3.org/1999/xlink">
    <title>编组 31备份 3</title>
    <defs>
        <linearGradient x1="50%" y1="0%" x2="50%" y2="100%" id="linearGradient-1">
            <stop stop-color="#5A73FF" offset="0%"></stop>
            <stop stop-color="#5A73FF" stop-opacity="0" offset="100%"></stop>
        </linearGradient>
    </defs>
    <g id="学生工作台" stroke="none" stroke-width="1" fill="none" fill-rule="evenodd">
        <g id="学生工作台-待办大于等于2/全图" transform="translate(-429.000000, -200.000000)">
            <g id="编组-62" transform="translate(112.000000, 72.000000)">
                <g id="编组-37备份" transform="translate(162.000000, 121.000000)">
                    <g id="编组-31备份" transform="translate(155.000000, 7.000000)">
                        <path d="M43,34 L14.8594801,34 L1,34 L1,26.0367778 C6.31112311,22.2410235 12.6122124,20.073175 19.134475,19.7977303 L24.0696057,19.5893126 C32.9295647,19.2151436 40.4931363,13.0692599 42.6724078,4.47335092 L43,3.18119758 L43,3.18119758 L43,34 Z" id="路径-16" fill="url(#linearGradient-1)" opacity="0.332147507"></path>
                        <path d="M41.5506404,2.90347169 C41.6709253,2.36444482 42.2054032,2.02498744 42.7444301,2.14527241 C43.244955,2.2569656 43.5734022,2.72579449 43.5214626,3.22377527 L43.5026293,3.33906212 L43.2025704,4.6837009 C41.2281492,13.5315731 33.6362091,19.984203 24.6177171,20.533967 L24.2411323,20.5534484 L19.6454481,20.7488579 C13.1672308,21.0243132 6.89972123,23.130076 1.56939369,26.822065 C1.11537973,27.1365324 0.49240247,27.0234076 0.17793502,26.5693937 C-0.136532429,26.1153797 -0.0234076374,25.4924025 0.430606314,25.177935 C5.90074702,21.3891061 12.3035075,19.1787814 18.937857,18.7824937 L19.5604844,18.7506634 L24.1561686,18.5552539 C32.3115005,18.2084874 39.2362883,12.5094954 41.1663063,4.60874108 L41.2505814,4.24811048 L41.5506404,2.90347169 Z" id="路径-16" fill="#5A73FF" fill-rule="nonzero"></path>
                    </g>
                </g>
            </g>
        </g>
    </g>
</svg>