<?xml version="1.0" encoding="UTF-8"?>
<svg width="45px" height="34px" viewBox="0 0 45 34" version="1.1" xmlns="http://www.w3.org/2000/svg" xmlns:xlink="http://www.w3.org/1999/xlink">
    <title>编组 31</title>
    <defs>
        <linearGradient x1="50%" y1="0%" x2="50%" y2="100%" id="linearGradient-1">
            <stop stop-color="#B337FF" offset="0%"></stop>
            <stop stop-color="#ED37FF" stop-opacity="0" offset="100%"></stop>
        </linearGradient>
    </defs>
    <g id="学生工作台" stroke="none" stroke-width="1" fill="none" fill-rule="evenodd">
        <g id="学生工作台-待办大于等于2/全图" transform="translate(-322.000000, -200.000000)">
            <g id="编组-62" transform="translate(112.000000, 72.000000)">
                <g id="编组-37备份" transform="translate(162.000000, 121.000000)">
                    <g id="编组-31" transform="translate(48.000000, 7.000000)">
                        <path d="M44,34 L2,34 L2,26.0367778 L5.32037565,21.7516902 C7.39857208,19.0696884 10.6006495,17.5 13.9935884,17.5 C17.50016,17.5 20.9276411,16.4579592 23.840826,14.5061911 L44,1 L44,1 L44,34 Z" id="路径-16" fill="url(#linearGradient-1)" opacity="0.332147507"></path>
                        <path d="M43.4433971,0.169221343 C43.9022235,-0.138181968 44.5233753,-0.0154293144 44.8307787,0.443397068 C45.1162246,0.869450138 45.0307707,1.43546755 44.6497446,1.76027774 L44.5566029,1.83077866 L24.397429,15.3369698 C21.4478236,17.3131388 17.9991893,18.4065863 14.4562169,18.494276 L13.9935884,18.5 C11.0146196,18.5 8.19665102,19.8275188 6.30029339,22.110684 L6.10067344,22.3589487 L2.78918293,26.6141582 C2.44999273,27.0500119 1.8216955,27.1283731 1.3858418,26.7891829 C0.983515307,26.4760843 0.885797773,25.9166459 1.13992722,25.4896204 L1.21081707,25.3858418 L4.52230757,21.1306323 C6.72507772,18.3001098 10.0739891,16.6079848 13.6471314,16.5049911 L13.9935884,16.5 C17.1581134,16.5 20.2543659,15.6004913 22.9230024,13.9107234 L23.2842231,13.6754125 L43.4433971,0.169221343 Z" id="路径-16" fill="#9C44FB" fill-rule="nonzero"></path>
                    </g>
                </g>
            </g>
        </g>
    </g>
</svg>