<?xml version="1.0" encoding="UTF-8"?>
<svg width="12px" height="12px" viewBox="0 0 12 12" version="1.1" xmlns="http://www.w3.org/2000/svg" xmlns:xlink="http://www.w3.org/1999/xlink">
    <title>1.Bace基础/3.Icon图标/箭头/chevron-down</title>
    <g id="页面-1" stroke="none" stroke-width="1" fill="none" fill-rule="evenodd">
        <g id="教师-课程内容" transform="translate(-87.000000, -414.000000)">
            <g id="编组-59" transform="translate(56.000000, 327.000000)">
                <g id="编组-22" transform="translate(31.000000, 87.000000)">
                    <g id="1.Bace基础/3.Icon图标/箭头/chevron-down" transform="translate(6.000000, 6.000000) scale(1, -1) translate(-6.000000, -6.000000) ">
                        <path d="M11.9999995,-5.24532084e-07 L11.9999995,11.9999995 L-5.24539995e-07,11.9999995 L-5.24539995e-07,-5.24532084e-07 L11.9999995,-5.24532084e-07 Z" id="矩形" opacity="0.600000024" transform="translate(5.999999, 5.999999) rotate(-179.999995) translate(-5.999999, -5.999999) "></path>
                        <path d="M3.68943317,4.15526741 L6.00000394,6.46583803 L6.00000394,6.46583803 L8.31057512,4.1552673 C8.50095564,3.96488682 8.80962341,3.96488686 9.00000389,4.15526737 C9.00000391,4.15526739 9.00000393,4.15526741 9.00000394,4.15526742 C9.19038443,4.34564801 9.19038439,4.65431584 9.00000385,4.84469637 L6.00000394,7.84469612 L6.00000394,7.84469612 L3.00000413,4.84469646 C2.80962355,4.65431589 2.80962354,4.34564801 3.00000411,4.15526743 C3.00000411,4.15526743 3.00000411,4.15526743 3.00000412,4.15526742 C3.19038469,3.96488685 3.49905259,3.96488684 3.68943317,4.15526741 Z" id="路径-4-(Stroke)" fill="#888888" transform="translate(6.000004, 5.827625) rotate(-179.999995) translate(-6.000004, -5.827625) "></path>
                    </g>
                </g>
            </g>
        </g>
    </g>
</svg>