<?xml version="1.0" encoding="UTF-8"?>
<svg width="10px" height="10px" viewBox="0 0 10 10" version="1.1" xmlns="http://www.w3.org/2000/svg" xmlns:xlink="http://www.w3.org/1999/xlink">
    <title>编组 7备份 3</title>
    <g id="项目开发" stroke="none" stroke-width="1" fill="none" fill-rule="evenodd">
        <g id="新建项目-基础信息填写备份-6" transform="translate(-386.000000, -490.000000)">
            <g id="编组-7备份-3" transform="translate(386.000000, 490.000000)">
                <path d="M0,0 L6,0 C8.209139,-4.05812251e-16 10,1.790861 10,4 L10,10 L10,10 L4,10 C1.790861,10 2.705415e-16,8.209139 0,6 L0,0 L0,0 Z" id="矩形" fill="#748BFF"></path>
                <path d="M7.13960453,3.15342374 C7.33101331,2.95438282 7.64753534,2.94819575 7.84657626,3.13960453 C8.02350153,3.30974567 8.04804844,3.57874172 7.91688654,3.77621091 L7.86039547,3.84657626 L4.97542919,6.84657626 C4.80022282,7.02876873 4.52148736,7.04864562 4.3236823,6.90646785 L4.25365929,6.84555538 L2.63862557,5.15658762 C2.4477806,4.95700603 2.45486303,4.64050277 2.65444462,4.44965781 C2.83185048,4.28001784 3.10163889,4.26676495 3.29343819,4.40608671 L3.36137443,4.46547686 L4.616,5.777 L7.13960453,3.15342374 Z" id="路径备份" fill="#FFFFFF" fill-rule="nonzero"></path>
            </g>
        </g>
    </g>
</svg>