<?xml version="1.0" encoding="UTF-8"?>
<svg width="18px" height="18px" viewBox="0 0 18 18" version="1.1" xmlns="http://www.w3.org/2000/svg" xmlns:xlink="http://www.w3.org/1999/xlink">
    <title>切片</title>
    <g id="页面-1" stroke="none" stroke-width="1" fill="none" fill-rule="evenodd">
        <g id="导航状态" transform="translate(-70.000000, -554.000000)" fill="#666666" fill-rule="nonzero">
            <g id="icon/登录日志/未选备份" transform="translate(70.000000, 554.000000)">
                <path d="M12.9375,15 C13.2481602,15 13.5,15.2518398 13.5,15.5625 C13.5,15.8731602 13.2481602,16.125 12.9375,16.125 L5.0625,16.125 C4.75183983,16.125 4.5,15.8731602 4.5,15.5625 C4.5,15.2518398 4.75183983,15 5.0625,15 L12.9375,15 Z M14.8125,1.875 C15.7444805,1.875 16.5,2.63051948 16.5,3.5625 L16.5,3.5625 L16.5,11.8125 C16.5,12.7444805 15.7444805,13.5 14.8125,13.5 L14.8125,13.5 L3.1875,13.5 C2.25551948,13.5 1.5,12.7444805 1.5,11.8125 L1.5,11.8125 L1.5,3.5625 C1.5,2.63051948 2.25551948,1.875 3.1875,1.875 L3.1875,1.875 Z M14.8125,3 L3.1875,3 C2.87683983,3 2.625,3.25183983 2.625,3.5625 L2.625,3.5625 L2.625,11.8125 C2.625,12.1231602 2.87683983,12.375 3.1875,12.375 L3.1875,12.375 L14.8125,12.375 C15.1231602,12.375 15.375,12.1231602 15.375,11.8125 L15.375,11.8125 L15.375,3.5625 C15.375,3.25183983 15.1231602,3 14.8125,3 L14.8125,3 Z M8.03853526,6.12702362 L8.08125467,6.16580054 L10.303875,8.39530853 L12.5393187,6.16450387 C12.7587488,5.94550336 13.1149039,5.94511639 13.3348134,6.16363955 C13.5409785,6.36850502 13.5542053,6.69304223 13.3742485,6.91325998 L13.3356813,6.95584624 L10.7008728,9.58549613 C10.4943643,9.79160029 10.1669603,9.80397056 9.9459347,9.62297637 L9.90321529,9.58419945 L7.680375,7.35450328 L5.46068128,9.56999649 C5.25496554,9.77530947 4.92908137,9.78848163 4.70794963,9.60926861 L4.66518662,9.5708608 C4.45902151,9.36599533 4.44579468,9.04145813 4.6257515,8.82124037 L4.66431872,8.77865411 L7.28359713,6.16450387 C7.49010561,5.9583997 7.81750964,5.94602943 8.03853526,6.12702362 Z" id="经营"></path>
            </g>
        </g>
    </g>
</svg>