<?xml version="1.0" encoding="UTF-8"?>
<svg width="18px" height="18px" viewBox="0 0 18 18" version="1.1" xmlns="http://www.w3.org/2000/svg" xmlns:xlink="http://www.w3.org/1999/xlink">
    <title>链接</title>
    <g id="页面-1" stroke="none" stroke-width="1" fill="none" fill-rule="evenodd">
        <g id="我的教学班-列表" transform="translate(-311.000000, -202.000000)" fill-rule="nonzero">
            <g id="编组-18" transform="translate(120.000000, 200.000000)">
                <g id="编组-12" transform="translate(75.000000, 0.000000)">
                    <g id="链接" transform="translate(116.000000, 2.000000)">
                        <rect id="矩形" fill="#000000" opacity="0" x="1" y="1" width="16" height="16"></rect>
                        <path d="M9,17 C4.5816875,17 1,13.4183125 1,9 C1,4.5816875 4.5816875,1 9,1 C13.4183125,1 17,4.5816875 17,9 C17,13.4183125 13.4183125,17 9,17 Z" id="形状" stroke="#DEE3FF" fill="#EEF1FF"></path>
                        <path d="M9.65226563,7.99520312 C9.71303007,8.04065492 9.7704777,8.09037986 9.82417188,8.144 L9.82417188,8.144 L9.85226563,8.1715625 C10.5047188,8.82471875 10.5047188,9.89385937 9.85226563,10.547375 L9.85226563,10.547375 L8.33848438,12.0616875 C7.68498438,12.7146562 6.61635938,12.7146562 5.96267188,12.0616875 L5.96267188,12.0616875 L5.93475,12.0335937 C5.2810625,11.3804375 5.2810625,10.3112812 5.93475,9.65776562 L5.93475,9.65776562 L6.9943125,8.59964062 C6.98867683,8.91383649 7.04642012,9.2259457 7.16409375,9.51732812 L7.16409375,9.51732812 L6.47946875,10.2021406 C6.12471911,10.5574249 6.12471911,11.1328876 6.47946875,11.4881719 L6.47946875,11.4881719 L6.50809375,11.5162656 C6.86376432,11.8705971 7.43900131,11.8705971 7.79467188,11.5162656 L7.79467188,11.5162656 L9.30879688,10.0024844 C9.66361793,9.64701618 9.66361793,9.07137445 9.30879688,8.71590625 L9.30879688,8.71590625 L9.27964063,8.68835937 C9.22453125,8.63325 9.1635625,8.58720312 9.0983125,8.54898437 L9.0983125,8.54898437 Z M9.6570625,5.93457813 C10.3105781,5.2810625 11.3797344,5.2810625 12.0328906,5.93457813 L12.0328906,5.93457813 L12.0613281,5.96284375 C12.7144844,6.61582813 12.7144844,7.68498438 12.0609844,8.33795313 L12.0609844,8.33795313 L11.0017812,9.396625 C11.0072812,9.0848125 10.9512812,8.77209375 10.8323437,8.47840625 L10.8323437,8.47840625 L11.5160937,7.79359375 C11.8709148,7.43812555 11.8709148,6.86248382 11.5160937,6.50701563 L11.5160937,6.50701563 L11.488,6.4789375 C11.1329192,6.12402051 10.5573933,6.12402051 10.2023125,6.4789375 L10.2023125,6.4789375 L8.68817187,7.99271875 C8.33328977,8.34836907 8.33328977,8.9241778 8.68817187,9.27982813 L8.68817187,9.27982813 L8.71626562,9.307375 C8.77045646,9.36130063 8.83127016,9.4081329 8.89725,9.44675 L8.89725,9.44675 L8.34328125,10.0010625 C8.28426562,9.95501563 8.22614062,9.90578125 8.171375,9.85226563 L8.171375,9.85226563 L8.14328125,9.82471875 C7.48978125,9.17101563 7.48978125,8.10185938 8.14328125,7.44889063 L8.14328125,7.44889063 Z" id="形状结合" fill="#5A73FF"></path>
                    </g>
                </g>
            </g>
        </g>
    </g>
</svg>