<?xml version="1.0" encoding="UTF-8"?>
<svg width="16px" height="16px" viewBox="0 0 16 16" version="1.1" xmlns="http://www.w3.org/2000/svg" xmlns:xlink="http://www.w3.org/1999/xlink">
    <title>课程</title>
    <g id="页面-1" stroke="none" stroke-width="1" fill="none" fill-rule="evenodd">
        <g id="老师-编辑课程" transform="translate(-204.000000, -347.000000)" fill-rule="nonzero">
            <g id="编组-16" transform="translate(39.000000, 327.000000)">
                <g id="编组-53" transform="translate(157.000000, 12.000000)">
                    <g id="课程" transform="translate(8.000000, 8.000000)">
                        <rect id="矩形" fill="#000000" opacity="0" x="0" y="0" width="16" height="16"></rect>
                        <path d="M11.8333333,1.66666667 C13.2140452,1.66666667 14.3333333,2.7859548 14.3333333,4.16666667 L14.3333333,11.8333333 C14.3333333,12.4963746 14.0699412,13.1322593 13.6011003,13.6011003 C13.1322593,14.0699412 12.4963746,14.3333333 11.8333333,14.3333333 L4.16666667,14.3333333 C3.50362545,14.3333333 2.86774067,14.0699412 2.39889972,13.6011003 C1.93005877,13.1322593 1.66666667,12.4963746 1.66666667,11.8333333 L1.66666667,4.16666667 C1.66666667,3.50362545 1.93005877,2.86774067 2.39889972,2.39889972 C2.86774067,1.93005877 3.50362545,1.66666667 4.16666667,1.66666667 L11.8333333,1.66666667 Z M11.8333333,2.66666667 L9.16666667,2.66666667 L9.16666667,7.36233333 C9.16673429,7.80139844 8.82611937,8.16519734 8.388,8.194 L8.33333333,8.19566667 C8.11246714,8.19570792 7.90061824,8.10806698 7.74433333,7.952 L6.665,6.87366667 L5.58966667,7.95033333 C5.28075152,8.25971021 4.78526688,8.2777543 4.45466667,7.99166667 L4.411,7.951 C4.25452518,7.79466087 4.1666254,7.58252621 4.16666667,7.36133333 L4.16666667,2.66666667 C3.33823955,2.66666667 2.66666667,3.33823955 2.66666667,4.16666667 L2.66666667,11.8333333 C2.66666667,12.6617605 3.33823955,13.3333333 4.16666667,13.3333333 L11.8333333,13.3333333 C12.6617605,13.3333333 13.3333333,12.6617605 13.3333333,11.8333333 L13.3333333,4.16666667 C13.3333333,3.33823955 12.6617605,2.66666667 11.8333333,2.66666667 Z M8.16666667,2.66666667 L5.16666667,2.66666667 L5.16666667,6.95866667 L6.09833333,6.02766667 L6.15366667,5.98 C6.4853418,5.72233452 6.95693286,5.75176432 7.254,6.04866667 L8.16666667,6.96 L8.16666667,2.66666667 L8.16666667,2.66666667 Z" id="形状" fill="#FFFFFF"></path>
                    </g>
                </g>
            </g>
        </g>
    </g>
</svg>