<?xml version="1.0" encoding="UTF-8"?>
<svg width="16px" height="16px" viewBox="0 0 16 16" version="1.1" xmlns="http://www.w3.org/2000/svg" xmlns:xlink="http://www.w3.org/1999/xlink">
    <title>编组 13</title>
    <g id="页面-1" stroke="none" stroke-width="1" fill="none" fill-rule="evenodd">
        <g id="我的教学班-列表" transform="translate(-388.000000, -391.000000)">
            <g id="编组-16" transform="translate(388.000000, 391.000000)">
                <rect id="矩形备份-11" fill="#5A73FF" x="0" y="0" width="16" height="16" rx="4"></rect>
                <rect id="矩形" fill="#FFFFFF" x="3" y="9" width="1" height="3"></rect>
                <path d="M6.5,6 C6.77614237,6 7,6.22385763 7,6.5 L7,11.5 C7,11.7761424 6.77614237,12 6.5,12 C6.22385763,12 6,11.7761424 6,11.5 L6,6.5 C6,6.22385763 6.22385763,6 6.5,6 Z" id="矩形备份-2" fill="#FFFFFF"></path>
                <path d="M12.5,8 C12.7761424,8 13,8.22385763 13,8.5 L13,11.5 C13,11.7761424 12.7761424,12 12.5,12 C12.2238576,12 12,11.7761424 12,11.5 L12,8.5 C12,8.22385763 12.2238576,8 12.5,8 Z" id="矩形备份-4" fill="#FFFFFF"></path>
                <path d="M9.5,3 C9.77614237,3 10,3.22385763 10,3.5 L10,11.5 C10,11.7761424 9.77614237,12 9.5,12 C9.22385763,12 9,11.7761424 9,11.5 L9,3.5 C9,3.22385763 9.22385763,3 9.5,3 Z" id="矩形备份-3" fill="#FFFFFF"></path>
            </g>
        </g>
    </g>
</svg>