<?xml version="1.0" encoding="UTF-8"?>
<svg width="12px" height="12px" viewBox="0 0 12 12" version="1.1" xmlns="http://www.w3.org/2000/svg" xmlns:xlink="http://www.w3.org/1999/xlink">
    <title>编组 27</title>
    <g id="页面-1" stroke="none" stroke-width="1" fill="none" fill-rule="evenodd">
        <g id="我的教学班-列表" transform="translate(-327.000000, -205.000000)" fill="#666666" fill-rule="nonzero">
            <g id="编组-27" transform="translate(327.000000, 205.000000)">
                <path d="M3.05441315,2.74400778 C3.33055553,2.74400778 3.55441315,2.9678654 3.55441315,3.24400778 C3.55441315,3.48946767 3.37753799,3.69361615 3.14428879,3.73595211 L3.05441315,3.74400778 L2.17347845,3.74400778 C2.0123954,3.74400778 1.87799935,3.85826844 1.84691726,4.01016282 L1.84014511,4.07734111 L1.84014511,9.91067445 C1.84014511,10.0717575 1.95440578,10.2061535 2.10630015,10.2372356 L2.17347845,10.2440078 L8.00681178,10.2440078 C8.16789483,10.2440078 8.30229088,10.1297471 8.33337297,9.97785274 L8.34014511,9.91067445 L8.34014511,9.14165484 C8.34014511,8.86551247 8.56400274,8.64165484 8.84014511,8.64165484 C9.085605,8.64165484 9.28975348,8.81853 9.33208944,9.05177921 L9.34014511,9.14165484 L9.34014511,9.91067445 C9.34014511,10.6037377 8.81135571,11.1732955 8.13522068,11.2379042 L8.00681178,11.2440078 L2.17347845,11.2440078 C1.48041523,11.2440078 0.9108574,10.7152184 0.846248739,10.0390833 L0.840145114,9.91067445 L0.840145114,4.07734111 C0.840145114,3.3842779 1.36893452,2.81472006 2.04506955,2.7501114 L2.17347845,2.74400778 L3.05441315,2.74400778 Z" id="路径"></path>
                <path d="M10.3401451,1 C10.8924299,1 11.3401451,1.44771525 11.3401451,2 L11.3401451,7.5 C11.3401451,8.05228475 10.8924299,8.5 10.3401451,8.5 L4.84014511,8.5 C4.28786036,8.5 3.84014511,8.05228475 3.84014511,7.5 L3.84014511,2 C3.84014511,1.44771525 4.28786036,1 4.84014511,1 L10.3401451,1 Z M10.3401451,7.5 L10.3401451,2 L4.84014511,2 L4.84014511,7.5 L10.3401451,7.5 Z" id="矩形备份-5"></path>
            </g>
        </g>
    </g>
</svg>