<?xml version="1.0" encoding="UTF-8"?>
<svg width="24px" height="24px" viewBox="0 0 24 24" version="1.1" xmlns="http://www.w3.org/2000/svg" xmlns:xlink="http://www.w3.org/1999/xlink">
    <title>课程统计-线</title>
    <g id="页面-1" stroke="none" stroke-width="1" fill="none" fill-rule="evenodd">
        <g id="教师工作台其他状态" transform="translate(-181.000000, -1312.000000)">
            <g id="编组-2备份-2" transform="translate(165.000000, 1312.000000)">
                <g id="课程备份-5" transform="translate(16.000000, 0.000000)">
                    <rect id="矩形" fill="#000000" fill-rule="nonzero" opacity="0" x="0" y="0" width="24" height="24"></rect>
                    <g id="编组-61" transform="translate(5.000000, 4.500000)">
                        <path d="M14,6.55666802 L14,10.2310305 L14,13.125 C14,14.1605339 13.1642649,15 12.1333333,15 L11.5207258,15 L1.86666667,15 C0.835735134,15 0,14.1605339 0,13.125 L0,1.875 C0,0.839466094 0.835735134,0 1.86666667,0 L12.1333333,0 C13.1642649,0 14,0.839466094 14,1.875 L14,3.75065833" id="路径" stroke="#979797" stroke-linecap="round"></path>
                        <path d="M10.9001646,4.64083423 C11.0985266,4.44872195 11.4150686,4.45378835 11.6071808,4.65215035 C11.7779473,4.82847213 11.7929183,5.09817065 11.654821,5.29085344 L11.5958647,5.35916658 L8.07753243,8.76664801 C7.91004877,8.92885483 7.65700808,8.95119759 7.46594384,8.8323625 L7.38828377,8.7727858 L5.25068402,6.7747626 L2.84797701,9.10473696 C2.67171543,9.27556557 2.40202219,9.29063159 2.20929074,9.1526022 L2.14095683,9.09367003 C1.97012823,8.91740845 1.9550622,8.64771522 2.0930916,8.45498377 L2.15202376,8.38664986 L4.89697496,5.7263073 C5.06444425,5.56399997 5.31755451,5.54160309 5.50866972,5.66045739 L5.58635019,5.72004689 L7.72268402,7.7167626 L10.9001646,4.64083423 Z" id="路径-12" fill="#979797" fill-rule="nonzero"></path>
                        <path d="M13.999054,7.5 L13.999054,9.92741907 C13.999054,11.0319886 13.1036235,11.9274191 11.999054,11.9274191 L10.9799895,11.9274191 L10.9799895,11.9274191 L3.52347712,11.9274191 L1.54778238,11.9274191 C0.699312581,11.9274191 0.0114919108,12.6152397 0.0114919108,13.4637095 C0.0114919108,14.3121793 0.699312581,15 1.54778238,15 L11.5455016,15 L11.5455016,15" id="路径-11" stroke="#979797"></path>
                    </g>
                </g>
            </g>
        </g>
    </g>
</svg>