<?xml version="1.0" encoding="UTF-8"?>
<svg width="12px" height="12px" viewBox="0 0 12 12" version="1.1" xmlns="http://www.w3.org/2000/svg" xmlns:xlink="http://www.w3.org/1999/xlink">
    <title>icon-删除-n备份 5</title>
    <g id="02基础档案" stroke="none" stroke-width="1" fill="none" fill-rule="evenodd">
        <g id="02-12试卷维护-考核单据视图-新关联考核单据-添加" transform="translate(-784.000000, -248.000000)" fill="#606266" fill-rule="nonzero">
            <g id="编组" transform="translate(30.000000, 128.000000)">
                <g id="编组-3" transform="translate(710.000000, 120.000000)">
                    <path d="M45.2857143,2.57142857 L44.4285714,2.57142857 C44.3035714,2.57142857 44.2008929,2.53125 44.1205357,2.45089286 C44.0401786,2.37053571 44,2.26785714 44,2.14285714 C44,2.01785714 44.0401786,1.91517857 44.1205357,1.83482143 C44.2008929,1.75446429 44.3035714,1.71428571 44.4285714,1.71428571 L47.8571429,1.71428571 L47.8571429,0.428571429 C47.8571429,0.303571429 47.8973214,0.200892857 47.9776786,0.120535714 C48.0580357,0.0401785714 48.1607143,0 48.2857143,0 L51.7142857,0 C51.8392857,0 51.9419643,0.0401785714 52.0223214,0.120535714 C52.1026786,0.200892857 52.1428571,0.303571429 52.1428571,0.428571429 L52.1428571,1.71428571 L55.5714286,1.71428571 C55.6964286,1.71428571 55.7991071,1.75446429 55.8794643,1.83482143 C55.9598214,1.91517857 56,2.01785714 56,2.14285714 C56,2.26785714 55.9598214,2.37053571 55.8794643,2.45089286 C55.7991071,2.53125 55.6964286,2.57142857 55.5714286,2.57142857 L54.7142857,2.57142857 L54.7142857,11.5714286 C54.7142857,11.6964286 54.6741071,11.7991071 54.59375,11.8794643 C54.5133929,11.9598214 54.4107143,12 54.2857143,12 L45.7142857,12 C45.5892857,12 45.4866071,11.9598214 45.40625,11.8794643 C45.3258929,11.7991071 45.2857143,11.6964286 45.2857143,11.5714286 L45.2857143,2.57142857 Z M51.2857143,1.71428571 L51.2857143,0.857142857 L48.7142857,0.857142857 L48.7142857,1.71428571 L51.2857143,1.71428571 Z M46.1428571,11.1428571 L53.8571429,11.1428571 L53.8571429,2.57142857 L46.1428571,2.57142857 L46.1428571,11.1428571 Z M48.7142857,9.42857143 C48.5892857,9.42857143 48.4866071,9.38839286 48.40625,9.30803571 C48.3258929,9.22767857 48.2857143,9.125 48.2857143,9 L48.2857143,4.71428571 C48.2857143,4.58928571 48.3258929,4.48660714 48.40625,4.40625 C48.4866071,4.32589286 48.5892857,4.28571429 48.7142857,4.28571429 C48.8392857,4.28571429 48.9419643,4.32589286 49.0223214,4.40625 C49.1026786,4.48660714 49.1428571,4.58928571 49.1428571,4.71428571 L49.1428571,9 C49.1428571,9.125 49.1026786,9.22767857 49.0223214,9.30803571 C48.9419643,9.38839286 48.8392857,9.42857143 48.7142857,9.42857143 Z M51.2857143,9.42857143 C51.1607143,9.42857143 51.0580357,9.38839286 50.9776786,9.30803571 C50.8973214,9.22767857 50.8571429,9.125 50.8571429,9 L50.8571429,4.71428571 C50.8571429,4.58928571 50.8973214,4.48660714 50.9776786,4.40625 C51.0580357,4.32589286 51.1607143,4.28571429 51.2857143,4.28571429 C51.4107143,4.28571429 51.5133929,4.32589286 51.59375,4.40625 C51.6741071,4.48660714 51.7142857,4.58928571 51.7142857,4.71428571 L51.7142857,9 C51.7142857,9.125 51.6741071,9.22767857 51.59375,9.30803571 C51.5133929,9.38839286 51.4107143,9.42857143 51.2857143,9.42857143 Z" id="icon-删除-n备份-5"></path>
                </g>
            </g>
        </g>
    </g>
</svg>