<?xml version="1.0" encoding="UTF-8"?>
<svg width="16px" height="16px" viewBox="0 0 16 16" version="1.1" xmlns="http://www.w3.org/2000/svg" xmlns:xlink="http://www.w3.org/1999/xlink">
    <title>更多</title>
    <g id="页面-1" stroke="none" stroke-width="1" fill="none" fill-rule="evenodd">
        <g id="教师-课程内容" transform="translate(-471.000000, -142.000000)" fill-rule="nonzero">
            <g id="编组-10" transform="translate(72.000000, 128.000000)">
                <g id="编组-8" transform="translate(333.000000, 10.000000)">
                    <g id="编组-29" transform="translate(66.000000, 4.000000)">
                        <g id="更多" transform="translate(8.000000, 8.000000) scale(-1, 1) translate(-8.000000, -8.000000) ">
                            <rect id="矩形" fill="#000000" opacity="0" x="0" y="0" width="16" height="16"></rect>
                            <path d="M11.8169099,11.626624 L8.0079952,7.81770937 L11.8169099,4.00879472 C11.9544273,3.87127723 11.9544273,3.64741155 11.8169099,3.51149309 C11.6793924,3.37397561 11.4555267,3.37397561 11.3196082,3.51149309 L7.29482311,7.53627823 C7.21806916,7.61303219 7.18448931,7.71696981 7.19408355,7.81770937 C7.1844893,7.91844894 7.21806916,8.02238656 7.29482311,8.09914052 L11.3196082,12.1239256 C11.4571257,12.2614431 11.6809914,12.2614431 11.8169099,12.1239256 C11.9544273,11.9880072 11.9544273,11.7641415 11.8169099,11.626624 Z M9.06656006,11.6586048 L5.25764541,7.84969019 L9.06656006,4.04077553 C9.20407755,3.90325805 9.20407755,3.67939236 9.06656006,3.54347391 C8.92904258,3.40595642 8.70517689,3.40595642 8.56925844,3.54347391 L4.54447331,7.56825905 C4.46771936,7.645013 4.43413952,7.74895062 4.44373375,7.84969019 C4.4341395,7.95042975 4.46771936,8.05436737 4.54447331,8.13112133 L8.56925844,12.1559065 C8.70677592,12.2934239 8.93064161,12.2934239 9.06656006,12.1559065 C9.20407755,12.019988 9.20407755,11.7961223 9.06656006,11.6586048 Z" id="形状" fill="#FFFFFF"></path>
                        </g>
                    </g>
                </g>
            </g>
        </g>
    </g>
</svg>