<?xml version="1.0" encoding="UTF-8"?>
<svg width="16px" height="16px" viewBox="0 0 16 16" version="1.1" xmlns="http://www.w3.org/2000/svg" xmlns:xlink="http://www.w3.org/1999/xlink">
    <title>编辑</title>
    <g id="页面-1" stroke="none" stroke-width="1" fill="none" fill-rule="evenodd">
        <g id="老师-编辑课程" transform="translate(-288.000000, -414.000000)" fill-rule="nonzero">
            <g id="编辑" transform="translate(288.000000, 414.000000)">
                <rect id="矩形" fill="#000000" opacity="0" x="0" y="0" width="16" height="16"></rect>
                <path d="M8.18561978,1.83333333 C8.46176216,1.83333333 8.68561978,2.05719095 8.68561978,2.33333333 C8.68561978,2.57879322 8.50874462,2.7829417 8.27549541,2.82527766 L8.18561978,2.83333333 L4.14284176,2.83333333 C3.36314564,2.83333333 2.72239308,3.42822141 2.64970834,4.18887332 L2.64284176,4.33333333 L2.64284176,11.8553337 C2.64284176,12.6350298 3.23772984,13.2757824 3.99838175,13.3484671 L4.14284176,13.3553337 L11.1428418,13.3553337 C11.9225379,13.3553337 12.5632904,12.7604456 12.6359752,11.9997937 L12.6428418,11.8553337 L12.6428418,7.18201755 C12.6428418,6.90587517 12.8666994,6.68201755 13.1428418,6.68201755 C13.3883016,6.68201755 13.5924501,6.85889271 13.6347861,7.09214191 L13.6428418,7.18201755 L13.6428418,11.8553337 C13.6428418,13.1808171 12.6113058,14.2653724 11.3072174,14.350016 L11.1428418,14.3553337 L4.14284176,14.3553337 C2.81735836,14.3553337 1.73280309,13.3237978 1.64815944,12.0197094 L1.64284176,11.8553337 L1.64284176,4.33333333 C1.64284176,3.00784993 2.67437769,1.92329466 3.97846607,1.83865101 L4.14284176,1.83333333 L8.18561978,1.83333333 Z" id="路径-2" fill="#999999"></path>
                <path d="M13.7916028,1.31081388 C13.9881349,1.11682997 14.3047106,1.11889567 14.4986945,1.31542774 C14.6711247,1.49012291 14.6886514,1.75966741 14.5523868,1.95365056 L14.4940807,2.02251946 L8.08435266,8.34914135 C7.88782059,8.54312525 7.57124484,8.54105956 7.37726093,8.34452749 C7.20483079,8.16983232 7.18730404,7.90028782 7.32356873,7.70630467 L7.38187479,7.63743576 L13.7916028,1.31081388 Z" id="路径-6" fill="#999999"></path>
            </g>
        </g>
    </g>
</svg>