<?xml version="1.0" encoding="UTF-8"?>
<svg width="20px" height="20px" viewBox="0 0 20 20" version="1.1" xmlns="http://www.w3.org/2000/svg" xmlns:xlink="http://www.w3.org/1999/xlink">
    <title>课程备份 3</title>
    <g id="项目开发" stroke="none" stroke-width="1" fill="none" fill-rule="evenodd">
        <g id="状态补充" transform="translate(-147.000000, -1510.000000)">
            <g id="课程备份-3" transform="translate(147.000000, 1510.000000)">
                <rect id="矩形" fill="#000000" fill-rule="nonzero" opacity="0" x="0" y="0" width="20" height="20"></rect>
                <g id="编组-5" transform="translate(2.500000, 3.500000)" fill="#888888">
                    <path d="M11.7196596,9.59265403 L11.1129454,10.792654 L10.5196596,9.59265403 L11.7196596,9.59265403 Z M11.1196596,1.81477366 C11.4510304,1.81477366 11.7196596,2.08340281 11.7196596,2.41477366 L11.7196596,9.01477366 L10.5196596,9.01477366 L10.5196596,2.41477366 C10.5196596,2.08340281 10.7882887,1.81477366 11.1196596,1.81477366 Z" id="形状结合" transform="translate(11.119660, 6.303714) rotate(30.000000) translate(-11.119660, -6.303714) "></path>
                    <path d="M10.25,0 C10.938971,0 11.6017555,0.18767033 12.1799333,0.537408254 C12.4162114,0.680332169 12.49189,0.987736183 12.3489661,1.22401434 C12.2060422,1.46029249 11.8986381,1.53597105 11.66236,1.39304714 C11.2996176,1.1736254 10.8921836,1.04158589 10.4650769,1.00833831 L10.25,1 L3.75,1 C2.28822215,1 1.09165157,2.15041968 1.0050219,3.6037404 L1,3.77272727 L1,9.22727273 C1,10.7026398 2.14243066,11.9077027 3.58255834,11.9949428 L3.75,12 L10.25,12 C11.7117779,12 12.9083484,10.8495803 12.9949781,9.3962596 L13,9.22727273 L13,6.27006545 C13,5.99392308 13.2238576,5.77006545 13.5,5.77006545 C13.7454599,5.77006545 13.9496084,5.94694061 13.9919443,6.18018982 L14,6.27006545 L14,9.22727273 C14,11.2450267 12.4250963,12.8939985 10.4430434,12.9950887 L10.25,13 L3.75,13 C1.74289454,13 0.105268799,11.414083 0.00487725451,9.42134841 L0,9.22727273 L0,3.77272727 C0,1.75497335 1.57490369,0.10600153 3.55695661,0.00491125448 L3.75,0 L10.25,0 Z" id="路径" fill-rule="nonzero"></path>
                    <path d="M9,3.5 C9.27614237,3.5 9.5,3.72385763 9.5,4 C9.5,4.27614237 9.27614237,4.5 9,4.5 L4,4.5 C3.72385763,4.5 3.5,4.27614237 3.5,4 C3.5,3.72385763 3.72385763,3.5 4,3.5 L9,3.5 Z" id="矩形" fill-rule="nonzero"></path>
                    <path d="M7,5.5 C7.27614237,5.5 7.5,5.72385763 7.5,6 C7.5,6.27614237 7.27614237,6.5 7,6.5 L4,6.5 C3.72385763,6.5 3.5,6.27614237 3.5,6 C3.5,5.72385763 3.72385763,5.5 4,5.5 L7,5.5 Z" id="矩形备份-2" fill-rule="nonzero"></path>
                    <path d="M5,7.5 C5.27614237,7.5 5.5,7.72385763 5.5,8 C5.5,8.27614237 5.27614237,8.5 5,8.5 L4,8.5 C3.72385763,8.5 3.5,8.27614237 3.5,8 C3.5,7.72385763 3.72385763,7.5 4,7.5 L5,7.5 Z" id="矩形备份-5" fill-rule="nonzero"></path>
                </g>
            </g>
        </g>
    </g>
</svg>