<?xml version="1.0" encoding="UTF-8"?>
<svg width="32px" height="32px" viewBox="0 0 32 32" version="1.1" xmlns="http://www.w3.org/2000/svg" xmlns:xlink="http://www.w3.org/1999/xlink">
    <title>课程备份 3</title>
    <g id="项目开发" stroke="none" stroke-width="1" fill="none" fill-rule="evenodd">
        <g id="状态补充" transform="translate(-330.000000, -1507.000000)">
            <g id="课程备份-16" transform="translate(330.000000, 1507.000000)">
                <rect id="矩形" fill-rule="nonzero" opacity="0" x="0" y="0" width="32" height="32"></rect>
                <g id="编组-5" transform="translate(4.000000, 5.600000)">
                    <path d="M18.7514553,15.3482465 L17.7807127,17.2682465 L16.8314553,15.3482465 L18.7514553,15.3482465 Z M17.7914553,2.90363786 C18.3216486,2.90363786 18.7514553,3.3334445 18.7514553,3.86363786 L18.7514553,14.4236379 L16.8314553,14.4236379 L16.8314553,3.86363786 C16.8314553,3.3334445 17.2612619,2.90363786 17.7914553,2.90363786 Z" id="形状结合" transform="translate(17.791455, 10.085942) rotate(30.000000) translate(-17.791455, -10.085942) "></path>
                    <path d="M16.4,0 C17.5023536,0 18.5628088,0.300272528 19.4878932,0.859853206 C19.8659383,1.08853147 19.987024,1.58037789 19.7583457,1.95842294 C19.5296674,2.33646798 19.037821,2.45755368 18.659776,2.22887542 C18.0793882,1.87780064 17.4274938,1.66653742 16.7441231,1.61334129 L16.4,1.6 L6,1.6 C3.66115544,1.6 1.74664252,3.44067149 1.60803503,5.76598465 L1.6,6.03636364 L1.6,14.7636364 C1.6,17.1242237 3.42788905,19.0523243 5.73209335,19.1919085 L6,19.2 L16.4,19.2 C18.7388446,19.2 20.6533575,17.3593285 20.791965,15.0340154 L20.8,14.7636364 L20.8,10.0321047 C20.8,9.59027692 21.1581722,9.23210472 21.6,9.23210472 C21.9927358,9.23210472 22.3193734,9.51510498 22.3871109,9.88830371 L22.4,10.0321047 L22.4,14.7636364 C22.4,17.9920426 19.8801541,20.6303976 16.7088694,20.792142 L16.4,20.8 L6,20.8 C2.78863126,20.8 0.168430079,18.2625328 0.00780360721,15.0741575 L0,14.7636364 L0,6.03636364 C0,2.80795736 2.51984591,0.169602448 5.69113057,0.00785800717 L6,0 L16.4,0 Z" id="路径" fill-rule="nonzero"></path>
                    <path d="M14.4,5.6 C14.8418278,5.6 15.2,5.9581722 15.2,6.4 C15.2,6.8418278 14.8418278,7.2 14.4,7.2 L6.4,7.2 C5.9581722,7.2 5.6,6.8418278 5.6,6.4 C5.6,5.9581722 5.9581722,5.6 6.4,5.6 L14.4,5.6 Z" id="矩形" fill-rule="nonzero"></path>
                    <path d="M11.2,8.8 C11.6418278,8.8 12,9.1581722 12,9.6 C12,10.0418278 11.6418278,10.4 11.2,10.4 L6.4,10.4 C5.9581722,10.4 5.6,10.0418278 5.6,9.6 C5.6,9.1581722 5.9581722,8.8 6.4,8.8 L11.2,8.8 Z" id="矩形备份-2" fill-rule="nonzero"></path>
                    <path d="M8,12 C8.4418278,12 8.8,12.3581722 8.8,12.8 C8.8,13.2418278 8.4418278,13.6 8,13.6 L6.4,13.6 C5.9581722,13.6 5.6,13.2418278 5.6,12.8 C5.6,12.3581722 5.9581722,12 6.4,12 L8,12 Z" id="矩形备份-5" fill-rule="nonzero"></path>
                </g>
            </g>
        </g>
    </g>
</svg>