<?xml version="1.0" encoding="UTF-8"?>
<svg width="18px" height="18px" viewBox="0 0 18 18" version="1.1" xmlns="http://www.w3.org/2000/svg" xmlns:xlink="http://www.w3.org/1999/xlink">
    <title>作业</title>
    <g id="页面-1" stroke="none" stroke-width="1" fill="none" fill-rule="evenodd">
        <g id="教学管理-登录日志详情" transform="translate(-16.000000, -172.000000)" fill="#666666" fill-rule="nonzero">
            <g id="编组-5备份-3" transform="translate(0.000000, 49.000000)">
                <g id="编组-13" transform="translate(16.000000, 25.000000)">
                    <g id="编组-8" transform="translate(0.000000, 50.000000)">
                        <g id="icon/作业/未选" transform="translate(0.000000, 48.000000)">
                            <path d="M13.375,1.875 C14.4795695,1.875 15.375,2.7704305 15.375,3.875 L15.375,11.625 C15.375,14.1102814 13.3602814,16.125 10.875,16.125 L4.625,16.125 C3.5204305,16.125 2.625,15.2295695 2.625,14.125 L2.625,3.875 C2.625,2.7704305 3.5204305,1.875 4.625,1.875 L13.375,1.875 Z M13.375,3.075 L4.625,3.075 C4.21715895,3.075 3.88059842,3.38018815 3.83123314,3.7746497 L3.825,3.875 L3.825,14.125 C3.825,14.532841 4.13018815,14.8694016 4.5246497,14.9187669 L4.625,14.925 L10.875,14.925 C12.6346935,14.925 14.0726959,13.5476767 14.1697761,11.8122612 L14.175,11.625 L14.175,3.875 C14.175,3.46715895 13.8698119,3.13059842 13.4753503,3.08123314 L13.375,3.075 Z M10.6875,10.125 C10.9981602,10.125 11.25,10.3768398 11.25,10.6875 C11.25,10.9981602 10.9981602,11.25 10.6875,11.25 L5.8125,11.25 C5.50183983,11.25 5.25,10.9981602 5.25,10.6875 C5.25,10.3768398 5.50183983,10.125 5.8125,10.125 L10.6875,10.125 Z M12.1875,6.75 C12.4981602,6.75 12.75,7.00183983 12.75,7.3125 C12.75,7.62316017 12.4981602,7.875 12.1875,7.875 L5.8125,7.875 C5.50183983,7.875 5.25,7.62316017 5.25,7.3125 C5.25,7.00183983 5.50183983,6.75 5.8125,6.75 L12.1875,6.75 Z" id="作业"></path>
                        </g>
                    </g>
                </g>
            </g>
        </g>
    </g>
</svg>