<?xml version="1.0" encoding="UTF-8"?>
<svg width="18px" height="18px" viewBox="0 0 18 18" version="1.1" xmlns="http://www.w3.org/2000/svg" xmlns:xlink="http://www.w3.org/1999/xlink">
    <title>切片</title>
    <g id="页面-1" stroke="none" stroke-width="1" fill="none" fill-rule="evenodd">
        <g id="导航状态" transform="translate(-263.000000, -218.000000)" fill="#F32424" fill-rule="nonzero">
            <g id="icon/作业/已选" transform="translate(263.000000, 218.000000)">
                <path d="M13.875,1.875 C14.7034271,1.875 15.375,2.54657288 15.375,3.375 L15.375,11.625 C15.375,14.1102814 13.3602814,16.125 10.875,16.125 L4.125,16.125 C3.29657288,16.125 2.625,15.4534271 2.625,14.625 L2.625,3.375 C2.625,2.54657288 3.29657288,1.875 4.125,1.875 L13.875,1.875 Z M10.6875,10.125 L5.8125,10.125 C5.50183983,10.125 5.25,10.3768398 5.25,10.6875 C5.25,10.9981602 5.50183983,11.25 5.8125,11.25 L5.8125,11.25 L10.6875,11.25 C10.9981602,11.25 11.25,10.9981602 11.25,10.6875 C11.25,10.3768398 10.9981602,10.125 10.6875,10.125 L10.6875,10.125 Z M12.1875,6.75 L5.8125,6.75 C5.50183983,6.75 5.25,7.00183983 5.25,7.3125 C5.25,7.62316017 5.50183983,7.875 5.8125,7.875 L5.8125,7.875 L12.1875,7.875 C12.4981602,7.875 12.75,7.62316017 12.75,7.3125 C12.75,7.00183983 12.4981602,6.75 12.1875,6.75 L12.1875,6.75 Z" id="作业"></path>
            </g>
        </g>
    </g>
</svg>