<?xml version="1.0" encoding="UTF-8"?>
<svg width="60px" height="60px" viewBox="0 0 60 60" version="1.1" xmlns="http://www.w3.org/2000/svg" xmlns:xlink="http://www.w3.org/1999/xlink">
    <title>矩形</title>
    <defs>
        <radialGradient cx="-13.5225209%" cy="-15.0196324%" fx="-13.5225209%" fy="-15.0196324%" r="109.612467%" gradientTransform="translate(-0.135225,-0.150196),scale(1.000000,0.891304),rotate(-85.190134),scale(1.000000,0.908500),translate(0.135225,0.150196)" id="radialGradient-1">
            <stop stop-color="#E5E2FF" offset="0%"></stop>
            <stop stop-color="#F3F2FF" offset="0%"></stop>
            <stop stop-color="#FFFFFF" stop-opacity="0.112122009" offset="100%"></stop>
        </radialGradient>
        <linearGradient x1="98.2349439%" y1="108.323331%" x2="64.5814784%" y2="73.34181%" id="linearGradient-2">
            <stop stop-color="#FDF6FF" offset="0%"></stop>
            <stop stop-color="#FFFFFF" stop-opacity="0.192078064" offset="100%"></stop>
        </linearGradient>
        <linearGradient x1="10.278828%" y1="-7.37212574%" x2="52.0122415%" y2="75.2605615%" id="linearGradient-3">
            <stop stop-color="#BB92FF" offset="0%"></stop>
            <stop stop-color="#5A73FF" offset="100%"></stop>
        </linearGradient>
        <path d="M38.3159344,4.88104546 L31.6186006,4.88104546 C30.6024534,0.0154138278 25.3934159,0 21.1081487,0 C16.8228815,0 11.608712,0.0154138278 10.5925648,4.88104546 L2.68919765,4.88104546 C1.2060333,4.88104546 0,6.08846197 0,7.57332738 L0,43.3077181 C0,44.7925835 1.2060333,46 2.68919765,46 L38.3108024,46 C39.7939667,46 41,44.7925835 41,43.3077181 L41,7.57332738 C41,6.08846197 39.7990988,4.88104546 38.3159344,4.88104546 Z M13.6307423,6.70501508 C13.6307423,6.63308388 13.6358743,6.57142857 13.6358743,6.49949738 C13.7128552,3.64793924 15.3602453,3.23176589 21.1030166,3.23176589 C26.845788,3.23176589 28.4931781,3.65307718 28.570159,6.49949738 C28.570159,6.56629063 28.575291,6.63308388 28.575291,6.70501508 L28.575291,8.31832905 L13.6307423,8.31832905 L13.6307423,6.70501508 Z M21.1081487,37.1216352 L9.03755163,37.1216352 C8.14457379,37.1216352 7.42608587,36.3971853 7.42608587,35.5083212 C7.42608587,34.6194572 8.14970585,33.8950073 9.03755163,33.8950073 L21.1081487,33.8950073 C22.0011265,33.8950073 22.7196145,34.6194572 22.7196145,35.5083212 C22.7196145,36.3971853 22.0011265,37.1216352 21.1081487,37.1216352 L21.1081487,37.1216352 Z M27.1639755,28.5104434 L9.03755163,28.5104434 C8.14457379,28.5104434 7.42608587,27.7859935 7.42608587,26.8971295 C7.42608587,26.0082654 8.14970585,25.2838155 9.03755163,25.2838155 L27.1639755,25.2838155 C28.0569533,25.2838155 28.7754412,26.0082654 28.7754412,26.8971295 C28.7754412,27.7859935 28.0518213,28.5104434 27.1639755,28.5104434 L27.1639755,28.5104434 Z M33.2300663,20.6134257 L9.03755163,20.6134257 C8.14457379,20.6134257 7.42608587,19.8889758 7.42608587,19.0001117 C7.42608587,18.1112476 8.14970585,17.3867977 9.03755163,17.3867977 L33.2351984,17.3867977 C34.1281762,17.3867977 34.8466642,18.1112476 34.8466642,19.0001117 C34.8466642,19.8889758 34.1230442,20.6134257 33.2300663,20.6134257 L33.2300663,20.6134257 Z" id="path-4"></path>
        <radialGradient cx="44.480255%" cy="16.26992%" fx="44.480255%" fy="16.26992%" r="46.2565957%" gradientTransform="translate(0.444803,0.162699),scale(0.967742,1.000000),rotate(37.613480),scale(1.000000,2.330158),translate(-0.444803,-0.162699)" id="radialGradient-5">
            <stop stop-color="#CCE4FF" stop-opacity="0.8509804" offset="0%"></stop>
            <stop stop-color="#087AFF" stop-opacity="0.36862746" offset="100%"></stop>
        </radialGradient>
        <radialGradient cx="50%" cy="9.19869%" fx="50%" fy="9.19869%" r="68.732721%" gradientTransform="translate(0.500000,0.091987),scale(0.967742,1.000000),rotate(54.930841),scale(1.000000,0.957162),translate(-0.500000,-0.091987)" id="radialGradient-6">
            <stop stop-color="#FFFFFF" offset="0%"></stop>
            <stop stop-color="#FFFFFF" stop-opacity="0" offset="100%"></stop>
        </radialGradient>
        <path d="M56.9219862,34.1964007 L54.9005647,33.9109524 C54.4517525,33.8467265 54.0877553,33.5398695 53.9110576,33.1224013 C53.5117209,32.1697174 53.0028315,31.2776913 52.3949915,30.4641635 C52.122877,30.1002169 52.0415961,29.625659 52.2112259,29.2046227 L52.9780938,27.2956868 C53.2148687,26.7105177 52.9851618,26.036146 52.4409329,25.7221528 L48.0694321,23.1709581 C47.5252032,22.8533968 46.8360823,22.9889848 46.4508813,23.4885194 L45.1998617,25.1048707 C44.9206793,25.4688174 44.4683333,25.6365183 44.0159872,25.5794286 C43.5212337,25.5152027 43.0158783,25.4795217 42.503455,25.4795217 C41.9910317,25.4795217 41.4856763,25.5152027 40.9909228,25.5794286 C40.5385767,25.6365183 40.0862306,25.4688174 39.8070483,25.1048707 L38.5560287,23.4885194 C38.1708277,22.9889848 37.4817068,22.8533968 36.9374779,23.1709581 L32.5659771,25.7185847 C32.0217482,26.036146 31.7955752,26.7069496 32.0288162,27.2921187 L32.7956841,29.2010546 C32.9653139,29.625659 32.884033,30.0966488 32.6119185,30.4605954 C32.0040785,31.2741232 31.4916552,32.1661493 31.0958524,33.1188332 C30.9191547,33.5398695 30.5551574,33.8467265 30.1063453,33.9073843 L28.0849238,34.1928326 C27.4629479,34.2820352 27,34.8172509 27,35.4523735 L27,40.5511946 C27,41.1827491 27.4629479,41.7179648 28.0813898,41.8071674 L30.1028114,42.0926157 C30.5516235,42.1568416 30.9156207,42.4636986 31.0923184,42.8811668 C31.4916552,43.8338507 32.0005445,44.7258768 32.6083846,45.5394046 C32.880499,45.9033512 32.9617799,46.3779091 32.7921502,46.7989454 L32.0252822,48.7078813 C31.7885073,49.2930504 32.0182143,49.9674222 32.5624432,50.2814153 L36.9339439,52.8290419 C37.4781728,53.1466032 38.1672938,53.0110152 38.5524947,52.5114806 L39.8035144,50.8951293 C40.0826967,50.5311826 40.5350428,50.3634817 40.9873889,50.4205714 C41.4821424,50.4847973 41.9874978,50.5204783 42.499921,50.5204783 C43.0123443,50.5204783 43.5176997,50.4847973 44.0124532,50.4205714 C44.4647993,50.3634817 44.9171454,50.5311826 45.1963277,50.8951293 L46.4473474,52.5114806 C46.8325483,53.0110152 47.5216693,53.1466032 48.0658982,52.8290419 L52.4373989,50.2814153 C52.9816278,49.963854 53.2078008,49.2930504 52.9745599,48.7078813 L52.2076919,46.7989454 C52.0380622,46.3779091 52.1193431,45.9033512 52.3914575,45.5394046 C52.9992976,44.7258768 53.5117209,43.8338507 53.9075237,42.8811668 C54.0842214,42.4601305 54.4482186,42.1532735 54.8970307,42.0926157 L56.9184522,41.8071674 C57.5404281,41.7179648 57.9999219,41.1827491 57.9999219,40.5511946 L57.9999219,35.4523735 C58.00691,34.8172509 57.5439621,34.2820352 56.9219862,34.1964007 Z M42.503455,42.956097 C39.7929125,42.956097 37.5947933,40.7367361 37.5947933,38 C37.5947933,35.2632639 39.7929125,33.043903 42.503455,33.043903 C45.2139975,33.043903 47.4121167,35.2632639 47.4121167,38 C47.4121167,40.7367361 45.2139975,42.956097 42.503455,42.956097 Z" id="path-7"></path>
        <filter x="-1.6%" y="-1.7%" width="103.2%" height="103.3%" filterUnits="objectBoundingBox" id="filter-8">
            <feGaussianBlur stdDeviation="0.5" in="SourceAlpha" result="shadowBlurInner1"></feGaussianBlur>
            <feOffset dx="0" dy="0" in="shadowBlurInner1" result="shadowOffsetInner1"></feOffset>
            <feComposite in="shadowOffsetInner1" in2="SourceAlpha" operator="arithmetic" k2="-1" k3="1" result="shadowInnerInner1"></feComposite>
            <feColorMatrix values="0 0 0 0 0.284773962   0 0 0 0 0.713909585   0 0 0 0 1  0 0 0 0.153634451 0" type="matrix" in="shadowInnerInner1"></feColorMatrix>
        </filter>
    </defs>
    <g id="页面-1" stroke="none" stroke-width="1" fill="none" fill-rule="evenodd">
        <g id="初始化首页" transform="translate(-1159.000000, -202.000000)">
            <g id="编组-16" transform="translate(1152.000000, 202.000000)">
                <g id="编组-5备份" transform="translate(7.000000, 0.000000)">
                    <g id="编组-6" transform="translate(1.000000, 4.000000)">
                        <g id="编组" fill-rule="nonzero">
                            <g id="形状">
                                <use fill-opacity="0.9" fill="url(#radialGradient-1)" xlink:href="#path-4"></use>
                                <use fill-opacity="0.9" fill="url(#linearGradient-2)" xlink:href="#path-4"></use>
                                <use fill="url(#linearGradient-3)" xlink:href="#path-4"></use>
                            </g>
                        </g>
                        <g id="形状">
                            <use fill-opacity="0.3" fill="url(#radialGradient-5)" fill-rule="evenodd" xlink:href="#path-7"></use>
                            <use fill="black" fill-opacity="1" filter="url(#filter-8)" xlink:href="#path-7"></use>
                            <path stroke="url(#radialGradient-6)" stroke-width="0.5" d="M47.9434219,23.3868781 L52.3159978,25.9386966 C52.5340608,26.0645082 52.6888723,26.2626596 52.7657126,26.4877519 C52.8428085,26.713593 52.8415145,26.9667153 52.7461129,27.2024942 L51.9793382,29.1111983 C51.7773108,29.6126484 51.8697762,30.1791962 52.1947193,30.6138 C52.7904369,31.4111032 53.2891232,32.2853673 53.680831,33.2198471 C53.8921969,33.7192229 54.3299153,34.0818381 54.8656086,34.1584964 L56.8878875,34.4440644 C57.1369041,34.4783493 57.3540285,34.6027871 57.5080495,34.7822469 C57.661916,34.9615268 57.7527314,35.1956541 57.7499219,35.4523735 L57.7499219,40.5511946 C57.7499219,40.8051577 57.6576399,41.0398237 57.5026203,41.2198569 C57.3483491,41.3990209 57.1319252,41.5239935 56.8834961,41.5596233 L54.8635472,41.8448682 C54.327608,41.9173013 53.8887533,42.2798587 53.6766557,42.7852502 C53.2888483,43.7186894 52.7867449,44.5926764 52.1912345,45.3897025 C51.8662423,45.8243719 51.7737769,46.3909197 51.975711,46.8921381 L52.7423278,48.8004461 C52.8363483,49.0363304 52.8376536,49.2895058 52.7604711,49.5156005 C52.6837692,49.7402874 52.5294557,49.9382518 52.3115202,50.0654187 L47.9399024,52.6131135 C47.7223935,52.7400314 47.4759452,52.7766376 47.2453146,52.7313877 C47.0143551,52.6860732 46.7994834,52.5587363 46.645049,52.358464 L45.3946881,50.7429677 C45.0614656,50.3085734 44.5224942,50.104217 43.9802698,50.1726516 C43.4960436,50.2355109 43.0014431,50.2704783 42.499921,50.2704783 C41.998399,50.2704783 41.5037985,50.2355109 41.0186925,50.172539 C40.4773479,50.104217 39.9383765,50.3085734 39.6058128,50.7421127 L38.3545196,52.3588181 C38.2003587,52.5587363 37.9854869,52.6860732 37.7545275,52.7313877 C37.5238968,52.7766376 37.2774486,52.7400314 37.0598226,52.6130452 L32.6873783,50.0648715 C32.4693152,49.9390599 32.3145037,49.7409085 32.2376634,49.5158162 C32.1605675,49.2899751 32.1618616,49.0368528 32.2572631,48.8010739 L33.0240378,46.8923698 C33.2260652,46.3909197 33.1335998,45.8243719 32.8086567,45.3897681 C32.2129391,44.5924649 31.7142529,43.7182008 31.3225451,42.783721 C31.1111792,42.2843452 30.6734607,41.92173 30.1377675,41.8450717 L28.1170799,41.5597281 C27.8690398,41.5239513 27.6523546,41.3984496 27.4976644,41.2187857 C27.3428019,41.0389217 27.25,40.8047103 27.25,40.5511946 L27.25,35.4523735 C27.25,35.1972164 27.3427471,34.962024 27.4981262,34.7816369 C27.6532715,34.6015211 27.8708492,34.4760928 28.1198799,34.4403767 L30.1398289,34.1551318 C30.675768,34.0826987 31.1146227,33.7201413 31.3267203,33.2147498 C31.7145277,32.2813106 32.2166311,31.4073236 32.8121416,30.6102975 C33.1369505,30.1758732 33.2298131,29.6138625 33.027665,29.1078619 L32.2610483,27.1995539 C32.1670278,26.9636696 32.1657225,26.7104942 32.2429049,26.4843995 C32.3196068,26.2597126 32.4739203,26.0617482 32.6918558,25.9345813 L37.0634736,23.3868865 C37.2809826,23.2599686 37.5274308,23.2233624 37.7580615,23.2686123 C37.9890209,23.3139268 38.2038927,23.4412637 38.3583271,23.641536 L39.6086879,25.2570323 C39.9419104,25.6914266 40.4808819,25.895783 41.0231062,25.8273484 C41.5073325,25.7644891 42.001933,25.7295217 42.503455,25.7295217 C43.004977,25.7295217 43.4995775,25.7644891 43.9846835,25.827461 C44.5260281,25.895783 45.0649996,25.6914266 45.3975633,25.2578873 L46.6488564,23.6411819 C46.8030173,23.4412637 47.0178891,23.3139268 47.2488485,23.2686123 C47.4794792,23.2233624 47.7259274,23.2599686 47.9434219,23.3868781 Z M42.503455,32.793903 C41.0788865,32.793903 39.7888567,33.3769162 38.855046,34.3197508 C37.9221014,35.261711 37.3447933,36.5628845 37.3447933,38 C37.3447933,39.4371155 37.9221014,40.738289 38.855046,41.6802492 C39.7888567,42.6230838 41.0788865,43.206097 42.503455,43.206097 C43.9280235,43.206097 45.2180533,42.6230838 46.151864,41.6802492 C47.0848086,40.738289 47.6621167,39.4371155 47.6621167,38 C47.6621167,36.5628845 47.0848086,35.261711 46.151864,34.3197508 C45.2180533,33.3769162 43.9280235,32.793903 42.503455,32.793903 Z" stroke-linejoin="square"></path>
                        </g>
                    </g>
                </g>
            </g>
        </g>
    </g>
</svg>