<?xml version="1.0" encoding="UTF-8"?>
<svg width="60px" height="60px" viewBox="0 0 60 60" version="1.1" xmlns="http://www.w3.org/2000/svg" xmlns:xlink="http://www.w3.org/1999/xlink">
    <title>矩形</title>
    <defs>
        <radialGradient cx="-13.5225209%" cy="-15.0196324%" fx="-13.5225209%" fy="-15.0196324%" r="97.8450603%" gradientTransform="translate(-0.135225,-0.150196),scale(0.938776,1.000000),rotate(-84.257389),scale(1.000000,0.908500),translate(0.135225,0.150196)" id="radialGradient-1">
            <stop stop-color="#E5E2FF" offset="0%"></stop>
            <stop stop-color="#F3F2FF" offset="0%"></stop>
            <stop stop-color="#FFFFFF" stop-opacity="0.112122009" offset="100%"></stop>
        </radialGradient>
        <linearGradient x1="110.716919%" y1="101.40032%" x2="68.3547937%" y2="70.5711246%" id="linearGradient-2">
            <stop stop-color="#FDF6FF" offset="0%"></stop>
            <stop stop-color="#FFFFFF" stop-opacity="0.192078064" offset="100%"></stop>
        </linearGradient>
        <linearGradient x1="0%" y1="-0.562023349%" x2="52.5329584%" y2="72.2621191%" id="linearGradient-3">
            <stop stop-color="#BB92FF" offset="0%"></stop>
            <stop stop-color="#5A73FF" offset="100%"></stop>
        </linearGradient>
        <path d="M5.6561669,39.3384594 L19.6871664,39.3384594 L19.6871664,45.2376768 L11.4935627,45.2376768 C10.2123356,45.2376768 9.13735475,46.3240423 9.13735475,47.6188384 C9.13735475,48.9136345 10.2123356,50 11.4935627,50 L39.4993127,50 C40.7805398,50 41.8555206,48.9136345 41.8555206,47.6188384 C41.8555206,46.3240423 40.7805398,45.2376768 39.4993127,45.2376768 L31.3119589,45.2376768 L31.3119589,39.3384594 L45.3429584,39.3384594 C47.9054126,39.3384594 49.9991253,37.216257 49.9991253,34.6329809 L49.9991253,32.2518193 L1,32.2518193 L1,34.6329809 C1,37.2225731 3.09996253,39.3384594 5.6561669,39.3384594 Z M45.3867076,4 L5.6561669,4 C3.09371266,4 1,6.12220241 1,8.70547849 L1,29.1086984 L49.9991253,29.1086984 L49.9991253,8.70547849 C50.0491243,6.12220236 47.9491619,4 45.3867076,4 Z" id="path-4"></path>
        <radialGradient cx="44.480255%" cy="16.26992%" fx="44.480255%" fy="16.26992%" r="46.2565957%" gradientTransform="translate(0.444803,0.162699),scale(0.967742,1.000000),rotate(37.613480),scale(1.000000,2.330158),translate(-0.444803,-0.162699)" id="radialGradient-5">
            <stop stop-color="#CCE4FF" stop-opacity="0.8509804" offset="0%"></stop>
            <stop stop-color="#087AFF" stop-opacity="0.36862746" offset="100%"></stop>
        </radialGradient>
        <radialGradient cx="50%" cy="9.19869%" fx="50%" fy="9.19869%" r="68.732721%" gradientTransform="translate(0.500000,0.091987),scale(0.967742,1.000000),rotate(54.930841),scale(1.000000,0.957162),translate(-0.500000,-0.091987)" id="radialGradient-6">
            <stop stop-color="#FFFFFF" offset="0%"></stop>
            <stop stop-color="#FFFFFF" stop-opacity="0" offset="100%"></stop>
        </radialGradient>
        <path d="M57.9219862,38.1964007 L55.9005647,37.9109524 C55.4517525,37.8467265 55.0877553,37.5398695 54.9110576,37.1224013 C54.5117209,36.1697174 54.0028315,35.2776913 53.3949915,34.4641635 C53.122877,34.1002169 53.0415961,33.625659 53.2112259,33.2046227 L53.9780938,31.2956868 C54.2148687,30.7105177 53.9851618,30.036146 53.4409329,29.7221528 L49.0694321,27.1709581 C48.5252032,26.8533968 47.8360823,26.9889848 47.4508813,27.4885194 L46.1998617,29.1048707 C45.9206793,29.4688174 45.4683333,29.6365183 45.0159872,29.5794286 C44.5212337,29.5152027 44.0158783,29.4795217 43.503455,29.4795217 C42.9910317,29.4795217 42.4856763,29.5152027 41.9909228,29.5794286 C41.5385767,29.6365183 41.0862306,29.4688174 40.8070483,29.1048707 L39.5560287,27.4885194 C39.1708277,26.9889848 38.4817068,26.8533968 37.9374779,27.1709581 L33.5659771,29.7185847 C33.0217482,30.036146 32.7955752,30.7069496 33.0288162,31.2921187 L33.7956841,33.2010546 C33.9653139,33.625659 33.884033,34.0966488 33.6119185,34.4605954 C33.0040785,35.2741232 32.4916552,36.1661493 32.0958524,37.1188332 C31.9191547,37.5398695 31.5551574,37.8467265 31.1063453,37.9073843 L29.0849238,38.1928326 C28.4629479,38.2820352 28,38.8172509 28,39.4523735 L28,44.5511946 C28,45.1827491 28.4629479,45.7179648 29.0813898,45.8071674 L31.1028114,46.0926157 C31.5516235,46.1568416 31.9156207,46.4636986 32.0923184,46.8811668 C32.4916552,47.8338507 33.0005445,48.7258768 33.6083846,49.5394046 C33.880499,49.9033512 33.9617799,50.3779091 33.7921502,50.7989454 L33.0252822,52.7078813 C32.7885073,53.2930504 33.0182143,53.9674222 33.5624432,54.2814153 L37.9339439,56.8290419 C38.4781728,57.1466032 39.1672938,57.0110152 39.5524947,56.5114806 L40.8035144,54.8951293 C41.0826967,54.5311826 41.5350428,54.3634817 41.9873889,54.4205714 C42.4821424,54.4847973 42.9874978,54.5204783 43.499921,54.5204783 C44.0123443,54.5204783 44.5176997,54.4847973 45.0124532,54.4205714 C45.4647993,54.3634817 45.9171454,54.5311826 46.1963277,54.8951293 L47.4473474,56.5114806 C47.8325483,57.0110152 48.5216693,57.1466032 49.0658982,56.8290419 L53.4373989,54.2814153 C53.9816278,53.963854 54.2078008,53.2930504 53.9745599,52.7078813 L53.2076919,50.7989454 C53.0380622,50.3779091 53.1193431,49.9033512 53.3914575,49.5394046 C53.9992976,48.7258768 54.5117209,47.8338507 54.9075237,46.8811668 C55.0842214,46.4601305 55.4482186,46.1532735 55.8970307,46.0926157 L57.9184522,45.8071674 C58.5404281,45.7179648 58.9999219,45.1827491 58.9999219,44.5511946 L58.9999219,39.4523735 C59.00691,38.8172509 58.5439621,38.2820352 57.9219862,38.1964007 Z M43.503455,46.956097 C40.7929125,46.956097 38.5947933,44.7367361 38.5947933,42 C38.5947933,39.2632639 40.7929125,37.043903 43.503455,37.043903 C46.2139975,37.043903 48.4121167,39.2632639 48.4121167,42 C48.4121167,44.7367361 46.2139975,46.956097 43.503455,46.956097 Z" id="path-7"></path>
        <filter x="-1.6%" y="-1.7%" width="103.2%" height="103.3%" filterUnits="objectBoundingBox" id="filter-8">
            <feGaussianBlur stdDeviation="0.5" in="SourceAlpha" result="shadowBlurInner1"></feGaussianBlur>
            <feOffset dx="0" dy="0" in="shadowBlurInner1" result="shadowOffsetInner1"></feOffset>
            <feComposite in="shadowOffsetInner1" in2="SourceAlpha" operator="arithmetic" k2="-1" k3="1" result="shadowInnerInner1"></feComposite>
            <feColorMatrix values="0 0 0 0 0.284773962   0 0 0 0 0.713909585   0 0 0 0 1  0 0 0 0.153634451 0" type="matrix" in="shadowInnerInner1"></feColorMatrix>
        </filter>
    </defs>
    <g id="页面-1" stroke="none" stroke-width="1" fill="none" fill-rule="evenodd">
        <g id="初始化首页" transform="translate(-1159.000000, -426.000000)">
            <g id="编组-14" transform="translate(1153.000000, 426.000000)">
                <g id="编组" transform="translate(6.000000, 0.000000)">
                    <g id="形状" fill-rule="nonzero">
                        <use fill-opacity="0.9" fill="url(#radialGradient-1)" xlink:href="#path-4"></use>
                        <use fill-opacity="0.9" fill="url(#linearGradient-2)" xlink:href="#path-4"></use>
                        <use fill="url(#linearGradient-3)" xlink:href="#path-4"></use>
                    </g>
                    <g id="形状">
                        <use fill-opacity="0.3" fill="url(#radialGradient-5)" fill-rule="evenodd" xlink:href="#path-7"></use>
                        <use fill="black" fill-opacity="1" filter="url(#filter-8)" xlink:href="#path-7"></use>
                        <path stroke="url(#radialGradient-6)" stroke-width="0.5" d="M48.9434219,27.3868781 L53.3159978,29.9386966 C53.5340608,30.0645082 53.6888723,30.2626596 53.7657126,30.4877519 C53.8428085,30.713593 53.8415145,30.9667153 53.7461129,31.2024942 L52.9793382,33.1111983 C52.7773108,33.6126484 52.8697762,34.1791962 53.1947193,34.6138 C53.7904369,35.4111032 54.2891232,36.2853673 54.680831,37.2198471 C54.8921969,37.7192229 55.3299153,38.0818381 55.8656086,38.1584964 L57.8878875,38.4440644 C58.1369041,38.4783493 58.3540285,38.6027871 58.5080495,38.7822469 C58.661916,38.9615268 58.7527314,39.1956541 58.7499219,39.4523735 L58.7499219,44.5511946 C58.7499219,44.8051577 58.6576399,45.0398237 58.5026203,45.2198569 C58.3483491,45.3990209 58.1319252,45.5239935 57.8834961,45.5596233 L55.8635472,45.8448682 C55.327608,45.9173013 54.8887533,46.2798587 54.6766557,46.7852502 C54.2888483,47.7186894 53.7867449,48.5926764 53.1912345,49.3897025 C52.8662423,49.8243719 52.7737769,50.3909197 52.975711,50.8921381 L53.7423278,52.8004461 C53.8363483,53.0363304 53.8376536,53.2895058 53.7604711,53.5156005 C53.6837692,53.7402874 53.5294557,53.9382518 53.3115202,54.0654187 L48.9399024,56.6131135 C48.7223935,56.7400314 48.4759452,56.7766376 48.2453146,56.7313877 C48.0143551,56.6860732 47.7994834,56.5587363 47.645049,56.358464 L46.3946881,54.7429677 C46.0614656,54.3085734 45.5224942,54.104217 44.9802698,54.1726516 C44.4960436,54.2355109 44.0014431,54.2704783 43.499921,54.2704783 C42.998399,54.2704783 42.5037985,54.2355109 42.0186925,54.172539 C41.4773479,54.104217 40.9383765,54.3085734 40.6058128,54.7421127 L39.3545196,56.3588181 C39.2003587,56.5587363 38.9854869,56.6860732 38.7545275,56.7313877 C38.5238968,56.7766376 38.2774486,56.7400314 38.0598226,56.6130452 L33.6873783,54.0648715 C33.4693152,53.9390599 33.3145037,53.7409085 33.2376634,53.5158162 C33.1605675,53.2899751 33.1618616,53.0368528 33.2572631,52.8010739 L34.0240378,50.8923698 C34.2260652,50.3909197 34.1335998,49.8243719 33.8086567,49.3897681 C33.2129391,48.5924649 32.7142529,47.7182008 32.3225451,46.783721 C32.1111792,46.2843452 31.6734607,45.92173 31.1377675,45.8450717 L29.1170799,45.5597281 C28.8690398,45.5239513 28.6523546,45.3984496 28.4976644,45.2187857 C28.3428019,45.0389217 28.25,44.8047103 28.25,44.5511946 L28.25,39.4523735 C28.25,39.1972164 28.3427471,38.962024 28.4981262,38.7816369 C28.6532715,38.6015211 28.8708492,38.4760928 29.1198799,38.4403767 L31.1398289,38.1551318 C31.675768,38.0826987 32.1146227,37.7201413 32.3267203,37.2147498 C32.7145277,36.2813106 33.2166311,35.4073236 33.8121416,34.6102975 C34.1369505,34.1758732 34.2298131,33.6138625 34.027665,33.1078619 L33.2610483,31.1995539 C33.1670278,30.9636696 33.1657225,30.7104942 33.2429049,30.4843995 C33.3196068,30.2597126 33.4739203,30.0617482 33.6918558,29.9345813 L38.0634736,27.3868865 C38.2809826,27.2599686 38.5274308,27.2233624 38.7580615,27.2686123 C38.9890209,27.3139268 39.2038927,27.4412637 39.3583271,27.641536 L40.6086879,29.2570323 C40.9419104,29.6914266 41.4808819,29.895783 42.0231062,29.8273484 C42.5073325,29.7644891 43.001933,29.7295217 43.503455,29.7295217 C44.004977,29.7295217 44.4995775,29.7644891 44.9846835,29.827461 C45.5260281,29.895783 46.0649996,29.6914266 46.3975633,29.2578873 L47.6488564,27.6411819 C47.8030173,27.4412637 48.0178891,27.3139268 48.2488485,27.2686123 C48.4794792,27.2233624 48.7259274,27.2599686 48.9434219,27.3868781 Z M43.503455,36.793903 C42.0788865,36.793903 40.7888567,37.3769162 39.855046,38.3197508 C38.9221014,39.261711 38.3447933,40.5628845 38.3447933,42 C38.3447933,43.4371155 38.9221014,44.738289 39.855046,45.6802492 C40.7888567,46.6230838 42.0788865,47.206097 43.503455,47.206097 C44.9280235,47.206097 46.2180533,46.6230838 47.151864,45.6802492 C48.0848086,44.738289 48.6621167,43.4371155 48.6621167,42 C48.6621167,40.5628845 48.0848086,39.261711 47.151864,38.3197508 C46.2180533,37.3769162 44.9280235,36.793903 43.503455,36.793903 Z" stroke-linejoin="square"></path>
                    </g>
                </g>
            </g>
        </g>
    </g>
</svg>