<?xml version="1.0" encoding="UTF-8"?>
<svg width="60px" height="60px" viewBox="0 0 60 60" version="1.1" xmlns="http://www.w3.org/2000/svg" xmlns:xlink="http://www.w3.org/1999/xlink">
    <title>矩形</title>
    <defs>
        <radialGradient cx="-13.5225209%" cy="-15.0196324%" fx="-13.5225209%" fy="-15.0196324%" r="101.912031%" gradientTransform="translate(-0.135225,-0.150196),scale(1.000000,0.959184),rotate(-84.825746),scale(1.000000,0.908500),translate(0.135225,0.150196)" id="radialGradient-1">
            <stop stop-color="#E5E2FF" offset="0%"></stop>
            <stop stop-color="#F3F2FF" offset="0%"></stop>
            <stop stop-color="#FFFFFF" stop-opacity="0.112122009" offset="100%"></stop>
        </radialGradient>
        <linearGradient x1="105.861589%" y1="108.323331%" x2="66.8870218%" y2="73.34181%" id="linearGradient-2">
            <stop stop-color="#FDF6FF" offset="0%"></stop>
            <stop stop-color="#FFFFFF" stop-opacity="0.192078064" offset="100%"></stop>
        </linearGradient>
        <linearGradient x1="3.99833403%" y1="-7.37212574%" x2="52.3304061%" y2="75.2605615%" id="linearGradient-3">
            <stop stop-color="#BB92FF" offset="0%"></stop>
            <stop stop-color="#5A73FF" offset="100%"></stop>
        </linearGradient>
        <path d="M23.5028117,22.2819239 C23.0126786,22.2642105 22.5404771,22.140217 22.1041391,21.9217523 L4.39957454,13.6909451 C2.91124349,13.0355509 2.24179338,11.3114507 2.90526626,9.84124193 C3.20412791,9.17994322 3.73610166,8.65444692 4.39957454,8.36512874 L21.2254859,0.500397675 C22.6644006,-0.166799225 24.3292683,-0.166799225 25.768183,0.500397675 L42.6000716,8.36512874 C44.0884026,9.020523 44.7578528,10.7446232 44.0943799,12.2148319 C43.7955182,12.8761306 43.2635445,13.4016269 42.6000716,13.6909451 L24.895507,21.9158478 C24.4651462,22.140217 23.9869676,22.2642105 23.5028117,22.2819239 Z M18.9302283,48.9995726 C18.4759586,48.9995726 18.0276661,48.887388 17.6271915,48.6748277 L1.6321156,41.2647395 C0.61598596,40.7392432 -0.0116235205,39.7000595 0.000163154286,38.572309 L0.000163154286,19.6780602 C0.0063081789,18.6152587 0.580122561,17.641024 1.50061647,17.0978144 C2.35536081,16.6195537 3.40137661,16.6195537 4.25612095,17.0978144 L20.2213107,24.5019981 C21.1836452,25.0156855 21.7993002,26.0017291 21.8411409,27.082244 L21.8411409,46.0001106 C21.8291864,47.0570076 21.2673265,48.0312423 20.3528098,48.5803564 C19.922449,48.8342479 19.4323159,48.9818592 18.9302283,48.9995726 L18.9302283,48.9995726 Z M28.0694178,48.9997943 C27.5733075,48.9997943 27.0831743,48.8696746 26.6468363,48.627592 C25.7323196,48.0784779 25.1704597,47.1042432 25.1585053,46.0473462 L25.1585053,27.0763395 C25.1824142,26.0017291 25.7801375,25.02159 26.7245403,24.4960937 L42.7973203,17.0446743 C43.6460874,16.6018403 44.6741715,16.6254581 45.4990297,17.1096233 C46.4255008,17.6469285 46.993338,18.6270676 46.9993152,19.6898691 L46.9993152,38.572309 C47.0232241,39.6882506 46.4195236,40.7274343 45.4332801,41.2647395 L29.3784319,48.6807321 C28.97198,48.8932924 28.5236875,49.005477 28.0694178,48.9997943 L28.0694178,48.9997943 Z" id="path-4"></path>
        <radialGradient cx="44.480255%" cy="16.26992%" fx="44.480255%" fy="16.26992%" r="46.2565957%" gradientTransform="translate(0.444803,0.162699),scale(0.967742,1.000000),rotate(37.613480),scale(1.000000,2.330158),translate(-0.444803,-0.162699)" id="radialGradient-5">
            <stop stop-color="#CCE4FF" stop-opacity="0.8509804" offset="0%"></stop>
            <stop stop-color="#087AFF" stop-opacity="0.36862746" offset="100%"></stop>
        </radialGradient>
        <linearGradient x1="21.1763556%" y1="16.8079714%" x2="83.3206809%" y2="84.9275518%" id="linearGradient-6">
            <stop stop-color="#FFFFFF" stop-opacity="0" offset="0%"></stop>
            <stop stop-color="#4A85FC" stop-opacity="0.162704361" offset="100%"></stop>
        </linearGradient>
        <radialGradient cx="50%" cy="9.19869%" fx="50%" fy="9.19869%" r="68.732721%" gradientTransform="translate(0.500000,0.091987),scale(0.967742,1.000000),rotate(54.930841),scale(1.000000,0.957162),translate(-0.500000,-0.091987)" id="radialGradient-7">
            <stop stop-color="#FFFFFF" offset="0%"></stop>
            <stop stop-color="#FFFFFF" stop-opacity="0" offset="100%"></stop>
        </radialGradient>
        <path d="M56.9219862,37.1964007 L54.9005647,36.9109524 C54.4517525,36.8467265 54.0877553,36.5398695 53.9110576,36.1224013 C53.5117209,35.1697174 53.0028315,34.2776913 52.3949915,33.4641635 C52.122877,33.1002169 52.0415961,32.625659 52.2112259,32.2046227 L52.9780938,30.2956868 C53.2148687,29.7105177 52.9851618,29.036146 52.4409329,28.7221528 L48.0694321,26.1709581 C47.5252032,25.8533968 46.8360823,25.9889848 46.4508813,26.4885194 L45.1998617,28.1048707 C44.9206793,28.4688174 44.4683333,28.6365183 44.0159872,28.5794286 C43.5212337,28.5152027 43.0158783,28.4795217 42.503455,28.4795217 C41.9910317,28.4795217 41.4856763,28.5152027 40.9909228,28.5794286 C40.5385767,28.6365183 40.0862306,28.4688174 39.8070483,28.1048707 L38.5560287,26.4885194 C38.1708277,25.9889848 37.4817068,25.8533968 36.9374779,26.1709581 L32.5659771,28.7185847 C32.0217482,29.036146 31.7955752,29.7069496 32.0288162,30.2921187 L32.7956841,32.2010546 C32.9653139,32.625659 32.884033,33.0966488 32.6119185,33.4605954 C32.0040785,34.2741232 31.4916552,35.1661493 31.0958524,36.1188332 C30.9191547,36.5398695 30.5551574,36.8467265 30.1063453,36.9073843 L28.0849238,37.1928326 C27.4629479,37.2820352 27,37.8172509 27,38.4523735 L27,43.5511946 C27,44.1827491 27.4629479,44.7179648 28.0813898,44.8071674 L30.1028114,45.0926157 C30.5516235,45.1568416 30.9156207,45.4636986 31.0923184,45.8811668 C31.4916552,46.8338507 32.0005445,47.7258768 32.6083846,48.5394046 C32.880499,48.9033512 32.9617799,49.3779091 32.7921502,49.7989454 L32.0252822,51.7078813 C31.7885073,52.2930504 32.0182143,52.9674222 32.5624432,53.2814153 L36.9339439,55.8290419 C37.4781728,56.1466032 38.1672938,56.0110152 38.5524947,55.5114806 L39.8035144,53.8951293 C40.0826967,53.5311826 40.5350428,53.3634817 40.9873889,53.4205714 C41.4821424,53.4847973 41.9874978,53.5204783 42.499921,53.5204783 C43.0123443,53.5204783 43.5176997,53.4847973 44.0124532,53.4205714 C44.4647993,53.3634817 44.9171454,53.5311826 45.1963277,53.8951293 L46.4473474,55.5114806 C46.8325483,56.0110152 47.5216693,56.1466032 48.0658982,55.8290419 L52.4373989,53.2814153 C52.9816278,52.963854 53.2078008,52.2930504 52.9745599,51.7078813 L52.2076919,49.7989454 C52.0380622,49.3779091 52.1193431,48.9033512 52.3914575,48.5394046 C52.9992976,47.7258768 53.5117209,46.8338507 53.9075237,45.8811668 C54.0842214,45.4601305 54.4482186,45.1532735 54.8970307,45.0926157 L56.9184522,44.8071674 C57.5404281,44.7179648 57.9999219,44.1827491 57.9999219,43.5511946 L57.9999219,38.4523735 C58.00691,37.8172509 57.5439621,37.2820352 56.9219862,37.1964007 Z M42.503455,45.956097 C39.7929125,45.956097 37.5947933,43.7367361 37.5947933,41 C37.5947933,38.2632639 39.7929125,36.043903 42.503455,36.043903 C45.2139975,36.043903 47.4121167,38.2632639 47.4121167,41 C47.4121167,43.7367361 45.2139975,45.956097 42.503455,45.956097 Z" id="path-8"></path>
        <filter x="-1.6%" y="-1.7%" width="103.2%" height="103.3%" filterUnits="objectBoundingBox" id="filter-9">
            <feGaussianBlur stdDeviation="0.5" in="SourceAlpha" result="shadowBlurInner1"></feGaussianBlur>
            <feOffset dx="0" dy="0" in="shadowBlurInner1" result="shadowOffsetInner1"></feOffset>
            <feComposite in="shadowOffsetInner1" in2="SourceAlpha" operator="arithmetic" k2="-1" k3="1" result="shadowInnerInner1"></feComposite>
            <feColorMatrix values="0 0 0 0 0.284773962   0 0 0 0 0.713909585   0 0 0 0 1  0 0 0 0.153634451 0" type="matrix" in="shadowInnerInner1"></feColorMatrix>
        </filter>
    </defs>
    <g id="页面-1" stroke="none" stroke-width="1" fill="none" fill-rule="evenodd">
        <g id="初始化首页" transform="translate(-733.000000, -426.000000)">
            <g id="编组-13" transform="translate(728.000000, 426.000000)">
                <g id="编组-7备份" transform="translate(5.000000, 0.000000)">
                    <g id="编组-8" transform="translate(1.000000, 2.000000)">
                        <g id="形状" fill-rule="nonzero">
                            <use fill-opacity="0.9" fill="url(#radialGradient-1)" xlink:href="#path-4"></use>
                            <use fill-opacity="0.9" fill="url(#linearGradient-2)" xlink:href="#path-4"></use>
                            <use fill="url(#linearGradient-3)" xlink:href="#path-4"></use>
                        </g>
                        <g id="形状">
                            <use fill-opacity="0.3" fill="url(#radialGradient-5)" fill-rule="evenodd" xlink:href="#path-8"></use>
                            <use fill="url(#linearGradient-6)" fill-rule="evenodd" xlink:href="#path-8"></use>
                            <use fill="black" fill-opacity="1" filter="url(#filter-9)" xlink:href="#path-8"></use>
                            <path stroke="url(#radialGradient-7)" stroke-width="0.5" d="M47.9434219,26.3868781 L52.3159978,28.9386966 C52.5340608,29.0645082 52.6888723,29.2626596 52.7657126,29.4877519 C52.8428085,29.713593 52.8415145,29.9667153 52.7461129,30.2024942 L51.9793382,32.1111983 C51.7773108,32.6126484 51.8697762,33.1791962 52.1947193,33.6138 C52.7904369,34.4111032 53.2891232,35.2853673 53.680831,36.2198471 C53.8921969,36.7192229 54.3299153,37.0818381 54.8656086,37.1584964 L56.8878875,37.4440644 C57.1369041,37.4783493 57.3540285,37.6027871 57.5080495,37.7822469 C57.661916,37.9615268 57.7527314,38.1956541 57.7499219,38.4523735 L57.7499219,43.5511946 C57.7499219,43.8051577 57.6576399,44.0398237 57.5026203,44.2198569 C57.3483491,44.3990209 57.1319252,44.5239935 56.8834961,44.5596233 L54.8635472,44.8448682 C54.327608,44.9173013 53.8887533,45.2798587 53.6766557,45.7852502 C53.2888483,46.7186894 52.7867449,47.5926764 52.1912345,48.3897025 C51.8662423,48.8243719 51.7737769,49.3909197 51.975711,49.8921381 L52.7423278,51.8004461 C52.8363483,52.0363304 52.8376536,52.2895058 52.7604711,52.5156005 C52.6837692,52.7402874 52.5294557,52.9382518 52.3115202,53.0654187 L47.9399024,55.6131135 C47.7223935,55.7400314 47.4759452,55.7766376 47.2453146,55.7313877 C47.0143551,55.6860732 46.7994834,55.5587363 46.645049,55.358464 L45.3946881,53.7429677 C45.0614656,53.3085734 44.5224942,53.104217 43.9802698,53.1726516 C43.4960436,53.2355109 43.0014431,53.2704783 42.499921,53.2704783 C41.998399,53.2704783 41.5037985,53.2355109 41.0186925,53.172539 C40.4773479,53.104217 39.9383765,53.3085734 39.6058128,53.7421127 L38.3545196,55.3588181 C38.2003587,55.5587363 37.9854869,55.6860732 37.7545275,55.7313877 C37.5238968,55.7766376 37.2774486,55.7400314 37.0598226,55.6130452 L32.6873783,53.0648715 C32.4693152,52.9390599 32.3145037,52.7409085 32.2376634,52.5158162 C32.1605675,52.2899751 32.1618616,52.0368528 32.2572631,51.8010739 L33.0240378,49.8923698 C33.2260652,49.3909197 33.1335998,48.8243719 32.8086567,48.3897681 C32.2129391,47.5924649 31.7142529,46.7182008 31.3225451,45.783721 C31.1111792,45.2843452 30.6734607,44.92173 30.1377675,44.8450717 L28.1170799,44.5597281 C27.8690398,44.5239513 27.6523546,44.3984496 27.4976644,44.2187857 C27.3428019,44.0389217 27.25,43.8047103 27.25,43.5511946 L27.25,38.4523735 C27.25,38.1972164 27.3427471,37.962024 27.4981262,37.7816369 C27.6532715,37.6015211 27.8708492,37.4760928 28.1198799,37.4403767 L30.1398289,37.1551318 C30.675768,37.0826987 31.1146227,36.7201413 31.3267203,36.2147498 C31.7145277,35.2813106 32.2166311,34.4073236 32.8121416,33.6102975 C33.1369505,33.1758732 33.2298131,32.6138625 33.027665,32.1078619 L32.2610483,30.1995539 C32.1670278,29.9636696 32.1657225,29.7104942 32.2429049,29.4843995 C32.3196068,29.2597126 32.4739203,29.0617482 32.6918558,28.9345813 L37.0634736,26.3868865 C37.2809826,26.2599686 37.5274308,26.2233624 37.7580615,26.2686123 C37.9890209,26.3139268 38.2038927,26.4412637 38.3583271,26.641536 L39.6086879,28.2570323 C39.9419104,28.6914266 40.4808819,28.895783 41.0231062,28.8273484 C41.5073325,28.7644891 42.001933,28.7295217 42.503455,28.7295217 C43.004977,28.7295217 43.4995775,28.7644891 43.9846835,28.827461 C44.5260281,28.895783 45.0649996,28.6914266 45.3975633,28.2578873 L46.6488564,26.6411819 C46.8030173,26.4412637 47.0178891,26.3139268 47.2488485,26.2686123 C47.4794792,26.2233624 47.7259274,26.2599686 47.9434219,26.3868781 Z M42.503455,35.793903 C41.0788865,35.793903 39.7888567,36.3769162 38.855046,37.3197508 C37.9221014,38.261711 37.3447933,39.5628845 37.3447933,41 C37.3447933,42.4371155 37.9221014,43.738289 38.855046,44.6802492 C39.7888567,45.6230838 41.0788865,46.206097 42.503455,46.206097 C43.9280235,46.206097 45.2180533,45.6230838 46.151864,44.6802492 C47.0848086,43.738289 47.6621167,42.4371155 47.6621167,41 C47.6621167,39.5628845 47.0848086,38.261711 46.151864,37.3197508 C45.2180533,36.3769162 43.9280235,35.793903 42.503455,35.793903 Z" stroke-linejoin="square"></path>
                        </g>
                    </g>
                </g>
            </g>
        </g>
    </g>
</svg>