<?xml version="1.0" encoding="UTF-8"?>
<svg width="60px" height="60px" viewBox="0 0 60 60" version="1.1" xmlns="http://www.w3.org/2000/svg" xmlns:xlink="http://www.w3.org/1999/xlink">
    <title>矩形</title>
    <defs>
        <radialGradient cx="-13.5225209%" cy="-15.0196324%" fx="-13.5225209%" fy="-15.0196324%" r="97.7869023%" gradientTransform="translate(-0.135225,-0.150196),rotate(-84.606837),scale(1.000000,0.908500),translate(0.135225,0.150196)" id="radialGradient-1">
            <stop stop-color="#E5E2FF" offset="0%"></stop>
            <stop stop-color="#F3F2FF" offset="0%"></stop>
            <stop stop-color="#FFFFFF" stop-opacity="0.112122009" offset="100%"></stop>
        </radialGradient>
        <linearGradient x1="110.716919%" y1="108.323331%" x2="68.3547937%" y2="73.34181%" id="linearGradient-2">
            <stop stop-color="#FDF6FF" offset="0%"></stop>
            <stop stop-color="#FFFFFF" stop-opacity="0.192078064" offset="100%"></stop>
        </linearGradient>
        <linearGradient x1="0%" y1="-7.37212574%" x2="52.5329584%" y2="75.2605615%" id="linearGradient-3">
            <stop stop-color="#BB92FF" offset="0%"></stop>
            <stop stop-color="#5A73FF" offset="100%"></stop>
        </linearGradient>
        <path d="M40.9462891,41.6425781 C42.1448047,41.6425781 43.125,42.6227734 43.125,43.8212891 C43.125,45.0198047 42.1448047,46 40.9462891,46 L5.07617188,46 C3.87810547,46 2.89746094,45.0193555 2.89746094,43.8212891 C2.89746094,42.6232227 3.87765625,41.6425781 5.07617188,41.6425781 L40.9462891,41.6425781 Z M43.3046875,0 C44.7871094,0 46,1.21289062 46,2.6953125 L46,32.8378906 C46,34.3203125 44.7871094,35.5332031 43.3046875,35.5332031 L11.882,35.533 L17.2162303,26.7279744 L23.5017071,29.9949352 C24.1373407,30.3252734 24.9178441,30.1600625 25.3651114,29.6005044 L32.3846377,20.8185272 C32.7349545,20.9362218 33.1100292,21 33.5,21 C35.4329966,21 37,19.4329966 37,17.5 C37,15.5670034 35.4329966,14 33.5,14 C31.5670034,14 30,15.5670034 30,17.5 C30,17.9296797 30.0774279,18.3412751 30.2190923,18.721595 L23.7912303,26.7639744 L17.3533783,23.4187099 C16.652058,23.0542344 15.7882468,23.2964839 15.3787213,23.972488 L8.375,35.533 L2.6953125,35.5332031 C1.26990685,35.5332031 0.0936979937,34.4118176 0.00532897755,33.0076895 L0,32.8378906 L0,2.6953125 C0,1.21289062 1.21289062,0 2.6953125,0 Z" id="path-4"></path>
        <radialGradient cx="44.480255%" cy="16.26992%" fx="44.480255%" fy="16.26992%" r="46.2565957%" gradientTransform="translate(0.444803,0.162699),scale(0.967742,1.000000),rotate(37.613480),scale(1.000000,2.330158),translate(-0.444803,-0.162699)" id="radialGradient-5">
            <stop stop-color="#CCE4FF" stop-opacity="0.8509804" offset="0%"></stop>
            <stop stop-color="#087AFF" stop-opacity="0.36862746" offset="100%"></stop>
        </radialGradient>
        <linearGradient x1="21.1763556%" y1="16.8079714%" x2="83.3206809%" y2="84.9275518%" id="linearGradient-6">
            <stop stop-color="#FFFFFF" stop-opacity="0" offset="0%"></stop>
            <stop stop-color="#4A85FC" stop-opacity="0.162704361" offset="100%"></stop>
        </linearGradient>
        <radialGradient cx="50%" cy="9.19869%" fx="50%" fy="9.19869%" r="68.732721%" gradientTransform="translate(0.500000,0.091987),scale(0.967742,1.000000),rotate(54.930841),scale(1.000000,0.957162),translate(-0.500000,-0.091987)" id="radialGradient-7">
            <stop stop-color="#FFFFFF" offset="0%"></stop>
            <stop stop-color="#FFFFFF" stop-opacity="0" offset="100%"></stop>
        </radialGradient>
        <path d="M54.9219862,34.1964007 L52.9005647,33.9109524 C52.4517525,33.8467265 52.0877553,33.5398695 51.9110576,33.1224013 C51.5117209,32.1697174 51.0028315,31.2776913 50.3949915,30.4641635 C50.122877,30.1002169 50.0415961,29.625659 50.2112259,29.2046227 L50.9780938,27.2956868 C51.2148687,26.7105177 50.9851618,26.036146 50.4409329,25.7221528 L46.0694321,23.1709581 C45.5252032,22.8533968 44.8360823,22.9889848 44.4508813,23.4885194 L43.1998617,25.1048707 C42.9206793,25.4688174 42.4683333,25.6365183 42.0159872,25.5794286 C41.5212337,25.5152027 41.0158783,25.4795217 40.503455,25.4795217 C39.9910317,25.4795217 39.4856763,25.5152027 38.9909228,25.5794286 C38.5385767,25.6365183 38.0862306,25.4688174 37.8070483,25.1048707 L36.5560287,23.4885194 C36.1708277,22.9889848 35.4817068,22.8533968 34.9374779,23.1709581 L30.5659771,25.7185847 C30.0217482,26.036146 29.7955752,26.7069496 30.0288162,27.2921187 L30.7956841,29.2010546 C30.9653139,29.625659 30.884033,30.0966488 30.6119185,30.4605954 C30.0040785,31.2741232 29.4916552,32.1661493 29.0958524,33.1188332 C28.9191547,33.5398695 28.5551574,33.8467265 28.1063453,33.9073843 L26.0849238,34.1928326 C25.4629479,34.2820352 25,34.8172509 25,35.4523735 L25,40.5511946 C25,41.1827491 25.4629479,41.7179648 26.0813898,41.8071674 L28.1028114,42.0926157 C28.5516235,42.1568416 28.9156207,42.4636986 29.0923184,42.8811668 C29.4916552,43.8338507 30.0005445,44.7258768 30.6083846,45.5394046 C30.880499,45.9033512 30.9617799,46.3779091 30.7921502,46.7989454 L30.0252822,48.7078813 C29.7885073,49.2930504 30.0182143,49.9674222 30.5624432,50.2814153 L34.9339439,52.8290419 C35.4781728,53.1466032 36.1672938,53.0110152 36.5524947,52.5114806 L37.8035144,50.8951293 C38.0826967,50.5311826 38.5350428,50.3634817 38.9873889,50.4205714 C39.4821424,50.4847973 39.9874978,50.5204783 40.499921,50.5204783 C41.0123443,50.5204783 41.5176997,50.4847973 42.0124532,50.4205714 C42.4647993,50.3634817 42.9171454,50.5311826 43.1963277,50.8951293 L44.4473474,52.5114806 C44.8325483,53.0110152 45.5216693,53.1466032 46.0658982,52.8290419 L50.4373989,50.2814153 C50.9816278,49.963854 51.2078008,49.2930504 50.9745599,48.7078813 L50.2076919,46.7989454 C50.0380622,46.3779091 50.1193431,45.9033512 50.3914575,45.5394046 C50.9992976,44.7258768 51.5117209,43.8338507 51.9075237,42.8811668 C52.0842214,42.4601305 52.4482186,42.1532735 52.8970307,42.0926157 L54.9184522,41.8071674 C55.5404281,41.7179648 55.9999219,41.1827491 55.9999219,40.5511946 L55.9999219,35.4523735 C56.00691,34.8172509 55.5439621,34.2820352 54.9219862,34.1964007 Z M40.503455,42.956097 C37.7929125,42.956097 35.5947933,40.7367361 35.5947933,38 C35.5947933,35.2632639 37.7929125,33.043903 40.503455,33.043903 C43.2139975,33.043903 45.4121167,35.2632639 45.4121167,38 C45.4121167,40.7367361 43.2139975,42.956097 40.503455,42.956097 Z" id="path-8"></path>
        <filter x="-1.6%" y="-1.7%" width="103.2%" height="103.3%" filterUnits="objectBoundingBox" id="filter-9">
            <feGaussianBlur stdDeviation="0.5" in="SourceAlpha" result="shadowBlurInner1"></feGaussianBlur>
            <feOffset dx="0" dy="0" in="shadowBlurInner1" result="shadowOffsetInner1"></feOffset>
            <feComposite in="shadowOffsetInner1" in2="SourceAlpha" operator="arithmetic" k2="-1" k3="1" result="shadowInnerInner1"></feComposite>
            <feColorMatrix values="0 0 0 0 0.284773962   0 0 0 0 0.713909585   0 0 0 0 1  0 0 0 0.153634451 0" type="matrix" in="shadowInnerInner1"></feColorMatrix>
        </filter>
    </defs>
    <g id="页面-1" stroke="none" stroke-width="1" fill="none" fill-rule="evenodd">
        <g id="初始化首页" transform="translate(-307.000000, -426.000000)">
            <g id="编组-12" transform="translate(304.000000, 426.000000)">
                <g id="编组-7" transform="translate(3.000000, 0.000000)">
                    <g id="编组-4备份" transform="translate(2.000000, 3.000000)">
                        <g id="形状结合" fill-rule="nonzero">
                            <use fill-opacity="0.9" fill="url(#radialGradient-1)" xlink:href="#path-4"></use>
                            <use fill-opacity="0.9" fill="url(#linearGradient-2)" xlink:href="#path-4"></use>
                            <use fill="url(#linearGradient-3)" xlink:href="#path-4"></use>
                        </g>
                        <g id="形状">
                            <use fill-opacity="0.3" fill="url(#radialGradient-5)" fill-rule="evenodd" xlink:href="#path-8"></use>
                            <use fill="url(#linearGradient-6)" fill-rule="evenodd" xlink:href="#path-8"></use>
                            <use fill="black" fill-opacity="1" filter="url(#filter-9)" xlink:href="#path-8"></use>
                            <path stroke="url(#radialGradient-7)" stroke-width="0.5" d="M45.9434219,23.3868781 L50.3159978,25.9386966 C50.5340608,26.0645082 50.6888723,26.2626596 50.7657126,26.4877519 C50.8428085,26.713593 50.8415145,26.9667153 50.7461129,27.2024942 L49.9793382,29.1111983 C49.7773108,29.6126484 49.8697762,30.1791962 50.1947193,30.6138 C50.7904369,31.4111032 51.2891232,32.2853673 51.680831,33.2198471 C51.8921969,33.7192229 52.3299153,34.0818381 52.8656086,34.1584964 L54.8878875,34.4440644 C55.1369041,34.4783493 55.3540285,34.6027871 55.5080495,34.7822469 C55.661916,34.9615268 55.7527314,35.1956541 55.7499219,35.4523735 L55.7499219,40.5511946 C55.7499219,40.8051577 55.6576399,41.0398237 55.5026203,41.2198569 C55.3483491,41.3990209 55.1319252,41.5239935 54.8834961,41.5596233 L52.8635472,41.8448682 C52.327608,41.9173013 51.8887533,42.2798587 51.6766557,42.7852502 C51.2888483,43.7186894 50.7867449,44.5926764 50.1912345,45.3897025 C49.8662423,45.8243719 49.7737769,46.3909197 49.975711,46.8921381 L50.7423278,48.8004461 C50.8363483,49.0363304 50.8376536,49.2895058 50.7604711,49.5156005 C50.6837692,49.7402874 50.5294557,49.9382518 50.3115202,50.0654187 L45.9399024,52.6131135 C45.7223935,52.7400314 45.4759452,52.7766376 45.2453146,52.7313877 C45.0143551,52.6860732 44.7994834,52.5587363 44.645049,52.358464 L43.3946881,50.7429677 C43.0614656,50.3085734 42.5224942,50.104217 41.9802698,50.1726516 C41.4960436,50.2355109 41.0014431,50.2704783 40.499921,50.2704783 C39.998399,50.2704783 39.5037985,50.2355109 39.0186925,50.172539 C38.4773479,50.104217 37.9383765,50.3085734 37.6058128,50.7421127 L36.3545196,52.3588181 C36.2003587,52.5587363 35.9854869,52.6860732 35.7545275,52.7313877 C35.5238968,52.7766376 35.2774486,52.7400314 35.0598226,52.6130452 L30.6873783,50.0648715 C30.4693152,49.9390599 30.3145037,49.7409085 30.2376634,49.5158162 C30.1605675,49.2899751 30.1618616,49.0368528 30.2572631,48.8010739 L31.0240378,46.8923698 C31.2260652,46.3909197 31.1335998,45.8243719 30.8086567,45.3897681 C30.2129391,44.5924649 29.7142529,43.7182008 29.3225451,42.783721 C29.1111792,42.2843452 28.6734607,41.92173 28.1377675,41.8450717 L26.1170799,41.5597281 C25.8690398,41.5239513 25.6523546,41.3984496 25.4976644,41.2187857 C25.3428019,41.0389217 25.25,40.8047103 25.25,40.5511946 L25.25,35.4523735 C25.25,35.1972164 25.3427471,34.962024 25.4981262,34.7816369 C25.6532715,34.6015211 25.8708492,34.4760928 26.1198799,34.4403767 L28.1398289,34.1551318 C28.675768,34.0826987 29.1146227,33.7201413 29.3267203,33.2147498 C29.7145277,32.2813106 30.2166311,31.4073236 30.8121416,30.6102975 C31.1369505,30.1758732 31.2298131,29.6138625 31.027665,29.1078619 L30.2610483,27.1995539 C30.1670278,26.9636696 30.1657225,26.7104942 30.2429049,26.4843995 C30.3196068,26.2597126 30.4739203,26.0617482 30.6918558,25.9345813 L35.0634736,23.3868865 C35.2809826,23.2599686 35.5274308,23.2233624 35.7580615,23.2686123 C35.9890209,23.3139268 36.2038927,23.4412637 36.3583271,23.641536 L37.6086879,25.2570323 C37.9419104,25.6914266 38.4808819,25.895783 39.0231062,25.8273484 C39.5073325,25.7644891 40.001933,25.7295217 40.503455,25.7295217 C41.004977,25.7295217 41.4995775,25.7644891 41.9846835,25.827461 C42.5260281,25.895783 43.0649996,25.6914266 43.3975633,25.2578873 L44.6488564,23.6411819 C44.8030173,23.4412637 45.0178891,23.3139268 45.2488485,23.2686123 C45.4794792,23.2233624 45.7259274,23.2599686 45.9434219,23.3868781 Z M40.503455,32.793903 C39.0788865,32.793903 37.7888567,33.3769162 36.855046,34.3197508 C35.9221014,35.261711 35.3447933,36.5628845 35.3447933,38 C35.3447933,39.4371155 35.9221014,40.738289 36.855046,41.6802492 C37.7888567,42.6230838 39.0788865,43.206097 40.503455,43.206097 C41.9280235,43.206097 43.2180533,42.6230838 44.151864,41.6802492 C45.0848086,40.738289 45.6621167,39.4371155 45.6621167,38 C45.6621167,36.5628845 45.0848086,35.261711 44.151864,34.3197508 C43.2180533,33.3769162 41.9280235,32.793903 40.503455,32.793903 Z" stroke-linejoin="square"></path>
                        </g>
                    </g>
                    <g id="编组" transform="translate(5.000000, 6.000000)"></g>
                </g>
            </g>
        </g>
    </g>
</svg>