<?xml version="1.0" encoding="UTF-8"?>
<svg width="60px" height="60px" viewBox="0 0 60 60" version="1.1" xmlns="http://www.w3.org/2000/svg" xmlns:xlink="http://www.w3.org/1999/xlink">
    <title>登录安全配置</title>
    <defs>
        <radialGradient cx="-13.5225209%" cy="-15.0196324%" fx="-13.5225209%" fy="-15.0196324%" r="102.634075%" gradientTransform="translate(-0.135225,-0.150196),scale(1.000000,0.952381),rotate(-84.862246),scale(1.000000,0.908500),translate(0.135225,0.150196)" id="radialGradient-1">
            <stop stop-color="#E5E2FF" offset="0%"></stop>
            <stop stop-color="#F3F2FF" offset="0%"></stop>
            <stop stop-color="#FFFFFF" stop-opacity="0.112122009" offset="100%"></stop>
        </radialGradient>
        <linearGradient x1="105.072036%" y1="108.323331%" x2="66.648339%" y2="73.34181%" id="linearGradient-2">
            <stop stop-color="#FDF6FF" offset="0%"></stop>
            <stop stop-color="#FFFFFF" stop-opacity="0.192078064" offset="100%"></stop>
        </linearGradient>
        <linearGradient x1="4.64852608%" y1="-7.37212574%" x2="52.2974679%" y2="75.2605615%" id="linearGradient-3">
            <stop stop-color="#BB92FF" offset="0%"></stop>
            <stop stop-color="#5A73FF" offset="100%"></stop>
        </linearGradient>
        <path d="M39.998653,32.6427339 L39.9955812,36.75 C39.9955812,39.6494949 37.608128,42 34.6630551,42 L4.10101082,42 C2.84715113,42 1.72477127,41.4457799 0.97281787,40.5725883 C0.379914698,39.8726431 0.0230078399,38.9699744 0.0230078399,37.9852357 C0.0230078399,35.8723498 1.6661116,34.1372921 3.76294595,33.9510292 L4.13744345,33.9344751 L36.0268271,33.9344751 L36.4650959,33.9205161 C37.5959491,33.8482525 38.6499343,33.498348 39.5574331,32.9393437 L39.998653,32.6427339 Z M34.6630551,0 C37.608128,0 39.9955812,2.35050506 39.9955812,5.25 L40,27.825325 C39.7859241,29.6638478 38.285653,31.1173816 36.4072751,31.2918916 L36.0268271,31.3094751 L4.13744345,31.3094751 L3.69161065,31.3236749 C2.4796431,31.4011219 1.35446832,31.7920573 0.398902525,32.4149465 L0,32.6958625 L0.00163544424,5.25 C0.00163544424,2.35050506 2.3890887,0 5.33416155,0 L34.6630551,0 Z" id="path-4"></path>
        <radialGradient cx="44.480255%" cy="16.26992%" fx="44.480255%" fy="16.26992%" r="46.2565957%" gradientTransform="translate(0.444803,0.162699),scale(0.967742,1.000000),rotate(37.613480),scale(1.000000,2.330158),translate(-0.444803,-0.162699)" id="radialGradient-5">
            <stop stop-color="#CCE4FF" stop-opacity="0.8509804" offset="0%"></stop>
            <stop stop-color="#087AFF" stop-opacity="0.36862746" offset="100%"></stop>
        </radialGradient>
        <linearGradient x1="21.1763556%" y1="16.8079714%" x2="83.3206809%" y2="84.9275518%" id="linearGradient-6">
            <stop stop-color="#FFFFFF" stop-opacity="0" offset="0%"></stop>
            <stop stop-color="#4A85FC" stop-opacity="0.162704361" offset="100%"></stop>
        </linearGradient>
        <radialGradient cx="50%" cy="9.19869%" fx="50%" fy="9.19869%" r="68.732721%" gradientTransform="translate(0.500000,0.091987),scale(0.967742,1.000000),rotate(54.930841),scale(1.000000,0.957162),translate(-0.500000,-0.091987)" id="radialGradient-7">
            <stop stop-color="#FFFFFF" offset="0%"></stop>
            <stop stop-color="#FFFFFF" stop-opacity="0" offset="100%"></stop>
        </radialGradient>
        <path d="M52.9219862,33.1964007 L50.9005647,32.9109524 C50.4517525,32.8467265 50.0877553,32.5398695 49.9110576,32.1224013 C49.5117209,31.1697174 49.0028315,30.2776913 48.3949915,29.4641635 C48.122877,29.1002169 48.0415961,28.625659 48.2112259,28.2046227 L48.9780938,26.2956868 C49.2148687,25.7105177 48.9851618,25.036146 48.4409329,24.7221528 L44.0694321,22.1709581 C43.5252032,21.8533968 42.8360823,21.9889848 42.4508813,22.4885194 L41.1998617,24.1048707 C40.9206793,24.4688174 40.4683333,24.6365183 40.0159872,24.5794286 C39.5212337,24.5152027 39.0158783,24.4795217 38.503455,24.4795217 C37.9910317,24.4795217 37.4856763,24.5152027 36.9909228,24.5794286 C36.5385767,24.6365183 36.0862306,24.4688174 35.8070483,24.1048707 L34.5560287,22.4885194 C34.1708277,21.9889848 33.4817068,21.8533968 32.9374779,22.1709581 L28.5659771,24.7185847 C28.0217482,25.036146 27.7955752,25.7069496 28.0288162,26.2921187 L28.7956841,28.2010546 C28.9653139,28.625659 28.884033,29.0966488 28.6119185,29.4605954 C28.0040785,30.2741232 27.4916552,31.1661493 27.0958524,32.1188332 C26.9191547,32.5398695 26.5551574,32.8467265 26.1063453,32.9073843 L24.0849238,33.1928326 C23.4629479,33.2820352 23,33.8172509 23,34.4523735 L23,39.5511946 C23,40.1827491 23.4629479,40.7179648 24.0813898,40.8071674 L26.1028114,41.0926157 C26.5516235,41.1568416 26.9156207,41.4636986 27.0923184,41.8811668 C27.4916552,42.8338507 28.0005445,43.7258768 28.6083846,44.5394046 C28.880499,44.9033512 28.9617799,45.3779091 28.7921502,45.7989454 L28.0252822,47.7078813 C27.7885073,48.2930504 28.0182143,48.9674222 28.5624432,49.2814153 L32.9339439,51.8290419 C33.4781728,52.1466032 34.1672938,52.0110152 34.5524947,51.5114806 L35.8035144,49.8951293 C36.0826967,49.5311826 36.5350428,49.3634817 36.9873889,49.4205714 C37.4821424,49.4847973 37.9874978,49.5204783 38.499921,49.5204783 C39.0123443,49.5204783 39.5176997,49.4847973 40.0124532,49.4205714 C40.4647993,49.3634817 40.9171454,49.5311826 41.1963277,49.8951293 L42.4473474,51.5114806 C42.8325483,52.0110152 43.5216693,52.1466032 44.0658982,51.8290419 L48.4373989,49.2814153 C48.9816278,48.963854 49.2078008,48.2930504 48.9745599,47.7078813 L48.2076919,45.7989454 C48.0380622,45.3779091 48.1193431,44.9033512 48.3914575,44.5394046 C48.9992976,43.7258768 49.5117209,42.8338507 49.9075237,41.8811668 C50.0842214,41.4601305 50.4482186,41.1532735 50.8970307,41.0926157 L52.9184522,40.8071674 C53.5404281,40.7179648 53.9999219,40.1827491 53.9999219,39.5511946 L53.9999219,34.4523735 C54.00691,33.8172509 53.5439621,33.2820352 52.9219862,33.1964007 Z M38.503455,41.956097 C35.7929125,41.956097 33.5947933,39.7367361 33.5947933,37 C33.5947933,34.2632639 35.7929125,32.043903 38.503455,32.043903 C41.2139975,32.043903 43.4121167,34.2632639 43.4121167,37 C43.4121167,39.7367361 41.2139975,41.956097 38.503455,41.956097 Z" id="path-8"></path>
        <filter x="-1.6%" y="-1.7%" width="103.2%" height="103.3%" filterUnits="objectBoundingBox" id="filter-9">
            <feGaussianBlur stdDeviation="0.5" in="SourceAlpha" result="shadowBlurInner1"></feGaussianBlur>
            <feOffset dx="0" dy="0" in="shadowBlurInner1" result="shadowOffsetInner1"></feOffset>
            <feComposite in="shadowOffsetInner1" in2="SourceAlpha" operator="arithmetic" k2="-1" k3="1" result="shadowInnerInner1"></feComposite>
            <feColorMatrix values="0 0 0 0 0.284773962   0 0 0 0 0.713909585   0 0 0 0 1  0 0 0 0.153634451 0" type="matrix" in="shadowInnerInner1"></feColorMatrix>
        </filter>
    </defs>
    <g id="页面-1" stroke="none" stroke-width="1" fill="none" fill-rule="evenodd">
        <g id="初始化首页备份" transform="translate(-1159.000000, -650.000000)">
            <g id="编组-13备份-2" transform="translate(1153.000000, 650.000000)">
                <g id="编组-7备份-14" transform="translate(6.000000, 0.000000)">
                    <g id="编组-8" transform="translate(5.000000, 6.000000)">
                        <g id="编组" fill-rule="nonzero">
                            <g id="形状结合">
                                <use fill-opacity="0.9" fill="url(#radialGradient-1)" xlink:href="#path-4"></use>
                                <use fill-opacity="0.9" fill="url(#linearGradient-2)" xlink:href="#path-4"></use>
                                <use fill="url(#linearGradient-3)" xlink:href="#path-4"></use>
                            </g>
                        </g>
                        <g id="形状">
                            <use fill-opacity="0.3" fill="url(#radialGradient-5)" fill-rule="evenodd" xlink:href="#path-8"></use>
                            <use fill="url(#linearGradient-6)" fill-rule="evenodd" xlink:href="#path-8"></use>
                            <use fill="black" fill-opacity="1" filter="url(#filter-9)" xlink:href="#path-8"></use>
                            <path stroke="url(#radialGradient-7)" stroke-width="0.5" d="M43.8324691,22.3309095 L43.9434219,22.3868781 L48.3159978,24.9386966 C48.5340608,25.0645082 48.6888723,25.2626596 48.7657126,25.4877519 C48.8299592,25.6759528 48.8397683,25.883099 48.7860442,26.0833661 L48.7461129,26.2024942 L47.9793382,28.1111983 C47.7773108,28.6126484 47.8697762,29.1791962 48.1947193,29.6138 C48.7904369,30.4111032 49.2891232,31.2853673 49.680831,32.2198471 C49.8729818,32.6738251 50.2522008,33.0147778 50.722036,33.1306119 L50.8656086,33.1584964 L52.8878875,33.4440644 C53.1369041,33.4783493 53.3540285,33.6027871 53.5080495,33.7822469 C53.6362716,33.9316468 53.7207082,34.1191352 53.7436661,34.3260458 L53.7499219,34.4523735 L53.7499219,39.5511946 C53.7499219,39.8051577 53.6576399,40.0398237 53.5026203,40.2198569 C53.3740609,40.3691602 53.20234,40.4808307 53.004904,40.5345259 L52.8834961,40.5596233 L50.8635472,40.8448682 C50.327608,40.9173013 49.8887533,41.2798587 49.6766557,41.7852502 C49.2888483,42.7186894 48.7867449,43.5926764 48.1912345,44.3897025 C47.8987415,44.7809049 47.7945952,45.2789289 47.9239009,45.7400099 L47.975711,45.8921381 L48.7423278,47.8004461 C48.8363483,48.0363304 48.8376536,48.2895058 48.7604711,48.5156005 C48.6965529,48.7028396 48.5787377,48.8715214 48.4151214,48.9961395 L48.3115202,49.0654187 L43.9399024,51.6131135 C43.7223935,51.7400314 43.4759452,51.7766376 43.2453146,51.7313877 C43.0528484,51.6936256 42.8715542,51.5989035 42.7270973,51.4524801 L42.645049,51.358464 L41.3946881,49.7429677 C41.0614656,49.3085734 40.5224942,49.104217 39.9802698,49.1726516 C39.4960436,49.2355109 39.0014431,49.2704783 38.499921,49.2704783 C37.998399,49.2704783 37.5037985,49.2355109 37.0186925,49.172539 C36.5265611,49.1104281 36.0363909,49.2736712 35.7014762,49.6295896 L35.6058128,49.7421127 L34.3545196,51.3588181 C34.2003587,51.5587363 33.9854869,51.6860732 33.7545275,51.7313877 C33.5623353,51.769096 33.3591586,51.7499597 33.1708308,51.6690461 L33.0598226,51.6130452 L28.6873783,49.0648715 C28.4693152,48.9390599 28.3145037,48.7409085 28.2376634,48.5158162 C28.1734169,48.3276153 28.1636077,48.1204691 28.2173319,47.920202 L28.2572631,47.8010739 L29.0240378,45.8923698 C29.2260652,45.3909197 29.1335998,44.8243719 28.8086567,44.3897681 C28.2129391,43.5924649 27.7142529,42.7182008 27.3225451,41.783721 C27.1303943,41.329743 26.7511752,40.9887903 26.2813401,40.8729562 L26.1377675,40.8450717 L24.1170799,40.5597281 C23.8690398,40.5239513 23.6523546,40.3984496 23.4976644,40.2187857 C23.3686123,40.0688991 23.2826579,39.8812711 23.2575912,39.6761816 L23.25,39.5511946 L23.25,34.4523735 C23.25,34.1972164 23.3427471,33.962024 23.4981262,33.7816369 C23.6274139,33.6315404 23.8000575,33.5194213 23.998129,33.4655486 L24.1198799,33.4403767 L26.1398289,33.1551318 C26.675768,33.0826987 27.1146227,32.7201413 27.3267203,32.2147498 C27.7145277,31.2813106 28.2166311,30.4073236 28.8121416,29.6102975 C29.1044696,29.2193157 29.2089211,28.7249888 29.0795222,28.2611588 L29.027665,28.1078619 L28.2610483,26.1995539 C28.1670278,25.9636696 28.1657225,25.7104942 28.2429049,25.4843995 C28.3068232,25.2971604 28.4246384,25.1284786 28.5882547,25.0038605 L28.6918558,24.9345813 L33.0634736,22.3868865 C33.2809826,22.2599686 33.5274308,22.2233624 33.7580615,22.2686123 C33.9505277,22.3063744 34.1318219,22.4010965 34.2762788,22.5475199 L34.3583271,22.641536 L35.6086879,24.2570323 C35.9419104,24.6914266 36.4808819,24.895783 37.0231062,24.8273484 C37.5073325,24.7644891 38.001933,24.7295217 38.503455,24.7295217 C39.004977,24.7295217 39.4995775,24.7644891 39.9846835,24.827461 C40.476815,24.8895719 40.9669852,24.7263288 41.3018998,24.3704104 L41.3975633,24.2578873 L42.6488564,22.6411819 C42.8030173,22.4412637 43.0178891,22.3139268 43.2488485,22.2686123 C43.4410408,22.230904 43.6442174,22.2500403 43.8324691,22.3309095 Z M38.503455,31.793903 C37.0788865,31.793903 35.7888567,32.3769162 34.855046,33.3197508 C33.9221014,34.261711 33.3447933,35.5628845 33.3447933,37 C33.3447933,38.4371155 33.9221014,39.738289 34.855046,40.6802492 C35.7888567,41.6230838 37.0788865,42.206097 38.503455,42.206097 C39.9280235,42.206097 41.2180533,41.6230838 42.151864,40.6802492 C43.0848086,39.738289 43.6621167,38.4371155 43.6621167,37 C43.6621167,35.5628845 43.0848086,34.261711 42.151864,33.3197508 C41.2180533,32.3769162 39.9280235,31.793903 38.503455,31.793903 Z" stroke-linejoin="square"></path>
                        </g>
                    </g>
                </g>
            </g>
        </g>
    </g>
</svg>