<?xml version="1.0" encoding="UTF-8"?>
<svg width="60px" height="60px" viewBox="0 0 60 60" version="1.1" xmlns="http://www.w3.org/2000/svg" xmlns:xlink="http://www.w3.org/1999/xlink">
    <title>矩形</title>
    <defs>
        <radialGradient cx="-13.5225209%" cy="-15.0196324%" fx="-13.5225209%" fy="-15.0196324%" r="108.807389%" gradientTransform="translate(-0.135225,-0.150196),scale(1.000000,0.897946),rotate(-85.154461),scale(1.000000,0.908500),translate(0.135225,0.150196)" id="radialGradient-1">
            <stop stop-color="#E5E2FF" offset="0%"></stop>
            <stop stop-color="#F3F2FF" offset="0%"></stop>
            <stop stop-color="#FFFFFF" stop-opacity="0.112122009" offset="100%"></stop>
        </radialGradient>
        <linearGradient x1="98.9565241%" y1="108.323331%" x2="64.7996129%" y2="73.34181%" id="linearGradient-2">
            <stop stop-color="#FDF6FF" offset="0%"></stop>
            <stop stop-color="#FFFFFF" stop-opacity="0.192078064" offset="100%"></stop>
        </linearGradient>
        <linearGradient x1="9.68461123%" y1="-7.37212574%" x2="52.042344%" y2="75.2605615%" id="linearGradient-3">
            <stop stop-color="#BB92FF" offset="0%"></stop>
            <stop stop-color="#5A73FF" offset="100%"></stop>
        </linearGradient>
        <path d="M35.6014282,24 L7.5,24 C3.35786438,24 0,27.3578644 0,31.5 L0,40.5 C0,44.6421356 3.35786438,48 7.5,48 L35.6014282,48 C39.7435638,48 43.1014282,44.6421356 43.1014282,40.5 L43.1014282,31.5 C43.1014282,27.3578644 39.7435638,24 35.6014282,24 Z M19.6390475,0 L12.1390475,0 C7.9969119,0 4.63904752,3.35786438 4.63904752,7.5 L4.63904752,21 L27.1390475,21 L27.1390475,7.5 C27.1390475,3.35786438 23.7811831,0 19.6390475,0 Z" id="path-4"></path>
        <radialGradient cx="44.480255%" cy="16.26992%" fx="44.480255%" fy="16.26992%" r="46.2565957%" gradientTransform="translate(0.444803,0.162699),scale(0.967742,1.000000),rotate(37.613480),scale(1.000000,2.330158),translate(-0.444803,-0.162699)" id="radialGradient-5">
            <stop stop-color="#CCE4FF" stop-opacity="0.8509804" offset="0%"></stop>
            <stop stop-color="#087AFF" stop-opacity="0.36862746" offset="100%"></stop>
        </radialGradient>
        <radialGradient cx="50%" cy="9.19869%" fx="50%" fy="9.19869%" r="68.732721%" gradientTransform="translate(0.500000,0.091987),scale(0.967742,1.000000),rotate(54.930841),scale(1.000000,0.957162),translate(-0.500000,-0.091987)" id="radialGradient-6">
            <stop stop-color="#FFFFFF" offset="0%"></stop>
            <stop stop-color="#FFFFFF" stop-opacity="0" offset="100%"></stop>
        </radialGradient>
        <path d="M57.9219862,38.6964007 L55.9005647,38.4109524 C55.4517525,38.3467265 55.0877553,38.0398695 54.9110576,37.6224013 C54.5117209,36.6697174 54.0028315,35.7776913 53.3949915,34.9641635 C53.122877,34.6002169 53.0415961,34.125659 53.2112259,33.7046227 L53.9780938,31.7956868 C54.2148687,31.2105177 53.9851618,30.536146 53.4409329,30.2221528 L49.0694321,27.6709581 C48.5252032,27.3533968 47.8360823,27.4889848 47.4508813,27.9885194 L46.1998617,29.6048707 C45.9206793,29.9688174 45.4683333,30.1365183 45.0159872,30.0794286 C44.5212337,30.0152027 44.0158783,29.9795217 43.503455,29.9795217 C42.9910317,29.9795217 42.4856763,30.0152027 41.9909228,30.0794286 C41.5385767,30.1365183 41.0862306,29.9688174 40.8070483,29.6048707 L39.5560287,27.9885194 C39.1708277,27.4889848 38.4817068,27.3533968 37.9374779,27.6709581 L33.5659771,30.2185847 C33.0217482,30.536146 32.7955752,31.2069496 33.0288162,31.7921187 L33.7956841,33.7010546 C33.9653139,34.125659 33.884033,34.5966488 33.6119185,34.9605954 C33.0040785,35.7741232 32.4916552,36.6661493 32.0958524,37.6188332 C31.9191547,38.0398695 31.5551574,38.3467265 31.1063453,38.4073843 L29.0849238,38.6928326 C28.4629479,38.7820352 28,39.3172509 28,39.9523735 L28,45.0511946 C28,45.6827491 28.4629479,46.2179648 29.0813898,46.3071674 L31.1028114,46.5926157 C31.5516235,46.6568416 31.9156207,46.9636986 32.0923184,47.3811668 C32.4916552,48.3338507 33.0005445,49.2258768 33.6083846,50.0394046 C33.880499,50.4033512 33.9617799,50.8779091 33.7921502,51.2989454 L33.0252822,53.2078813 C32.7885073,53.7930504 33.0182143,54.4674222 33.5624432,54.7814153 L37.9339439,57.3290419 C38.4781728,57.6466032 39.1672938,57.5110152 39.5524947,57.0114806 L40.8035144,55.3951293 C41.0826967,55.0311826 41.5350428,54.8634817 41.9873889,54.9205714 C42.4821424,54.9847973 42.9874978,55.0204783 43.499921,55.0204783 C44.0123443,55.0204783 44.5176997,54.9847973 45.0124532,54.9205714 C45.4647993,54.8634817 45.9171454,55.0311826 46.1963277,55.3951293 L47.4473474,57.0114806 C47.8325483,57.5110152 48.5216693,57.6466032 49.0658982,57.3290419 L53.4373989,54.7814153 C53.9816278,54.463854 54.2078008,53.7930504 53.9745599,53.2078813 L53.2076919,51.2989454 C53.0380622,50.8779091 53.1193431,50.4033512 53.3914575,50.0394046 C53.9992976,49.2258768 54.5117209,48.3338507 54.9075237,47.3811668 C55.0842214,46.9601305 55.4482186,46.6532735 55.8970307,46.5926157 L57.9184522,46.3071674 C58.5404281,46.2179648 58.9999219,45.6827491 58.9999219,45.0511946 L58.9999219,39.9523735 C59.00691,39.3172509 58.5439621,38.7820352 57.9219862,38.6964007 Z M43.503455,47.456097 C40.7929125,47.456097 38.5947933,45.2367361 38.5947933,42.5 C38.5947933,39.7632639 40.7929125,37.543903 43.503455,37.543903 C46.2139975,37.543903 48.4121167,39.7632639 48.4121167,42.5 C48.4121167,45.2367361 46.2139975,47.456097 43.503455,47.456097 Z" id="path-7"></path>
        <filter x="-1.6%" y="-1.7%" width="103.2%" height="103.3%" filterUnits="objectBoundingBox" id="filter-8">
            <feGaussianBlur stdDeviation="0.5" in="SourceAlpha" result="shadowBlurInner1"></feGaussianBlur>
            <feOffset dx="0" dy="0" in="shadowBlurInner1" result="shadowOffsetInner1"></feOffset>
            <feComposite in="shadowOffsetInner1" in2="SourceAlpha" operator="arithmetic" k2="-1" k3="1" result="shadowInnerInner1"></feComposite>
            <feColorMatrix values="0 0 0 0 0.284773962   0 0 0 0 0.713909585   0 0 0 0 1  0 0 0 0.153634451 0" type="matrix" in="shadowInnerInner1"></feColorMatrix>
        </filter>
    </defs>
    <g id="页面-1" stroke="none" stroke-width="1" fill="none" fill-rule="evenodd">
        <g id="初始化首页" transform="translate(-733.000000, -202.000000)">
            <g id="编组-17" transform="translate(701.000000, 202.000000)">
                <g id="编组-5" transform="translate(32.000000, 0.000000)">
                    <g id="编组" transform="translate(1.500000, 4.000000)" fill-rule="nonzero">
                        <g id="形状结合">
                            <use fill-opacity="0.9" fill="url(#radialGradient-1)" xlink:href="#path-4"></use>
                            <use fill-opacity="0.9" fill="url(#linearGradient-2)" xlink:href="#path-4"></use>
                            <use fill="url(#linearGradient-3)" xlink:href="#path-4"></use>
                        </g>
                    </g>
                    <g id="形状">
                        <use fill-opacity="0.3" fill="url(#radialGradient-5)" fill-rule="evenodd" xlink:href="#path-7"></use>
                        <use fill="black" fill-opacity="1" filter="url(#filter-8)" xlink:href="#path-7"></use>
                        <path stroke="url(#radialGradient-6)" stroke-width="0.5" d="M48.9434219,27.8868781 L53.3159978,30.4386966 C53.5340608,30.5645082 53.6888723,30.7626596 53.7657126,30.9877519 C53.8428085,31.213593 53.8415145,31.4667153 53.7461129,31.7024942 L52.9793382,33.6111983 C52.7773108,34.1126484 52.8697762,34.6791962 53.1947193,35.1138 C53.7904369,35.9111032 54.2891232,36.7853673 54.680831,37.7198471 C54.8921969,38.2192229 55.3299153,38.5818381 55.8656086,38.6584964 L57.8878875,38.9440644 C58.1369041,38.9783493 58.3540285,39.1027871 58.5080495,39.2822469 C58.661916,39.4615268 58.7527314,39.6956541 58.7499219,39.9523735 L58.7499219,45.0511946 C58.7499219,45.3051577 58.6576399,45.5398237 58.5026203,45.7198569 C58.3483491,45.8990209 58.1319252,46.0239935 57.8834961,46.0596233 L55.8635472,46.3448682 C55.327608,46.4173013 54.8887533,46.7798587 54.6766557,47.2852502 C54.2888483,48.2186894 53.7867449,49.0926764 53.1912345,49.8897025 C52.8662423,50.3243719 52.7737769,50.8909197 52.975711,51.3921381 L53.7423278,53.3004461 C53.8363483,53.5363304 53.8376536,53.7895058 53.7604711,54.0156005 C53.6837692,54.2402874 53.5294557,54.4382518 53.3115202,54.5654187 L48.9399024,57.1131135 C48.7223935,57.2400314 48.4759452,57.2766376 48.2453146,57.2313877 C48.0143551,57.1860732 47.7994834,57.0587363 47.645049,56.858464 L46.3946881,55.2429677 C46.0614656,54.8085734 45.5224942,54.604217 44.9802698,54.6726516 C44.4960436,54.7355109 44.0014431,54.7704783 43.499921,54.7704783 C42.998399,54.7704783 42.5037985,54.7355109 42.0186925,54.672539 C41.4773479,54.604217 40.9383765,54.8085734 40.6058128,55.2421127 L39.3545196,56.8588181 C39.2003587,57.0587363 38.9854869,57.1860732 38.7545275,57.2313877 C38.5238968,57.2766376 38.2774486,57.2400314 38.0598226,57.1130452 L33.6873783,54.5648715 C33.4693152,54.4390599 33.3145037,54.2409085 33.2376634,54.0158162 C33.1605675,53.7899751 33.1618616,53.5368528 33.2572631,53.3010739 L34.0240378,51.3923698 C34.2260652,50.8909197 34.1335998,50.3243719 33.8086567,49.8897681 C33.2129391,49.0924649 32.7142529,48.2182008 32.3225451,47.283721 C32.1111792,46.7843452 31.6734607,46.42173 31.1377675,46.3450717 L29.1170799,46.0597281 C28.8690398,46.0239513 28.6523546,45.8984496 28.4976644,45.7187857 C28.3428019,45.5389217 28.25,45.3047103 28.25,45.0511946 L28.25,39.9523735 C28.25,39.6972164 28.3427471,39.462024 28.4981262,39.2816369 C28.6532715,39.1015211 28.8708492,38.9760928 29.1198799,38.9403767 L31.1398289,38.6551318 C31.675768,38.5826987 32.1146227,38.2201413 32.3267203,37.7147498 C32.7145277,36.7813106 33.2166311,35.9073236 33.8121416,35.1102975 C34.1369505,34.6758732 34.2298131,34.1138625 34.027665,33.6078619 L33.2610483,31.6995539 C33.1670278,31.4636696 33.1657225,31.2104942 33.2429049,30.9843995 C33.3196068,30.7597126 33.4739203,30.5617482 33.6918558,30.4345813 L38.0634736,27.8868865 C38.2809826,27.7599686 38.5274308,27.7233624 38.7580615,27.7686123 C38.9890209,27.8139268 39.2038927,27.9412637 39.3583271,28.141536 L40.6086879,29.7570323 C40.9419104,30.1914266 41.4808819,30.395783 42.0231062,30.3273484 C42.5073325,30.2644891 43.001933,30.2295217 43.503455,30.2295217 C44.004977,30.2295217 44.4995775,30.2644891 44.9846835,30.327461 C45.5260281,30.395783 46.0649996,30.1914266 46.3975633,29.7578873 L47.6488564,28.1411819 C47.8030173,27.9412637 48.0178891,27.8139268 48.2488485,27.7686123 C48.4794792,27.7233624 48.7259274,27.7599686 48.9434219,27.8868781 Z M43.503455,37.293903 C42.0788865,37.293903 40.7888567,37.8769162 39.855046,38.8197508 C38.9221014,39.761711 38.3447933,41.0628845 38.3447933,42.5 C38.3447933,43.9371155 38.9221014,45.238289 39.855046,46.1802492 C40.7888567,47.1230838 42.0788865,47.706097 43.503455,47.706097 C44.9280235,47.706097 46.2180533,47.1230838 47.151864,46.1802492 C48.0848086,45.238289 48.6621167,43.9371155 48.6621167,42.5 C48.6621167,41.0628845 48.0848086,39.761711 47.151864,38.8197508 C46.2180533,37.8769162 44.9280235,37.293903 43.503455,37.293903 Z" stroke-linejoin="square"></path>
                    </g>
                </g>
            </g>
        </g>
    </g>
</svg>