<?xml version="1.0" encoding="UTF-8"?>
<svg width="16px" height="16px" viewBox="0 0 16 16" version="1.1" xmlns="http://www.w3.org/2000/svg" xmlns:xlink="http://www.w3.org/1999/xlink">
    <title>编辑</title>
    <g id="页面-1" stroke="none" stroke-width="1" fill="none" fill-rule="evenodd">
        <g id="教师-课程内容" transform="translate(-844.000000, -412.000000)" fill-rule="nonzero">
            <g id="编组-59" transform="translate(56.000000, 327.000000)">
                <g id="编组-19" transform="translate(784.000000, 81.000000)">
                    <g id="编辑" transform="translate(4.000000, 4.000000)">
                        <rect id="矩形" fill="#000000" opacity="0" x="0" y="0" width="16" height="16"></rect>
                        <g id="编组-14" transform="translate(1.000000, 1.000000)" fill="#666666">
                            <path d="M11.4545455,0 C12.8603612,0 14,1.04466892 14,2.33333333 L14,11.6666667 C14,12.9553311 12.8603612,14 11.4545455,14 L2.54545455,14 C1.13963882,14 0,12.9553311 0,11.6666667 L0,2.33333333 C0,1.04466892 1.13963882,0 2.54545455,0 L11.4545455,0 Z M11.6666667,1 L2.33333333,1 C1.64955221,1 1.08599045,1.46324823 1.00897031,2.06005465 L1,2.2 L1,11.8 C1,12.415403 1.51472025,12.9226086 2.1778385,12.9919267 L2.33333333,13 L11.6666667,13 C12.3504478,13 12.9140095,12.5367518 12.9910297,11.9399454 L13,11.8 L13,2.2 C13,1.58459699 12.4852797,1.07739141 11.8221615,1.00807328 L11.6666667,1 Z" id="矩形"></path>
                            <path d="M10.0483278,6.79913017 C10.3244702,6.79913017 10.5483278,7.0229878 10.5483278,7.29913017 C10.5483278,7.57527255 10.3244702,7.79913017 10.0483278,7.79913017 L4.0483278,7.79913017 C3.77218542,7.79913017 3.5483278,7.57527255 3.5483278,7.29913017 C3.5483278,7.0229878 3.77218542,6.79913017 4.0483278,6.79913017 L10.0483278,6.79913017 Z" id="矩形"></path>
                            <path d="M7.0483278,4.73773162 C7.32447017,4.73773162 7.5483278,4.96158925 7.5483278,5.23773162 C7.5483278,5.513874 7.32447017,5.73773162 7.0483278,5.73773162 L4.0483278,5.73773162 C3.77218542,5.73773162 3.5483278,5.513874 3.5483278,5.23773162 C3.5483278,4.96158925 3.77218542,4.73773162 4.0483278,4.73773162 L7.0483278,4.73773162 Z" id="矩形备份-30"></path>
                            <path d="M10.0483278,9.01188012 C10.3244702,9.01188012 10.5483278,9.23573775 10.5483278,9.51188012 C10.5483278,9.78802249 10.3244702,10.0118801 10.0483278,10.0118801 L4.0483278,10.0118801 C3.77218542,10.0118801 3.5483278,9.78802249 3.5483278,9.51188012 C3.5483278,9.23573775 3.77218542,9.01188012 4.0483278,9.01188012 L10.0483278,9.01188012 Z" id="矩形备份-23"></path>
                        </g>
                    </g>
                </g>
            </g>
        </g>
    </g>
</svg>