<?xml version="1.0" encoding="UTF-8"?>
<svg width="24px" height="24px" viewBox="0 0 24 24" version="1.1" xmlns="http://www.w3.org/2000/svg" xmlns:xlink="http://www.w3.org/1999/xlink">
    <title>课程备份 22</title>
    <g id="学生工作台" stroke="none" stroke-width="1" fill="none" fill-rule="evenodd">
        <g id="画板" transform="translate(-37.000000, -559.000000)" fill-rule="nonzero">
            <g id="课程备份-22" transform="translate(37.000000, 559.000000)">
                <rect id="矩形" fill="#000000" opacity="0" x="0" y="0" width="24" height="24"></rect>
                <g id="编组-65" transform="translate(5.000000, 4.500000)" fill="#FFFFFF">
                    <path d="M5,0 L5,16 L2.5,16 C1.1745166,16 0.089961328,14.9684641 0.00531767968,13.6643757 L-1.11022302e-16,13.5 L-1.11022302e-16,11.5 L2,11.5 C2.27614237,11.5 2.5,11.2761424 2.5,11 C2.5,10.7545401 2.32312484,10.5503916 2.08987563,10.5080557 L2,10.5 L-1.11022302e-16,10.5 L-1.11022302e-16,5.5 L2,5.5 C2.27614237,5.5 2.5,5.27614237 2.5,5 C2.5,4.75454011 2.32312484,4.55039163 2.08987563,4.50805567 L2,4.5 L-1.11022302e-16,4.5 L-1.11022302e-16,2.5 C-1.11022302e-16,1.1745166 1.03153594,0.089961328 2.33562431,0.00531767968 L2.5,0 L5,0 Z M12.5,0 C13.8254834,0 14.9100387,1.03153594 14.9946823,2.33562431 L15,2.5 L15,13.5 C15,14.8254834 13.9684641,15.9100387 12.6643757,15.9946823 L12.5,16 L6,16 L6,0 L12.5,0 Z" id="形状结合"></path>
                </g>
            </g>
        </g>
    </g>
</svg>