<?xml version="1.0" encoding="UTF-8"?>
<svg width="24px" height="24px" viewBox="0 0 24 24" version="1.1" xmlns="http://www.w3.org/2000/svg" xmlns:xlink="http://www.w3.org/1999/xlink">
    <title>编组 15备份 8</title>
    <g id="学生工作台" stroke="none" stroke-width="1" fill="none" fill-rule="evenodd">
        <g id="画板" transform="translate(-122.000000, -358.000000)">
            <g id="课程" transform="translate(122.000000, 358.000000)">
                <rect id="矩形" fill="#000000" fill-rule="nonzero" opacity="0" x="0" y="0" width="24" height="24"></rect>
                <g id="编组-64备份-3" transform="translate(4.500000, 4.500000)" stroke="#979797" stroke-linecap="round">
                    <path d="M15,10 L15,13 L15,13 C15,14.1045695 14.1045695,15 13,15 L2,15 C0.8954305,15 0,14.1045695 0,13 L0,10 C-1.3527075e-16,8.8954305 0.8954305,8 2,8 L13,8 C14.1045695,8 15,8.8954305 15,10 Z" id="路径"></path>
                    <path d="M1.75,6 L1.75,2 C1.75,0.8954305 2.6454305,0 3.75,0 L6.25,0 C7.3545695,0 8.25,0.8954305 8.25,2 L8.25,6" id="路径"></path>
                </g>
            </g>
        </g>
    </g>
</svg>