<?xml version="1.0" encoding="UTF-8"?>
<svg width="24px" height="24px" viewBox="0 0 24 24" version="1.1" xmlns="http://www.w3.org/2000/svg" xmlns:xlink="http://www.w3.org/1999/xlink">
    <title>课程备份 12</title>
    <g id="学生工作台" stroke="none" stroke-width="1" fill="none" fill-rule="evenodd">
        <g id="画板" transform="translate(-122.000000, -288.000000)">
            <g id="课程备份-12" transform="translate(122.000000, 288.000000)">
                <rect id="矩形" fill="#000000" fill-rule="nonzero" opacity="0" x="0" y="0" width="24" height="24"></rect>
                <g id="编组-63备份" transform="translate(3.500000, 4.500000)">
                    <path d="M15,0.5 C15.4142136,0.5 15.7892136,0.667893219 16.0606602,0.939339828 C16.3321068,1.21078644 16.5,1.58578644 16.5,2 L16.5,2 L16.5,5 C16.5,5.41421356 16.3321068,5.78921356 16.0606602,6.06066017 C15.7892136,6.33210678 15.4142136,6.5 15,6.5 L15,6.5 L2,6.5 C1.58578644,6.5 1.21078644,6.33210678 0.939339828,6.06066017 C0.667893219,5.78921356 0.5,5.41421356 0.5,5 L0.5,5 L0.5,2 C0.5,1.58578644 0.667893219,1.21078644 0.939339828,0.939339828 C1.21078644,0.667893219 1.58578644,0.5 2,0.5 L2,0.5 Z" id="矩形" stroke="#979797" fill="#FFFFFF"></path>
                    <circle id="椭圆形" fill="#979797" cx="5" cy="3.5" r="1"></circle>
                    <path d="M11.8588659,14.5 L2.38235294,14.5 C1.34275812,14.5 0.5,13.7324881 0.5,12.7857143 L0.5,10.2142857 C0.5,9.26751186 1.34275812,8.5 2.38235294,8.5 L14.6176471,8.5 C15.6572419,8.5 16.5,9.26751186 16.5,10.2142857 L16.5,12.7857143 C16.5,13.7324881 15.6572419,14.5 14.6176471,14.5" id="路径" stroke="#979797" fill="#FFFFFF" stroke-linecap="round"></path>
                    <circle id="椭圆形备份-24" fill="#979797" cx="5" cy="11.5" r="1"></circle>
                </g>
            </g>
        </g>
    </g>
</svg>