<?xml version="1.0" encoding="UTF-8"?>
<svg width="24px" height="24px" viewBox="0 0 24 24" version="1.1" xmlns="http://www.w3.org/2000/svg" xmlns:xlink="http://www.w3.org/1999/xlink">
    <title>课程备份 15</title>
    <g id="学生工作台" stroke="none" stroke-width="1" fill="none" fill-rule="evenodd">
        <g id="画板" transform="translate(-37.000000, -83.000000)" fill="#FFFFFF" fill-rule="nonzero">
            <g id="编组-58" transform="translate(30.000000, 77.000000)">
                <g id="编组-57" transform="translate(7.000000, 6.000000)">
                    <path d="M9,5 C10.1045695,5 11,5.8954305 11,7 L11,19 C11,20.1045695 10.1045695,21 9,21 L5,21 C3.8954305,21 3,20.1045695 3,19 L3,7 C3,5.8954305 3.8954305,5 5,5 L9,5 Z M19,15 C20.1045695,15 21,15.8954305 21,17 L21,19 C21,20.1045695 20.1045695,21 19,21 L15,21 C13.8954305,21 13,20.1045695 13,19 L13,17 C13,15.8954305 13.8954305,15 15,15 L19,15 Z M17,5 C19.209139,5 21,6.790861 21,9 C21,11.1421954 19.3160315,12.8910789 17.1996403,12.9951047 L17,13 C14.790861,13 13,11.209139 13,9 C13,6.85780461 14.6839685,5.10892112 16.8003597,5.00489531 L17,5 Z" id="形状结合"></path>
                </g>
            </g>
        </g>
    </g>
</svg>