<?xml version="1.0" encoding="UTF-8"?>
<svg width="24px" height="24px" viewBox="0 0 24 24" version="1.1" xmlns="http://www.w3.org/2000/svg" xmlns:xlink="http://www.w3.org/1999/xlink">
    <title>课程备份 4</title>
    <g id="学生工作台" stroke="none" stroke-width="1" fill="none" fill-rule="evenodd">
        <g id="画板" transform="translate(-122.000000, -152.000000)" fill-rule="nonzero">
            <g id="课程备份-4" transform="translate(122.000000, 152.000000)">
                <rect id="矩形" fill="#000000" opacity="0" x="0" y="0" width="24" height="24"></rect>
                <g id="编组-60" transform="translate(3.000000, 4.500000)" fill="#979797">
                    <path d="M15.5,0 C16.8254834,0 17.9100387,1.03153594 17.9946823,2.33562431 L18,2.5 L18,9.83333333 C18,11.1588167 16.9684641,12.243372 15.6643757,12.3280157 L15.5,12.3333333 L8.716,12.333 L4.76979302,15.9784259 C4.47088954,16.2544787 3.99887297,16.0750123 3.93726589,15.695422 L3.9305588,15.6111111 L3.9305588,13.3518171 C3.9305588,13.0756747 4.15441643,12.8518171 4.4305588,12.8518171 C4.67601869,12.8518171 4.88016718,13.0286922 4.92250314,13.2619414 L4.9305588,13.3518171 L4.93,14.468 L8.18181289,11.4660186 C8.25109171,11.402036 8.33654322,11.3593918 8.42798529,11.3420687 L8.5210471,11.3333333 L15.5,11.3333333 C16.2796961,11.3333333 16.9204487,10.7384453 16.9931334,9.97779334 L17,9.83333333 L17,2.5 C17,1.72030388 16.4051119,1.07955132 15.64446,1.00686658 L15.5,1 L2.5,1 C1.72030388,1 1.07955132,1.59488808 1.00686658,2.35553999 L1,2.5 L1,9.83333333 C1,10.6617605 1.67157288,11.3333333 2.5,11.3333333 C2.77614237,11.3333333 3,11.557191 3,11.8333333 C3,12.1094757 2.77614237,12.3333333 2.5,12.3333333 C1.1745166,12.3333333 0.089961328,11.3017974 0.00531767968,9.99770902 L0,9.83333333 L0,2.5 C0,1.1745166 1.03153594,0.089961328 2.33562431,0.00531767968 L2.5,0 L15.5,0 Z" id="路径"></path>
                    <path d="M5,5.5 C5.55228475,5.5 6,5.94771525 6,6.5 C6,7.05228475 5.55228475,7.5 5,7.5 C4.44771525,7.5 4,7.05228475 4,6.5 C4,5.94771525 4.44771525,5.5 5,5.5 Z" id="椭圆形"></path>
                    <path d="M9,5.5 C9.55228475,5.5 10,5.94771525 10,6.5 C10,7.05228475 9.55228475,7.5 9,7.5 C8.44771525,7.5 8,7.05228475 8,6.5 C8,5.94771525 8.44771525,5.5 9,5.5 Z" id="椭圆形备份-15"></path>
                    <path d="M13,5.5 C13.5522847,5.5 14,5.94771525 14,6.5 C14,7.05228475 13.5522847,7.5 13,7.5 C12.4477153,7.5 12,7.05228475 12,6.5 C12,5.94771525 12.4477153,5.5 13,5.5 Z" id="椭圆形备份-16"></path>
                </g>
            </g>
        </g>
    </g>
</svg>