<?xml version="1.0" encoding="UTF-8"?>
<svg width="24px" height="24px" viewBox="0 0 24 24" version="1.1" xmlns="http://www.w3.org/2000/svg" xmlns:xlink="http://www.w3.org/1999/xlink">
    <title>课程备份 11</title>
    <g id="学生工作台" stroke="none" stroke-width="1" fill="none" fill-rule="evenodd">
        <g id="画板" transform="translate(-37.000000, -287.000000)" fill-rule="nonzero">
            <g id="课程备份-11" transform="translate(37.000000, 287.000000)">
                <rect id="矩形" fill="#000000" opacity="0" x="0" y="0" width="24" height="24"></rect>
                <g id="编组-63备份" transform="translate(3.500000, 4.500000)" fill="#FFFFFF">
                    <path d="M15,0 C16.1045695,0 17,0.8954305 17,2 L17,5 C17,6.1045695 16.1045695,7 15,7 L2,7 C0.8954305,7 0,6.1045695 0,5 L0,2 C0,0.8954305 0.8954305,0 2,0 L15,0 Z M5,2.5 C4.44771525,2.5 4,2.94771525 4,3.5 C4,4.05228475 4.44771525,4.5 5,4.5 C5.55228475,4.5 6,4.05228475 6,3.5 C6,2.94771525 5.55228475,2.5 5,2.5 Z" id="形状结合"></path>
                    <path d="M15,8 C16.1045695,8 17,8.8954305 17,10 L17,13 C17,14.1045695 16.1045695,15 15,15 L2,15 C0.8954305,15 0,14.1045695 0,13 L0,10 C0,8.8954305 0.8954305,8 2,8 L15,8 Z M5,10.5 C4.44771525,10.5 4,10.9477153 4,11.5 C4,12.0522847 4.44771525,12.5 5,12.5 C5.55228475,12.5 6,12.0522847 6,11.5 C6,10.9477153 5.55228475,10.5 5,10.5 Z" id="形状结合"></path>
                </g>
            </g>
        </g>
    </g>
</svg>