<?xml version="1.0" encoding="UTF-8"?>
<svg width="24px" height="24px" viewBox="0 0 24 24" version="1.1" xmlns="http://www.w3.org/2000/svg" xmlns:xlink="http://www.w3.org/1999/xlink">
    <title>课程备份 14</title>
    <g id="学生工作台" stroke="none" stroke-width="1" fill="none" fill-rule="evenodd">
        <g id="画板" transform="translate(-37.000000, -627.000000)">
            <g id="编组-66" transform="translate(30.000000, 620.000000)">
                <g id="课程备份-14" transform="translate(7.000000, 7.000000)">
                    <rect id="矩形" fill="#000000" fill-rule="nonzero" opacity="0" x="0" y="0" width="24" height="24"></rect>
                    <circle id="椭圆形" fill="#FFFFFF" cx="12" cy="12" r="9"></circle>
                    <path d="M16.0054806,9.84707163 C16.2038426,9.65495935 16.5203845,9.66002575 16.7124968,9.85838775 C16.8832633,10.0347095 16.8982343,10.3044081 16.7601369,10.4970908 L16.7011807,10.565404 L13.1828484,13.9728854 C13.0153647,14.1350922 12.7623241,14.157435 12.5712598,14.0385999 L12.4935997,13.9790232 L10.356,11.981 L7.95329299,14.3109744 C7.77703141,14.481803 7.50733817,14.496869 7.31460673,14.3588396 L7.24627282,14.2999074 C7.07544421,14.1236459 7.06037818,13.8539526 7.19840758,13.6612212 L7.25733975,13.5928873 L10.0022909,10.9325447 C10.1697602,10.7702374 10.4228705,10.7478405 10.6139857,10.8666948 L10.6916662,10.9262843 L12.828,12.923 L16.0054806,9.84707163 Z" id="路径-12" fill="#FF2739" fill-rule="nonzero"></path>
                </g>
            </g>
        </g>
    </g>
</svg>