<?xml version="1.0" encoding="UTF-8"?>
<svg width="24px" height="24px" viewBox="0 0 24 24" version="1.1" xmlns="http://www.w3.org/2000/svg" xmlns:xlink="http://www.w3.org/1999/xlink">
    <title>课程备份 19</title>
    <g id="学生工作台" stroke="none" stroke-width="1" fill="none" fill-rule="evenodd">
        <g id="画板" transform="translate(-37.000000, -491.000000)" fill-rule="nonzero">
            <g id="课程备份-19" transform="translate(37.000000, 491.000000)">
                <rect id="矩形" fill="#000000" opacity="0" x="0" y="0" width="24" height="24"></rect>
                <g id="编组-63" transform="translate(4.500000, 4.000000)">
                    <path d="M13,0 C14.1045695,0 15,0.8954305 15,2 L15,14 C15,15.1045695 14.1045695,16 13,16 L2,16 C0.8954305,16 0,15.1045695 0,14 L0,2 C0,0.8954305 0.8954305,0 2,0 L13,0 Z" id="矩形" fill="#FFFFFF"></path>
                    <path d="M9.53553391,4 C9.81167628,4 10.0355339,4.22385763 10.0355339,4.5 L10.0355339,9.5 C10.0355339,9.74545989 9.85865875,9.94960837 9.62540954,9.99194433 L9.53553391,10 L6.53553391,10 C6.25939153,10 6.03553391,9.77614237 6.03553391,9.5 C6.03553391,9.22385763 6.25939153,9 6.53553391,9 L9.03553391,9 L9.03553391,4.5 C9.03553391,4.22385763 9.25939153,4 9.53553391,4 Z" id="形状结合" fill="#FF2739" transform="translate(8.035534, 7.000000) rotate(45.000000) translate(-8.035534, -7.000000) "></path>
                    <path d="M10.5,12 C10.7761424,12 11,12.2238576 11,12.5 C11,12.7761424 10.7761424,13 10.5,13 L4.5,13 C4.22385763,13 4,12.7761424 4,12.5 C4,12.2238576 4.22385763,12 4.5,12 L10.5,12 Z" id="矩形" fill="#FF2739"></path>
                </g>
            </g>
        </g>
    </g>
</svg>