<?xml version="1.0" encoding="UTF-8"?>
<svg width="24px" height="24px" viewBox="0 0 24 24" version="1.1" xmlns="http://www.w3.org/2000/svg" xmlns:xlink="http://www.w3.org/1999/xlink">
    <title>课程备份 10</title>
    <g id="学生工作台" stroke="none" stroke-width="1" fill="none" fill-rule="evenodd">
        <g id="画板" transform="translate(-37.000000, -219.000000)" fill-rule="nonzero">
            <g id="课程备份-10" transform="translate(37.000000, 219.000000)">
                <rect id="矩形" fill="#000000" opacity="0" x="0" y="0" width="24" height="24"></rect>
                <g id="编组-61" transform="translate(4.500000, 4.000000)" fill="#FFFFFF">
                    <path d="M15.0017655,12.4353272 L15.0006134,14 C15.0006134,15.1045695 14.1051829,16 13.0006134,16 L1.53811186,16 C1.0678433,16 0.646887138,15.7888685 0.364861925,15.4562241 C0.142489578,15.1895783 0.00862924605,14.8457045 0.00862924605,14.470566 C0.00862924605,13.6656571 0.624886432,13.0046827 1.41131834,12.9337254 L1.55177616,12.9274191 L13.5121053,12.9274191 L13.676481,12.9221014 C14.1006151,12.8945724 14.4959194,12.7612754 14.836283,12.5483214 L15.0017655,12.4353272 Z M13.0006134,0 C14.1051829,0 15.0006134,0.8954305 15.0006134,2 L15.0022707,10.6001238 C14.9219801,11.3005134 14.3592932,11.8542406 13.6547949,11.9207206 L13.5121053,11.9274191 L1.55177616,11.9274191 L1.38456356,11.9328285 C0.930006922,11.9623321 0.508002507,12.1112599 0.149611091,12.348551 L0,12.4555667 L0.00061338443,2 C0.00061338443,0.8954305 0.896043885,0 2.00061338,0 L13.0006134,0 Z" id="形状结合"></path>
                </g>
            </g>
        </g>
    </g>
</svg>