<?xml version="1.0" encoding="UTF-8"?>
<svg width="24px" height="24px" viewBox="0 0 24 24" version="1.1" xmlns="http://www.w3.org/2000/svg" xmlns:xlink="http://www.w3.org/1999/xlink">
    <title>课程备份 5</title>
    <g id="学生工作台" stroke="none" stroke-width="1" fill="none" fill-rule="evenodd">
        <g id="画板" transform="translate(-122.000000, -220.000000)">
            <g id="课程备份-5" transform="translate(122.000000, 220.000000)">
                <rect id="矩形" fill="#000000" fill-rule="nonzero" opacity="0" x="0" y="0" width="24" height="24"></rect>
                <g id="编组-61" transform="translate(5.000000, 4.500000)" stroke="#979797">
                    <path d="M14,6.55666802 L14,10.2310305 L14,13.125 C14,14.1605339 13.1642649,15 12.1333333,15 L11.5207258,15 L1.86666667,15 C0.835735134,15 0,14.1605339 0,13.125 L0,1.875 C0,0.839466094 0.835735134,0 1.86666667,0 L12.1333333,0 C13.1642649,0 14,0.839466094 14,1.875 L14,3.75065833" id="路径" stroke-linecap="round"></path>
                    <path d="M13.999054,7.5 L13.999054,9.92741907 C13.999054,11.0319886 13.1036235,11.9274191 11.999054,11.9274191 L10.9799895,11.9274191 L10.9799895,11.9274191 L3.52347712,11.9274191 L1.54778238,11.9274191 C0.699312581,11.9274191 0.0114919108,12.6152397 0.0114919108,13.4637095 C0.0114919108,14.3121793 0.699312581,15 1.54778238,15 L11.5455016,15 L11.5455016,15" id="路径-11"></path>
                </g>
            </g>
        </g>
    </g>
</svg>