<?xml version="1.0" encoding="UTF-8"?>
<svg width="24px" height="24px" viewBox="0 0 24 24" version="1.1" xmlns="http://www.w3.org/2000/svg" xmlns:xlink="http://www.w3.org/1999/xlink">
    <title>课程备份 3</title>
    <g id="学生工作台" stroke="none" stroke-width="1" fill="none" fill-rule="evenodd">
        <g id="画板" transform="translate(-122.000000, -84.000000)">
            <g id="课程备份-3" transform="translate(122.000000, 84.000000)">
                <rect id="矩形" fill="#000000" fill-rule="nonzero" opacity="0" x="0" y="0" width="24" height="24"></rect>
                <g id="编组-57备份" transform="translate(3.000000, 4.000000)" stroke="#999999">
                    <path d="M6,0.5 C6.41421356,0.5 6.78921356,0.667893219 7.06066017,0.939339828 C7.33210678,1.21078644 7.5,1.58578644 7.5,2 L7.5,2 L7.5,14 C7.5,14.4142136 7.33210678,14.7892136 7.06066017,15.0606602 C6.78921356,15.3321068 6.41421356,15.5 6,15.5 L6,15.5 L2,15.5 C1.58578644,15.5 1.21078644,15.3321068 0.939339828,15.0606602 C0.667893219,14.7892136 0.5,14.4142136 0.5,14 L0.5,14 L0.5,2 C0.5,1.58578644 0.667893219,1.21078644 0.939339828,0.939339828 C1.21078644,0.667893219 1.58578644,0.5 2,0.5 L2,0.5 Z M16,10.5 C16.4142136,10.5 16.7892136,10.6678932 17.0606602,10.9393398 C17.3321068,11.2107864 17.5,11.5857864 17.5,12 L17.5,12 L17.5,14 C17.5,14.4142136 17.3321068,14.7892136 17.0606602,15.0606602 C16.7892136,15.3321068 16.4142136,15.5 16,15.5 L16,15.5 L12,15.5 C11.5857864,15.5 11.2107864,15.3321068 10.9393398,15.0606602 C10.6678932,14.7892136 10.5,14.4142136 10.5,14 L10.5,14 L10.5,12 C10.5,11.5857864 10.6678932,11.2107864 10.9393398,10.9393398 C11.2107864,10.6678932 11.5857864,10.5 12,10.5 L12,10.5 Z M14,0.5 C14.9664983,0.5 15.8414983,0.891750844 16.4748737,1.52512627 C17.1082492,2.15850169 17.5,3.03350169 17.5,4 C17.5,4.96649831 17.1082492,5.84149831 16.4748737,6.47487373 C15.8414983,7.10824916 14.9664983,7.5 14,7.5 C13.0335017,7.5 12.1585017,7.10824916 11.5251263,6.47487373 C10.8917508,5.84149831 10.5,4.96649831 10.5,4 C10.5,3.03350169 10.8917508,2.15850169 11.5251263,1.52512627 C12.1585017,0.891750844 13.0335017,0.5 14,0.5 Z" id="形状结合"></path>
                </g>
            </g>
        </g>
    </g>
</svg>