<?xml version="1.0" encoding="UTF-8"?>
<svg width="24px" height="24px" viewBox="0 0 24 24" version="1.1" xmlns="http://www.w3.org/2000/svg" xmlns:xlink="http://www.w3.org/1999/xlink">
    <title>课程备份 18</title>
    <g id="学生工作台" stroke="none" stroke-width="1" fill="none" fill-rule="evenodd">
        <g id="画板" transform="translate(-122.000000, -492.000000)" fill-rule="nonzero">
            <g id="课程备份-18" transform="translate(122.000000, 492.000000)">
                <rect id="矩形" fill="#000000" opacity="0" x="0" y="0" width="24" height="24"></rect>
                <g id="编组-63" transform="translate(4.500000, 4.000000)" fill="#979797">
                    <path d="M9.53553391,4 C9.81167628,4 10.0355339,4.22385763 10.0355339,4.5 L10.0355339,9.5 C10.0355339,9.74545989 9.85865875,9.94960837 9.62540954,9.99194433 L9.53553391,10 L6.53553391,10 C6.25939153,10 6.03553391,9.77614237 6.03553391,9.5 C6.03553391,9.22385763 6.25939153,9 6.53553391,9 L9.03553391,9 L9.03553391,4.5 C9.03553391,4.22385763 9.25939153,4 9.53553391,4 Z" id="形状结合" transform="translate(8.035534, 7.000000) rotate(45.000000) translate(-8.035534, -7.000000) "></path>
                    <path d="M12.5,0 C13.8254834,0 14.9100387,1.03153594 14.9946823,2.33562431 L15,2.5 L15,3.09457152 C15,3.37071389 14.7761424,3.59457152 14.5,3.59457152 C14.2545401,3.59457152 14.0503916,3.41769636 14.0080557,3.18444715 L14,3.09457152 L14,2.5 C14,1.72030388 13.4051119,1.07955132 12.64446,1.00686658 L12.5,1 L2.5,1 C1.72030388,1 1.07955132,1.59488808 1.00686658,2.35553999 L1,2.5 L1,13.5 C1,14.2796961 1.59488808,14.9204487 2.35553999,14.9931334 L2.5,15 L12.5,15 C13.2796961,15 13.9204487,14.4051119 13.9931334,13.64446 L14,13.5 L14,6.12181597 C14,5.84567359 14.2238576,5.62181597 14.5,5.62181597 C14.7454599,5.62181597 14.9496084,5.79869113 14.9919443,6.03194034 L15,6.12181597 L15,13.5 C15,14.8254834 13.9684641,15.9100387 12.6643757,15.9946823 L12.5,16 L2.5,16 C1.1745166,16 0.089961328,14.9684641 0.00531767968,13.6643757 L0,13.5 L0,2.5 C0,1.1745166 1.03153594,0.089961328 2.33562431,0.00531767968 L2.5,0 L12.5,0 Z" id="路径"></path>
                    <path d="M10.5,12 C10.7761424,12 11,12.2238576 11,12.5 C11,12.7761424 10.7761424,13 10.5,13 L4.5,13 C4.22385763,13 4,12.7761424 4,12.5 C4,12.2238576 4.22385763,12 4.5,12 L10.5,12 Z" id="矩形"></path>
                </g>
            </g>
        </g>
    </g>
</svg>