<?xml version="1.0" encoding="UTF-8"?>
<svg width="24px" height="24px" viewBox="0 0 24 24" version="1.1" xmlns="http://www.w3.org/2000/svg" xmlns:xlink="http://www.w3.org/1999/xlink">
    <title>课程备份 20</title>
    <g id="学生工作台" stroke="none" stroke-width="1" fill="none" fill-rule="evenodd">
        <g id="画板" transform="translate(-122.000000, -560.000000)" fill-rule="nonzero">
            <g id="课程备份-20" transform="translate(122.000000, 560.000000)">
                <rect id="矩形" fill="#000000" opacity="0" x="0" y="0" width="24" height="24"></rect>
                <g id="编组-63" transform="translate(2.500000, 3.500000)" fill="#979797">
                    <path d="M14,0 C15.3254834,0 16.4100387,1.03153594 16.4946823,2.33562431 L16.5,2.5 L16.5,13.5 C16.5,14.8254834 15.4684641,15.9100387 14.1643757,15.9946823 L14,16 L9,16 C8.72385763,16 8.5,15.7761424 8.5,15.5 C8.5,15.2545401 8.67687516,15.0503916 8.91012437,15.0080557 L9,15 L14,15 C14.7796961,15 15.4204487,14.4051119 15.4931334,13.64446 L15.5,13.5 L15.5,2.5 C15.5,1.72030388 14.9051119,1.07955132 14.14446,1.00686658 L14,1 L7.252,1 L7.25228893,15.5 C7.25228893,15.7454599 7.07541377,15.9496084 6.84216456,15.9919443 L6.75228893,16 L4,16 C2.6745166,16 1.58996133,14.9684641 1.50531768,13.6643757 L1.5,13.5 L1.5,2.5 C1.5,1.1745166 2.53153594,0.089961328 3.83562431,0.00531767968 L4,0 L14,0 Z M6.252,15 L6.252,1 L4,1 C3.22030388,1 2.57955132,1.59488808 2.50686658,2.35553999 L2.5,2.5 L2.5,13.5 C2.5,14.2796961 3.09488808,14.9204487 3.85553999,14.9931334 L4,15 L6.252,15 Z" id="路径"></path>
                    <path d="M3.5,4.5 C3.77614237,4.5 4,4.72385763 4,5 C4,5.27614237 3.77614237,5.5 3.5,5.5 L0.5,5.5 C0.223857625,5.5 0,5.27614237 0,5 C0,4.72385763 0.223857625,4.5 0.5,4.5 L3.5,4.5 Z" id="矩形备份-56"></path>
                    <path d="M3.5,10.5 C3.77614237,10.5 4,10.7238576 4,11 C4,11.2761424 3.77614237,11.5 3.5,11.5 L0.5,11.5 C0.223857625,11.5 0,11.2761424 0,11 C0,10.7238576 0.223857625,10.5 0.5,10.5 L3.5,10.5 Z" id="矩形备份-57"></path>
                </g>
            </g>
        </g>
    </g>
</svg>