<?xml version="1.0" encoding="UTF-8"?>
<svg width="24px" height="24px" viewBox="0 0 24 24" version="1.1" xmlns="http://www.w3.org/2000/svg" xmlns:xlink="http://www.w3.org/1999/xlink">
    <title>学情统计-线</title>
    <g id="页面-1" stroke="none" stroke-width="1" fill="none" fill-rule="evenodd">
        <g id="教师工作台其他状态" transform="translate(-338.000000, -1312.000000)" fill-rule="nonzero">
            <g id="编组-2备份-3" transform="translate(322.000000, 1312.000000)">
                <g id="课程备份-5" transform="translate(16.000000, 0.000000)">
                    <rect id="矩形" fill="#000000" opacity="0" x="0" y="0" width="24" height="24"></rect>
                    <g id="编组-35" transform="translate(3.500000, 4.000000)">
                        <path d="M15.0875,0 L1.9125,0 C0.856255416,0 0,0.848302579 0,1.89473684 L0,11.1578947 C0,12.204329 0.856255416,13.0526316 1.9125,13.0526316 L15.0875,13.0526316 C16.1437446,13.0526316 17,12.204329 17,11.1578947 L17,1.89473684 C17,0.848302579 16.1437446,0 15.0875,0 Z" id="矩形" stroke="#979797"></path>
                        <path d="M4.03157895,14.7368421 L12.9684211,14.7368421 C13.3172325,14.7368421 13.6,15.0196096 13.6,15.3684211 C13.6,15.7172325 13.3172325,16 12.9684211,16 L4.03157895,16 C3.68276753,16 3.4,15.7172325 3.4,15.3684211 C3.4,15.0196096 3.68276753,14.7368421 4.03157895,14.7368421 Z" id="矩形" fill="#979797"></path>
                        <path d="M9.34382719,3.61206608 C9.51856528,3.23389798 10.0543206,3.2056835 10.2759402,3.5448677 L10.3009835,3.58733443 L12.1307837,7.03882436 L14.1620408,7.03914452 C14.4379578,7.03914452 14.6647057,7.24254099 14.6904272,7.50261328 L14.6928571,7.55200519 C14.6928571,7.81858884 14.4823396,8.0376667 14.213162,8.06251813 L14.1620408,8.06486586 L11.8063842,8.06486586 C11.6237817,8.06486586 11.4552696,7.97431988 11.3585038,7.82728319 L11.3339353,7.78580726 L9.86136694,5.00755419 L7.78551125,9.50072076 C7.60440116,9.89267913 7.04260421,9.90463875 6.8365817,9.54073528 L6.81361385,9.49526299 L5.76771143,7.15951757 L5.41531776,7.91018778 C5.33641717,8.07814957 5.17101006,8.19102229 4.98357312,8.20866801 L4.9319562,8.21108932 L2.83795918,8.21108932 C2.54479742,8.21108932 2.30714286,7.98147378 2.30714286,7.69822865 C2.30714286,7.431645 2.5176604,7.21256714 2.78683803,7.18771571 L2.83795918,7.18536798 L4.58965306,7.1851606 L5.2962114,5.6818822 C5.47920506,5.29232944 6.03859057,5.28209668 6.24387522,5.64490187 L6.26676294,5.69022867 L7.30814041,8.01702061 L9.34382719,3.61206608 Z" id="路径-3" fill="#979797"></path>
                    </g>
                </g>
            </g>
        </g>
    </g>
</svg>