<?xml version="1.0" encoding="UTF-8"?>
<svg width="16px" height="16px" viewBox="0 0 16 16" version="1.1" xmlns="http://www.w3.org/2000/svg" xmlns:xlink="http://www.w3.org/1999/xlink">
    <title>编组 9</title>
    <g id="页面-1" stroke="none" stroke-width="1" fill="none" fill-rule="evenodd">
        <g id="教师-课程内容" transform="translate(-940.000000, -412.000000)" fill-rule="nonzero">
            <g id="编组-59" transform="translate(56.000000, 327.000000)">
                <g id="编组-15" transform="translate(880.000000, 81.000000)">
                    <g id="编组-9" transform="translate(4.000000, 4.000000)">
                        <rect id="矩形" fill="#000000" opacity="0" x="0" y="0" width="16" height="16" rx="1"></rect>
                        <g id="编组-3" transform="translate(1.400000, 1.250000)" fill="#666666">
                            <path d="M7.2,11 C7.2,10.4477153 7.64771525,10 8.2,10 L12.2,10 C12.7522847,10 13.2,10.4477153 13.2,11 L13.2,12 C13.2,12.5522847 12.7522847,13 12.2,13 L8.2,13 C7.7088087,13 7.30033163,12.6458583 7.21597114,12.1789771 L7.199,12.178 L7.2,11 Z M5.31491824,10.6282412 C5.31491824,10.8491551 5.47410589,11.0328887 5.68403017,11.0709911 L5.76491824,11.0782412 L6.199,11.078 L6.199,12.178 L5.76491824,12.1782412 C4.95643473,12.1782412 4.29252501,11.5592472 4.22125259,10.7693228 L4.21491824,10.6282412 L4.214,8.025 L5.314,8.025 L5.31491824,10.6282412 Z M12.099,11.1 L8.299,11.1 L8.299,11.9 L12.099,11.9 L12.099,11.1 Z M1.9,4.54623901 C2.50751322,4.54623901 3,5.03872578 3,5.64623901 L3,5.928 L3.04499849,5.92529404 L4.214,5.923 L4.214,5.917 L5.314,5.917 L5.314,5.921 L6.199,5.919 L6.199,7.019 L5.314,7.021 L5.314,7.025 L4.214,7.025 L4.214,7.023 L3.04716948,7.02529299 L3,7.021 L3,7.44623901 C3,8.05375223 2.50751322,8.54623901 1.9,8.54623901 L1.1,8.54623901 C0.492486775,8.54623901 0,8.05375223 0,7.44623901 L0,5.64623901 C0,5.03872578 0.492486775,4.54623901 1.1,4.54623901 L1.9,4.54623901 Z M7.199,7.017 L7.199,5.917 L7.21505761,5.91757166 C7.30196542,5.39687901 7.75463468,5 8.3,5 L12.1,5 C12.7075132,5 13.2,5.49248678 13.2,6.1 L13.2,6.9 C13.2,7.50751322 12.7075132,8 12.1,8 L8.3,8 C7.73230697,8 7.26505548,7.56995864 7.20624133,7.01787172 L7.199,7.017 Z M1.9,5.64623901 L1.1,5.64623901 L1.1,7.44623901 L1.9,7.44623901 L1.9,5.64623901 Z M12.1,6.1 L8.3,6.1 L8.3,6.9 L12.1,6.9 L12.1,6.1 Z M6.199,0.949 L6.199,2.049 L5.76491824,2.05 C5.54400434,2.05 5.36027071,2.20918764 5.32216834,2.41911193 L5.31491824,2.5 L5.314,4.917 L4.214,4.917 L4.21491824,2.5 C4.21491824,1.69151649 4.83391221,1.02760677 5.62383665,0.956334343 L5.76491824,0.95 L6.199,0.949 Z M12.2,0 C12.7522847,0 13.2,0.44771525 13.2,1 L13.2,2 C13.2,2.55228475 12.7522847,3 12.2,3 L8.2,3 C7.66437901,3 7.2271125,2.57889446 7.20121334,2.04969627 L7.199,2.049 L7.199,0.949 L7.202,0.949 L7.20672773,0.883378875 C7.26449284,0.38604019 7.68716416,0 8.2,0 L12.2,0 Z M12.099,1.1 L8.299,1.1 L8.299,1.9 L12.099,1.9 L12.099,1.1 Z" id="形状结合"></path>
                        </g>
                    </g>
                </g>
            </g>
        </g>
    </g>
</svg>