<?xml version="1.0" encoding="UTF-8"?>
<svg width="18px" height="18px" viewBox="0 0 18 18" version="1.1" xmlns="http://www.w3.org/2000/svg" xmlns:xlink="http://www.w3.org/1999/xlink">
    <title>日历备份 16</title>
    <g id="教师端" stroke="none" stroke-width="1" fill="none" fill-rule="evenodd">
        <g id="其他状态补充" transform="translate(-122.000000, -300.000000)" fill-rule="nonzero">
            <g id="编组-15" transform="translate(122.000000, 300.000000)">
                <path d="M12.3835977,2 C13.8285968,2 15,3.19390734 15,4.66666667 L15,13.3333333 C15,14.8060927 13.8285968,16 12.3835977,16 L5.51554153,16 C4.07054242,16 2.89913919,14.8060927 2.89913919,13.3333333 L2.899,11.916 L2.5720889,11.9166667 C2.26526274,11.9165261 2.01312833,11.6698097 2.00049367,11.3573542 C1.98785902,11.0448988 2.21921941,10.777873 2.52499366,10.752 L2.5720889,10.75 L2.899,10.75 L2.899,7.25 L2.5720889,7.25 C2.26526274,7.2498594 2.01312833,7.003143 2.00049367,6.69068755 C1.98785902,6.3782321 2.21921941,6.11120637 2.52499366,6.08533333 L2.5720889,6.08333333 L2.899,6.083 L2.89913919,4.66666667 C2.89913919,3.19390734 4.07054242,2 5.51554153,2 L12.3835977,2 Z" id="形状结合备份-3" fill="#F32424"></path>
                <path d="M9.00059109,7.98204751 C9.29841696,7.98204751 9.54645999,8.21486276 9.57096681,8.51738084 L9.57292911,8.56538084 L9.57292911,13.4346192 C9.57279116,13.7473398 9.33072515,14.0043181 9.02415921,14.0171954 C8.71759327,14.0300728 8.45560075,13.7942677 8.43021538,13.4826192 L8.42825308,13.4346192 L8.42825308,8.56538084 C8.42825308,8.24338084 8.68466051,7.98204751 9.00059109,7.98204751 Z" id="路径备份-5" fill="#F9F9F9" transform="translate(9.000591, 10.999873) rotate(90.000000) translate(-9.000591, -10.999873) "></path>
                <path d="M7.71878968,6.26384892 C8.01661555,6.26384892 8.26465858,6.49666417 8.2891654,6.79918225 L8.2911277,6.84718225 L8.2911277,9.15281775 C8.29098975,9.46553842 8.04892374,9.72251664 7.7423578,9.73539403 C7.43579186,9.74827141 7.17379934,9.5124663 7.14841397,9.20081775 L7.14645167,9.15281775 L7.14645167,6.84718225 C7.14645167,6.52518225 7.4028591,6.26384892 7.71878968,6.26384892 Z" id="路径备份-6" fill="#F9F9F9" transform="translate(7.718790, 7.999873) rotate(90.000000) translate(-7.718790, -7.999873) "></path>
            </g>
        </g>
    </g>
</svg>