<?xml version="1.0" encoding="UTF-8"?>
<svg width="18px" height="18px" viewBox="0 0 18 18" version="1.1" xmlns="http://www.w3.org/2000/svg" xmlns:xlink="http://www.w3.org/1999/xlink">
    <title>日历备份 13</title>
    <g id="教师端" stroke="none" stroke-width="1" fill="none" fill-rule="evenodd">
        <g id="其他状态补充" transform="translate(-146.000000, -300.000000)" fill="#666666" fill-rule="nonzero">
            <g id="编组-9" transform="translate(146.000000, 300.000000)">
                <path d="M12.3835977,2 C13.8285968,2 15,3.19390734 15,4.66666667 L15,13.3333333 C15,14.8060927 13.8285968,16 12.3835977,16 L5.51554153,16 C4.07054242,16 2.89913919,14.8060927 2.89913919,13.3333333 L2.89913919,4.66666667 C2.89913919,3.19390734 4.07054242,2 5.51554153,2 L12.3835977,2 Z M12.3835977,3.16666667 L5.51554153,3.16666667 C4.72968655,3.16666667 4.08247296,3.79593711 4.04545046,4.596 L4.04381522,4.66666667 L4.04381522,13.3333333 C4.04381522,14.1342856 4.66122445,14.7939329 5.44620686,14.8316667 L5.51554153,14.8333333 L12.3835977,14.8333333 C13.1694526,14.8333333 13.8166662,14.2040629 13.8536887,13.404 L13.855324,13.3333333 L13.855324,4.66666667 C13.855324,3.86571444 13.2379147,3.20606707 12.4529323,3.16833333 L12.3835977,3.16666667 Z" id="形状备份-3"></path>
                <path d="M4.3708655,6.08333333 C4.67769166,6.08347393 4.92982607,6.33019033 4.94246073,6.64264578 C4.95509539,6.95510123 4.723735,7.22212695 4.41796075,7.248 L4.3708655,7.25 L2.5720889,7.25 C2.26526274,7.2498594 2.01312833,7.003143 2.00049367,6.69068755 C1.98785902,6.3782321 2.21921941,6.11120637 2.52499366,6.08533333 L2.5720889,6.08333333 L4.3708655,6.08333333 Z" id="路径"></path>
                <path d="M4.3708655,10.75 C4.67769166,10.7501406 4.92982607,10.996857 4.94246073,11.3093124 C4.95509539,11.6217679 4.723735,11.8887936 4.41796075,11.9146667 L4.3708655,11.9166667 L2.5720889,11.9166667 C2.26526274,11.9165261 2.01312833,11.6698097 2.00049367,11.3573542 C1.98785902,11.0448988 2.21921941,10.777873 2.52499366,10.752 L2.5720889,10.75 L4.3708655,10.75 Z" id="路径"></path>
                <path d="M9.00059109,7.98204751 C9.29841696,7.98204751 9.54645999,8.21486276 9.57096681,8.51738084 L9.57292911,8.56538084 L9.57292911,13.4346192 C9.57279116,13.7473398 9.33072515,14.0043181 9.02415921,14.0171954 C8.71759327,14.0300728 8.45560075,13.7942677 8.43021538,13.4826192 L8.42825308,13.4346192 L8.42825308,8.56538084 C8.42825308,8.24338084 8.68466051,7.98204751 9.00059109,7.98204751 Z" id="路径" transform="translate(9.000591, 10.999873) rotate(90.000000) translate(-9.000591, -10.999873) "></path>
                <path d="M7.71878968,6.26384892 C8.01661555,6.26384892 8.26465858,6.49666417 8.2891654,6.79918225 L8.2911277,6.84718225 L8.2911277,9.15281775 C8.29098975,9.46553842 8.04892374,9.72251664 7.7423578,9.73539403 C7.43579186,9.74827141 7.17379934,9.5124663 7.14841397,9.20081775 L7.14645167,9.15281775 L7.14645167,6.84718225 C7.14645167,6.52518225 7.4028591,6.26384892 7.71878968,6.26384892 Z" id="路径备份-7" transform="translate(7.718790, 7.999873) rotate(90.000000) translate(-7.718790, -7.999873) "></path>
            </g>
        </g>
    </g>
</svg>