<?xml version="1.0" encoding="UTF-8"?>
<svg width="24px" height="24px" viewBox="0 0 24 24" version="1.1" xmlns="http://www.w3.org/2000/svg" xmlns:xlink="http://www.w3.org/1999/xlink">
    <title>编组 2备份 2</title>
    <g id="页面-1" stroke="none" stroke-width="1" fill="none" fill-rule="evenodd">
        <g id="输入验证码" transform="translate(-976.000000, -320.000000)" stroke="#979797">
            <g id="编组" transform="translate(936.000000, 150.000000)">
                <g id="编组-28" transform="translate(32.000000, 162.000000)">
                    <g id="编组-2备份-2" transform="translate(8.000000, 8.000000)">
                        <g id="编组-3" transform="translate(6.000000, 7.000000)">
                            <path d="M10,4.5 C10.4142136,4.5 10.7892136,4.66789322 11.0606602,4.93933983 C11.3321068,5.21078644 11.5,5.58578644 11.5,6 L11.5,6 L11.5,10 C11.5,10.4142136 11.3321068,10.7892136 11.0606602,11.0606602 C10.7892136,11.3321068 10.4142136,11.5 10,11.5 L10,11.5 L2,11.5 C1.58578644,11.5 1.21078644,11.3321068 0.939339828,11.0606602 C0.667893219,10.7892136 0.5,10.4142136 0.5,10 L0.5,10 L0.5,6 C0.5,5.58578644 0.667893219,5.21078644 0.939339828,4.93933983 C1.21078644,4.66789322 1.58578644,4.5 2,4.5 L2,4.5 Z" id="矩形"></path>
                            <path d="M3,4 L3,3 C3,1.34314575 4.20883118,0 5.7,0 L6.3,0 C7.79116882,0 9,1.34314575 9,3 L9,4" id="路径"></path>
                        </g>
                    </g>
                </g>
            </g>
        </g>
    </g>
</svg>