<?xml version="1.0" encoding="UTF-8"?>
<svg width="18px" height="18px" viewBox="0 0 18 18" version="1.1" xmlns="http://www.w3.org/2000/svg" xmlns:xlink="http://www.w3.org/1999/xlink">
    <title>切片</title>
    <g id="页面-1" stroke="none" stroke-width="1" fill="none" fill-rule="evenodd">
        <g id="导航状态" transform="translate(-263.000000, -170.000000)" fill="#F32424" fill-rule="nonzero">
            <g id="icon/进度/已选" transform="translate(263.000000, 170.000000)">
                <path d="M12.1875,2.25 C12.4981602,2.25 12.75,2.50183983 12.75,2.8125 L12.75,3.375 L14.0625,3.375 C15.1498106,3.375 16.0406078,4.21637397 16.1193428,5.28357321 L16.125,5.4375 L16.125,13.3125 C16.125,14.4515873 15.2015873,15.375 14.0625,15.375 L14.0625,15.375 L3.9375,15.375 C2.7984127,15.375 1.875,14.4515873 1.875,13.3125 L1.875,13.3125 L1.875,5.4375 C1.875,4.2984127 2.7984127,3.375 3.9375,3.375 L3.9375,3.375 L5.25,3.375 L5.25,2.8125 C5.25,2.50183983 5.50183983,2.25 5.8125,2.25 C6.12316017,2.25 6.375,2.50183983 6.375,2.8125 L6.375,3.375 L11.625,3.375 L11.625,2.8125 C11.625,2.50183983 11.8768398,2.25 12.1875,2.25 Z M5.8125,10.875 L4.6875,10.875 C4.37683983,10.875 4.125,11.1268398 4.125,11.4375 C4.125,11.7481602 4.37683983,12 4.6875,12 L4.6875,12 L5.8125,12 C6.12316017,12 6.375,11.7481602 6.375,11.4375 C6.375,11.1268398 6.12316017,10.875 5.8125,10.875 L5.8125,10.875 Z M9.5625,10.875 L8.4375,10.875 C8.12683983,10.875 7.875,11.1268398 7.875,11.4375 C7.875,11.7481602 8.12683983,12 8.4375,12 L8.4375,12 L9.5625,12 C9.87316017,12 10.125,11.7481602 10.125,11.4375 C10.125,11.1268398 9.87316017,10.875 9.5625,10.875 L9.5625,10.875 Z M13.3125,10.875 L12.1875,10.875 C11.8768398,10.875 11.625,11.1268398 11.625,11.4375 C11.625,11.7481602 11.8768398,12 12.1875,12 L12.1875,12 L13.3125,12 C13.6231602,12 13.875,11.7481602 13.875,11.4375 C13.875,11.1268398 13.6231602,10.875 13.3125,10.875 L13.3125,10.875 Z M5.8125,7.5 L4.6875,7.5 C4.37683983,7.5 4.125,7.75183983 4.125,8.0625 C4.125,8.37316017 4.37683983,8.625 4.6875,8.625 L4.6875,8.625 L5.8125,8.625 C6.12316017,8.625 6.375,8.37316017 6.375,8.0625 C6.375,7.75183983 6.12316017,7.5 5.8125,7.5 L5.8125,7.5 Z M9.5625,7.5 L8.4375,7.5 C8.12683983,7.5 7.875,7.75183983 7.875,8.0625 C7.875,8.37316017 8.12683983,8.625 8.4375,8.625 L8.4375,8.625 L9.5625,8.625 C9.87316017,8.625 10.125,8.37316017 10.125,8.0625 C10.125,7.75183983 9.87316017,7.5 9.5625,7.5 L9.5625,7.5 Z M13.3125,7.5 L12.1875,7.5 C11.8768398,7.5 11.625,7.75183983 11.625,8.0625 C11.625,8.37316017 11.8768398,8.625 12.1875,8.625 L12.1875,8.625 L13.3125,8.625 C13.6231602,8.625 13.875,8.37316017 13.875,8.0625 C13.875,7.75183983 13.6231602,7.5 13.3125,7.5 L13.3125,7.5 Z" id="进度"></path>
            </g>
        </g>
    </g>
</svg>