<?xml version="1.0" encoding="UTF-8"?>
<svg width="46px" height="48px" viewBox="0 0 46 48" version="1.1" xmlns="http://www.w3.org/2000/svg" xmlns:xlink="http://www.w3.org/1999/xlink">
    <title>编组 31备份 2</title>
    <g id="页面-1" stroke="none" stroke-width="1" fill="none" fill-rule="evenodd">
        <g id="教师-课程内容" transform="translate(-120.000000, -463.000000)">
            <g id="编组-59" transform="translate(56.000000, 327.000000)">
                <g id="编组-9" transform="translate(48.000000, 120.000000)">
                    <g id="编组-43" transform="translate(16.000000, 16.000000)">
                        <rect id="矩形" fill="#CDD5FF" x="0" y="0" width="46" height="48" rx="8"></rect>
                        <g id="编组-40" transform="translate(9.583333, 10.000000)">
                            <g id="编组-41" transform="translate(1.118056, 0.000000)">
                                <path d="M2.33333333,6.88333333 L22.2638889,6.88333333 C23.5525533,6.88333333 24.5972222,7.92800225 24.5972222,9.21666667 L24.5972222,25.55 C24.5972222,26.8386644 23.5525533,27.8833333 22.2638889,27.8833333 L2.33333333,27.8833333 C1.04466892,27.8833333 2.61495508e-12,26.8386644 2.61479727e-12,25.55 L2.61479727e-12,9.21666667 C2.61508354e-12,7.92800225 1.04466892,6.88333333 2.33333333,6.88333333 Z" id="矩形" fill="#3D53FF"></path>
                                <path d="M3.89861111,0 L16.7967042,0 L16.7967042,0 L22.8083333,6.0542923 L22.8083333,16.3333333 L1.56527778,16.3333333 L1.56527778,2.33333333 C1.56527778,1.04466892 2.60994669,2.36723813e-16 3.89861111,0 Z" id="矩形" fill="#FFFFFF"></path>
                                <path d="M19.0066649,2.22570833 L22.8083333,6.0542923 L22.8083333,16.3333333 L19.0066649,16.3327083 L19.0066649,2.22570833 Z" id="形状结合" fill="#DEE3FF"></path>
                                <rect id="矩形" fill="#ACB9FF" x="4.91944444" y="3.5" width="6.70833333" height="1.16666667" rx="0.583333333"></rect>
                                <rect id="矩形备份-39" fill="#ACB9FF" x="4.91944444" y="7" width="10.0625" height="1.16666667" rx="0.583333333"></rect>
                                <path d="M16.7967042,0 L20.475,0 C21.7636644,-2.36723813e-16 22.8083333,1.04466892 22.8083333,2.33333333 L22.8083333,6.0542923 L22.8083333,6.0542923 L16.7967042,0 Z" id="矩形备份-37" fill="#BDC7FF" transform="translate(19.802519, 3.027146) scale(-1, -1) translate(-19.802519, -3.027146) "></path>
                                <g id="编组-6" transform="translate(0.000000, 10.383333)">
                                    <path d="M11.8462073,1.10208204 L14.4229167,5.25 L14.4229167,5.25 L0,5.25 L0,2.33333333 C-1.57815875e-16,1.04466892 1.04466892,-2.07365397e-16 2.33333333,0 L9.86417183,0 C10.6709504,2.95886396e-16 11.4204871,0.416769023 11.8462073,1.10208204 Z" id="形状结合" fill="#5A73FF" fill-rule="nonzero"></path>
                                    <path d="M2.61479727e-12,4.66666667 L24.5972222,4.66666667 L24.5972222,15.1666667 C24.5972222,16.4553311 23.5525533,17.5 22.2638889,17.5 L2.33333333,17.5 C1.04466892,17.5 2.61495508e-12,16.4553311 2.61479727e-12,15.1666667 L2.61479727e-12,4.66666667 L2.61479727e-12,4.66666667 Z" id="矩形" fill="#5A73FF"></path>
                                    <path d="M24.5972222,4.66666667 L24.5972222,15.1666667 C24.5972222,16.4553311 23.5525533,17.5 22.2638889,17.5 L19.0069444,17.4996667 L19.0069444,4.66666667 L24.5972222,4.66666667 Z" id="形状结合" fill="#4D66FF"></path>
                                </g>
                            </g>
                        </g>
                    </g>
                </g>
            </g>
        </g>
    </g>
</svg>