<?xml version="1.0" encoding="UTF-8"?>
<svg width="48px" height="48px" viewBox="0 0 48 48" version="1.1" xmlns="http://www.w3.org/2000/svg" xmlns:xlink="http://www.w3.org/1999/xlink">
    <title>编组 37备份 4</title>
    <g id="页面-1" stroke="none" stroke-width="1" fill="none" fill-rule="evenodd">
        <g id="教师-课程内容" transform="translate(-120.000000, -655.000000)">
            <g id="编组-59" transform="translate(56.000000, 327.000000)">
                <g id="编组-56" transform="translate(48.000000, 312.000000)">
                    <g id="编组-25" transform="translate(16.000000, 13.000000)">
                        <g id="编组-37备份-4" transform="translate(0.000000, 3.000000)">
                            <g id="编组-45" fill="#FFE1C3">
                                <rect id="矩形备份-41" x="0" y="0" width="48" height="48" rx="8"></rect>
                            </g>
                            <g id="编组-42备份-4" transform="translate(24.500000, 24.000000) rotate(45.000000) translate(-24.500000, -24.000000) translate(10.000000, 7.000000)">
                                <path d="M1.34604639,16.694108 L14.4372817,10.5517241 L14.4372817,10.5517241 L27.6469205,16.6962765 C28.472203,17.0801622 29,17.9077735 29,18.8179711 L29,23.4531034 C29,24.7454498 27.9523463,25.7931034 26.66,25.7931034 L2.34,25.7931034 C1.04765369,25.7931034 1.96805731e-13,24.7454498 1.97091554e-13,23.4531034 L1.97091554e-13,18.8125169 C1.9698043e-13,17.9051265 0.524583206,17.079537 1.34604639,16.694108 Z" id="矩形" fill="#FF6900"></path>
                                <path d="M5.8,12.6276743 C5.8,7.12659697 9.1338166,2.18673174 14.2081792,0.11834068 L14.5086666,1.91743205e-12 C19.7417171,1.99347688 23.2,7.0115845 23.2,12.6114745 L23.199,17.587 L20.3063992,19.1634564 L8.74598061,19.1634564 L5.8,17.5869087 L5.8,12.6276743 Z" id="形状结合" fill="#FFFFFF"></path>
                                <path d="M14.5086666,8.2210111e-13 C19.7417171,1.99347688 23.2,7.0115845 23.2,12.6114745 L23.2,17.5862069 L20.3063992,19.1634564 L19.0261651,19.163 L19.72,18.7586207 L19.72,13.2448513 C19.72,8.06368848 16.6541976,3.38629122 11.9315439,1.30951108 C12.6424441,0.846625881 13.4034228,0.446372181 14.2081792,0.11834068 L14.5086666,8.2210111e-13 Z" id="形状结合" fill="#FFE1C3"></path>
                                <polyline id="路径" stroke="#FFCD9B" stroke-width="1.17" stroke-linecap="round" stroke-linejoin="round" points="7.41459752 13.6439521 8.74598061 14.2597519 12.1752969 14.2597519 20.3063992 14.2597519 21.6098405 13.6456895"></polyline>
                                <path d="M14.4836777,-7.30567345e-13 C15.9977698,0.57561057 17.3633638,1.40462484 18.5396194,2.4278244 C17.3702943,3.11818389 15.9838359,3.51724138 14.497181,3.51724138 C13.0017075,3.51724138 11.6076228,3.11343561 10.4340601,2.41664417 C11.5309824,1.46649085 12.7916903,0.684239157 14.1832273,0.118095172 L14.4836777,-7.30567345e-13 Z" id="形状结合" fill="#FFCD9B"></path>
                                <path d="M8.74598061,17.7769932 L20.3063992,17.7769932 L23.2,16.4137931 L23.2,25.797931 C23.2,27.0902773 22.1523463,28.137931 20.86,28.137931 L8.14,28.137931 C6.84765369,28.137931 5.8,27.0902773 5.8,25.797931 L5.8,16.4143997 L5.8,16.4143997 L8.74598061,17.7769932 Z" id="形状结合" fill="#FF8629"></path>
                                <path d="M23.2,16.4137931 L23.2,25.797931 C23.2,27.0902773 22.1523463,28.137931 20.86,28.137931 L19.72,28.1377931 L19.72,17.7769932 L23.2,16.4137931 Z" id="形状结合" fill="#FF7C20"></path>
                                <path d="M14.4968152,5.27465517 C15.1353786,5.27465517 15.713201,5.53673745 16.1315717,5.95958533 C16.5521841,6.384699 16.8118152,6.97213189 16.8118152,7.62068966 C16.8118152,8.26924742 16.5521841,8.85668031 16.1315717,9.28179398 C15.713201,9.70464186 15.1353786,9.96672414 14.4968152,9.96672414 C13.8582518,9.96672414 13.2804294,9.70464186 12.8620587,9.28179398 C12.4414462,8.85668031 12.1818152,8.26924742 12.1818152,7.62068966 C12.1818152,6.97213189 12.4414462,6.384699 12.8620587,5.95958533 C13.2804294,5.53673745 13.8582518,5.27465517 14.4968152,5.27465517 Z" id="椭圆形备份-3" stroke="#FFCD9B" stroke-width="1.17" transform="translate(14.496815, 7.620690) scale(1, -1) translate(-14.496815, -7.620690) "></path>
                                <path d="M14.5,29.3103448 C14.8203252,29.3103448 15.08,29.5700197 15.08,29.8903448 L15.08,33.42 C15.08,33.7403252 14.8203252,34 14.5,34 C14.1796748,34 13.92,33.7403252 13.92,33.42 L13.92,29.8903448 C13.92,29.5700197 14.1796748,29.3103448 14.5,29.3103448 Z" id="矩形" fill="#FFC387"></path>
                                <path d="M9.86,30.4827586 C10.1803252,30.4827586 10.44,30.7424335 10.44,31.0627586 L10.44,32.2475862 C10.44,32.5679114 10.1803252,32.8275862 9.86,32.8275862 C9.53967485,32.8275862 9.28,32.5679114 9.28,32.2475862 L9.28,31.0627586 C9.28,30.7424335 9.53967485,30.4827586 9.86,30.4827586 Z" id="矩形备份-26" fill="#FFC387"></path>
                                <path d="M19.14,30.4827586 C19.4603252,30.4827586 19.72,30.7424335 19.72,31.0627586 L19.72,32.2475862 C19.72,32.5679114 19.4603252,32.8275862 19.14,32.8275862 C18.8196748,32.8275862 18.56,32.5679114 18.56,32.2475862 L18.56,31.0627586 C18.56,30.7424335 18.8196748,30.4827586 19.14,30.4827586 Z" id="矩形备份-40" fill="#FFC387"></path>
                            </g>
                        </g>
                    </g>
                </g>
            </g>
        </g>
    </g>
</svg>