<?xml version="1.0" encoding="UTF-8"?>
<svg width="18px" height="18px" viewBox="0 0 18 18" version="1.1" xmlns="http://www.w3.org/2000/svg" xmlns:xlink="http://www.w3.org/1999/xlink">
    <title>切片</title>
    <g id="页面-1" stroke="none" stroke-width="1" fill="none" fill-rule="evenodd">
        <g id="导航状态" transform="translate(-70.000000, -361.000000)" fill="#666666">
            <g id="icon/登录日志/未选" transform="translate(70.000000, 361.000000)">
                <path d="M12.3125,2 C12.6231602,2 12.875,2.25183983 12.875,2.5625 L12.875,3.125 L14.1875,3.125 C15.2748106,3.125 16.1656078,3.96637397 16.2443428,5.03357321 L16.25,5.1875 L16.25,13.0625 C16.25,14.2015873 15.3265873,15.125 14.1875,15.125 L14.1875,15.125 L4.0625,15.125 C2.9234127,15.125 2,14.2015873 2,13.0625 L2,13.0625 L2,5.1875 C2,4.0484127 2.9234127,3.125 4.0625,3.125 L4.0625,3.125 L5.375,3.125 L5.375,2.5625 C5.375,2.25183983 5.62683983,2 5.9375,2 C6.24816017,2 6.5,2.25183983 6.5,2.5625 L6.5,3.125 L11.75,3.125 L11.75,2.5625 C11.75,2.25183983 12.0018398,2 12.3125,2 Z M5.375,4.25 L4.0625,4.25 C3.54473305,4.25 3.125,4.66973305 3.125,5.1875 L3.125,5.1875 L3.125,13.0625 C3.125,13.580267 3.54473305,14 4.0625,14 L4.0625,14 L14.1875,14 C14.705267,14 15.125,13.580267 15.125,13.0625 L15.125,13.0625 L15.125,5.1875 C15.125,4.66973305 14.705267,4.25 14.1875,4.25 L14.1875,4.25 L12.875,4.25 L12.875,4.4375 C12.875,4.74816017 12.6231602,5 12.3125,5 C12.0018398,5 11.75,4.74816017 11.75,4.4375 L11.75,4.25 L6.5,4.25 L6.5,4.4375 C6.5,4.74816017 6.24816017,5 5.9375,5 C5.62683983,5 5.375,4.74816017 5.375,4.4375 L5.375,4.25 Z" id="日历" fill-rule="nonzero"></path>
                <rect id="矩形" x="4.25" y="7.25" width="7" height="1.125" rx="0.5625"></rect>
                <rect id="矩形" x="4.25" y="10.625" width="2.25" height="1.125" rx="0.5625"></rect>
            </g>
        </g>
    </g>
</svg>