<?xml version="1.0" encoding="UTF-8"?>
<svg width="16px" height="16px" viewBox="0 0 16 16" version="1.1" xmlns="http://www.w3.org/2000/svg" xmlns:xlink="http://www.w3.org/1999/xlink">
    <title>编组 13</title>
    <g id="页面-1" stroke="none" stroke-width="1" fill="none" fill-rule="evenodd">
        <g id="我的教学班-列表" transform="translate(-388.000000, -391.000000)" fill="#5A73FF">
            <g id="编组-18" transform="translate(120.000000, 200.000000)">
                <g id="编组-13" transform="translate(268.000000, 191.000000)">
                    <g id="编组-16" transform="translate(2.000000, 4.000000)">
                        <path d="M0.5,6 C0.776142375,6 1,6.22385763 1,6.5 L1,10 L1,10 L0,10 L0,6.5 C-3.38176876e-17,6.22385763 0.223857625,6 0.5,6 Z" id="矩形"></path>
                        <path d="M12.5,7 C12.7761424,7 13,7.22385763 13,7.5 L13,10 L13,10 L12,10 L12,7.5 C12,7.22385763 12.2238576,7 12.5,7 Z" id="矩形备份-5"></path>
                        <path d="M3.5,3 C3.77614237,3 4,3.22385763 4,3.5 L4,10 L4,10 L3,10 L3,3.5 C3,3.22385763 3.22385763,3 3.5,3 Z" id="矩形备份-2"></path>
                        <path d="M9.5,4 C9.77614237,4 10,4.22385763 10,4.5 L10,10 L10,10 L9,10 L9,4.5 C9,4.22385763 9.22385763,4 9.5,4 Z" id="矩形备份-4"></path>
                        <path d="M6.5,0 C6.77614237,-5.07265313e-17 7,0.223857625 7,0.5 L7,10 L7,10 L6,10 L6,0.5 C6,0.223857625 6.22385763,5.07265313e-17 6.5,0 Z" id="矩形备份-3"></path>
                    </g>
                </g>
            </g>
        </g>
    </g>
</svg>