<?xml version="1.0" encoding="UTF-8"?>
<svg width="24px" height="24px" viewBox="0 0 24 24" version="1.1" xmlns="http://www.w3.org/2000/svg" xmlns:xlink="http://www.w3.org/1999/xlink">
    <title>hover备份</title>
    <g id="页面-1" stroke="none" stroke-width="1" fill="none" fill-rule="evenodd">
        <g id="教师-课程内容" transform="translate(-1257.000000, -285.000000)">
            <g id="编组-16" transform="translate(1016.000000, 285.000000)">
                <g id="hover备份" transform="translate(241.000000, 0.000000)">
                    <rect id="矩形" fill="#FFFFFF" x="0" y="0" width="24" height="24" rx="4"></rect>
                    <path d="M9.5,14 C9.77614237,14 10,14.2238576 10,14.5 L10,18.5 C10,18.7761424 9.77614237,19 9.5,19 C9.22385763,19 9,18.7761424 9,18.5 L8.99946609,15.707 L5.02512627,19.6819805 C4.82986412,19.8772427 4.51328163,19.8772427 4.31801948,19.6819805 C4.12275734,19.4867184 4.12275734,19.1701359 4.31801948,18.9748737 L8.29246609,15 L5.5,15 C5.22385763,15 5,14.7761424 5,14.5 C5,14.2238576 5.22385763,14 5.5,14 L9.5,14 Z" id="形状结合" fill="#666666" fill-rule="nonzero"></path>
                    <path d="M19.2928932,4.20710678 C19.5690356,4.20710678 19.7928932,4.43096441 19.7928932,4.70710678 L19.7928932,8.70710678 C19.7928932,8.98324916 19.5690356,9.20710678 19.2928932,9.20710678 C19.0167508,9.20710678 18.7928932,8.98324916 18.7928932,8.70710678 L18.7924661,5.91410678 L14.8180195,9.8890873 C14.6227573,10.0843494 14.3061748,10.0843494 14.1109127,9.8890873 C13.9156506,9.69382515 13.9156506,9.37724266 14.1109127,9.18198052 L18.0854661,5.20710678 L15.2928932,5.20710678 C15.0167508,5.20710678 14.7928932,4.98324916 14.7928932,4.70710678 C14.7928932,4.43096441 15.0167508,4.20710678 15.2928932,4.20710678 L19.2928932,4.20710678 Z" id="形状结合备份" fill="#666666" fill-rule="nonzero" transform="translate(16.878680, 7.121320) scale(-1, -1) translate(-16.878680, -7.121320) "></path>
                </g>
            </g>
        </g>
    </g>
</svg>