<?xml version="1.0" encoding="UTF-8"?>
<svg width="18px" height="18px" viewBox="0 0 18 18" version="1.1" xmlns="http://www.w3.org/2000/svg" xmlns:xlink="http://www.w3.org/1999/xlink">
    <title>手艺人</title>
    <g id="页面-1" stroke="none" stroke-width="1" fill="none" fill-rule="evenodd">
        <g id="其他状态" transform="translate(-228.000000, -809.000000)" fill="#666660" fill-rule="nonzero">
            <g id="icon/测验/未选备份-5" transform="translate(228.000000, 809.000000)">
                <path d="M11.1083965,10.2664199 C11.8681993,10.3684335 12.6280021,10.5255134 13.3878049,10.7377102 C14.7842653,11.1277055 15.75,12.4001042 15.75,13.85 L15.75,14.625 C15.75,15.4534271 15.0784271,16.125 14.25,16.125 L3.75,16.125 C2.92157288,16.125 2.25,15.4534271 2.25,14.625 L2.25,13.85 C2.25,12.4001042 3.21573471,11.1277055 4.61219506,10.7377102 C5.26356175,10.5557973 5.91492845,10.4143918 6.56629515,10.3134935 L6.8919785,10.2664199 L8.46966991,11.8446699 C8.60840881,11.9834088 8.78797989,12.0564293 8.96970004,12.0637313 L9.03029996,12.0637313 L9.09074068,12.0588633 C9.25142069,12.0393912 9.40700663,11.9679934 9.53033009,11.8446699 L11.1083965,10.2664199 Z M11.500875,11.4645 L10.3258252,12.640165 C9.61578105,13.3502092 8.47794063,13.3717257 7.74184104,12.7045861 L7.674034,12.6400242 L6.49875,11.4645 L6.43458851,11.4754692 C6.02976233,11.546587 5.62459961,11.6345595 5.21904226,11.7394283 L4.91479935,11.8212486 C4.03388016,12.0672666 3.41590611,12.8519694 3.37695348,13.7589135 L3.375,13.85 L3.375,14.625 C3.375,14.8173134 3.51976507,14.9758152 3.70626708,14.9974771 L3.75,15 L14.25,15 C14.4423134,15 14.6008152,14.8552349 14.6224771,14.6687329 L14.625,14.625 L14.625,13.85 C14.625,12.9048815 13.9954838,12.0754672 13.0851961,11.8212474 C12.5780848,11.679622 12.0716103,11.5644042 11.5656608,11.475513 L11.500875,11.4645 Z M9,2.25 C11.0710678,2.25 12.75,3.92893219 12.75,6 C12.75,8.03596497 11.1274985,9.69297439 9.10496432,9.74855933 L9,9.75 C6.92893219,9.75 5.25,8.07106781 5.25,6 C5.25,3.96403503 6.87250155,2.30702561 8.89503568,2.25144067 L9,2.25 Z M9,3.375 C7.55025253,3.375 6.375,4.55025253 6.375,6 C6.375,7.44974747 7.55025253,8.625 9,8.625 C10.4497475,8.625 11.625,7.44974747 11.625,6 C11.625,4.55025253 10.4497475,3.375 9,3.375 Z" id="手艺人"></path>
            </g>
        </g>
    </g>
</svg>