<?xml version="1.0" encoding="UTF-8"?>
<svg width="18px" height="18px" viewBox="0 0 18 18" version="1.1" xmlns="http://www.w3.org/2000/svg" xmlns:xlink="http://www.w3.org/1999/xlink">
    <title>新版手艺人</title>
    <g id="页面-1" stroke="none" stroke-width="1" fill="none" fill-rule="evenodd">
        <g id="其他状态" transform="translate(-205.000000, -809.000000)" fill="#F32424" fill-rule="nonzero">
            <g id="icon/测验/未选备份-4" transform="translate(205.000000, 809.000000)">
                <path d="M13.3878049,10.3627102 C14.7842653,10.7527055 15.75,12.0251042 15.75,13.475 L15.75,14.25 C15.75,15.0784271 15.0784271,15.75 14.25,15.75 L3.75,15.75 C2.92157288,15.75 2.25,15.0784271 2.25,14.25 L2.25,13.475 C2.25,12.0251042 3.21573471,10.7527055 4.61219506,10.3627102 C5.37269452,10.1503189 6.13319399,9.99314546 6.89369345,9.89118989 L8.46966991,11.4696699 C8.76256313,11.7625631 9.23743687,11.7625631 9.53033009,11.4696699 L11.1073076,9.89132414 C11.8674734,9.9932834 12.6276392,10.1504121 13.3878049,10.3627102 Z M9,1.875 C11.0710678,1.875 12.75,3.55393219 12.75,5.625 C12.75,7.69606781 11.0710678,9.375 9,9.375 C6.92893219,9.375 5.25,7.69606781 5.25,5.625 C5.25,3.55393219 6.92893219,1.875 9,1.875 Z" id="我的_面"></path>
            </g>
        </g>
    </g>
</svg>