<?xml version="1.0" encoding="UTF-8"?>
<svg width="18px" height="18px" viewBox="0 0 18 18" version="1.1" xmlns="http://www.w3.org/2000/svg" xmlns:xlink="http://www.w3.org/1999/xlink">
    <title>本地生活大学</title>
    <g id="页面-1" stroke="none" stroke-width="1" fill="none" fill-rule="evenodd">
        <g id="其他状态" transform="translate(-122.000000, -809.000000)" fill-rule="nonzero" stroke="#666666" stroke-width="1.125">
            <g id="icon/测验/未选备份-3" transform="translate(122.000000, 809.000000)">
                <path d="M13.3124489,9.37162699 L13.3125,13.125 C12.9188354,13.6194836 12.6156556,13.783343 12.2452198,13.9258183 C11.4146956,14.2452507 10.2665837,14.4375 9,14.4375 C7.7759673,14.4375 6.66262834,14.2577325 5.83898928,13.9573559 C5.46347383,13.8204076 5.15194385,13.6613488 4.93182557,13.4780417 L4.93182557,13.4780417 L4.68869986,9.41272224 L8.68254006,11.1831872 L13.3124489,9.37162699 Z M15,11.033 L15.0935066,11.0873355 C15.149578,11.1198474 15.1875,11.180442 15.1875,11.25 C15.1875,11.3017767 15.1665133,11.3486517 15.1325825,11.3825825 C15.0986517,11.4165133 15.0517767,11.4375 15,11.4375 C14.9482233,11.4375 14.9013483,11.4165133 14.8674175,11.3825825 C14.8334867,11.3486517 14.8125,11.3017767 14.8125,11.25 C14.8125,11.1803431 14.850529,11.1196744 14.9067329,11.0871968 L14.9067329,11.0871968 L15,11.033 Z M8.93775731,3.43489681 L15.3941651,6.24132379 L15.029,6.669 L9.0759899,9.30964626 C9.04373056,9.32394746 9.00844332,9.32871452 8.97416538,9.32394746 L8.9240101,9.30964626 L2.96432039,6.66759981 L8.93775731,3.43489681 Z" id="本地生活大学"></path>
            </g>
        </g>
    </g>
</svg>