<?xml version="1.0" standalone="no"?><!DOCTYPE svg PUBLIC "-//W3C//DTD SVG 1.1//EN" "http://www.w3.org/Graphics/SVG/1.1/DTD/svg11.dtd"><svg t="1679899455037" class="icon" viewBox="0 0 1024 1024" version="1.1" xmlns="http://www.w3.org/2000/svg" p-id="23905" xmlns:xlink="http://www.w3.org/1999/xlink" width="200" height="200"><path d="M346.7776 153.6c1.792 0 3.584 0.7168 4.9152 1.9456l85.0944 79.3088c1.3312 1.2288 3.1232 1.9456 4.9664 1.9456h465.2032c8.0896 0 14.6432 6.656 14.6432 14.7968V855.552c0 8.192-6.5536 14.7968-14.6432 14.7968H117.0432A14.6944 14.6944 0 0 1 102.4 855.6032V168.448c0-8.192 6.5536-14.7968 14.6432-14.7968h229.7344z" fill="#FFE9C2" p-id="23906"></path><path d="M346.7776 128H117.0432a40.2944 40.2944 0 0 0-40.2432 40.3968V855.552c0 22.272 17.92 40.3968 40.2432 40.3968h789.9136a40.2944 40.2944 0 0 0 40.2432-40.3968V251.5968l-0.3584-5.4784a40.2944 40.2944 0 0 0-39.8848-34.9184H449.024L369.152 136.8064a32.8704 32.8704 0 0 0-22.3744-8.8064z m-7.2192 51.2L419.328 253.5936l3.8912 3.072a32.8704 32.8704 0 0 0 18.4832 5.7344H896V844.8h-768v-665.6h211.5584z" fill="#FF7F00" p-id="23907"></path><path d="M307.2 637.3376c0-43.8784 36.6592-79.4112 81.92-79.4112h28.672C426.5472 502.8864 475.648 460.8 534.7328 460.8c59.8016 0 109.2096 43.008 117.248 98.816 44.2368 9.216 72.448 51.4048 62.976 94.3104a80.6912 80.6912 0 0 1-62.1056 60.928l0.2048 1.9456H389.12c-45.2608 0-81.92-35.584-81.92-79.4624z" fill="#FFA900" p-id="23908"></path></svg>