<?xml version="1.0" encoding="UTF-8"?>
<svg width="18px" height="18px" viewBox="0 0 18 18" version="1.1" xmlns="http://www.w3.org/2000/svg" xmlns:xlink="http://www.w3.org/1999/xlink">
    <title>本地生活大学</title>
    <g id="页面-1" stroke="none" stroke-width="1" fill="none" fill-rule="evenodd">
        <g id="其他状态" transform="translate(-99.000000, -809.000000)" fill="#F32424" fill-rule="nonzero">
            <g id="icon/测验/未选备份-2" transform="translate(99.000000, 809.000000)">
                <path d="M13.8749377,8.54751489 L13.875,13.125 C13.875,14.1605339 11.6923882,15 9,15 C6.39446308,15 4.26634413,14.2138195 4.13175741,13.2245793 L4.125,13.125 L4.12493768,8.54751489 L8.69604039,10.5738797 C8.85088523,10.6425255 9.02317076,10.6562546 9.18499187,10.6150672 L9.30395961,10.5738797 L13.8749377,8.54751489 Z M9.30395961,2.92612027 L16.3103233,6.03217769 C16.4996589,6.11611381 16.585102,6.33764427 16.5011658,6.5269798 C16.4634417,6.61207461 16.3954181,6.68009813 16.3103233,6.71782231 L15.3745627,7.13276489 L15.3756617,10.6007199 C15.5994723,10.7304923 15.75,10.9726674 15.75,11.25 C15.75,11.6642136 15.4142136,12 15,12 C14.5857864,12 14.25,11.6642136 14.25,11.25 C14.25,10.9722706 14.4009587,10.7297995 14.6252993,10.6001636 L14.6245627,7.46476489 L9.30395961,9.82387973 C9.11040356,9.9096869 8.88959644,9.9096869 8.69604039,9.82387973 L1.68967666,6.71782231 C1.50034113,6.63388619 1.41489802,6.41235573 1.49883415,6.2230202 C1.53655834,6.13792539 1.60458185,6.06990187 1.68967666,6.03217769 L8.69604039,2.92612027 C8.88959644,2.8403131 9.11040356,2.8403131 9.30395961,2.92612027 Z" id="本地生活大学"></path>
            </g>
        </g>
    </g>
</svg>