<?xml version="1.0" encoding="UTF-8"?>
<svg width="24px" height="24px" viewBox="0 0 24 24" version="1.1" xmlns="http://www.w3.org/2000/svg" xmlns:xlink="http://www.w3.org/1999/xlink">
    <title>编组 5</title>
    <g id="页面-1" stroke="none" stroke-width="1" fill="none" fill-rule="evenodd">
        <g id="教师工作台其他状态" transform="translate(-1232.000000, -238.000000)">
            <g id="编组-15" transform="translate(344.000000, 198.000000)">
                <g id="编组-6备份" transform="translate(114.000000, 20.000000)">
                    <g id="编组-5" transform="translate(774.000000, 20.000000)">
                        <path d="M12,0 C18.627417,-1.21743675e-15 24,5.372583 24,12 C24,18.627417 18.627417,24 12,24 C5.372583,24 8.11624501e-16,18.627417 0,12 C-8.11624501e-16,5.372583 5.372583,1.21743675e-15 12,0 Z" id="矩形" fill="#FF2739" fill-rule="nonzero"></path>
                        <g id="进入箭头小" transform="translate(4.188976, 4.000000)">
                            <rect id="矩形" fill="#000000" fill-rule="nonzero" opacity="0" x="0" y="0" width="15.8740157" height="16"></rect>
                            <path d="M11.0489764,8.52333333 L11.0760945,8.49733333 L11.5437165,8.026 L6.42037795,2.86066667 C6.16157352,2.60231456 5.74459969,2.60231456 5.48579527,2.86066667 C5.36131042,2.98542342 5.29131553,3.15506025 5.29131553,3.332 C5.29131553,3.50893975 5.36131042,3.67857658 5.48579527,3.80333333 L9.67256692,8.02466667 L5.48579527,12.2426667 C5.36135021,12.3673093 5.29131553,12.5368358 5.29131553,12.7136667 C5.29131553,12.8904975 5.36135021,13.0600241 5.48579527,13.1846667 C5.74374803,13.4446667 6.16573227,13.442 6.42037795,13.1853333 L11.0489764,8.52333333 Z" id="路径" fill="#FFFFFF"></path>
                        </g>
                    </g>
                </g>
            </g>
        </g>
    </g>
</svg>