<?xml version="1.0" encoding="UTF-8"?>
<svg width="16px" height="16px" viewBox="0 0 16 16" version="1.1" xmlns="http://www.w3.org/2000/svg" xmlns:xlink="http://www.w3.org/1999/xlink">
    <title>搜索</title>
    <g id="项目开发" stroke="none" stroke-width="1" fill="none" fill-rule="evenodd">
        <g id="我的项目列表" transform="translate(-1234.000000, -92.000000)" fill-rule="nonzero">
            <g id="编组-8" transform="translate(1018.000000, 84.000000)">
                <g id="搜索" transform="translate(216.000000, 8.000000)">
                    <rect id="矩形" fill="#000000" opacity="0" x="0" y="0" width="16" height="16"></rect>
                    <path d="M12.4613333,11.7541667 C13.4311667,10.6176667 13.9813333,9.176 13.9813333,7.6575 C13.9815,4.1645 11.1503333,1.33333333 7.6575,1.33333333 C4.16466667,1.33333333 1.33333333,4.16466667 1.33333333,7.65733333 C1.33333333,11.1501667 4.16466667,13.9816667 7.65733333,13.9816667 C8.28317522,13.9821833 8.90562666,13.8897873 9.50433333,13.7075 C9.76681186,13.625683 9.91398968,13.3472965 9.83379891,13.0843166 C9.75360814,12.8213366 9.47613791,12.6724385 9.21266667,12.751 C8.70849826,12.9044532 8.1843375,12.9821899 7.65733333,12.9816667 C4.717,12.9815 2.33333333,10.5978333 2.33333333,7.65733333 C2.33333333,4.717 4.717,2.33333333 7.65733333,2.33333333 C10.5978333,2.33333333 12.9816667,4.717 12.9816667,7.65733333 C12.9816667,9.05233333 12.4288333,10.3713333 11.4638333,11.3655 C11.2437905,11.592146 11.2464626,11.9534665 11.4698333,12.1768333 L13.8131667,14.5201667 C14.0088572,14.712741 14.3232213,14.7114979 14.5173828,14.5173821 C14.7115444,14.3232664 14.7128615,14.0089026 14.5203333,13.8131667 L12.4613333,11.7541667 Z" id="路径" fill="#999999"></path>
                </g>
            </g>
        </g>
    </g>
</svg>