<?xml version="1.0" standalone="no"?><!DOCTYPE svg PUBLIC "-//W3C//DTD SVG 1.1//EN" "http://www.w3.org/Graphics/SVG/1.1/DTD/svg11.dtd"><svg t="1572356029045" class="icon" viewBox="0 0 1641 1024" version="1.1" xmlns="http://www.w3.org/2000/svg" p-id="10078" xmlns:xlink="http://www.w3.org/1999/xlink" width="320.5078125" height="200"><defs><style type="text/css"></style></defs><path d="M1618.242783 899.094261c13.601391 12.365913 21.025391 29.679304 19.784347 48.228174 0 14.842435-7.418435 35.867826-21.019826 48.233739-14.842435 13.601391-35.867826 19.784348-61.840695 19.784348-24.731826 0-46.992696-6.177391-61.829566-19.784348-12.371478-11.130435-21.025391-28.443826-21.025391-48.233739 0-16.077913 8.653913-35.862261 22.26087-48.228174 14.83687-13.606957 34.626783-19.789913 61.829565-19.789913 25.97287 0 46.998261 6.182957 61.840696 19.789913z m-35.867826 61.829565c13.606957-25.967304 11.130435-43.280696-6.177392-51.940174-18.554435-7.418435-34.632348 1.241043-46.998261 25.97287-13.606957 25.97287-12.365913 44.521739 6.177392 51.940174 18.554435 7.424 34.632348-2.470957 46.998261-25.967305z m-305.469218-98.932869c4.953043 0 7.424 3.712 7.424 7.418434v25.97287h-42.050782v75.436522c0 7.424 1.235478 12.371478 4.953043 14.842434 4.941913 6.182957 29.673739 4.947478 29.673739 4.947479 2.476522 0 4.953043 2.470957 4.953044 4.947478v21.025391h-39.579826c-14.83687 0-25.967304-1.241043-32.155827-4.953043-14.83687-8.653913-22.26087-22.26087-22.260869-43.280696v-72.965565h-37.097739v-25.97287c0-4.947478 2.470957-7.418435 7.418435-7.418434h29.679304v-43.286261c0-4.947478 2.476522-7.418435 7.424-7.418435h46.992696v50.69913h34.626782z m174.380522 18.548869c4.947478 0 7.418435 3.712 7.418435 7.424v129.853217h-46.992696c-4.953043 0-7.424-2.476522-7.424-7.418434v-3.712c-8.653913 6.182957-18.54887 11.130435-29.679304 11.130434-24.731826 0-48.233739-6.182957-63.070609-19.789913-12.371478-11.130435-21.025391-29.679304-21.025391-49.469217 0-17.307826 7.418435-37.097739 22.260869-49.463652C1327.616 886.722783 1347.394783 879.304348 1374.608696 879.304348c9.894957 0 21.025391 3.712 29.679304 8.659478v-7.424h46.998261z m-46.998261 74.206609c7.424-17.318957 7.424-29.68487 0-37.103305-2.470957-3.712-6.177391-6.182957-9.889391-7.418434-17.318957-8.659478-33.391304 1.235478-46.998261 25.967304-14.842435 25.97287-12.365913 44.521739 6.182956 51.945739 18.554435 7.418435 34.626783-2.476522 46.998261-25.972869l3.706435-7.418435z m-403.166609-61.840696c95.226435-25.967304 149.64313-6.177391 152.114087 39.579826v85.331478h-46.992695c-4.953043 0-7.424-2.476522-7.424-7.418434v-81.625044c0-13.606957-21.019826-22.26087-51.940174-13.606956v93.996521c0 4.941913-2.470957 7.418435-7.418435 7.418435h-46.998261v-110.068869c0-7.418435 3.712-12.365913 8.659478-13.606957z m-23.496348 63.076174V957.217391h-117.487304c-2.476522 14.842435 2.470957 25.97287 14.83687 30.920348 13.606957 4.941913 25.97287 1.235478 37.103304-12.371478h59.364174c-2.476522 7.424-8.659478 14.842435-14.842435 21.025391-14.842435 13.606957-35.867826 19.789913-61.83513 19.789913-24.737391 0-46.998261-6.182957-61.835131-19.789913-12.371478-11.130435-21.025391-28.443826-21.025391-48.233739 0-16.072348 8.653913-35.862261 22.26087-48.228174 14.842435-13.606957 34.626783-19.789913 61.83513-19.789913 25.97287 0 46.992696 6.182957 61.83513 19.789913 13.606957 12.365913 21.025391 28.438261 21.025392 48.228174 0 2.476522-1.235478 4.953043-1.235479 7.424z m-61.83513-45.757217c-18.554435-8.659478-34.632348 1.235478-46.998261 25.967304h61.835131c1.235478-12.365913-3.706435-21.025391-14.83687-25.967304z m-450.170435 95.220869l4.953044-25.967304s29.679304 14.842435 55.652174 14.842435c27.202783 0 34.626783-9.894957 34.626782-23.501913 0-12.365913-9.894957-16.072348-23.496348-22.26087-13.606957-6.177391-39.579826-16.072348-39.579826-38.333217 0-30.920348 44.521739-35.867826 76.677566-35.867826 34.626783 0 60.605217 13.606957 60.605217 13.606956l-3.717565 24.731826s-12.365913-11.130435-40.809739-12.365913c-33.391304-1.235478-38.338783 7.418435-38.338783 16.077913 0 28.438261 65.54713 19.784348 65.54713 59.358609 0 28.443826-22.26087 43.286261-77.913043 43.286261-43.286261 0-74.201043-13.601391-74.201044-13.601392z m332.677565-49.463652V957.217391h-117.481739c-2.476522 14.842435 2.470957 25.97287 14.83687 30.920348 13.601391 4.941913 25.97287 1.235478 37.103304-12.371478h59.358609c-2.470957 7.424-8.653913 14.842435-14.83687 21.025391-14.842435 13.606957-35.867826 19.789913-61.83513 19.789913-24.737391 0-46.998261-6.182957-61.840696-19.789913-12.365913-11.130435-21.019826-28.443826-21.019826-48.233739 0-16.072348 8.653913-35.862261 22.26087-48.228174 14.83687-13.606957 34.626783-19.789913 61.829565-19.789913 25.97287 0 46.998261 6.182957 61.840696 19.789913 13.601391 12.365913 21.025391 28.438261 21.025391 48.228174 0 2.476522-1.241043 4.953043-1.241044 7.424z m-63.070608-45.757217c-17.313391-8.659478-33.391304 1.235478-46.992696 25.967304h61.829565c1.241043-12.365913-3.706435-21.025391-14.836869-25.967304z" fill="#727171" p-id="10079"></path><path d="M421.103304 418.009043c0 12.365913-11.130435 23.496348-23.501913 23.496348h-122.434782V712.347826c0 14.842435-12.365913 27.208348-27.202783 27.208348H156.438261a13.723826 13.723826 0 0 1-13.601391-13.606957V661.648696a13.723826 13.723826 0 0 1 13.601391-13.606957h6.182956v-206.525217H35.244522c-12.365913 0-23.496348-11.130435-23.496348-23.501913V372.257391c0-13.606957 11.130435-23.496348 23.496348-23.496348h127.387826v-45.762782H35.238957c-12.365913 0-23.496348-11.130435-23.496348-23.496348V233.73913c0-12.365913 11.130435-23.496348 23.496348-23.496347h21.025391v-35.867826c0-12.365913 11.130435-23.496348 23.496348-23.496348h66.782608c13.606957 0 23.501913 11.130435 23.501913 23.496348v35.867826h96.461913v-35.867826c0-12.365913 11.130435-23.496348 23.496348-23.496348h66.782609c13.606957 0 23.496348 11.130435 23.496348 23.496348v35.867826h17.313391c12.371478 0 23.501913 11.130435 23.501913 23.496347v45.757218c0 13.606957-11.130435 23.496348-23.501913 23.496348h-122.434783v45.762782h122.434783c12.371478 0 23.501913 11.130435 23.501913 23.496348v45.757217z m-278.260869 77.913044s-1.241043 103.885913-2.476522 105.121391c0 70.494609-30.914783 124.905739-30.914783 124.905739s-6.182957 13.606957-18.554434 13.606957H14.224696c-4.953043 0-9.894957-2.476522-11.130435-6.182957a7.885913 7.885913 0 0 1 0-7.424C4.329739 722.242783 38.956522 664.119652 38.956522 601.043478V495.922087c1.235478-7.418435 8.659478-13.601391 16.077913-13.601391h75.436522c7.424 0 13.606957 6.177391 12.371478 13.601391zM30.297043 133.565217c-9.889391 0-18.54887-8.659478-18.548869-19.789913v-54.41113c0-9.894957 8.659478-18.554435 18.548869-18.554435h129.858783v-22.260869c0-6.177391 11.130435-16.077913 23.496348-16.077913h68.018087c12.365913 0 23.496348 11.130435 23.496348 16.083478v23.496348h126.146782c9.894957 0 18.54887 8.653913 18.54887 18.548869v54.416696c0 9.889391-8.653913 18.54887-18.54887 18.548869H30.297043z m734.608696-122.434782c13.606957 0 23.501913 9.894957 21.025391 22.260869v46.992696c0 13.606957-11.130435 23.501913-23.496347 23.501913h-148.407653c-19.784348 0-37.097739 16.077913-37.097739 37.097739v76.677565H762.434783c12.365913 0 23.496348 11.130435 23.496347 23.496348v45.762783c0 13.601391-11.130435 23.496348-23.496347 23.496348h-24.731826v405.64313c0 13.601391-11.130435 23.496348-23.501914 23.496348H644.953043c-12.365913 0-23.496348-11.130435-23.496347-23.496348V309.181217h-44.521739V601.043478c0 70.494609-30.920348 124.905739-30.920348 124.905739S539.826087 739.561739 527.460174 739.561739H440.887652c-4.947478 0-9.894957-2.476522-11.130435-6.182956a7.885913 7.885913 0 0 1 0-7.424c1.235478-3.706435 35.867826-61.829565 35.867826-124.90574V112.539826C465.625043 63.070609 490.351304 11.130435 573.217391 11.130435h191.688348zM873.73913 93.990957c-9.894957 0-18.54887-8.659478-18.548869-19.789914V19.789913c0-9.894957 8.653913-18.554435 18.548869-18.554435h118.722783c9.894957 0 18.554435 8.659478 18.554435 18.554435v55.652174c0 9.889391-8.659478 18.54887-18.554435 18.54887H873.73913zM393.894957 601.043478c0 63.070609 33.391304 121.199304 33.391304 124.905739 1.235478 2.476522 1.235478 4.953043 0 7.424-1.235478 4.947478-6.182957 6.177391-11.130435 6.177392H339.478261c-12.365913 0-18.54887-13.601391-18.54887-13.601392s-30.920348-55.652174-30.920348-124.905739V495.922087c-1.235478-7.418435 4.947478-13.601391 12.365914-13.601391H377.822609c8.653913 0 14.842435 6.177391 16.077913 13.601391V601.043478z m1226.818782 51.940174c9.894957 0 18.554435 8.659478 18.554435 18.554435v50.69913c0 9.900522-8.659478 18.554435-18.554435 18.554435H1040.695652c-34.626783 0-51.940174 2.476522-72.965565-30.914782-21.025391 30.914783-37.103304 29.679304-63.070609 29.679304h-35.867826a13.723826 13.723826 0 0 1-13.601391-13.606957v-59.358608c0-6.182957 3.706435-12.365913 9.889391-13.606957h17.318957c12.365913 0 22.26087-9.889391 22.260869-22.260869V294.344348c0-12.365913-9.894957-22.26087-22.260869-22.26087h-7.424c-11.130435-2.476522-19.784348-11.130435-19.784348-23.496348v-49.474782c0-12.360348 8.653913-22.26087 19.784348-23.490783h79.148521c37.103304 3.706435 66.782609 34.626783 66.782609 72.96 0 4.953043-1.235478 346.284522-1.235478 346.284522 0 38.338783 17.313391 58.12313 60.605217 58.12313h540.438261z m0-516.947478h-227.556174v43.286261h171.909565c40.809739 0 74.201043 33.391304 74.201044 74.206608v290.626783c0 40.809739-33.391304 74.201043-74.206609 74.201044H1140.869565c-40.809739 0-74.201043-33.391304-74.201043-74.201044V253.529043c0-40.815304 33.391304-74.206609 74.201043-74.206608h138.512696v-43.286261h-209.007304c-9.889391 0-18.54887-8.653913-18.54887-18.54887V66.782609c0-9.894957 8.659478-18.54887 18.54887-18.54887h50.704695V23.496348c0-9.894957 8.659478-18.54887 18.554435-18.54887h77.913043c9.894957 0 18.54887 8.653913 18.54887 18.54887v24.737391h206.530783V23.496348c0-9.894957 8.659478-18.54887 18.554434-18.54887h76.672c9.894957 0 18.554435 8.653913 18.554435 18.54887v24.737391h64.306087c9.894957 0 18.554435 8.653913 18.554435 18.54887v50.704695c0 9.894957-8.659478 18.54887-18.554435 18.54887zM1524.257391 513.235478v-14.836869H1180.438261v16.072348-1.235479c0 12.365913 9.894957 22.26087 22.260869 22.26087h299.286261c12.365913 0 22.26087-9.894957 22.26087-22.26087zM1180.438261 420.485565h342.572522v-37.103304H1180.438261v37.103304zM1501.996522 267.130435H1202.69913c-12.365913 0-22.26087 3.712-22.260869 16.077913v22.260869h343.808v-22.260869c0-12.365913-9.894957-16.077913-22.26087-16.077913z" fill="#E60012" p-id="10080"></path></svg>