<?xml version="1.0" encoding="UTF-8"?>
<svg width="16px" height="16px" viewBox="0 0 16 16" version="1.1" xmlns="http://www.w3.org/2000/svg" xmlns:xlink="http://www.w3.org/1999/xlink">
    <title>进入箭头小备份 3</title>
    <g id="页面-1" stroke="none" stroke-width="1" fill="none" fill-rule="evenodd">
        <g id="教师工作台其他状态" transform="translate(-764.000000, -688.000000)">
            <g id="编组-19" transform="translate(348.000000, 668.000000)">
                <g id="编组-14备份" transform="translate(350.000000, 16.000000)">
                    <g id="进入箭头小备份-3" transform="translate(74.000000, 12.000000) rotate(90.000000) translate(-74.000000, -12.000000) translate(66.000000, 4.000000)">
                        <rect id="矩形" fill="#000000" fill-rule="nonzero" opacity="0" x="0" y="0" width="16" height="16"></rect>
                        <path d="M11.1366667,8.52333333 L11.164,8.49733333 L11.6353333,8.026 L6.47133333,2.86066667 C6.2104749,2.60231456 5.79019176,2.60231456 5.52933333,2.86066667 C5.40386051,2.98542342 5.3333101,3.15506025 5.3333101,3.332 C5.3333101,3.50893975 5.40386051,3.67857658 5.52933333,3.80333333 L9.74933333,8.02466667 L5.52933333,12.2426667 C5.40390061,12.3673093 5.3333101,12.5368358 5.3333101,12.7136667 C5.3333101,12.8904975 5.40390061,13.0600241 5.52933333,13.1846667 C5.78933333,13.4446667 6.21466666,13.442 6.47133333,13.1853333 L11.1366667,8.52333333 Z" id="路径" fill="#898989"></path>
                    </g>
                </g>
            </g>
        </g>
    </g>
</svg>