<?xml version="1.0" encoding="UTF-8"?>
<svg width="16px" height="16px" viewBox="0 0 16 16" version="1.1" xmlns="http://www.w3.org/2000/svg" xmlns:xlink="http://www.w3.org/1999/xlink">
    <title>编组 21</title>
    <g id="页面-1" stroke="none" stroke-width="1" fill="none" fill-rule="evenodd">
        <g id="老师-编辑课程" transform="translate(-87.000000, -413.000000)" fill-rule="nonzero">
            <g id="编组-16" transform="translate(39.000000, 327.000000)">
                <g id="编组-21" transform="translate(48.000000, 86.000000)">
                    <rect id="矩形备份-5" stroke="#999999" x="2.5" y="2.5" width="11" height="11" rx="3"></rect>
                    <g id="调序" transform="translate(5.179508, 4.495040)" fill="#999999">
                        <path d="M3.72129158,6.7896 C3.57758692,6.72515861 3.48516219,6.58229192 3.48528918,6.4248 L3.48528918,0.4 C3.48528918,0.1792 3.66449158,0 3.88529158,0 C4.10609158,0 4.28529158,0.1792 4.28529158,0.4 L4.28529158,5.5336 L5.13409158,4.7784 C5.29926146,4.63191615 5.55178856,4.64658133 5.69889158,4.8112 C5.84609158,4.976 5.83089158,5.2288 5.66609158,5.376 L4.15089158,6.724 C4.07649158,6.7896 3.98129158,6.8248 3.88529158,6.8248 C3.83009158,6.8248 3.77409158,6.8136 3.72129158,6.7896 Z M1.51489158,6.5848 L1.51489158,1.4512 L0.666091581,2.2064 C0.501291581,2.3536 0.248491581,2.3384 0.101291581,2.1736 C-0.0459084189,2.0088 -0.0307084189,1.756 0.134091581,1.6088 L1.64929158,0.2608 C1.81258701,0.113269145 2.06456149,0.126048855 2.21209235,0.289344282 C2.27825995,0.36258229 2.31489158,0.457771174 2.31489158,0.556472525 L2.31489158,0.5592 L2.31489158,0.5592 L2.31489158,6.584 C2.31489158,6.8056 2.13569158,6.9848 1.91489158,6.9848 C1.69409158,6.9848 1.51489158,6.8056 1.51489158,6.5848 Z" id="形状"></path>
                    </g>
                </g>
            </g>
        </g>
    </g>
</svg>