<?xml version="1.0" encoding="UTF-8"?>
<svg width="14px" height="14px" viewBox="0 0 14 14" version="1.1" xmlns="http://www.w3.org/2000/svg" xmlns:xlink="http://www.w3.org/1999/xlink">
    <title>编组 7</title>
    <g id="页面-1" stroke="none" stroke-width="1" fill="none" fill-rule="evenodd">
        <g id="老师-编辑课程" transform="translate(-783.000000, -414.000000)">
            <g id="编组-16" transform="translate(39.000000, 327.000000)">
                <g id="编组-19备份-2" transform="translate(739.000000, 82.000000)">
                    <g id="编辑" transform="translate(4.000000, 4.000000)">
                        <g id="编组-7" transform="translate(1.000000, 1.000000)">
                            <rect id="矩形" stroke="#999999" x="0.5" y="0.5" width="13" height="13" rx="2"></rect>
                            <path d="M7,4 C7.27614237,4 7.5,4.22385763 7.5,4.5 L7.5,6.5 L9.5,6.5 C9.77614237,6.5 10,6.72385763 10,7 C10,7.27614237 9.77614237,7.5 9.5,7.5 L7.5,7.5 L7.5,9.5 C7.5,9.77614237 7.27614237,10 7,10 C6.72385763,10 6.5,9.77614237 6.5,9.5 L6.5,7.5 L4.5,7.5 C4.22385763,7.5 4,7.27614237 4,7 C4,6.72385763 4.22385763,6.5 4.5,6.5 L6.5,6.5 L6.5,4.5 C6.5,4.22385763 6.72385763,4 7,4 Z" id="形状结合" fill="#999999"></path>
                        </g>
                    </g>
                </g>
            </g>
        </g>
    </g>
</svg>