<?xml version="1.0" encoding="UTF-8"?>
<svg width="24px" height="24px" viewBox="0 0 24 24" version="1.1" xmlns="http://www.w3.org/2000/svg" xmlns:xlink="http://www.w3.org/1999/xlink">
    <title>课程备份 9</title>
    <g id="页面-1" stroke="none" stroke-width="1" fill="none" fill-rule="evenodd">
        <g id="新3备份" transform="translate(-902.000000, -178.000000)" fill-rule="nonzero">
            <g id="编组-66备份-4" transform="translate(895.000000, 170.000000)">
                <g id="课程备份-25" transform="translate(7.000000, 7.000000)">
                    <rect id="矩形" fill="#000000" opacity="0" x="0" y="0" width="24" height="24"></rect>
                    <g id="编组-60" transform="translate(3.000000, 5.000000)" fill="#FFFFFF">
                        <path d="M14.5,15 C14.7761424,15 15,15.2238576 15,15.5 C15,15.7761424 14.7761424,16 14.5,16 L3.5,16 C3.22385763,16 3,15.7761424 3,15.5 C3,15.2238576 3.22385763,15 3.5,15 L14.5,15 Z M15.5,0 C16.8254834,0 17.9100387,1.03153594 17.9946823,2.33562431 L18,2.5 L18,11.4867554 C18,12.8122388 16.9684641,13.896794 15.6643757,13.9814377 L15.5,13.9867554 L2.5,13.9867554 C1.1745166,13.9867554 0.089961328,12.9552194 0.00531767968,11.6511311 L0,11.4867554 L0,2.5 C0,1.1745166 1.03153594,0.089961328 2.33562431,0.00531767968 L2.5,0 L15.5,0 Z M11.2258569,3.7119017 C11.0032556,3.44813768 10.5661735,3.48411358 10.4000373,3.80968477 L10.4000373,3.80968477 L8.274,7.975 L7.21107632,5.77567856 L7.16205508,5.6942275 C6.96032698,5.42053459 6.53086713,5.42221759 6.33855897,5.72583402 L6.33855897,5.72583402 L5.281,7.395 L3.57507399,7.39567874 L3.48519836,7.40373441 C3.25194915,7.44607037 3.07507399,7.65021885 3.07507399,7.89567874 C3.07507399,8.17182112 3.29893162,8.39567874 3.57507399,8.39567874 L3.57507399,8.39567874 L5.55605545,8.39567874 L5.64046628,8.38851087 C5.77863316,8.36485487 5.90205831,8.28383577 5.97845383,8.16322241 L5.97845383,8.16322241 L6.702,7.02 L7.81252407,9.31599163 L7.85990038,9.39532018 C8.0716038,9.68659741 8.53465622,9.6652703 8.70800823,9.32555855 L8.70800823,9.32555855 L10.867,5.093 L12.3635795,7.74567429 L12.4140885,7.81907344 C12.5080881,7.93250534 12.6487165,8 12.799061,8 L12.799061,8 L15.3534207,8 L15.4432963,7.99194433 C15.6765455,7.94960837 15.8534207,7.74545989 15.8534207,7.5 L15.8534207,7.5 L15.845365,7.41012437 C15.8030291,7.17687516 15.5988806,7 15.3534207,7 L15.3534207,7 L13.091,7 L11.280884,3.79127653 Z" id="形状结合"></path>
                    </g>
                </g>
            </g>
        </g>
    </g>
</svg>