<?xml version="1.0" encoding="UTF-8"?>
<svg width="24px" height="24px" viewBox="0 0 24 24" version="1.1" xmlns="http://www.w3.org/2000/svg" xmlns:xlink="http://www.w3.org/1999/xlink">
    <title>课程备份 9</title>
    <g id="页面-1" stroke="none" stroke-width="1" fill="none" fill-rule="evenodd">
        <g id="新3备份" transform="translate(-832.000000, -177.000000)" fill="#FFFFFF" fill-rule="nonzero">
            <g id="编组-3" transform="translate(832.000000, 177.000000)">
                <path d="M17.9009674,16.6973259 L18.0768245,16.6924201 C18.817741,16.6509728 19.4891528,16.3492561 20.0011214,15.8772087 L20,17.4867554 C20,18.8122388 18.9684641,19.896794 17.6643757,19.9814377 L17.5,19.9867554 L6.5,19.9867554 C5.1745166,19.9867554 4.08996133,18.9552194 4.00531768,17.6511311 L4,17.4867554 L4,16.6973259 L17.9009674,16.6973259 Z M15.7902743,7.72252969 L15.7269562,7.78682069 L13.151,10.917 L11.1055486,9.08152174 L11.0333809,9.02755943 C10.8569981,8.91892872 10.6300839,8.93098021 10.4661997,9.05768261 L10.4001537,9.1189855 L7.56693212,12.2636113 L7.51275746,12.3357753 C7.4036662,12.512199 7.41550609,12.7394825 7.54233802,12.9036163 L7.60371758,12.9697606 L7.67588149,13.0239353 C7.8523052,13.1330266 8.07958878,13.1211867 8.24372254,12.9943547 L8.30986688,12.9329752 L10.809,10.159 L12.872245,12.010344 L12.9467695,12.0657638 C13.1289777,12.1766376 13.363532,12.1588844 13.526976,12.0218483 L13.5923099,11.9558428 L16.4992308,8.42210952 L16.5501066,8.34758317 C16.6655922,8.14055517 16.6203003,7.87426572 16.4307379,7.71832779 C16.2411754,7.56238987 15.9711499,7.56929281 15.7902743,7.72252969 Z M4,6.5 C4,5.1745166 5.03153594,4.08996133 6.33562431,4.00531768 L6.5,4 L17.5,4 C18.8254834,4 19.9100387,5.03153594 19.9946823,6.33562431 L20,6.5 L20,13.5982933 L19.9947297,13.7481976 C19.917866,14.8374995 19.0098283,15.6973259 17.9009674,15.6973259 L17.9009674,15.6973259 L4,15.6973259 L4,6.5 Z" id="形状结合"></path>
            </g>
        </g>
    </g>
</svg>