<?xml version="1.0" encoding="UTF-8"?>
<svg width="18px" height="18px" viewBox="0 0 18 18" version="1.1" xmlns="http://www.w3.org/2000/svg" xmlns:xlink="http://www.w3.org/1999/xlink">
    <title>日历备份 19</title>
    <g id="教师端" stroke="none" stroke-width="1" fill="none" fill-rule="evenodd">
        <g id="其他状态补充" transform="translate(-146.000000, -226.000000)">
            <g id="编组-6" transform="translate(146.000000, 226.000000)">
                <path d="M16,12.5055506 C16,13.1471586 15.4779487,13.6669663 14.8354984,13.6669663 L10.0647527,13.6669663 C9.7455115,13.6669663 9.25202891,13.7927346 8.97384654,13.9416208 L5.36382434,15.8752435 C4.7946589,16.1800892 4.33335058,15.9081951 4.33335058,15.2565808 L4.33335058,14.2523323 C4.33335058,13.9290267 4.07466255,13.6669663 3.7445183,13.6669663 L3.16664079,13.6669663 C2.52237905,13.6669663 2,13.1430181 2,12.5055506 L2,3.16132949 C2,2.51994575 2.52327613,2 3.16952181,2 L14.8304264,2 C15.4764133,2 16,2.52398276 16,3.16132949 L16,12.5055506 L16,12.5055506 Z M4.33333333,12.5002024 C4.97759507,12.5002024 5.49997412,13.0260484 5.49997412,13.664206 L5.49997412,13.9623234 C5.49997412,14.2825236 5.72683292,14.4081194 6.00277258,14.2450864 L8.4552111,12.7972847 C8.73296218,12.6332166 9.21819849,12.5002024 9.54287397,12.5002024 L14.2484085,12.5002024 C14.5713589,12.5002024 14.8332384,12.2409024 14.8332384,11.9163892 L14.8332384,3.75057718 C14.8332384,3.42813422 14.567736,3.16667766 14.2546191,3.16667766 L3.74522561,3.16667766 C3.42563936,3.16667766 3.16660629,3.42606396 3.16660629,3.75057718 L3.16660629,11.9163892 C3.16660629,12.2388321 3.42529432,12.5002024 3.75540407,12.5002024 L4.33333333,12.5002024 L4.33333333,12.5002024 Z M6.49997412,9.58355142 C6.49997412,9.26128097 6.76573533,9.0000832 7.08471778,9.0000832 L12.9151442,9.0000832 C13.2380945,9.0000832 13.4999741,9.25903819 13.4999741,9.58355142 C13.4999741,9.90564934 13.2339541,10.1668471 12.9151442,10.1668471 L7.08476953,10.1668471 C6.76176745,10.1668471 6.49997412,9.90789212 6.49997412,9.58355142 L6.49997412,9.58355142 Z M8.081,7.632 L7.04941611,7.632 C6.88207383,7.632 6.74641611,7.49634228 6.74641611,7.329 L6.74641611,6.70242254 L6.74641611,6.70242254 C6.74641611,6.25171831 6.84037584,5.84092019 7.0282953,5.47002817 C7.21621477,5.09913615 7.49361969,4.81979343 7.86051007,4.632 L8.31688591,4.98411268 C8.22740045,5.07800939 8.14015213,5.16721127 8.05514094,5.25171831 C7.97012975,5.33622535 7.88288143,5.42073239 7.79339597,5.50523944 C7.60547651,5.73059155 7.51151678,5.97002817 7.51151678,6.2235493 L8.081,6.2235493 C8.24834228,6.2235493 8.384,6.35920702 8.384,6.5265493 L8.384,7.329 C8.384,7.49634228 8.24834228,7.632 8.081,7.632 Z M5.71858389,7.632 L4.687,7.632 C4.51965772,7.632 4.384,7.49634228 4.384,7.329 L4.384,6.70242254 L4.384,6.70242254 C4.384,6.25171831 4.47795973,5.84092019 4.66587919,5.47002817 C4.85379866,5.09913615 5.13120358,4.81979343 5.49809396,4.632 L5.9544698,4.98411268 C5.87393289,5.07800939 5.7889217,5.16721127 5.69943624,5.25171831 C5.60995078,5.33622535 5.52046532,5.42073239 5.43097987,5.50523944 C5.2430604,5.74937089 5.14910067,5.98880751 5.14910067,6.2235493 L5.71858389,6.2235493 C5.88592617,6.2235493 6.02158389,6.35920702 6.02158389,6.5265493 L6.02158389,7.329 C6.02158389,7.49634228 5.88592617,7.632 5.71858389,7.632 Z" id="形状备份-5" fill="#666666" fill-rule="nonzero"></path>
                <g id="“" transform="translate(4.384000, 4.632000)"></g>
            </g>
        </g>
    </g>
</svg>