<?xml version="1.0" encoding="UTF-8"?>
<svg width="18px" height="18px" viewBox="0 0 18 18" version="1.1" xmlns="http://www.w3.org/2000/svg" xmlns:xlink="http://www.w3.org/1999/xlink">
    <title>日历备份 5</title>
    <g id="教师端" stroke="none" stroke-width="1" fill="none" fill-rule="evenodd">
        <g id="其他状态补充" transform="translate(-123.000000, -226.000000)" fill-rule="nonzero">
            <g id="编组-11" transform="translate(123.000000, 226.000000)">
                <g id="编组-2" transform="translate(2.000000, 2.000000)">
                    <path d="M14,10.5055506 C14,11.1471586 13.4779487,11.6669663 12.8354984,11.6669663 L8.06475272,11.6669663 C7.7455115,11.6669663 7.25202891,11.7927346 6.97384654,11.9416208 L3.36382434,13.8752435 C2.7946589,14.1800892 2.33335058,13.9081951 2.33335058,13.2565808 L2.33335058,12.2523323 C2.33335058,11.9290267 2.07466255,11.6669663 1.7445183,11.6669663 L1.16664079,11.6669663 C0.522379048,11.6669663 0,11.1430181 0,10.5055506 L0,1.16132949 C0,0.519945748 0.523276132,0 1.16952181,0 L12.8304264,0 C13.4764133,0 14,0.523982755 14,1.16132949 L14,10.5055506 L14,10.5055506 Z" id="路径" fill="#F32424"></path>
                    <path d="M4.49997412,7.58355142 C4.49997412,7.26128097 4.76573533,7.0000832 5.08471778,7.0000832 L10.9151442,7.0000832 C11.2380945,7.0000832 11.4999741,7.25903819 11.4999741,7.58355142 C11.4999741,7.90564934 11.2339541,8.16684711 10.9151442,8.16684711 L5.08476953,8.16684711 C4.76176745,8.16684711 4.49997412,7.90789212 4.49997412,7.58355142 L4.49997412,7.58355142 Z" id="路径" fill="#FFFFFF"></path>
                    <path d="M6.081,5.632 L5.04941611,5.632 C4.88207383,5.632 4.74641611,5.49634228 4.74641611,5.329 L4.74641611,4.70242254 L4.74641611,4.70242254 C4.74641611,4.25171831 4.84037584,3.84092019 5.0282953,3.47002817 C5.21621477,3.09913615 5.49361969,2.81979343 5.86051007,2.632 L6.31688591,2.98411268 C6.22740045,3.07800939 6.14015213,3.16721127 6.05514094,3.25171831 C5.97012975,3.33622535 5.88288143,3.42073239 5.79339597,3.50523944 C5.60547651,3.73059155 5.51151678,3.97002817 5.51151678,4.2235493 L6.081,4.2235493 C6.24834228,4.2235493 6.384,4.35920702 6.384,4.5265493 L6.384,5.329 C6.384,5.49634228 6.24834228,5.632 6.081,5.632 Z M3.71858389,5.632 L2.687,5.632 C2.51965772,5.632 2.384,5.49634228 2.384,5.329 L2.384,4.70242254 L2.384,4.70242254 C2.384,4.25171831 2.47795973,3.84092019 2.66587919,3.47002817 C2.85379866,3.09913615 3.13120358,2.81979343 3.49809396,2.632 L3.9544698,2.98411268 C3.87393289,3.07800939 3.7889217,3.16721127 3.69943624,3.25171831 C3.60995078,3.33622535 3.52046532,3.42073239 3.43097987,3.50523944 C3.2430604,3.74937089 3.14910067,3.98880751 3.14910067,4.2235493 L3.71858389,4.2235493 C3.88592617,4.2235493 4.02158389,4.35920702 4.02158389,4.5265493 L4.02158389,5.329 C4.02158389,5.49634228 3.88592617,5.632 3.71858389,5.632 Z" id="“" fill="#FFFFFF"></path>
                </g>
            </g>
        </g>
    </g>
</svg>