<?xml version="1.0" encoding="UTF-8"?>
<svg width="24px" height="24px" viewBox="0 0 24 24" version="1.1" xmlns="http://www.w3.org/2000/svg" xmlns:xlink="http://www.w3.org/1999/xlink">
    <title>矩形</title>
    <g id="页面-1" stroke="none" stroke-width="1" fill="none" fill-rule="evenodd">
        <g id="教师工作台" transform="translate(-112.000000, -476.000000)">
            <g id="编组-32" transform="translate(112.000000, 476.000000)">
                <g id="book备份-2">
                    <rect id="矩形" fill="#000000" fill-rule="nonzero" opacity="0" x="0" y="0" width="24" height="24"></rect>
                    <path d="M4,5 L4,19 L4,19 L6.20545436,16.9055769 L21,16.9055769 L21,5 C21,3.8954305 20.1045695,3 19,3 L6,3 C4.8954305,3 4,3.8954305 4,5 Z" id="形状" fill="#A175F6" fill-rule="nonzero"></path>
                    <path d="M10.356363,8.74095676 L11.6362216,10.0982536 C11.8256683,10.2991629 12.1421144,10.3084551 12.3430237,10.1190083 C12.3501436,10.1122947 12.3570648,10.1053735 12.3637784,10.0982536 L14.9278997,7.37898936 C15.1140074,7.18162114 15.4248761,7.1724927 15.6222443,7.35860041 C15.6292387,7.36519574 15.6360379,7.37199498 15.6426332,7.37898936 C15.8433056,7.59180344 15.8433056,7.92415401 15.6426332,8.13696809 L12.3637784,11.614211 C12.1743317,11.8151203 11.8578856,11.8244125 11.6569763,11.6349658 C11.6498564,11.6282521 11.6429352,11.6213309 11.6362216,11.614211 L10.355721,10.2562334 C10.1662742,10.0553241 9.84982815,10.0460319 9.64891887,10.2354786 C9.6423956,10.2416297 9.63603895,10.2479552 9.62985584,10.2544481 L9.07396023,10.8381986 C8.88595996,11.0356193 8.57351459,11.043256 8.37609396,10.8552557 C8.36968395,10.8491516 8.3634393,10.8428761 8.35736677,10.8364362 C8.15686719,10.6238053 8.15739039,10.2915832 8.3585587,10.0795849 L9.62988833,8.73981266 C9.81996695,8.53950108 10.1364407,8.53120561 10.3367523,8.72128423 C10.3434701,8.72765886 10.3500095,8.7342189 10.356363,8.74095676 Z" id="路径" fill="#FFFFFF"></path>
                </g>
                <path d="M20,20 L6,20 C4.8954305,20 4,19.1045695 4,18 C4,16.8954305 4.8954305,16 6,16 L20,16 L20,16" id="路径-11" stroke="#AA7EFF" stroke-linecap="round"></path>
            </g>
        </g>
    </g>
</svg>