<?xml version="1.0" encoding="UTF-8"?>
<svg width="24px" height="24px" viewBox="0 0 24 24" version="1.1" xmlns="http://www.w3.org/2000/svg" xmlns:xlink="http://www.w3.org/1999/xlink">
    <title>矩形</title>
    <g id="页面-1" stroke="none" stroke-width="1" fill="none" fill-rule="evenodd">
        <g id="教师工作台" transform="translate(-112.000000, -1156.000000)" fill-rule="nonzero">
            <g id="编组-56" transform="translate(112.000000, 476.000000)">
                <g id="book备份" transform="translate(0.000000, 680.000000)">
                    <rect id="矩形" fill="#000000" opacity="0" x="0" y="0" width="24" height="24"></rect>
                    <path d="M16.6315789,4 C18.4919065,4 20,5.50809347 20,7.36842105 L20,15.6315789 C20,17.4919065 18.4919065,19 16.6315789,19 L7.36842105,19 C5.50809347,19 4,17.4919065 4,15.6315789 L4,7.36842105 C4,5.50809347 5.50809347,4 7.36842105,4 L16.6315789,4 Z M8.21052632,9.83333333 C7.86171489,9.83333333 7.57894737,10.1161009 7.57894737,10.4649123 L7.57894737,10.4649123 L7.57894737,15.8684211 C7.57894737,16.2172325 7.86171489,16.5 8.21052632,16.5 C8.55933774,16.5 8.84210526,16.2172325 8.84210526,15.8684211 L8.84210526,15.8684211 L8.84210526,10.4649123 C8.84210526,10.1161009 8.55933774,9.83333333 8.21052632,9.83333333 Z M15.7894737,11.5 C15.4406623,11.5 15.1578947,11.7827675 15.1578947,12.1315789 L15.1578947,12.1315789 L15.1578947,15.8684211 C15.1578947,16.2172325 15.4406623,16.5 15.7894737,16.5 C16.1382851,16.5 16.4210526,16.2172325 16.4210526,15.8684211 L16.4210526,15.8684211 L16.4210526,12.1315789 C16.4210526,11.7827675 16.1382851,11.5 15.7894737,11.5 Z M12,6.5 C11.6511886,6.5 11.3684211,6.78276753 11.3684211,7.13157895 L11.3684211,7.13157895 L11.3684211,15.8684211 C11.3684211,16.2172325 11.6511886,16.5 12,16.5 C12.3488114,16.5 12.6315789,16.2172325 12.6315789,15.8684211 L12.6315789,15.8684211 L12.6315789,7.13157895 C12.6315789,6.78276753 12.3488114,6.5 12,6.5 Z" id="形状结合" fill="#5A73FF"></path>
                </g>
            </g>
        </g>
    </g>
</svg>