<?xml version="1.0" encoding="UTF-8"?>
<svg width="18px" height="18px" viewBox="0 0 18 18" version="1.1" xmlns="http://www.w3.org/2000/svg" xmlns:xlink="http://www.w3.org/1999/xlink">
    <title>接单</title>
    <g id="页面-1" stroke="none" stroke-width="1" fill="none" fill-rule="evenodd">
        <g id="教学管理-登录日志详情" transform="translate(-16.000000, -315.000000)" fill="#666666" fill-rule="nonzero">
            <g id="编组-5备份-3" transform="translate(0.000000, 49.000000)">
                <g id="编组-13" transform="translate(16.000000, 25.000000)">
                    <g id="编组-8" transform="translate(0.000000, 50.000000)">
                        <g id="icon/总结/未选" transform="translate(0.000000, 191.000000)">
                            <g id="编组" transform="translate(1.400000, 1.900000)">
                                <path d="M11.1110803,0 C11.9629729,0 12.666252,0.630382186 12.7417648,1.43404142 L12.7484764,1.57756933 L12.747,1.944 L13.899169,1.94466629 C14.527241,1.94466629 15.0521357,2.37467785 15.1735458,2.94601718 L15.193277,3.07050501 L15.2,3.19868796 L15.2,5.52669709 C15.2,6.09413786 14.8790332,6.61430434 14.3774476,6.88649983 L14.2483696,6.94926649 L12.747,7.723 L12.7484765,8.52555619 C12.7484765,9.03470829 12.5099414,9.5119615 12.1108904,9.83132619 L11.9864376,9.92227295 L11.852822,10.0029905 C10.7225755,10.6186642 9.52353404,11.0895018 8.37897741,11.2604847 L8.127,11.291 L8.126,13.041 L12.5030471,13.0416429 C12.7659244,13.0416429 12.9913116,13.2077182 13.0709514,13.4378275 L13.0937729,13.5269208 L13.101662,13.6208214 C13.101662,13.9089868 12.8858761,14.1475892 12.603565,14.192428 L12.5072022,14.2 L2.58476454,14.2 C2.25616785,14.2 1.98614958,13.9405073 1.98614958,13.6208214 C1.98614958,13.3331042 2.20486438,13.0941434 2.48814378,13.0492284 L2.58475008,13.0416429 L6.93,13.041 L6.93,11.294 L6.68587742,11.2643326 C5.78745471,11.1299957 4.85435423,10.7987899 3.95693674,10.3548939 L3.62221524,10.183315 L3.29166357,10.0021578 C2.79810668,9.72223267 2.47552142,9.22802622 2.4251847,8.68634854 L2.41828255,8.53756662 L2.418,7.685 L0.953630302,6.93221751 C0.462766229,6.71975905 0.119818478,6.28996086 0.025914177,5.79211871 L0.00655452257,5.6547687 L0,5.51471763 L0,3.16274957 C0,2.52237812 0.50756615,1.99457408 1.15327874,1.93110004 L1.28415375,1.92470053 L2.418,1.924 L2.41828255,1.5774672 C2.41828255,0.803475066 2.99933319,0.159075111 3.76196173,0.0254305794 L3.90698492,0.00645070228 L4.05567867,0 L11.1110803,0 Z M11.1069252,1.15436395 L4.059,1.154 C3.83806933,1.1583571 3.6595354,1.30669534 3.62254772,1.5021576 L3.61551247,1.5774672 L3.61551247,8.53753565 C3.61551247,8.72945372 3.72099387,8.90708311 3.89311752,9.00161652 C5.10915712,9.69160989 6.40122072,10.1705647 7.50858726,10.1705647 C8.65123759,10.1705647 9.97426375,9.69401531 11.2618396,8.9932571 C11.4095367,8.91093202 11.5091635,8.77299045 11.5382697,8.6170131 L11.5470914,8.52156303 L11.5470914,1.57347404 C11.5470914,1.36781225 11.3927363,1.19662271 11.1864969,1.16111962 L11.1069252,1.15436395 Z M7.566759,2.47176269 C7.74668185,2.47176269 7.91388767,2.55613398 8.01958008,2.69552338 L8.06707426,2.76966702 L8.61933883,3.93820702 L10.0238989,4.13388951 C10.2322375,4.16318961 10.4085367,4.30528956 10.474508,4.50036569 C10.5315995,4.66918425 10.4985591,4.85267832 10.3913733,4.99138154 L10.3316756,5.05672527 L9.34386331,5.91637054 L9.58488489,7.26220016 C9.62087086,7.4647589 9.53367176,7.67082449 9.36139122,7.79256333 C9.26623077,7.85994829 9.15481586,7.8948089 9.03767313,7.8948089 C8.97561837,7.8948089 8.91645471,7.8855642 8.86100943,7.86700944 L8.78073372,7.8321866 L7.6119058,7.19721504 L6.35616554,7.83257268 C6.16999893,7.92444522 5.94469436,7.90965179 5.77220774,7.79262059 C5.62383173,7.68777339 5.53932902,7.52418993 5.5407088,7.34988643 L5.54865746,7.26206364 L5.8198479,6.00709607 L4.80202171,5.0568923 C4.64847607,4.91425066 4.59240324,4.69732068 4.65900999,4.50036569 C4.71601125,4.331814 4.85155661,4.204212 5.02188617,4.15296705 L5.10974704,4.13387159 L6.43901992,3.99157233 L7.06669019,2.76919023 C7.16264154,2.58476805 7.35442371,2.47176269 7.566759,2.47176269 Z M12.748,3.106 L12.748,6.413 L13.7244926,5.91019027 L13.7553578,5.89902785 C13.8791432,5.84705865 13.9684337,5.73817739 13.9947587,5.60977505 L14.0027701,5.53069025 L14.0027701,3.20268112 C14.0027701,3.16392295 13.9770238,3.12949071 13.9397536,3.11469698 L13.8991677,3.10701654 L12.748,3.106 Z M2.418,3.082 L1.2800554,3.08305762 C1.24291567,3.08305762 1.21255894,3.10330801 1.19970181,3.13186546 L1.19307479,3.16274957 L1.19307479,5.51471763 C1.19307479,5.64614729 1.26170034,5.76792008 1.37259211,5.84058447 L1.44398825,5.87797448 L1.48782521,5.89697345 L2.418,6.375 L2.418,3.082 Z M7.565,4.222 L7.33137076,4.67838535 C7.26283688,4.8101101 7.14182266,4.90874452 6.99926067,4.95186166 L6.9113852,4.97089045 L6.392,5.041 L6.76204969,5.38936216 C6.8724507,5.49137898 6.93398993,5.63463861 6.9334526,5.78037354 L6.9255753,5.8678014 L6.835,6.365 L7.31389729,6.12452837 C7.36951659,6.10251905 7.42674483,6.08721538 7.48312705,6.07945842 L7.566759,6.07358813 C7.62881376,6.07358813 7.68797742,6.08283284 7.7434407,6.10139668 L7.82375916,6.13624109 L8.293,6.373 L8.20368682,5.87521655 C8.17810597,5.72771446 8.2163678,5.57959907 8.30653079,5.46345305 L8.36676119,5.39786242 L8.737,5.049 L8.21834879,4.978927 C8.06809573,4.95887199 7.93346165,4.87884919 7.84475713,4.76045879 L7.79728845,4.68499323 L7.565,4.222 Z" id="形状结合"></path>
                            </g>
                        </g>
                    </g>
                </g>
            </g>
        </g>
    </g>
</svg>