<?xml version="1.0" encoding="UTF-8"?>
<svg width="18px" height="18px" viewBox="0 0 18 18" version="1.1" xmlns="http://www.w3.org/2000/svg" xmlns:xlink="http://www.w3.org/1999/xlink">
    <title>切片</title>
    <g id="页面-1" stroke="none" stroke-width="1" fill="none" fill-rule="evenodd">
        <g id="导航状态" transform="translate(-263.000000, -410.000000)" fill="#F32424">
            <g id="icon/总结/已选" transform="translate(263.000000, 410.000000)">
                <path d="M12.5049834,2 C13.3521595,2 14.0415282,2.66267465 14.0456811,3.47704591 L14.0456811,3.47704591 L14.045,3.948 L15.2998339,3.94810379 C15.9642857,3.94810379 16.5,4.46706587 16.5,5.10179641 L16.5,7.42914172 C16.5,8.00399202 16.14701,8.52694611 15.60299,8.76247505 L14.045,9.566 L14.0456811,10.4231537 C14.0456811,10.9464405 13.7734981,11.4395376 13.3282927,11.7364022 L13.2026578,11.8123752 C12.3958956,12.251957 10.9101515,12.957094 9.42777324,13.1000025 L9.427,15.041 L13.904485,15.0419162 C14.1785714,15.0419162 14.4028239,15.257485 14.4028239,15.5209581 C14.4028239,15.7844311 14.1785714,16 13.904485,16 L3.98754153,16 C3.71345515,16 3.48920266,15.7844311 3.48920266,15.5209581 C3.48920266,15.257485 3.71345515,15.0419162 3.98754153,15.0419162 L8.431,15.041 L8.43172729,13.1026856 C7.07629208,12.9750738 5.71548829,12.3452176 4.90495384,11.9022301 L4.74335548,11.8123752 C4.23671096,11.5289421 3.92109635,10.998004 3.92109635,10.4351297 L3.92109635,10.4351297 L3.921,9.529 L2.39285714,8.74251497 C1.84883721,8.50698603 1.5,7.98802395 1.5,7.41716567 L1.5,5.06586826 C1.5,4.43912176 2.03156146,3.92814371 2.68355482,3.92814371 L3.921,3.928 L3.92109635,3.47704591 C3.92109635,2.7079175 4.53599627,2.07409872 5.31799751,2.00604826 L5.4576412,2 Z M8.96677741,4.4750499 C8.7923588,4.4750499 8.6345515,4.56686627 8.55564784,4.71856287 L8.55564784,4.71856287 L7.92857143,5.94011976 L6.52491694,6.13572854 C6.35049834,6.15968064 6.20930233,6.2754491 6.15531561,6.43512974 C6.1013289,6.59481038 6.14700997,6.77045908 6.27159468,6.88622754 L6.27159468,6.88622754 L7.28903654,7.83632735 L7.04817276,9.18163673 C7.01910299,9.3493014 7.089701,9.51297405 7.23089701,9.61277445 C7.37209302,9.70858283 7.5589701,9.72055888 7.71262458,9.64471058 L7.71262458,9.64471058 L8.96677741,9.00598802 L10.2209302,9.64071856 C10.2873754,9.67664671 10.3579734,9.69261477 10.4327243,9.69261477 C10.5282392,9.69261477 10.6237542,9.66467066 10.7026578,9.60878244 C10.8438538,9.50898204 10.9144518,9.34131737 10.8853821,9.17764471 L10.8853821,9.17764471 L10.6445183,7.83233533 L11.6619601,6.88223553 C11.7865449,6.76646707 11.8322259,6.59081836 11.7782392,6.43512974 C11.7242525,6.2754491 11.5789037,6.15968064 11.4086379,6.13572854 L11.4086379,6.13572854 L10.0049834,5.94011976 L9.37790698,4.71856287 C9.29900332,4.57085828 9.14119601,4.4750499 8.96677741,4.4750499 Z M15.2998339,4.90618762 L14.045,4.906 L14.045,8.478 L15.1503322,7.90818363 C15.1627907,7.9001996 15.1752492,7.89620758 15.1877076,7.89221557 C15.3787375,7.81237525 15.5033223,7.63273453 15.5033223,7.42914172 L15.5033223,5.10179641 C15.5033223,4.99401198 15.4119601,4.90618762 15.2998339,4.90618762 Z M3.921,4.886 L2.68355482,4.88622754 C2.57973422,4.88622754 2.49667774,4.96606786 2.49667774,5.06586826 L2.49667774,7.41716567 C2.49667774,7.61676647 2.62126246,7.79640719 2.80813953,7.87225549 C2.82059801,7.8762475 2.83305648,7.88423154 2.84551495,7.88822355 L3.921,8.442 L3.921,4.886 Z" id="形状结合"></path>
            </g>
        </g>
    </g>
</svg>