<?xml version="1.0" encoding="UTF-8"?>
<svg width="18px" height="18px" viewBox="0 0 18 18" version="1.1" xmlns="http://www.w3.org/2000/svg" xmlns:xlink="http://www.w3.org/1999/xlink">
    <title>测验</title>
    <g id="页面-1" stroke="none" stroke-width="1" fill="none" fill-rule="evenodd">
        <g id="教学管理-登录日志详情" transform="translate(-16.000000, -220.000000)" fill="#666666" fill-rule="nonzero">
            <g id="编组-5备份-3" transform="translate(0.000000, 49.000000)">
                <g id="编组-13" transform="translate(16.000000, 25.000000)">
                    <g id="编组-8" transform="translate(0.000000, 50.000000)">
                        <g id="icon/测验/未选" transform="translate(0.000000, 96.000000)">
                            <path d="M13.375,1.875 C14.4795695,1.875 15.375,2.7704305 15.375,3.875 L15.375,14.125 C15.375,15.2295695 14.4795695,16.125 13.375,16.125 L5.375,16.125 C4.2704305,16.125 3.375,15.2295695 3.375,14.125 L3.375,13.5 C2.96078644,13.5 2.625,13.1642136 2.625,12.75 C2.625,12.3357864 2.96078644,12 3.375,12 L3.375,9.75 C2.96078644,9.75 2.625,9.41421356 2.625,9 C2.625,8.58578644 2.96078644,8.25 3.375,8.25 L3.375,6 C2.96078644,6 2.625,5.66421356 2.625,5.25 C2.625,4.83578644 2.96078644,4.5 3.375,4.5 L3.375,3.875 C3.375,2.7704305 4.2704305,1.875 5.375,1.875 L13.375,1.875 Z M13.375,3.075 L5.375,3.075 C4.96715895,3.075 4.63059842,3.38018815 4.58123314,3.7746497 L4.575,3.875 L4.575,14.125 C4.575,14.532841 4.88018815,14.8694016 5.2746497,14.9187669 L5.375,14.925 L13.375,14.925 C13.782841,14.925 14.1194016,14.6198119 14.1687669,14.2253503 L14.175,14.125 L14.175,3.875 C14.175,3.46715895 13.8698119,3.13059842 13.4753503,3.08123314 L13.375,3.075 Z M12.5625,9.375 C12.8731602,9.375 13.125,9.62683983 13.125,9.9375 C13.125,10.2481602 12.8731602,10.5 12.5625,10.5 L6.1875,10.5 C5.87683983,10.5 5.625,10.2481602 5.625,9.9375 C5.625,9.62683983 5.87683983,9.375 6.1875,9.375 L12.5625,9.375 Z M9.5625,6.375 C9.87316017,6.375 10.125,6.62683983 10.125,6.9375 C10.125,7.24816017 9.87316017,7.5 9.5625,7.5 L6.1875,7.5 C5.87683983,7.5 5.625,7.24816017 5.625,6.9375 C5.625,6.62683983 5.87683983,6.375 6.1875,6.375 L9.5625,6.375 Z" id="测验"></path>
                        </g>
                    </g>
                </g>
            </g>
        </g>
    </g>
</svg>