<?xml version="1.0" encoding="UTF-8"?>
<svg width="18px" height="18px" viewBox="0 0 18 18" version="1.1" xmlns="http://www.w3.org/2000/svg" xmlns:xlink="http://www.w3.org/1999/xlink">
    <title>核收记录</title>
    <g id="页面-1" stroke="none" stroke-width="1" fill="none" fill-rule="evenodd">
        <g id="教学管理-登录日志详情" transform="translate(-16.000000, -76.000000)" fill="#666666" fill-rule="nonzero">
            <g id="编组-5备份-3" transform="translate(0.000000, 49.000000)">
                <g id="编组-13" transform="translate(16.000000, 25.000000)">
                    <g id="icon/考勤/未选" transform="translate(0.000000, 2.000000)">
                        <path d="M12.1875,1.875 C12.4981602,1.875 12.75,2.12683983 12.75,2.4375 L12.75,2.625 L14.0625,2.625 C15.1498106,2.625 16.0406078,3.46637397 16.1193428,4.53357321 L16.125,4.6875 L16.125,13.6875 C16.125,14.7748106 15.283626,15.6656078 14.2164268,15.7443428 L14.0625,15.75 L3.9375,15.75 C2.8501894,15.75 1.95939222,14.908626 1.88065717,13.8414268 L1.875,13.6875 L1.875,4.6875 C1.875,3.6001894 2.71637397,2.70939222 3.78357321,2.63065717 L3.9375,2.625 L5.25,2.625 L5.25,2.4375 C5.25,2.12683983 5.50183983,1.875 5.8125,1.875 C6.12316017,1.875 6.375,2.12683983 6.375,2.4375 L6.375,2.625 L11.625,2.625 L11.625,2.4375 C11.625,2.12683983 11.8768398,1.875 12.1875,1.875 Z M5.25,3.75 L3.9375,3.75 C3.4567164,3.75 3.06046204,4.11191268 3.00630725,4.57816769 L3,4.6875 L3,13.6875 C3,14.1682836 3.36191268,14.564538 3.82816769,14.6186928 L3.9375,14.625 L14.0625,14.625 C14.5432836,14.625 14.939538,14.2630873 14.9936928,13.7968323 L15,13.6875 L15,4.6875 C15,4.16973305 14.580267,3.75 14.0625,3.75 L12.75,3.75 L12.75,4.3125 C12.75,4.62316017 12.4981602,4.875 12.1875,4.875 C11.8768398,4.875 11.625,4.62316017 11.625,4.3125 L11.625,3.75 L6.375,3.75 L6.375,4.3125 C6.375,4.62316017 6.12316017,4.875 5.8125,4.875 C5.50183983,4.875 5.25,4.62316017 5.25,4.3125 L5.25,3.75 Z M11.8330537,7.29321417 C12.0556488,7.51749972 12.0556488,7.88113846 11.8330537,8.10542401 L8.54086769,11.4567858 C8.31827258,11.6810714 7.9573746,11.6810714 7.73477949,11.4567858 L6.16694633,9.85426339 C5.94435122,9.62997783 5.94435122,9.2663391 6.16694633,9.04205354 C6.38954144,8.81776799 6.75043943,8.81776799 6.97303454,9.04205354 L7.8701439,9.96352285 C8.01461588,10.1119178 8.25203145,10.115098 8.40042641,9.970626 L8.40653974,9.96453572 L11.0269655,7.29321417 C11.2495606,7.06892861 11.6104586,7.06892861 11.8330537,7.29321417 Z" id="形状结合"></path>
                    </g>
                </g>
            </g>
        </g>
    </g>
</svg>