<?xml version="1.0" encoding="UTF-8"?>
<svg width="18px" height="18px" viewBox="0 0 18 18" version="1.1" xmlns="http://www.w3.org/2000/svg" xmlns:xlink="http://www.w3.org/1999/xlink">
    <title>切片</title>
    <g id="页面-1" stroke="none" stroke-width="1" fill="none" fill-rule="evenodd">
        <g id="导航状态" transform="translate(-263.000000, -313.000000)" fill="#F32424" fill-rule="nonzero">
            <g id="icon/团队成果/已选" transform="translate(263.000000, 313.000000)">
                <path d="M7.81581333,2.625 C9.55986564,2.625 10.9736994,4.28714287 10.9736994,6.3375 C10.9736994,7.81149114 10.2430163,9.08484936 9.18424766,9.68426956 C9.16263728,9.80215978 9.16653217,9.92119248 9.1952678,10.0413078 C9.30504103,10.5001611 9.68708833,10.8046087 10.3414097,10.9546506 L11.3947455,11.2897597 C11.5702838,11.3441011 11.7458167,11.3965259 11.9213496,11.4452918 L12.1191219,11.5017258 L12.3101299,11.5598045 C13.4038259,11.9047585 14.1315829,12.3694707 14.1315829,13.5805769 C14.123418,14.526859 13.5386249,15 12.3772036,15 L3.25441839,15 C2.11401313,15 1.529207,14.526859 1.5,13.5805769 C1.5,12.4040737 2.18679464,11.9319228 3.22864956,11.5896799 L3.41612453,11.5305157 L3.61056587,11.473347 C3.64353078,11.4639462 3.67676908,11.4545993 3.71027232,11.4452918 C4.21956374,11.3038026 4.72885516,11.1315116 5.23814658,10.9709402 C5.9363909,10.7713137 6.33543231,10.4628374 6.43527082,10.0455113 C6.46407956,9.92509046 6.46663589,9.80362556 6.44293981,9.68111662 C5.38634341,9.08089519 4.65792726,7.80920283 4.65792726,6.3375 C4.65792726,4.28714287 6.07176101,2.625 7.81581333,2.625 Z M11.3684529,3.0375 C12.7854911,3.0375 13.9342275,4.36721429 13.9342275,6.0075 C13.9342275,7.18645535 13.3407885,8.20496903 12.4808223,8.68462576 C12.4627341,8.77892711 12.4658717,8.87430226 12.4892562,8.97054622 C12.6347259,9.56925798 13.3489438,9.67860134 13.526871,9.73421324 L14.115531,9.91971448 C14.311751,9.98084354 14.507971,10.0400589 14.7041909,10.0937334 L14.8935159,10.1472141 L15.075081,10.2026751 C15.9330175,10.4770148 16.5,10.8532092 16.5,11.8019615 C16.493366,12.5589872 16.018223,12.9375396 15.0745711,12.9375396 L14.9068949,12.9375396 C14.8191321,12.2589067 14.5606956,11.7801948 14.1315855,11.5014038 C13.8084041,11.2914354 13.4828789,11.121613 13.109387,10.9617103 L12.9006329,10.8752928 C12.8649563,10.8609933 12.8288148,10.8467303 12.792174,10.8324812 L12.5660639,10.7469711 L12.3263265,10.6607035 L12.0713166,10.5725882 L11.5088977,10.3864545 L10.2648472,9.9864433 L10.3505161,9.91971448 C11.2014463,9.22756116 11.843978,8.07546844 11.843978,6.49118042 L11.8458122,6.34460305 C11.843978,4.6875 11.3719797,3.90598354 10.7097873,3.1494873 C10.9293028,3.07880542 11.1293997,3.0375 11.3684529,3.0375 Z" id="形状"></path>
            </g>
        </g>
    </g>
</svg>