<?xml version="1.0" encoding="UTF-8"?>
<svg width="18px" height="18px" viewBox="0 0 18 18" version="1.1" xmlns="http://www.w3.org/2000/svg" xmlns:xlink="http://www.w3.org/1999/xlink">
    <title>切片</title>
    <g id="页面-1" stroke="none" stroke-width="1" fill="none" fill-rule="evenodd">
        <g id="导航状态" transform="translate(-263.000000, -361.000000)" fill="#F32424" fill-rule="nonzero">
            <g id="icon/登录日志/已选" transform="translate(263.000000, 361.000000)">
                <path d="M12.3125,2 C12.6231602,2 12.875,2.25183983 12.875,2.5625 L12.875,3.125 L14.1875,3.125 C15.2748106,3.125 16.1656078,3.96637397 16.2443428,5.03357321 L16.25,5.1875 L16.25,13.0625 C16.25,14.2015873 15.3265873,15.125 14.1875,15.125 L14.1875,15.125 L4.0625,15.125 C2.9234127,15.125 2,14.2015873 2,13.0625 L2,13.0625 L2,5.1875 C2,4.0484127 2.9234127,3.125 4.0625,3.125 L4.0625,3.125 L5.375,3.125 L5.375,2.5625 C5.375,2.25183983 5.62683983,2 5.9375,2 C6.24816017,2 6.5,2.25183983 6.5,2.5625 L6.5,3.125 L11.75,3.125 L11.75,2.5625 C11.75,2.25183983 12.0018398,2 12.3125,2 Z M5.9375,10.625 L4.8125,10.625 C4.50183983,10.625 4.25,10.8768398 4.25,11.1875 C4.25,11.4981602 4.50183983,11.75 4.8125,11.75 L4.8125,11.75 L5.9375,11.75 C6.24816017,11.75 6.5,11.4981602 6.5,11.1875 C6.5,10.8768398 6.24816017,10.625 5.9375,10.625 L5.9375,10.625 Z M10.6875,7.25 L4.8125,7.25 C4.50183983,7.25 4.25,7.50183983 4.25,7.8125 C4.25,8.12316017 4.50183983,8.375 4.8125,8.375 L4.8125,8.375 L10.6875,8.375 C10.9981602,8.375 11.25,8.12316017 11.25,7.8125 C11.25,7.50183983 10.9981602,7.25 10.6875,7.25 L10.6875,7.25 Z" id="进度"></path>
            </g>
        </g>
    </g>
</svg>