<?xml version="1.0" encoding="UTF-8"?>
<svg width="18px" height="18px" viewBox="0 0 18 18" version="1.1" xmlns="http://www.w3.org/2000/svg" xmlns:xlink="http://www.w3.org/1999/xlink">
    <title>声音</title>
    <g id="页面-1" stroke="none" stroke-width="1" fill="none" fill-rule="evenodd">
        <g id="教学管理-登录日志详情" transform="translate(-16.000000, -364.000000)" fill="#666666" fill-rule="nonzero">
            <g id="编组-5备份-3" transform="translate(0.000000, 49.000000)">
                <g id="编组-13" transform="translate(16.000000, 25.000000)">
                    <g id="编组-8" transform="translate(0.000000, 50.000000)">
                        <g id="icon/班级公告/未选" transform="translate(0.000000, 240.000000)">
                            <path d="M8.22024279,3.50275557 C9.08510234,2.75221419 10.3871586,2.85361986 11.1284667,3.72925147 C11.4488787,4.10772133 11.625,4.5897526 11.625,5.08822685 L11.625,5.08822685 L11.625,12.911811 C11.625,14.0650859 10.7015873,15 9.5625,15 C9.070158,15 8.59405671,14.821685 8.22024279,14.4972823 L8.22024279,14.4972823 L5.604375,12.2272201 L3.9375,12.2272201 C2.82619532,12.2272201 1.92017282,11.3373554 1.8766377,10.223017 L1.8766377,10.223017 L1.875,10.1390311 L1.875,7.86100675 C1.875,6.70773182 2.7984127,5.77281776 3.9375,5.77281776 L3.9375,5.77281776 L5.604,5.77281776 Z M14.1135226,4.27080669 C15.3596777,5.35835655 16.125,7.12273966 16.125,8.99999794 C16.125,10.9062267 15.370163,12.6550595 14.1087343,13.733325 C13.8467689,13.9572522 13.4653923,13.9106882 13.2569059,13.6293212 C13.0484194,13.3479542 13.0917727,12.9383323 13.3537381,12.7144051 C14.3206651,11.8878787 14.9125742,10.5165231 14.9125742,8.99999794 C14.9125742,7.51099141 14.3088673,6.11919841 13.3489498,5.28145504 C13.089111,5.0546874 13.0496255,4.64461457 13.2607565,4.36553174 C13.4718874,4.0864489 13.8536838,4.04403905 14.1135226,4.27080669 Z M10.2743031,4.47051077 C9.9373448,4.0724964 9.34550106,4.02640291 8.95238309,4.36755809 L8.95238309,4.36755809 L6.02058229,6.91182994 L3.9375,6.91182994 C3.41973305,6.91182994 3,7.33679087 3,7.86100675 L3,7.86100675 L3,10.1390328 C3,10.663247 3.41973305,11.0882079 3.9375,11.0882079 L3.9375,11.0882079 L6.02058229,11.0882079 L8.95238309,13.6324798 C9.1222985,13.7799356 9.33870818,13.8609878 9.5625,13.8609878 C10.080267,13.8609878 10.5,13.4360269 10.5,12.911811 L10.5,12.911811 L10.5,5.08822685 C10.5,4.86164765 10.4199448,4.64254252 10.2743031,4.47051077 Z" id="声音"></path>
                        </g>
                    </g>
                </g>
            </g>
        </g>
    </g>
</svg>