<?xml version="1.0" encoding="UTF-8"?>
<svg width="18px" height="18px" viewBox="0 0 18 18" version="1.1" xmlns="http://www.w3.org/2000/svg" xmlns:xlink="http://www.w3.org/1999/xlink">
    <title>切片</title>
    <g id="页面-1" stroke="none" stroke-width="1" fill="none" fill-rule="evenodd">
        <g id="导航状态" transform="translate(-263.000000, -122.000000)" fill="#F32424" fill-rule="nonzero">
            <g id="icon/考勤/已选" transform="translate(263.000000, 122.000000)">
                <path d="M12.1875,1.875 C12.4981602,1.875 12.75,2.12683983 12.75,2.4375 L12.75,3 L14.0625,3 C15.1498106,3 16.0406078,3.84137397 16.1193428,4.90857321 L16.125,5.0625 L16.125,12.9375 C16.125,14.0248106 15.283626,14.9156078 14.2164268,14.9943428 L14.0625,15 L3.9375,15 C2.8501894,15 1.95939222,14.158626 1.88065717,13.0914268 L1.875,12.9375 L1.875,5.0625 C1.875,3.9751894 2.71637397,3.08439222 3.78357321,3.00565717 L3.9375,3 L5.25,3 L5.25,2.4375 C5.25,2.12683983 5.50183983,1.875 5.8125,1.875 C6.12316017,1.875 6.375,2.12683983 6.375,2.4375 L6.375,3 L11.625,3 L11.625,2.4375 C11.625,2.12683983 11.8768398,1.875 12.1875,1.875 Z M11.8330537,6.91821417 C11.6104586,6.69392861 11.2495606,6.69392861 11.0269655,6.91821417 L11.0269655,6.91821417 L8.40653974,9.58953572 L8.40653974,9.58953572 C8.25203145,9.74009799 8.01461588,9.7369178 7.8701439,9.58852285 L7.8701439,9.58852285 L6.97303454,8.66705354 C6.75043943,8.44276799 6.38954144,8.44276799 6.16694633,8.66705354 C5.94435122,8.8913391 5.94435122,9.25497783 6.16694633,9.47926339 L6.16694633,9.47926339 L7.73477949,11.0817858 C7.9573746,11.3060714 8.31827258,11.3060714 8.54086769,11.0817858 L8.54086769,11.0817858 L11.8330537,7.73042401 C12.0556488,7.50613846 12.0556488,7.14249972 11.8330537,6.91821417 Z" id="考勤"></path>
            </g>
        </g>
    </g>
</svg>