<?xml version="1.0" encoding="UTF-8"?>
<svg width="18px" height="18px" viewBox="0 0 18 18" version="1.1" xmlns="http://www.w3.org/2000/svg" xmlns:xlink="http://www.w3.org/1999/xlink">
    <title>客资中心</title>
    <g id="页面-1" stroke="none" stroke-width="1" fill="none" fill-rule="evenodd">
        <g id="教学管理-登录日志详情" transform="translate(-16.000000, -267.000000)" fill="#666666" fill-rule="nonzero">
            <g id="编组-5备份-3" transform="translate(0.000000, 49.000000)">
                <g id="编组-13" transform="translate(16.000000, 25.000000)">
                    <g id="编组-8" transform="translate(0.000000, 50.000000)">
                        <g id="icon/团队成果/未选" transform="translate(0.000000, 143.000000)">
                            <path d="M7.81581333,2.625 C9.55986564,2.625 10.9736994,4.28714287 10.9736994,6.3375 C10.9736994,7.81149114 10.5154588,9.08484936 9.45669022,9.68426956 C9.43507984,9.80215978 9.43897473,9.92119248 9.46771037,10.0413078 C9.57748359,10.5001611 9.8687167,10.8046087 10.3414097,10.9546506 L11.3947455,11.2897597 L11.6580496,11.3696166 L12.1191219,11.5017258 L12.3101299,11.5598045 C13.4038259,11.9047585 14.1315829,12.3694707 14.1315829,13.5805769 C14.123418,14.526859 13.5386249,15 12.3772036,15 L3.25441839,15 C2.11401313,15 1.529207,14.526859 1.5,13.5805769 C1.5,12.4040737 2.18679464,11.9319228 3.22864956,11.5896799 L3.41612453,11.5305157 L4.21956374,11.2951102 L5.23814658,10.9709402 C5.80418591,10.7713137 6.13712482,10.4628374 6.23696332,10.0455113 C6.26577206,9.92509046 6.26832839,9.80362556 6.24463231,9.68111662 C5.18803592,9.08089519 4.65792726,7.80920283 4.65792726,6.3375 C4.65792726,4.3554881 5.97907636,2.73624087 7.64254896,2.63049329 L7.81581333,2.625 Z M7.81581333,3.825 C6.78144436,3.825 5.85792726,4.91071277 5.85792726,6.3375 C5.85792726,7.39538885 6.1877236,8.18497286 6.72019832,8.56305258 L6.83735594,8.63771895 C7.14229642,8.81094669 7.35619483,9.1089057 7.42279563,9.45323242 C7.4789006,9.74329564 7.47270565,10.0376512 7.4040307,10.3247133 C7.19855749,11.1835937 6.55657437,11.7784072 5.59897803,12.1154055 L4.46073378,12.4765527 L3.77726888,12.6748822 L3.60315361,12.7297442 C2.83836055,12.980974 2.7,13.1220614 2.69942882,13.5435565 C2.70580152,13.7500265 2.71587858,13.7905586 3.03483122,13.7982557 L3.25441839,13.8 L12.5942114,13.7990887 L12.7453805,13.7932405 C12.88799,13.781721 12.9205986,13.7505846 12.9286749,13.66645 L12.9315829,13.5805769 C12.9315829,13.174598 12.8199235,13.0115994 12.2551275,12.8065602 L11.9610336,12.7079037 L11.789847,12.655666 L11.2332735,12.4951073 L11.0309437,12.4332842 L9.9783573,12.0984133 C9.11057688,11.822963 8.50984395,11.1949722 8.30064299,10.3205097 C8.23336866,10.0393023 8.22435481,9.75159069 8.27635733,9.46790349 C8.33243021,9.16201145 8.5046273,8.89163858 8.75399954,8.71151948 L8.86548481,8.6400109 C9.4327044,8.31888041 9.77369939,7.52128991 9.77369939,6.3375 C9.77369939,4.91071277 8.8501823,3.825 7.81581333,3.825 Z M11.3684529,3.0375 C12.7854911,3.0375 13.9342275,4.36721429 13.9342275,6.0075 C13.9342275,7.18645535 13.3407885,8.20496903 12.4808223,8.68462576 C12.4627341,8.77892711 12.4658717,8.87430226 12.4892562,8.97054622 C12.589966,9.38503898 12.9632711,9.56498238 13.2425017,9.65492779 L13.4106947,9.70314466 L13.526871,9.73421324 L14.115531,9.91971448 L14.409861,10.0095194 L14.8935159,10.1472141 L15.075081,10.2026751 C15.9330175,10.4770148 16.5,10.8532092 16.5,11.8019615 C16.493366,12.5589872 16.018223,12.9375396 15.0745711,12.9375396 L14.9068949,12.9375396 C14.8191321,12.2589067 14.5606956,11.7801948 14.1315855,11.5014038 C13.8084041,11.2914354 13.4828789,11.121613 13.109387,10.9617103 L12.792174,10.8324812 L12.5660639,10.7469711 L12.3263265,10.6607035 L12.0713166,10.5725882 L11.5088977,10.3864545 L10.5086454,10.064834 C10.4354036,10.0412839 10.3951206,9.96281857 10.4186707,9.8895768 L10.4351713,9.85526106 L10.4678093,9.82019263 C11.2103048,9.16329066 11.7701445,8.13989141 11.8372241,6.76981269 L11.8458122,6.34460305 C11.843978,4.6875 11.3719797,3.90598354 10.7097873,3.1494873 C10.8744239,3.09647589 11.0281376,3.05998874 11.1955552,3.04505838 L11.3684529,3.0375 Z" id="形状"></path>
                        </g>
                    </g>
                </g>
            </g>
        </g>
    </g>
</svg>