<?xml version="1.0" encoding="UTF-8"?>
<svg width="16px" height="16px" viewBox="0 0 16 16" version="1.1" xmlns="http://www.w3.org/2000/svg" xmlns:xlink="http://www.w3.org/1999/xlink">
    <title>上传</title>
    <g id="设计" stroke="none" stroke-width="1" fill="none" fill-rule="evenodd">
        <g id="提交作业-无摘要备份-5" transform="translate(-795.000000, -491.000000)" fill-rule="nonzero">
            <g id="编组-11" transform="translate(464.000000, 72.000000)">
                <g id="编组-19" transform="translate(169.000000, 175.000000)">
                    <g id="编组-22" transform="translate(74.000000, 242.000000)">
                        <g id="上传" transform="translate(88.000000, 2.000000)">
                            <rect id="矩形" fill="#000000" opacity="0" x="0" y="0" width="16" height="16"></rect>
                            <path d="M13.5221517,8.77423161 C13.7676116,8.77423161 13.9717601,8.95110677 14.014096,9.18435598 L14.0221517,9.27423161 L14.0221517,11.2904779 C14.0221517,12.6159613 12.9906158,13.7005166 11.6865274,13.7851603 L11.5221517,13.7904779 L4.5,13.7904779 C3.1745166,13.7904779 2.08996133,12.758942 2.00531768,11.4548536 L2,11.2904779 L2,9.27423161 C2,8.99808924 2.22385763,8.77423161 2.5,8.77423161 C2.74545989,8.77423161 2.94960837,8.95110677 2.99194433,9.18435598 L3,9.27423161 L3,11.2904779 C3,12.0701741 3.59488808,12.7109266 4.35553999,12.7836114 L4.5,12.7904779 L11.5221517,12.7904779 C12.3018478,12.7904779 12.9426004,12.1955899 13.0152851,11.434938 L13.0221517,11.2904779 L13.0221517,9.27423161 C13.0221517,8.99808924 13.2460093,8.77423161 13.5221517,8.77423161 Z M8.31708116,2.13432505 L11.242496,4.86231849 C11.4444537,5.05064714 11.4555023,5.36703678 11.2671736,5.56899453 C11.078845,5.77095227 10.7624554,5.78200084 10.5604976,5.5936722 L8.492,3.665 L8.49250746,10.0349528 C8.49250746,10.3110951 8.26864983,10.5349528 7.99250746,10.5349528 C7.74704757,10.5349528 7.54289909,10.3580776 7.50056313,10.1248284 L7.49250746,10.0349528 L7.492,3.751 L5.61376539,5.76641589 C5.42543675,5.96837364 5.10904711,5.97942221 4.90708936,5.79109356 C4.70513161,5.60276492 4.69408304,5.28637528 4.88241169,5.08441753 L7.61040513,2.15900273 C7.79873378,1.95704498 8.11512341,1.94599641 8.31708116,2.13432505 Z" id="形状结合" fill="#5A73FF"></path>
                        </g>
                    </g>
                </g>
            </g>
        </g>
    </g>
</svg>