<?xml version="1.0" encoding="UTF-8"?>
<svg width="16px" height="16px" viewBox="0 0 16 16" version="1.1" xmlns="http://www.w3.org/2000/svg" xmlns:xlink="http://www.w3.org/1999/xlink">
    <title>编组 24</title>
    <g id="学生工作台" stroke="none" stroke-width="1" fill="none" fill-rule="evenodd">
        <g id="学生工作台-1个待办" transform="translate(-1207.000000, -86.000000)" fill="#666666" fill-rule="nonzero">
            <g id="编组-26" transform="translate(1183.000000, 48.000000)">
                <g id="编组-24备份" transform="translate(24.000000, 38.000000)">
                    <g id="设置">
                        <path d="M8,4.6 C6.13064885,4.6 4.65,6.11676224 4.65,8 C4.65,9.86697951 6.16477024,11.4 8,11.4 C9.86935115,11.4 11.35,9.88323776 11.35,8 C11.35,6.13302049 9.83522976,4.6 8,4.6 Z M8,5.6 C9.28024643,5.6 10.35,6.68264216 10.35,8 C10.35,9.33627443 9.31160123,10.4 8,10.4 C6.71975357,10.4 5.65,9.31735784 5.65,8 C5.65,6.66372557 6.68839877,5.6 8,5.6 Z" id="形状"></path>
                    </g>
                    <path d="M10.0017229,1.35726378 C9.4223174,1.89209967 8.73763866,2.1746655 7.990863,2.1746655 C7.27475598,2.1746655 6.54384431,1.87773263 5.98000305,1.35726378 C5.84012067,1.22814158 5.63905173,1.1896549 5.46137346,1.2579927 C4.73856256,1.53599689 4.09127003,1.92161797 3.55638063,2.40301843 C3.42069523,2.52513529 3.36234419,2.71149171 3.40415442,2.88918517 C3.57010985,3.59449577 3.45712168,4.37411415 3.0936494,5.1010587 C2.70712038,5.74241122 2.09628624,6.24012792 1.39977984,6.44498275 C1.21190484,6.5002401 1.07358316,6.66009048 1.04588825,6.85395482 L0.996420655,7.21500208 L0.963991269,7.49875905 L0.946254062,7.74029157 L0.940863,7.9746655 C0.940863,8.17462632 0.95488842,8.37984988 0.981839369,8.61494509 L1.00997163,8.83927435 L1.04588825,9.09537618 C1.07358316,9.28924052 1.21190484,9.4490909 1.39977984,9.50434825 C2.09628624,9.70920308 2.70712038,10.2069198 3.11211654,10.8819134 C3.45712168,11.5752169 3.57010985,12.3548352 3.40415442,13.0601458 C3.36040568,13.246078 3.42641075,13.4406896 3.5742441,13.5616441 C4.14549591,14.029032 4.78337743,14.4090465 5.44855531,14.686204 C5.62888317,14.7613406 5.83645539,14.7247076 5.98000305,14.5920672 C6.54384431,14.0715984 7.27475598,13.7746655 7.990863,13.7746655 C8.73763866,13.7746655 9.4223174,14.0572313 10.0017229,14.5920672 C10.1416053,14.7211894 10.3426743,14.7596761 10.5203525,14.6913383 C11.2431634,14.4133341 11.890456,14.027713 12.4253454,13.5463126 C12.5610308,13.4241957 12.6193818,13.2378393 12.5775716,13.0601458 C12.4116161,12.3548352 12.5246043,11.5752169 12.8880766,10.8482723 C13.2746056,10.2069198 13.8854398,9.70920308 14.5819462,9.50434825 C14.7698212,9.4490909 14.9081428,9.28924052 14.9358377,9.09537618 L14.990512,8.69420259 L14.9998866,8.61494509 C15.0268376,8.37984988 15.040863,8.17462632 15.040863,7.9746655 C15.040863,7.85342388 15.037113,7.74264748 15.0282932,7.62261175 L15.0035032,7.36435023 L14.9358377,6.85395482 C14.9081428,6.66009048 14.7698212,6.5002401 14.5819462,6.44498275 C13.8854398,6.24012792 13.2746056,5.74241122 12.8696095,5.06741762 C12.503317,4.45693021 12.3992111,3.64721733 12.5775716,2.88918517 C12.6213203,2.70325304 12.5553152,2.50864141 12.4074819,2.38768685 C11.8362301,1.92029901 11.1983486,1.54028449 10.5331707,1.26312704 C10.3528428,1.18799043 10.1452706,1.22462345 10.0017229,1.35726378 Z M5.55,2.302 L5.660924,2.38837196 C6.34591095,2.89207319 7.16810148,3.1746655 7.990863,3.1746655 L8.22135046,3.16792068 C8.98461509,3.12304938 9.69632986,2.85523368 10.3180661,2.39271608 L10.424,2.309 L10.434724,2.31371057 C10.71869,2.44857103 10.9955431,2.60528877 11.2607395,2.78202504 L11.543,2.982 L11.5218056,3.12709204 C11.4194687,3.98863375 11.584364,4.86899247 12.0121165,5.58191338 L12.1393055,5.78166468 C12.5794817,6.43388282 13.179572,6.94746716 13.8730319,7.2492674 L13.986,7.294 L13.9909519,7.32339142 C14.0056664,7.4373933 14.0165951,7.53319485 14.0244123,7.6195971 L14.0392037,7.85940701 C14.040338,7.89760936 14.040863,7.93566215 14.040863,7.9746655 C14.040863,8.07970954 14.0357379,8.18971579 14.0255247,8.31066765 L13.987,8.654 L13.8730319,8.7000636 C13.110226,9.03204387 12.4603974,9.62028288 12.0121165,10.3674176 L11.898483,10.6089375 C11.5786503,11.3364847 11.4489617,12.0889141 11.5238023,12.8120384 L11.546,12.979 L11.3546077,13.1245644 C11.1420367,13.2759932 10.9124764,13.4131686 10.6683456,13.5350242 L10.431,13.645 L10.3180661,13.5566149 C9.63415624,13.0478456 8.84137236,12.7746655 7.990863,12.7746655 L7.76659031,12.7816257 C7.01974621,12.8278733 6.28363941,13.1030488 5.660924,13.560959 L5.558,13.64 L5.54700198,13.6356204 C5.26303596,13.50076 4.98618292,13.3440422 4.72098646,13.167306 L4.437,12.966 L4.45800923,12.8121941 C4.54159286,12.0095014 4.37480888,11.1745233 3.9880766,10.4010587 L3.85694544,10.1941259 C3.40466509,9.51985811 2.80255751,9.00259883 2.10876137,8.7001861 L1.994,8.654 L1.97533245,8.50105258 C1.95239444,8.3009626 1.940863,8.13223156 1.940863,7.9746655 L1.94562819,7.78247693 L1.96148473,7.57557195 L1.994,7.294 L2.10869412,7.2492674 C2.87150003,6.91728713 3.52132862,6.32904812 3.96960946,5.58191338 L4.08324302,5.34039352 C4.40307575,4.61284627 4.53276427,3.86041694 4.45792374,3.1372926 L4.435,2.969 L4.62711832,2.82476656 C4.83968934,2.67333778 5.06924963,2.53616238 5.3133804,2.41430685 L5.55,2.302 Z" id="路径"></path>
                </g>
            </g>
        </g>
    </g>
</svg>