<?xml version="1.0" encoding="UTF-8"?>
<svg width="16px" height="16px" viewBox="0 0 16 16" version="1.1" xmlns="http://www.w3.org/2000/svg" xmlns:xlink="http://www.w3.org/1999/xlink">
    <title>编组 22</title>
    <g id="学生工作台" stroke="none" stroke-width="1" fill="none" fill-rule="evenodd">
        <g id="学生工作台-1个待办" transform="translate(-1304.000000, -102.000000)" fill="#666666" fill-rule="nonzero">
            <g id="编组-26" transform="translate(1183.000000, 48.000000)">
                <g id="编组-22" transform="translate(121.000000, 54.000000)">
                    <path d="M8,1 C11.8659932,1 15,4.13400675 15,8 C15,11.8659932 11.8659932,15 8,15 C4.13400675,15 1,11.8659932 1,8 C1,4.13400675 4.13400675,1 8,1 Z M8,2 C4.6862915,2 2,4.6862915 2,8 C2,11.3137085 4.6862915,14 8,14 C11.3137085,14 14,11.3137085 14,8 C14,4.6862915 11.3137085,2 8,2 Z" id="椭圆形"></path>
                    <path d="M9.10342225,4.6858204 C9.29049129,4.52689987 9.56059225,4.52952547 9.74387203,4.67987855 L9.80820046,4.74315869 L11.2216201,6.40692763 C11.4791277,6.71004584 11.295227,7.164895 10.9230936,7.22419436 L10.8405618,7.23064759 L5.31597786,7.23064759 C5.03983548,7.23064759 4.81597786,7.00678997 4.81597786,6.73064759 C4.81597786,6.4851877 4.99285302,6.28103922 5.22610223,6.23870326 L5.31597786,6.23064759 L9.759,6.23 L9.04608396,5.3905986 C8.88716343,5.20352957 8.88978904,4.93342861 9.04014211,4.75014883 L9.10342225,4.6858204 Z" id="路径-15"></path>
                    <path d="M9.10342225,8.6858204 C9.29049129,8.52689987 9.56059225,8.52952547 9.74387203,8.67987855 L9.80820046,8.74315869 L11.2216201,10.4069276 C11.4791277,10.7100458 11.295227,11.164895 10.9230936,11.2241944 L10.8405618,11.2306476 L5.31597786,11.2306476 C5.03983548,11.2306476 4.81597786,11.00679 4.81597786,10.7306476 C4.81597786,10.4851877 4.99285302,10.2810392 5.22610223,10.2387033 L5.31597786,10.2306476 L9.759,10.23 L9.04608396,9.3905986 C8.88716343,9.20352957 8.88978904,8.93342861 9.04014211,8.75014883 L9.10342225,8.6858204 Z" id="路径-15备份" transform="translate(8.078751, 9.898758) scale(-1, -1) translate(-8.078751, -9.898758) "></path>
                </g>
            </g>
        </g>
    </g>
</svg>