<?xml version="1.0" encoding="UTF-8"?>
<svg width="16px" height="16px" viewBox="0 0 16 16" version="1.1" xmlns="http://www.w3.org/2000/svg" xmlns:xlink="http://www.w3.org/1999/xlink">
    <title>编组 25</title>
    <g id="学生工作台" stroke="none" stroke-width="1" fill="none" fill-rule="evenodd">
        <g id="学生工作台-1个待办" transform="translate(-1304.000000, -174.000000)" fill="#666666" fill-rule="nonzero">
            <g id="编组-26" transform="translate(1183.000000, 48.000000)">
                <g id="编组-25" transform="translate(121.000000, 126.000000)">
                    <path d="M11.9752537,1.99451988 C13.3007371,1.99451988 14.3852924,3.02605582 14.469936,4.33014419 L14.4752537,4.49451988 L14.4752537,5.2371285 C14.4752537,5.51327087 14.2513961,5.7371285 13.9752537,5.7371285 C13.7297938,5.7371285 13.5256453,5.56025334 13.4833094,5.32700413 L13.4752537,5.2371285 L13.4752537,4.49451988 C13.4752537,3.71482376 12.8803656,3.0740712 12.1197137,3.00138646 L11.9752537,2.99451988 L3.97525369,2.99451988 C3.19555758,2.99451988 2.55480501,3.58940796 2.48212027,4.35005987 L2.47525369,4.49451988 L2.47525369,11.4945199 C2.47525369,12.274216 3.07014178,12.9149686 3.83079368,12.9876533 L3.97525369,12.9945199 L11.9752537,12.9945199 C12.7549498,12.9945199 13.3957024,12.3996318 13.4683871,11.6389799 L13.4752537,11.4945199 L13.4752537,11.0614817 C13.4752537,10.7853393 13.6991113,10.5614817 13.9752537,10.5614817 C14.2207136,10.5614817 14.4248621,10.7383568 14.467198,10.971606 L14.4752537,11.0614817 L14.4752537,11.4945199 C14.4752537,12.8200033 13.4437178,13.9045586 12.1396294,13.9892022 L11.9752537,13.9945199 L3.97525369,13.9945199 C2.64977029,13.9945199 1.56521502,12.9629839 1.48057137,11.6588956 L1.47525369,11.4945199 L1.47525369,4.49451988 C1.47525369,3.16903648 2.50678963,2.08448121 3.810878,1.99983756 L3.97525369,1.99451988 L11.9752537,1.99451988 Z" id="路径"></path>
                    <path d="M9.25737851,4.81253936 L12.0858056,7.64096649 C12.259372,7.81453284 12.2786571,8.08395724 12.1436611,8.27882538 L12.0858056,8.34807327 L9.25737851,11.1765004 C9.06211637,11.3717625 8.74553388,11.3717625 8.55027173,11.1765004 C8.35500958,10.9812382 8.35500958,10.6646558 8.55027173,10.4693936 L10.5248251,8.49409275 L4.90382512,8.49451988 C4.62768275,8.49451988 4.40382512,8.27066225 4.40382512,7.99451988 C4.40382512,7.7183775 4.62768275,7.49451988 4.90382512,7.49451988 L10.5228251,7.49409275 L8.55027173,5.51964615 C8.35500958,5.324384 8.35500958,5.00780151 8.55027173,4.81253936 C8.74553388,4.61727722 9.06211637,4.61727722 9.25737851,4.81253936 Z" id="形状结合"></path>
                </g>
            </g>
        </g>
    </g>
</svg>