<?xml version="1.0" encoding="UTF-8"?>
<svg width="18px" height="18px" viewBox="0 0 18 18" version="1.1" xmlns="http://www.w3.org/2000/svg" xmlns:xlink="http://www.w3.org/1999/xlink">
    <title>核收记录</title>
    <g id="教师端" stroke="none" stroke-width="1" fill="none" fill-rule="evenodd">
        <g id="其他状态补充" transform="translate(-147.000000, -155.000000)" fill="#666666" fill-rule="nonzero">
            <g id="icon/考勤/未选备份" transform="translate(147.000000, 155.000000)">
                <g id="编组" transform="translate(2.000000, 2.000000)">
                    <path d="M9.41592728,0 C9.95296891,0 10.3896817,0.436449279 10.3896817,0.972683184 L10.389,3.455 L12.3747596,3.45580192 C13.2709872,3.45580192 14,4.18401277 14,5.0792544 L14,12.1448225 C14,13.0400641 13.2709872,13.768275 12.3747596,13.768275 L1.62524043,13.768275 C0.729012844,13.768275 0,13.0400641 0,12.1448225 L0,5.0792544 C0,4.18401277 0.729012844,3.45580192 1.62524043,3.45580192 L3.61,3.455 L3.61053546,0.972683184 C3.61053546,0.436232356 4.04746541,0 4.58428988,0 L9.41592728,0 Z M10.3896817,6.36300531 C10.3896817,6.89945614 9.95275175,7.3356885 9.41571012,7.3356885 L4.58428988,7.3356885 C4.04724825,7.3356885 3.61053546,6.89923922 3.61053546,6.36300531 L3.61,4.533 L1.62524043,4.53347588 C1.32403673,4.53347588 1.07886083,4.77838206 1.07886083,5.0792544 L1.07886083,12.1448225 C1.07886083,12.4456948 1.32403673,12.690601 1.62524043,12.690601 L12.3747596,12.690601 C12.6759633,12.690601 12.9211392,12.4456948 12.9211392,12.1448225 L12.9211392,5.0792544 C12.9211392,4.77838206 12.6759633,4.53347588 12.3747596,4.53347588 L10.389,4.533 L10.3896817,6.36300531 Z M9.31060371,1.07767396 L4.68939629,1.07767396 L4.68939629,6.25801453 L9.31060371,6.25801453 L9.31060371,1.07767396 Z M8.70320159,2.46533104 C8.91384873,2.67574645 8.91384873,3.01696649 8.70320159,3.22738189 L7.03300687,4.89592133 C6.85165478,5.07709368 6.56266453,5.09176649 6.36389513,4.92989393 L5.33719054,4.09377276 C5.10634734,3.90570043 5.07160141,3.56621578 5.25988087,3.33562652 C5.44816033,3.10503726 5.78801886,3.07032957 6.01886207,3.2584019 L6.6399454,3.76426657 L7.94031147,2.46533104 C8.15095862,2.25491563 8.49255445,2.25491563 8.70320159,2.46533104 Z" id="形状结合"></path>
                </g>
            </g>
        </g>
    </g>
</svg>