<?xml version="1.0" encoding="UTF-8"?>
<svg width="24px" height="24px" viewBox="0 0 24 24" version="1.1" xmlns="http://www.w3.org/2000/svg" xmlns:xlink="http://www.w3.org/1999/xlink">
    <title>编组 11</title>
    <g id="首页" stroke="none" stroke-width="1" fill="none" fill-rule="evenodd">
        <g id="切图" transform="translate(-184.000000, -395.000000)" fill-rule="nonzero">
            <g id="编组-27备份-2" transform="translate(160.000000, 72.000000)">
                <g id="编组-11" transform="translate(24.000000, 323.000000)">
                    <rect id="矩形" fill="#000000" opacity="0" x="0" y="0" width="24" height="24"></rect>
                    <path d="M12,4 C12.7907713,4 13.532413,4.03399491 14.2205427,4.09783961 L14.797161,4.15977712 C18.0831298,4.56259392 20,5.68204776 20,7 L20,12 C20,13.3179522 18.0831298,14.4374061 14.797161,14.8402229 L14.2205427,14.9021604 C13.532413,14.9660051 12.7907713,15 12,15 C11.2092287,15 10.467587,14.9660051 9.77945731,14.9021604 L9.202839,14.8402229 C6.01075499,14.4489151 4.11065307,13.381336 4.0046816,12.1124691 L4,12 L4,7 L4.0046816,6.88753087 C4.11065307,5.61866398 6.01075499,4.55108487 9.202839,4.15977712 L9.77945731,4.09783961 C10.467587,4.03399491 11.2092287,4 12,4 Z M12,5 C9.76778366,5 7.89067329,5.28218182 6.58552721,5.77703275 C5.60275628,6.14965395 5.09849663,6.57777867 5.01523522,6.86890366 L5.00381638,6.9291205 L5,7 L4.99913478,11.9584104 L5.00121223,12.0292423 C5.02890092,12.3607775 5.53255836,12.8237302 6.58552721,13.2229673 C7.89067329,13.7178182 9.76778366,14 12,14 C14.2818,14 16.1918506,13.7050225 17.4975668,13.1908606 C18.4685652,12.8085032 18.9358195,12.383563 18.9938045,12.0662854 L19,12 L19,7 C19,6.67736 18.5379222,6.21880805 17.4975668,5.80913937 C16.1918506,5.29497751 14.2818,5 12,5 Z" id="形状结合" fill="#979797"></path>
                    <path d="M12,4 C12.7907713,4 13.532413,4.03399491 14.2205427,4.09783961 L14.797161,4.15977712 C18.0831298,4.56259392 20,5.68204776 20,7 C20,8.31795224 18.0831298,9.43740608 14.797161,9.84022288 L14.2205427,9.90216039 C13.532413,9.96600509 12.7907713,10 12,10 C11.2092287,10 10.467587,9.96600509 9.77945731,9.90216039 L9.202839,9.84022288 C5.91687016,9.43740608 4,8.31795224 4,7 C4,5.68204776 5.91687016,4.56259392 9.202839,4.15977712 L9.77945731,4.09783961 C10.467587,4.03399491 11.2092287,4 12,4 Z M12,5 C9.71819999,5 7.80814943,5.29497751 6.5024332,5.80913937 C5.46207781,6.21880805 5,6.67736 5,7 C5,7.32264 5.46207781,7.78119195 6.5024332,8.19086063 C7.80814943,8.70502249 9.71819999,9 12,9 C14.2818,9 16.1918506,8.70502249 17.4975668,8.19086063 C18.5379222,7.78119195 19,7.32264 19,7 C19,6.67736 18.5379222,6.21880805 17.4975668,5.80913937 C16.1918506,5.29497751 14.2818,5 12,5 Z" id="椭圆形" fill="#979797"></path>
                    <path d="M4.39684388,12.0001546 C5.36939799,13.1652662 8.08151688,14 12,14 C15.9184831,14 18.630602,13.1652662 19.6031561,12.0001546 L20,12 L20,17 C20,18.3179522 18.0831298,19.4374061 14.797161,19.8402229 L14.2205427,19.9021604 C13.532413,19.9660051 12.7907713,20 12,20 C11.2092287,20 10.467587,19.9660051 9.77945731,19.9021604 L9.202839,19.8402229 C6.01075499,19.4489151 4.11065307,18.381336 4.0046816,17.1124691 L4,17 L4,12 L4.39684388,12.0001546 Z M19,13.698 L18.832711,13.7851401 C17.2391668,14.573247 14.8567866,15 12,15 C9.14321339,15 6.76083323,14.573247 5.16728898,13.7851401 L5,13.699 L4.99913478,16.9584104 L5.00121223,17.0292423 C5.02890092,17.3607775 5.53255836,17.8237302 6.58552721,18.2229673 C7.89067329,18.7178182 9.76778366,19 12,19 C14.2818,19 16.1918506,18.7050225 17.4975668,18.1908606 C18.4685652,17.8085032 18.9358195,17.383563 18.9938045,17.0662854 L19,17 L19,13.698 Z" id="形状结合" fill="#979797"></path>
                </g>
            </g>
        </g>
    </g>
</svg>