<?xml version="1.0" encoding="UTF-8"?>
<svg width="24px" height="24px" viewBox="0 0 24 24" version="1.1" xmlns="http://www.w3.org/2000/svg" xmlns:xlink="http://www.w3.org/1999/xlink">
    <title>课程备份 25</title>
    <g id="首页" stroke="none" stroke-width="1" fill="none" fill-rule="evenodd">
        <g id="切图" transform="translate(-56.000000, -281.000000)" fill="#FFFFFF" fill-rule="nonzero">
            <g id="编组" transform="translate(32.000000, 48.000000)">
                <g id="编组-7" transform="translate(17.000000, 226.000000)">
                    <g id="编组-45" transform="translate(7.000000, 7.000000)">
                        <path d="M5.99940385,13.7320906 C6.2937119,13.9024741 6.63546675,14 7,14 L14.9994038,13.9990906 L15,18 C15,19.1045695 14.1045695,20 13,20 L8,20 C6.8954305,20 6,19.1045695 6,18 L5.99940385,13.7320906 Z M19.9998693,8.999 L20,11 C20,11.7398375 19.5982846,12.3858493 19.0010775,12.7318119 L19,19.5 C19,19.7761424 18.7761424,20 18.5,20 C18.2238576,20 18,19.7761424 18,19.5 L18,13 L7,13 C5.9456382,13 5.08183488,12.1841222 5.00548574,11.1492623 L5,11 L4.99986928,8.999 L19.9998693,8.999 Z M16.763932,4 C17.4673658,4 18.1147383,4.36904491 18.4748806,4.96426453 L18.5527864,5.10557281 L19.7888544,7.57770876 C19.8561221,7.71224425 19.9077679,7.85347188 19.9431409,7.99863448 L5.05685915,7.99863448 C5.07762858,7.9134014 5.10400811,7.8295249 5.13586599,7.74756311 L5.21114562,7.57770876 L6.4472136,5.10557281 C6.76179876,4.47640247 7.38139635,4.06241682 8.07483749,4.00648606 L8.23606798,4 L16.763932,4 Z" id="形状结合"></path>
                    </g>
                </g>
            </g>
        </g>
    </g>
</svg>