<?xml version="1.0" encoding="UTF-8"?>
<svg width="24px" height="24px" viewBox="0 0 24 24" version="1.1" xmlns="http://www.w3.org/2000/svg" xmlns:xlink="http://www.w3.org/1999/xlink">
    <title>编组 9</title>
    <g id="首页" stroke="none" stroke-width="1" fill="none" fill-rule="evenodd">
        <g id="切图" transform="translate(-184.000000, -307.000000)" fill-rule="nonzero">
            <g id="编组-27备份-2" transform="translate(160.000000, 72.000000)">
                <g id="编组-9" transform="translate(24.000000, 235.000000)">
                    <rect id="矩形" fill="#000000" opacity="0" x="0" y="0" width="24" height="24"></rect>
                    <path d="M16.763932,4 C17.4673658,4 18.1147383,4.36904491 18.4748806,4.96426453 L18.5527864,5.10557281 L19.7888544,7.57770876 C19.8999387,7.79987746 19.9684213,8.04029592 19.991371,8.28654754 L20,8.47213595 L20,11 C20,11.7398375 19.5982846,12.3858493 19.0010775,12.7318119 L19,19.5 C19,19.7761424 18.7761424,20 18.5,20 C18.2238576,20 18,19.7761424 18,19.5 L18,13 L15,13 L15,18 C15,19.1045695 14.1045695,20 13,20 L8,20 C6.8954305,20 6,19.1045695 6,18 L5.99992752,12.7323937 C5.44814777,12.4131755 5.06302908,11.8379084 5.00704502,11.169066 L5,11 L5,8.47213595 C5,8.2237438 5.04626572,7.97808065 5.13586599,7.74756311 L5.21114562,7.57770876 L6.4472136,5.10557281 C6.76179876,4.47640247 7.38139635,4.06241682 8.07483749,4.00648606 L8.23606798,4 L16.763932,4 Z M14,13 L7,13 L7,18 C7,18.5128358 7.38604019,18.9355072 7.88337887,18.9932723 L8,19 L13,19 C13.5128358,19 13.9355072,18.6139598 13.9932723,18.1166211 L14,18 L14,13 Z M19,8.999 L6,8.999 L6,11 L6.00672773,11.1166211 C6.06004937,11.575703 6.42429701,11.9399506 6.88337887,11.9932723 L7,12 L18,12 L18.1166211,11.9932723 C18.575703,11.9399506 18.9399506,11.575703 18.9932723,11.1166211 L19,11 L19,8.999 Z M16.763932,5 L8.23606798,5 L8.11121269,5.00780363 C7.82361722,5.04393498 7.56539101,5.20352755 7.40445755,5.44460233 L7.34164079,5.5527864 L6.118,7.999 L18.881,7.999 L17.6583592,5.5527864 L17.5955425,5.44460233 C17.4116185,5.1690883 17.1006183,5 16.763932,5 Z" id="形状结合" fill="#979797"></path>
                </g>
            </g>
        </g>
    </g>
</svg>