<?xml version="1.0" encoding="UTF-8"?>
<svg width="24px" height="24px" viewBox="0 0 24 24" version="1.1" xmlns="http://www.w3.org/2000/svg" xmlns:xlink="http://www.w3.org/1999/xlink">
    <title>课程备份 24</title>
    <g id="首页" stroke="none" stroke-width="1" fill="none" fill-rule="evenodd">
        <g id="切图" transform="translate(-56.000000, -371.000000)" fill-rule="nonzero">
            <g id="编组" transform="translate(32.000000, 48.000000)">
                <g id="编组-7备份" transform="translate(17.000000, 316.000000)">
                    <g id="编组-10备份" transform="translate(7.000000, 7.000000)">
                        <rect id="矩形备份-11" fill="#000000" opacity="0" x="0" y="0" width="24" height="24"></rect>
                        <path d="M12,4 C12.7907713,4 13.532413,4.03399491 14.2205427,4.09783961 L14.797161,4.15977712 C18.0831298,4.56259392 20,5.68204776 20,7 C20,8.31795224 18.0831298,9.43740608 14.797161,9.84022288 L14.2205427,9.90216039 C13.532413,9.96600509 12.7907713,10 12,10 C11.2092287,10 10.467587,9.96600509 9.77945731,9.90216039 L9.202839,9.84022288 C5.91687016,9.43740608 4,8.31795224 4,7 C4,5.68204776 5.91687016,4.56259392 9.202839,4.15977712 L9.77945731,4.09783961 C10.467587,4.03399491 11.2092287,4 12,4 Z M12,5 C9.71819999,5 7.80814943,5.29497751 6.5024332,5.80913937 C5.46207781,6.21880805 5,6.67736 5,7 C5,7.32264 5.46207781,7.78119195 6.5024332,8.19086063 C7.80814943,8.70502249 9.71819999,9 12,9 C14.2818,9 16.1918506,8.70502249 17.4975668,8.19086063 C18.5379222,7.78119195 19,7.32264 19,7 C19,6.67736 18.5379222,6.21880805 17.4975668,5.80913937 C16.1918506,5.29497751 14.2818,5 12,5 Z" id="椭圆形备份-2" fill="#FFFFFF"></path>
                        <path d="M4,12 L4.0046816,12.1124691 C4.11065307,13.381336 6.01075499,14.4489151 9.202839,14.8402229 L9.202839,14.8402229 L9.77945731,14.9021604 C10.467587,14.9660051 11.2092287,15 12,15 C12.7907713,15 13.532413,14.9660051 14.2205427,14.9021604 L14.2205427,14.9021604 L14.797161,14.8402229 C18.0831298,14.4374061 20,13.3179522 20,12 L20,12 L20,17 C20,18.3179522 18.0831298,19.4374061 14.797161,19.8402229 L14.2205427,19.9021604 C13.532413,19.9660051 12.7907713,20 12,20 C11.2092287,20 10.467587,19.9660051 9.77945731,19.9021604 L9.202839,19.8402229 C6.01075499,19.4489151 4.11065307,18.381336 4.0046816,17.1124691 L4,17 L4,12 Z" id="形状结合" fill="#FFFFFF"></path>
                        <path d="M4.39684388,7.00015464 L4.42260101,7.0304642 C4.42924906,7.03815029 4.43597336,7.04582166 4.44277377,7.05347817 L4.39684388,7.00015464 C5.36939799,8.16526623 8.08151688,9.27884065 12,9.27884065 C15.8293241,9.27884065 18.5065573,8.21536505 19.5340737,7.07959303 C19.549849,7.06192439 19.5656404,7.04413551 19.5810202,7.02626736 L19.6031561,7.00015464 L19.6031561,7.00015464 L20,7 L20,11 C20,12.3179522 18.0831298,13.4374061 14.797161,13.8402229 L14.2205427,13.9021604 C13.532413,13.9660051 12.7907713,14 12,14 C11.2092287,14 10.467587,13.9660051 9.77945731,13.9021604 L9.202839,13.8402229 C6.01075499,13.4489151 4.11065307,12.381336 4.0046816,11.1124691 L4,11 L4,7 L4.39684388,7.00015464 Z" id="形状结合备份-3" fill="#FFFFFF"></path>
                    </g>
                </g>
            </g>
        </g>
    </g>
</svg>