<?xml version="1.0" encoding="UTF-8"?>
<svg width="24px" height="24px" viewBox="0 0 24 24" version="1.1" xmlns="http://www.w3.org/2000/svg" xmlns:xlink="http://www.w3.org/1999/xlink">
    <title>编组 4</title>
    <g id="首页" stroke="none" stroke-width="1" fill="none" fill-rule="evenodd">
        <g id="切图" transform="translate(-184.000000, -171.000000)" fill-rule="nonzero">
            <g id="编组-27备份-2" transform="translate(160.000000, 72.000000)">
                <g id="编组-4" transform="translate(24.000000, 99.000000)">
                    <rect id="矩形" fill="#000000" opacity="0" x="0" y="0" width="24" height="24"></rect>
                    <g id="编组-28" transform="translate(4.000000, 3.500000)" fill="#979797">
                        <path d="M14,0 C15.1045695,0 16,0.8954305 16,2 L16,14 C16,15.1045695 15.1045695,16 14,16 L2,16 C0.8954305,16 0,15.1045695 0,14 L0,2 C0,0.8954305 0.8954305,0 2,0 L14,0 Z M14,1 L2,1 C1.48716416,1 1.06449284,1.38604019 1.00672773,1.88337887 L1,2 L1,14 C1,14.5128358 1.38604019,14.9355072 1.88337887,14.9932723 L2,15 L14,15 C14.5128358,15 14.9355072,14.6139598 14.9932723,14.1166211 L15,14 L15,2 C15,1.48716416 14.6139598,1.06449284 14.1166211,1.00672773 L14,1 Z" id="矩形"></path>
                        <path d="M8.5,3.5 C9.6045695,3.5 10.5,4.3954305 10.5,5.5 L10.5,8.5 C10.5,9.6045695 9.6045695,10.5 8.5,10.5 L5.5,10.5 C4.3954305,10.5 3.5,9.6045695 3.5,8.5 L3.5,5.5 C3.5,4.3954305 4.3954305,3.5 5.5,3.5 L8.5,3.5 Z M8.5,4.5 L5.5,4.5 C4.98716416,4.5 4.56449284,4.88604019 4.50672773,5.38337887 L4.5,5.5 L4.5,8.5 C4.5,9.01283584 4.88604019,9.43550716 5.38337887,9.49327227 L5.5,9.5 L8.5,9.5 C9.01283584,9.5 9.43550716,9.11395981 9.49327227,8.61662113 L9.5,8.5 L9.5,5.5 C9.5,4.98716416 9.11395981,4.56449284 8.61662113,4.50672773 L8.5,4.5 Z" id="矩形"></path>
                        <path d="M10.5,6.5 C11.6045695,6.5 12.5,7.3954305 12.5,8.5 L12.5,10.5 C12.5,11.6045695 11.6045695,12.5 10.5,12.5 L8.5,12.5 C7.3954305,12.5 6.5,11.6045695 6.5,10.5 L6.5,9.5 L8.5,9.5 C9.01283584,9.5 9.43550716,9.11395981 9.49327227,8.61662113 L9.5,8.5 L9.5,6.5 L10.5,6.5 Z M10.4983401,8.55759303 L10.4865945,8.73199395 C10.3761014,9.68330344 9.60559747,10.4189295 8.65926678,10.4937286 L8.5,10.5 L7.5,10.5 C7.5,11.0128358 7.88604019,11.4355072 8.38337887,11.4932723 L8.5,11.5 L10.5,11.5 C11.0128358,11.5 11.4355072,11.1139598 11.4932723,10.6166211 L11.5,10.5 L11.5,8.5 C11.5,7.98716416 11.1139598,7.56449284 10.6166211,7.50672773 L10.499,7.5 L10.4983401,8.55759303 Z" id="形状结合"></path>
                    </g>
                </g>
            </g>
        </g>
    </g>
</svg>