<?xml version="1.0" encoding="UTF-8"?>
<svg width="24px" height="24px" viewBox="0 0 24 24" version="1.1" xmlns="http://www.w3.org/2000/svg" xmlns:xlink="http://www.w3.org/1999/xlink">
    <title>课程备份 27</title>
    <g id="首页" stroke="none" stroke-width="1" fill="none" fill-rule="evenodd">
        <g id="切图" transform="translate(-56.000000, -147.000000)" fill="#FFFFFF" fill-rule="nonzero">
            <g id="编组" transform="translate(32.000000, 48.000000)">
                <g id="编组-28备份" transform="translate(24.000000, 99.000000)">
                    <path d="M18,3.5 C19.1045695,3.5 20,4.3954305 20,5.5 L20,17.5 C20,18.6045695 19.1045695,19.5 18,19.5 L6,19.5 C4.8954305,19.5 4,18.6045695 4,17.5 L4,5.5 C4,4.3954305 4.8954305,3.5 6,3.5 L18,3.5 Z M14.499,11 L14.4983401,12.057593 L14.4865945,12.2319939 C14.3761014,13.1833034 13.6055975,13.9189295 12.6592668,13.9937286 L12.5,14 L11.5,14 C11.5,14.5128358 11.8860402,14.9355072 12.3833789,14.9932723 L12.5,15 L14.5,15 C15.0128358,15 15.4355072,14.6139598 15.4932723,14.1166211 L15.5,14 L15.5,12 C15.5,11.4871642 15.1139598,11.0644928 14.6166211,11.0067277 L14.499,11 Z M12.5287965,7.50082993 L9.5,7.5 C8.73658968,7.5 8.09749534,8.07295965 8.0100666,8.82569246 L8.00082993,8.97120348 L8,12 C8,12.7634103 8.57295965,13.4025047 9.32569246,13.4899334 L9.47120348,13.4991701 L12.5,13.5 C13.2634103,13.5 13.9025047,12.9270403 13.9899334,12.1743075 L13.9991701,12.0287965 L14,9 C14,8.23658968 13.4270403,7.59749534 12.6743075,7.5100666 L12.5287965,7.50082993 Z M12.49,8.5 L12.5878246,8.5058978 C12.8088131,8.53241185 13,8.74566675 13,9 L13,12 L12.9941022,12.0878246 C12.9675882,12.3088131 12.7543332,12.5 12.5,12.5 L9.5,12.5 L9.41217539,12.4941022 C9.19118689,12.4675882 9,12.2543332 9,12 L9,9 L9.0058978,8.91217539 C9.03241185,8.69118689 9.24566675,8.5 9.5,8.5 L12.49,8.5 Z" id="形状结合"></path>
                </g>
            </g>
        </g>
    </g>
</svg>