<?xml version="1.0" encoding="UTF-8"?>
<svg width="24px" height="24px" viewBox="0 0 24 24" version="1.1" xmlns="http://www.w3.org/2000/svg" xmlns:xlink="http://www.w3.org/1999/xlink">
    <title>课程备份 26</title>
    <g id="首页" stroke="none" stroke-width="1" fill="none" fill-rule="evenodd">
        <g id="切图" transform="translate(-56.000000, -214.000000)" fill="#FFFFFF">
            <g id="编组" transform="translate(32.000000, 48.000000)">
                <g id="编组-43" transform="translate(24.000000, 166.000000)">
                    <path d="M17,4 C18.1045695,4 19,4.8954305 19,6 L19,18 C19,19.1045695 18.1045695,20 17,20 L7,20 C5.8954305,20 5,19.1045695 5,18 L5,6 C5,4.8954305 5.8954305,4 7,4 L17,4 Z M12.5,16 L8.5,16 C8.22385763,16 8,16.2238576 8,16.5 C8,16.7761424 8.22385763,17 8.5,17 L8.5,17 L12.5,17 C12.7761424,17 13,16.7761424 13,16.5 C13,16.2238576 12.7761424,16 12.5,16 L12.5,16 Z M15.5,13 L8.5,13 C8.22385763,13 8,13.2238576 8,13.5 C8,13.7761424 8.22385763,14 8.5,14 L8.5,14 L15.5,14 C15.7761424,14 16,13.7761424 16,13.5 C16,13.2238576 15.7761424,13 15.5,13 L15.5,13 Z M10.75,8 L9,8 C8.44771525,8 8,8.44771525 8,9 L8,9 L8,10 C8,10.5522847 8.44771525,11 9,11 L9,11 L10.75,11 C11.3022847,11 11.75,10.5522847 11.75,10 L11.75,10 L11.75,9 C11.75,8.44771525 11.3022847,8 10.75,8 L10.75,8 Z" id="形状结合"></path>
                </g>
            </g>
        </g>
    </g>
</svg>