<?xml version="1.0" encoding="UTF-8"?>
<svg width="24px" height="24px" viewBox="0 0 24 24" version="1.1" xmlns="http://www.w3.org/2000/svg" xmlns:xlink="http://www.w3.org/1999/xlink">
    <title>编组 14</title>
    <g id="首页" stroke="none" stroke-width="1" fill="none" fill-rule="evenodd">
        <g id="切图" transform="translate(-184.000000, -239.000000)">
            <g id="编组-27备份-2" transform="translate(160.000000, 72.000000)">
                <g id="编组-14" transform="translate(24.000000, 167.000000)">
                    <rect id="矩形" fill="#000000" fill-rule="nonzero" opacity="0" x="0" y="0" width="24" height="24"></rect>
                    <g id="编组-43备份" transform="translate(4.500000, 3.500000)">
                        <path d="M11.5252057,0 C11.801348,0 12.0252057,0.223857625 12.0252057,0.5 C12.0252057,0.745459889 11.8483305,0.94960837 11.6150813,0.991944331 L11.5252057,1 L2.5,1 C1.72030388,1 1.07955132,1.59488808 1.00686658,2.35553999 L1,2.5 L1,14.5 C1,15.2796961 1.59488808,15.9204487 2.35553999,15.9931334 L2.5,16 L12.5,16 C13.2796961,16 13.9204487,15.4051119 13.9931334,14.64446 L14,14.5 L14,4.35722956 C14,4.08108719 14.2238576,3.85722956 14.5,3.85722956 C14.7454599,3.85722956 14.9496084,4.03410472 14.9919443,4.26735393 L15,4.35722956 L15,14.5 C15,15.8254834 13.9684641,16.9100387 12.6643757,16.9946823 L12.5,17 L2.5,17 C1.1745166,17 0.089961328,15.9684641 0.00531767968,14.6643757 L0,14.5 L0,2.5 C0,1.1745166 1.03153594,0.089961328 2.33562431,0.00531767968 L2.5,0 L11.5252057,0 Z" id="路径" fill="#979797" fill-rule="nonzero"></path>
                        <rect id="矩形备份-29" stroke="#979797" fill="#D8D8D8" x="4" y="13" width="4" height="1" rx="0.5"></rect>
                        <path d="M6.25,4.5 C6.80228475,4.5 7.25,4.94771525 7.25,5.5 L7.25,6.5 C7.25,7.05228475 6.80228475,7.5 6.25,7.5 L4.5,7.5 C3.94771525,7.5 3.5,7.05228475 3.5,6.5 L3.5,5.5 C3.5,4.94771525 3.94771525,4.5 4.5,4.5 L6.25,4.5 Z M6.25,5.5 L4.5,5.5 L4.5,6.5 L6.25,6.5 L6.25,5.5 Z" id="矩形备份-33" fill="#979797" fill-rule="nonzero"></path>
                        <rect id="矩形备份-28" stroke="#979797" fill="#D8D8D8" x="4" y="10" width="7" height="1" rx="0.5"></rect>
                    </g>
                </g>
            </g>
        </g>
    </g>
</svg>