<?xml version="1.0" encoding="UTF-8"?>
<svg width="16px" height="16px" viewBox="0 0 16 16" version="1.1" xmlns="http://www.w3.org/2000/svg" xmlns:xlink="http://www.w3.org/1999/xlink">
    <title>编组</title>
    <defs>
        <filter x="-30.4%" y="-89.5%" width="160.7%" height="278.9%" filterUnits="objectBoundingBox" id="filter-1">
            <feOffset dx="0" dy="4" in="SourceAlpha" result="shadowOffsetOuter1"></feOffset>
            <feGaussianBlur stdDeviation="6" in="shadowOffsetOuter1" result="shadowBlurOuter1"></feGaussianBlur>
            <feColorMatrix values="0 0 0 0 0.458538372   0 0 0 0 0.566742322   0 0 0 0 1  0 0 0 0.2 0" type="matrix" in="shadowBlurOuter1" result="shadowMatrixOuter1"></feColorMatrix>
            <feMerge>
                <feMergeNode in="shadowMatrixOuter1"></feMergeNode>
                <feMergeNode in="SourceGraphic"></feMergeNode>
            </feMerge>
        </filter>
    </defs>
    <g id="页面-1" stroke="none" stroke-width="1" fill="none" fill-rule="evenodd">
        <g id="应用配置-开发态" transform="translate(-736.000000, -502.000000)">
            <g id="编组-17" transform="translate(112.000000, 72.000000)">
                <g id="编组-22" transform="translate(40.000000, 132.000000)">
                    <g id="编组-5备份-4" filter="url(#filter-1)" transform="translate(566.000000, 287.000000)">
                        <g id="编组-7" transform="translate(18.000000, 11.000000)">
                            <g id="编组" transform="translate(1.710936, 0.532053)" fill-rule="nonzero">
                                <path d="M0.132418784,4.85232558 C0.132418784,6.58586338 1.11394261,8.18775836 2.70749683,9.05455425 C4.30105104,9.92135013 6.26441944,9.92135013 7.85797365,9.05455425 C9.45152786,8.18775836 10.4330517,6.58586338 10.4330517,4.85232558 C10.4330517,3.11878778 9.45152786,1.5168928 7.85797365,0.650096916 C6.26441944,-0.216698972 4.30105104,-0.216698972 2.70749683,0.650096916 C1.11394261,1.5168928 0.132418784,3.11878778 0.132418784,4.85232558 Z" id="路径" fill="#8CF6FB"></path>
                                <path d="M0.709450005,7.73471856 L1.75,7.73471856 C1.9432,7.73471856 2.1,7.89011856 2.1,8.08471855 C2.1,8.27791855 1.9446,8.43471855 1.75,8.43471855 L0.709450005,8.43471855 C0.884800005,11.6354686 3.44925,14.1999185 6.65000001,14.3752685 L6.65000001,13.3347185 C6.65000001,13.1401186 6.8068,12.9847186 7,12.9847186 C7.19459999,12.9847186 7.34999999,13.1415185 7.34999999,13.3347185 L7.34999999,14.3752685 C10.55075,14.1999185 13.1152,11.6354686 13.29055,8.43471855 L12.25,8.43471855 C12.0568,8.43471855 11.9,8.27931855 11.9,8.08471855 C11.9,7.89151855 12.0554,7.73471856 12.25,7.73471856 L13.29055,7.73471856 C13.1152,4.53396855 10.55075,1.96951856 7.34999999,1.79416856 L7.34999999,2.83471856 C7.34999999,3.02791856 7.19459999,3.18471855 7,3.18471855 C6.8068,3.18471855 6.65000001,3.02931855 6.65000001,2.83471856 L6.65000001,1.79416856 C3.44925,1.96951856 0.884800005,4.53396855 0.709450005,7.73471856 Z M7,15.0847186 C3.1339,15.0847186 0,11.9508185 0,8.08471855 C0,4.21861856 3.1339,1.08471855 7,1.08471855 C10.8661,1.08471855 14,4.21861856 14,8.08471855 C14,11.9508185 10.8661,15.0847186 7,15.0847186 Z M10.3445497,4.74051886 C10.4244625,4.82043172 10.4369306,4.94561333 10.37435,5.03971856 L8.13938475,9.08674508 C8.12179005,9.11305536 8.09919504,9.13565038 8.07288476,9.15324509 L3.9543,11.4594186 C3.8601448,11.5210605 3.73566231,11.5082098 3.65608552,11.428633 C3.57650874,11.3490562 3.56365806,11.2245737 3.6253,11.1304186 L5.92016434,7.16519688 C5.93768698,7.13892387 5.96029924,7.11643062 5.98666435,7.09904688 L10.045,4.71071856 C10.1394552,4.64813791 10.2646368,4.66060601 10.3445497,4.74051886 Z M7.77048476,8.78434508 L6.28906435,7.46794689 L4.67390001,10.4108185 L7.77048476,8.78434508 Z" id="形状" stroke="#5A73FF" stroke-width="0.5" fill="#5A73FF"></path>
                            </g>
                            <g id="编组" transform="translate(2.000000, 2.000000)"></g>
                        </g>
                    </g>
                </g>
            </g>
        </g>
    </g>
</svg>