<?xml version="1.0" encoding="UTF-8"?>
<svg width="14px" height="14px" viewBox="0 0 14 14" version="1.1" xmlns="http://www.w3.org/2000/svg" xmlns:xlink="http://www.w3.org/1999/xlink">
    <title>编组 59</title>
    <g id="页面-1" stroke="none" stroke-width="1" fill="none" fill-rule="evenodd">
        <g id="教师端评价" transform="translate(-980.000000, -238.000000)">
            <g id="编组-59" transform="translate(980.000000, 238.000000)">
                <circle id="形状结合" fill="#FF8000" cx="7" cy="7" r="7"></circle>
                <path d="M7,11.4606241 C7.55228475,11.4606241 8,11.0129088 8,10.4606241 C8,9.9083393 7.55228475,9.46062405 7,9.46062405 C6.44771525,9.46062405 6,9.9083393 6,10.4606241 C6,11.0129088 6.44771525,11.4606241 7,11.4606241 Z" id="形状结合" fill="#FFF5EB" fill-rule="nonzero"></path>
                <path d="M7,2 C7.51424294,2 7.9311192,2.41687627 7.9311192,2.9311192 C7.9311192,2.95325346 7.93032995,2.97538069 7.92875295,2.9974587 L7.53562352,8.50127065 C7.51555147,8.78227946 7.28172476,9 7,9 C6.71827524,9 6.48444853,8.78227946 6.46437648,8.50127065 L6.07124705,2.9974587 C6.03460876,2.48452261 6.42072441,2.03900455 6.9336605,2.00236625 C6.95573852,2.00078925 6.97786574,2 7,2 Z" id="矩形" fill="#FFFFFF"></path>
            </g>
        </g>
    </g>
</svg>