<?xml version="1.0" encoding="UTF-8"?>
<svg width="24px" height="24px" viewBox="0 0 24 24" version="1.1" xmlns="http://www.w3.org/2000/svg" xmlns:xlink="http://www.w3.org/1999/xlink">
    <title>课程备份 3</title>
    <g id="首页" stroke="none" stroke-width="1" fill="none" fill-rule="evenodd">
        <g id="切图" transform="translate(-56.000000, -79.000000)" fill-rule="nonzero">
            <g id="编组" transform="translate(32.000000, 48.000000)">
                <g id="课程备份-3" transform="translate(24.000000, 31.000000)">
                    <rect id="矩形" fill="#000000" opacity="0" x="0" y="0" width="24" height="24"></rect>
                    <g id="编组-57备份" transform="translate(3.000000, 4.000000)" fill="#999999">
                        <path d="M6,0 C7.1045695,0 8,0.8954305 8,2 L8,14 C8,15.1045695 7.1045695,16 6,16 L2,16 C0.8954305,16 0,15.1045695 0,14 L0,2 C0,0.8954305 0.8954305,0 2,0 L6,0 Z M16,10 C17.1045695,10 18,10.8954305 18,12 L18,14 C18,15.1045695 17.1045695,16 16,16 L12,16 C10.8954305,16 10,15.1045695 10,14 L10,12 C10,10.8954305 10.8954305,10 12,10 L16,10 Z M6,1 L2,1 C1.48716416,1 1.06449284,1.38604019 1.00672773,1.88337887 L1,2 L1,14 C1,14.5128358 1.38604019,14.9355072 1.88337887,14.9932723 L2,15 L6,15 C6.51283584,15 6.93550716,14.6139598 6.99327227,14.1166211 L7,14 L7,2 C7,1.44771525 6.55228475,1 6,1 Z M16,11 L12,11 C11.4871642,11 11.0644928,11.3860402 11.0067277,11.8833789 L11,12 L11,14 C11,14.5128358 11.3860402,14.9355072 11.8833789,14.9932723 L12,15 L16,15 C16.5128358,15 16.9355072,14.6139598 16.9932723,14.1166211 L17,14 L17,12 C17,11.4477153 16.5522847,11 16,11 Z M14,0 C16.209139,0 18,1.790861 18,4 C18,6.14219539 16.3160315,7.89107888 14.1996403,7.99510469 L14,8 C11.790861,8 10,6.209139 10,4 C10,1.85780461 11.6839685,0.108921124 13.8003597,0.00489530723 L14,0 Z M14,1 C12.3431458,1 11,2.34314575 11,4 C11,5.65685425 12.3431458,7 14,7 C15.6568542,7 17,5.65685425 17,4 C17,2.34314575 15.6568542,1 14,1 Z" id="形状结合"></path>
                    </g>
                </g>
            </g>
        </g>
    </g>
</svg>