<?xml version="1.0" encoding="UTF-8"?>
<svg width="24px" height="24px" viewBox="0 0 24 24" version="1.1" xmlns="http://www.w3.org/2000/svg" xmlns:xlink="http://www.w3.org/1999/xlink">
    <title>形状</title>
    <g id="页面-1" stroke="none" stroke-width="1" fill="none" fill-rule="evenodd">
        <g id="加载" transform="translate(-910.000000, -460.000000)" fill="#5A73FF" fill-rule="nonzero">
            <g id="编组-5" transform="translate(112.000000, 272.000000)">
                <g id="编组-18" transform="translate(777.000000, 188.000000)">
                    <g id="加载" transform="translate(21.000000, 0.000000)">
                        <path d="M12.8077241,6.24124139 C11.0871724,6.24124139 9.68689655,4.84137933 9.68689655,3.12082758 C9.68689655,1.40068966 11.0871724,0 12.8077241,0 C14.5282759,0 15.9277241,1.39986206 15.9277241,3.12082758 C15.9277241,4.8413793 14.5282759,6.24124139 12.8077241,6.24124139 Z M6.16427585,8.71944827 C4.59268964,8.71944827 3.31365518,7.44082758 3.31365518,5.86841379 C3.31365518,4.296 4.59268966,3.0173793 6.16427585,3.0173793 C7.73787371,3.0194319 9.012887,4.29481541 9.01448276,5.86841379 C9.01448276,7.44 7.73586206,8.71944827 6.16427585,8.71944827 L6.16427585,8.71944827 Z M3.34096552,15.1684138 C1.95294748,15.1670442 0.828270406,14.0418116 0.827586211,12.6537931 C0.828954813,11.2662593 1.95343174,10.1417824 3.34096552,10.1404138 C4.72833769,10.1420104 5.85256283,11.2664207 5.85393103,12.6537931 C5.853019,14.0414887 4.72866049,15.1664026 3.34096552,15.168 L3.34096552,15.1684138 Z M6.16427585,21.5573793 C4.9875153,21.5560107 4.03396772,20.602278 4.03282758,19.4255172 C4.0344226,18.2491737 4.98751882,17.2958924 6.16386206,17.294069 C7.3403669,17.2956645 8.29371477,18.2490124 8.29531034,19.4255172 C8.29531034,20.6006897 7.33944827,21.5573793 6.16427585,21.5573793 L6.16427585,21.5573793 Z M12.8077241,24 C11.7797101,23.9990874 10.9465678,23.1659451 10.9456552,22.137931 C10.9456552,21.1108965 11.7811035,20.2758621 12.8077241,20.2758621 C13.8355766,20.2770027 14.6684671,21.1100784 14.6693793,22.137931 C14.6693793,23.1649655 13.8343448,24 12.8073103,24 L12.8077241,24 Z M19.5517241,20.8526897 C18.7220754,20.8517775 18.0497398,20.1794418 18.0488276,19.3497931 C18.0497398,18.5201444 18.7220754,17.8478087 19.5517241,17.8468965 C20.3813728,17.8478088 21.0537085,18.5201444 21.0546207,19.3497931 C21.0537085,20.1794418 20.3813729,20.8517775 19.5517241,20.8526897 L19.5517241,20.8526897 Z M22.3137931,13.8988965 C21.6331469,13.8979848 21.0816014,13.3464393 21.0806897,12.6657931 C21.0813735,11.9849853 21.6329856,11.4331881 22.3137931,11.4322759 C22.9945066,11.4331871 23.5461707,11.9846662 23.5473103,12.6653793 C23.5461713,13.3461597 22.9945735,13.8977575 22.3137931,13.8988965 L22.3137931,13.8988965 Z M18.5950345,5.96068966 C18.5949606,6.30255588 18.7772757,6.61849273 19.0733036,6.78948986 C19.3693314,6.96048698 19.7340984,6.96056585 20.0302001,6.78969675 C20.3263019,6.61882765 20.5087537,6.30296967 20.5088276,5.96110345 C20.5088276,5.43262408 20.0804104,5.00420691 19.551931,5.00420691 C19.0234517,5.00420691 18.5950345,5.43262408 18.5950345,5.96110345 L18.5950345,5.96068966 Z" id="形状"></path>
                    </g>
                </g>
            </g>
        </g>
    </g>
</svg>