<?xml version="1.0" encoding="UTF-8"?>
<svg width="16px" height="16px" viewBox="0 0 16 16" version="1.1" xmlns="http://www.w3.org/2000/svg" xmlns:xlink="http://www.w3.org/1999/xlink">
    <title>常用购票人／编辑32</title>
    <g id="页面-1" stroke="none" stroke-width="1" fill="none" fill-rule="evenodd">
        <g id="首页" transform="translate(-214.000000, -124.000000)" fill-rule="nonzero">
            <g id="编组-5" transform="translate(46.000000, 116.000000)">
                <g id="常用购票人／编辑32" transform="translate(168.000000, 8.000000)">
                    <rect id="矩形" fill="#000000" opacity="0" x="0" y="0" width="16" height="16"></rect>
                    <path d="M12.284,3.312 C12.4738226,3.11757837 12.784168,3.11034095 12.9828473,3.2957025 C13.1815266,3.48106405 13.1958051,3.79116533 13.015,3.994 L7.56,9.845 C7.43817243,9.97566989 7.25588756,10.0314196 7.08181033,9.9912488 C6.90773311,9.95107798 6.76830999,9.82108951 6.71606033,9.65024879 C6.66381067,9.47940808 6.70667243,9.29366989 6.8285,9.163 L12.284,3.312 Z" id="形状" fill="#979797"></path>
                    <path d="M8.9630969,2 C9.23923928,2 9.4630969,2.22385763 9.4630969,2.5 C9.4630969,2.74545989 9.28622174,2.94960837 9.05297253,2.99194433 L8.9630969,3 L4,3 C3.75454011,3 3.55039163,3.17687516 3.50805567,3.41012437 L3.5,3.5 L3.5,12.5 C3.5,12.7454599 3.67687516,12.9496084 3.91012437,12.9919443 L4,13 L12.0833333,13 C12.3287932,13 12.5329417,12.8231248 12.5752777,12.5898756 L12.5833333,12.5 L12.5833333,8.22798977 C12.5833333,7.95184739 12.807191,7.72798977 13.0833333,7.72798977 C13.3287932,7.72798977 13.5329417,7.90486493 13.5752777,8.13811413 L13.5833333,8.22798977 L13.5833333,12.5 C13.5833333,13.2796961 12.9884453,13.9204487 12.2277933,13.9931334 L12.0833333,14 L4,14 C3.22030388,14 2.57955132,13.4051119 2.50686658,12.64446 L2.5,12.5 L2.5,3.5 C2.5,2.72030388 3.09488808,2.07955132 3.85553999,2.00686658 L4,2 L8.9630969,2 Z" id="路径" fill="#979797"></path>
                </g>
            </g>
        </g>
    </g>
</svg>