<?xml version="1.0" encoding="UTF-8"?>
<svg width="16px" height="16px" viewBox="0 0 16 16" version="1.1" xmlns="http://www.w3.org/2000/svg" xmlns:xlink="http://www.w3.org/1999/xlink">
    <title>专业首页备份</title>
    <g id="页面-1" stroke="none" stroke-width="1" fill="none" fill-rule="evenodd">
        <g id="培养方案" transform="translate(-1184.000000, -188.000000)" fill="#8675F6">
            <g id="编组-12" transform="translate(148.000000, 137.000000)">
                <g id="编组-2" transform="translate(41.000000, 42.000000)">
                    <g id="编组-7备份-2" transform="translate(979.000000, 0.000000)">
                        <g id="编组-6" transform="translate(16.000000, 9.000000)">
                            <path d="M7.53846154,8.46153846 L7.53846154,11.2307692 C7.53846154,12.7601732 6.29863469,14 4.76923077,14 C3.23982685,14 2,12.7601732 2,11.2307692 C2,9.70136531 3.23982685,8.46153846 4.76923077,8.46153846 L7.53846154,8.46153846 Z M11.2307692,8.46153846 C12.7601732,8.46153846 14,9.70136531 14,11.2307692 C14,12.7601732 12.7601732,14 11.2307692,14 C9.70136531,14 8.46153846,12.7601732 8.46153846,11.2307692 L8.46153846,8.46153846 L11.2307692,8.46153846 Z M4.76923077,2 C6.29863469,2 7.53846154,3.23982685 7.53846154,4.76923077 L7.53846154,7.53846154 L4.76923077,7.53846154 C3.23982685,7.53846154 2,6.29863469 2,4.76923077 C2,3.23982685 3.23982685,2 4.76923077,2 Z M11.2307692,2 C12.7601732,2 14,3.23982685 14,4.76923077 C14,6.29863469 12.7601732,7.53846154 11.2307692,7.53846154 L8.46153846,7.53846154 L8.46153846,4.76923077 C8.46153846,3.23982685 9.70136531,2 11.2307692,2 Z" id="形状结合"></path>
                        </g>
                    </g>
                </g>
            </g>
        </g>
    </g>
</svg>