<?xml version="1.0" encoding="UTF-8"?>
<svg width="12px" height="12px" viewBox="0 0 12 12" version="1.1" xmlns="http://www.w3.org/2000/svg" xmlns:xlink="http://www.w3.org/1999/xlink">
    <title>1.Bace基础/3.Icon图标/箭头/chevron-down备份 6</title>
    <g id="页面-1" stroke="none" stroke-width="1" fill="none" fill-rule="evenodd">
        <g id="学习详情" transform="translate(-388.000000, -109.000000)">
            <g id="编组-5" transform="translate(96.000000, 72.000000)">
                <g id="编组-3" transform="translate(224.548673, 31.000000)">
                    <g id="1.Bace基础/3.Icon图标/箭头/chevron-down备份-6" transform="translate(73.451328, 12.000001) scale(1, -1) translate(-73.451328, -12.000001) translate(67.451327, 6.000000)">
                        <path d="M12.0000005,5.24536517e-07 L12.0000005,12.0000005 L5.24536517e-07,12.0000005 L5.24536517e-07,5.24536517e-07 L12.0000005,5.24536517e-07 Z" id="矩形" opacity="0.600000024" transform="translate(6.000001, 6.000001) rotate(-179.999995) translate(-6.000001, -6.000001) "></path>
                        <path d="M6.13882217,3.17352745 L9.76893331,7.71116637 C9.83026834,7.78783516 9.81783787,7.89970936 9.74116908,7.96104439 C9.70964676,7.98626225 9.67048045,8.00000105 9.63011219,8.00000105 L2.36988991,8.00000105 C2.27170596,8.00000105 2.19211213,7.92040723 2.19211213,7.82222327 C2.19211213,7.78185501 2.20585093,7.74268869 2.23106879,7.71116637 L5.86117993,3.17352745 C5.92251496,3.09685866 6.03438916,3.0844282 6.11105795,3.14576323 C6.12130945,3.15396443 6.13062097,3.16327595 6.13882217,3.17352745 Z" id="三角形备份" fill="#888888"></path>
                    </g>
                </g>
            </g>
        </g>
    </g>
</svg>