<?xml version="1.0" encoding="UTF-8"?>
<svg width="20px" height="20px" viewBox="0 0 20 20" version="1.1" xmlns="http://www.w3.org/2000/svg" xmlns:xlink="http://www.w3.org/1999/xlink">
    <title>编组</title>
    <g id="定稿" stroke="none" stroke-width="1" fill="none" fill-rule="evenodd">
        <g id="（教师端）科研项目-项目介绍" transform="translate(-246.000000, -927.000000)" fill-rule="nonzero">
            <g id="编组-12" transform="translate(176.000000, 466.000000)">
                <g id="编组-22" transform="translate(40.000000, 66.000000)">
                    <g id="编组-45" transform="translate(0.000000, 380.000000)">
                        <g id="编组-19" transform="translate(30.000000, 12.000000)">
                            <g id="编组" transform="translate(0.000000, 3.000000)">
                                <path d="M0,6.57142857 C0,8.9191739 1.25250717,11.0885801 3.28571426,12.2624527 C5.31892135,13.4363254 7.8239358,13.4363254 9.85714289,12.2624527 C11.89035,11.0885801 13.1428571,8.9191739 13.1428571,6.57142857 C13.1428571,2.94212879 10.2007284,0 6.57142857,0 C2.94212879,0 0,2.94212879 0,6.57142857 L0,6.57142857 Z" id="路径" fill="#8CF6FB"></path>
                                <path d="M13.708047,10.5178718 C14.9805907,9.6757243 15.8164733,8.26430187 15.8164733,6.66805483 C15.8164733,4.09436265 13.6420355,2 10.9690633,2 C8.29609104,2 6.12165324,4.09398313 6.12165324,6.66805483 C6.12165324,8.27322051 6.96699426,9.69147424 8.25116382,10.5319139 C5.18724599,11.6116387 3,14.4445408 3,17.7692964 C3,17.9231272 3.0046635,18.0758826 3.01399049,18.2275628 C3.01596098,18.2573549 3.01793148,18.2869572 3.02009902,18.3167492 C3.06238463,18.7224496 3.42995799,19.023498 3.85257001,18.9985561 C4.27518204,18.9736143 4.60183013,18.6315941 4.59235449,18.2239574 C4.59235449,18.2121924 4.59235449,18.2006171 4.59136925,18.1890419 L4.59136925,18.1721534 C4.58230498,18.0393225 4.57737875,17.9047839 4.57737875,17.7692964 C4.57737875,15.1603092 6.25485849,12.9285615 8.62772482,12.0196191 C8.83514191,12.5175796 9.20745049,12.9356792 9.68686421,13.2090243 L9.04941008,15.3696126 C8.99748282,15.5480494 9.03382852,15.7395744 9.14793468,15.8887914 L10.4388039,17.5634087 C10.555771,17.7148813 10.7402387,17.804157 10.9362546,17.804157 C11.1322705,17.804157 11.3167381,17.7148813 11.4337053,17.5634087 L12.7253627,15.8880324 C12.8400189,15.7408159 12.8770171,15.550606 12.8254637,15.3734078 L12.2132319,13.2308465 C12.7178756,12.9546717 13.1086383,12.5198817 13.3200571,11.999315 C15.7212986,12.8951641 17.4240006,15.1405743 17.4240006,17.7692964 C17.4240006,17.8949165 17.4196655,18.0193979 17.4119806,18.1431203 C17.4107983,18.1620962 17.409616,18.1824003 17.4080396,18.2019454 L17.4080396,18.2235779 C17.4020451,18.6305951 17.730521,18.969705 18.1525723,18.992214 C18.5746237,19.0147231 18.9399755,18.7126166 18.9806892,18.3074511 C18.9820685,18.2860084 18.9836449,18.2645657 18.9850243,18.243123 C18.9948767,18.0863826 19,17.9282507 19,17.7687272 C19.0003941,14.4297397 16.7934432,11.5865906 13.708047,10.5178718 Z M10.9690633,3.51844613 C12.7728515,3.51844613 14.2400798,4.93157638 14.2400798,6.66843435 C14.2400798,8.40529231 12.7728515,9.81842256 10.9690633,9.81842256 C9.16527501,9.81842256 7.69804675,8.40548206 7.69804675,6.66843435 C7.69804675,4.93138663 9.16547206,3.51844613 10.9692603,3.51844613 L10.9690633,3.51844613 Z M10.9377325,15.9988513 L10.3499347,15.2354535 L10.7972364,13.7158688 L11.0928102,13.7158688 L11.5276977,15.2339354 L10.9377325,15.9988513 Z M10.9690633,12.0285378 C10.6569062,12.0285302 10.3648551,11.8802037 10.1885514,11.6321326 C10.70815,11.5690217 11.2337851,11.566919 11.7539102,11.6258706 C11.5783999,11.8776436 11.2841542,12.0286448 10.9692603,12.0285378 L10.9690633,12.0285378 Z" id="形状" fill="#5A73FF"></path>
                            </g>
                        </g>
                    </g>
                </g>
            </g>
        </g>
    </g>
</svg>