<?xml version="1.0" encoding="UTF-8"?>
<svg width="16px" height="16px" viewBox="0 0 16 16" version="1.1" xmlns="http://www.w3.org/2000/svg" xmlns:xlink="http://www.w3.org/1999/xlink">
    <title>编组 15备份 2</title>
    <g id="定稿" stroke="none" stroke-width="1" fill="none" fill-rule="evenodd">
        <g id="弹窗" transform="translate(-1814.000000, -4228.000000)" fill="" fill-rule="nonzero">
            <g id="编组-66" transform="translate(1443.000000, 3797.000000)">
                <g id="编组-51备份-2" transform="translate(0.000000, 313.000000)">
                    <g id="编组-15备份-2" transform="translate(371.000000, 118.000000)">
                        <path d="M8,0 C12.418278,0 16,3.581722 16,8 C16,12.418278 12.418278,16 8,16 C3.581722,16 0,12.418278 0,8 C0,3.581722 3.581722,0 8,0 Z M8,2 C4.6862915,2 2,4.6862915 2,8 C2,11.3137085 4.6862915,14 8,14 C11.3137085,14 14,11.3137085 14,8 C14,4.6862915 11.3137085,2 8,2 Z" id="Oval"></path>
                    </g>
                </g>
            </g>
        </g>
    </g>
</svg>