<?xml version="1.0" encoding="UTF-8"?>
<svg width="20px" height="20px" viewBox="0 0 20 20" version="1.1" xmlns="http://www.w3.org/2000/svg" xmlns:xlink="http://www.w3.org/1999/xlink">
    <title>清除_面</title>
    <g id="builder-初始化" stroke="none" stroke-width="1" fill="none" fill-rule="evenodd">
        <g id="新建数据集" transform="translate(-395.000000, -837.000000)">
            <g id="清除_面备份" transform="translate(395.000000, 837.000000)">
                <path d="M10,1.66666667 C14.6023729,1.66666667 18.3333333,5.39762709 18.3333333,10 C18.3333333,14.6023729 14.6023729,18.3333333 10,18.3333333 C5.39762709,18.3333333 1.66666667,14.6023729 1.66666667,10 C1.66666667,5.39762709 5.39762709,1.66666667 10,1.66666667 Z" id="清除" fill="#999999"></path>
                <path d="M13.5742417,6.42575832 C13.8085861,6.66010275 13.8085861,7.04005014 13.5742417,7.27439457 L10.8489191,9.99971712 L13.5742417,12.7256054 C13.8085861,12.9599499 13.8085861,13.3398972 13.5742417,13.5742417 C13.3398972,13.8085861 12.9599499,13.8085861 12.7256054,13.5742417 L10.0002829,10.8483534 L7.27439457,13.5742417 C7.04005014,13.8085861 6.66010275,13.8085861 6.42575832,13.5742417 C6.19141389,13.3398972 6.19141389,12.9599499 6.42575832,12.7256054 L9.15164663,9.99971712 L6.42575832,7.27439457 C6.19141389,7.04005014 6.19141389,6.66010275 6.42575832,6.42575832 C6.66010275,6.19141389 7.04005014,6.19141389 7.27439457,6.42575832 L10.0002829,9.15108087 L12.7256054,6.42575832 C12.9599499,6.19141389 13.3398972,6.19141389 13.5742417,6.42575832 Z" id="路径" fill="#FFFFFF"></path>
            </g>
        </g>
    </g>
</svg>