<?xml version="1.0" encoding="UTF-8"?>
<svg width="16px" height="16px" viewBox="0 0 16 16" version="1.1" xmlns="http://www.w3.org/2000/svg" xmlns:xlink="http://www.w3.org/1999/xlink">
    <title>编组 15备份 2</title>
    <g id="定稿" stroke="none" stroke-width="1" fill="none" fill-rule="evenodd">
        <g id="弹窗" transform="translate(-1898.000000, -3894.000000)">
            <g id="编组-66" transform="translate(1443.000000, 3797.000000)">
                <g id="编组-50" transform="translate(455.000000, 97.000000)">
                    <g id="编组-16" transform="translate(1.000000, 1.100000)">
                        <path d="M7,0 C9.6649906,0 11.8616576,1.98455409 11.9784497,4.50302515 L11.9833333,4.71410256 L11.9833333,6.73333333 L10.1833333,6.73333333 L10.1833333,4.71410256 C10.1833333,3.11892538 8.77130734,1.8 7,1.8 C5.29195364,1.8 3.91798393,3.02639873 3.82202187,4.54429531 L3.81666667,4.71410256 L3.81666667,6.73333333 L2.01666667,6.73333333 L2.01666667,4.71410256 C2.01666667,2.09633839 4.26098188,0 7,0 Z" id="路径" fill="#5A73FF" fill-rule="nonzero"></path>
                        <path d="M11.6,5.56666667 C12.9254834,5.56666667 14,6.64118327 14,7.96666667 L14,12.5 C14,13.8254834 12.9254834,14.9 11.6,14.9 L2.4,14.9 C1.0745166,14.9 0,13.8254834 0,12.5 L0,7.96666667 C0,6.64118327 1.0745166,5.56666667 2.4,5.56666667 L11.6,5.56666667 Z" id="矩形" fill="#5A73FF" fill-rule="nonzero"></path>
                        <path d="M11.6,5.56666667 C12.9254834,5.56666667 14,6.64118327 14,7.96666667 L14,12.5 C14,13.8254834 12.9254834,14.9 11.6,14.9 L9.26666667,14.9 C10.5369216,14.9 11.5766879,13.913161 11.6611298,12.6643187 L11.6666667,12.5 L11.6666667,7.96666667 C11.6666667,6.69641174 10.6798276,5.65664542 9.4309854,5.57220353 L9.26666667,5.56666667 L11.6,5.56666667 Z" id="形状结合" fill="#3D59F7" fill-rule="nonzero"></path>
                        <rect id="矩形" fill="#FFFFFF" x="6.41666667" y="9.65" width="1.16666667" height="3.5" rx="0.583333333"></rect>
                        <circle id="椭圆形" fill="#FFFFFF" cx="7" cy="9.06666667" r="1.75"></circle>
                    </g>
                </g>
            </g>
        </g>
    </g>
</svg>