<?xml version="1.0" encoding="UTF-8"?>
<svg width="24px" height="24px" viewBox="0 0 24 24" version="1.1" xmlns="http://www.w3.org/2000/svg" xmlns:xlink="http://www.w3.org/1999/xlink">
    <title>切图建议用2x</title>
    <g id="定稿" stroke="none" stroke-width="1" fill="none" fill-rule="evenodd">
        <g id="初始化设置画板状态补充" transform="translate(-349.000000, -792.000000)">
            <g id="无图标对话框备份-2" transform="translate(157.000000, 764.000000)">
                <g id="icon-exclamation-circle-fill" transform="translate(192.000000, 28.000000)">
                    <rect id="矩形" x="0" y="0" width="24" height="24"></rect>
                    <path d="M12,0 C18.627417,0 24,5.372583 24,12 C24,18.627417 18.627417,24 12,24 C5.372583,24 0,18.627417 0,12 C0,5.372583 5.372583,0 12,0 Z M12.375,9 C12.1111111,9 11.9201389,9.05037313 11.8020833,9.1511194 C11.6840278,9.25186567 11.625,9.43097015 11.625,9.68843284 L11.625,9.68843284 L11.625,17.3115672 L11.629919,17.4337687 C11.6463156,17.6265547 11.7037037,17.7649254 11.8020833,17.8488806 C11.9201389,17.9496269 12.1111111,18 12.375,18 C12.6388889,18 12.8298611,17.9524254 12.9479167,17.8572761 C13.0659722,17.7621269 13.125,17.5746269 13.125,17.2947761 L13.125,17.2947761 L13.125,9.70522388 L13.120081,9.58278918 C13.1036844,9.38922575 13.0462963,9.24813433 12.9479167,9.15951493 C12.8298611,9.05317164 12.6388889,9 12.375,9 Z M12.375,5.25 C12.0727612,5.25 11.8097015,5.3619403 11.5858209,5.5858209 C11.3619403,5.80970149 11.25,6.07276119 11.25,6.375 C11.25,6.67723881 11.3619403,6.94029851 11.5858209,7.1641791 C11.8097015,7.3880597 12.0727612,7.5 12.375,7.5 C12.6772388,7.5 12.9402985,7.3880597 13.1641791,7.1641791 C13.3880597,6.94029851 13.5,6.67723881 13.5,6.375 C13.5,6.07276119 13.3880597,5.80970149 13.1641791,5.5858209 C12.9402985,5.3619403 12.6772388,5.25 12.375,5.25 Z" id="形状结合" fill="#5672FF"></path>
                </g>
            </g>
        </g>
    </g>
</svg>