<?xml version="1.0" encoding="UTF-8"?>
<svg width="16px" height="16px" viewBox="0 0 16 16" version="1.1" xmlns="http://www.w3.org/2000/svg" xmlns:xlink="http://www.w3.org/1999/xlink">
    <title>编组 13</title>
    <g id="builder-初始化" stroke="none" stroke-width="1" fill="none" fill-rule="evenodd">
        <g id="数据集设置-默认" transform="translate(-235.000000, -153.000000)" fill="#666666" fill-rule="nonzero">
            <g id="编组-17" transform="translate(231.000000, 145.000000)">
                <g id="编组-13" transform="translate(4.000000, 8.000000)">
                    <path d="M9.51900173,3 C10.1096731,3 10.5885069,3.49645812 10.5885069,4.10887026 C10.5885069,4.36357394 10.5039833,4.6093404 10.3508995,4.80576645 L10.2811411,4.88681041 L8.58115614,6.7302584 C8.53191424,6.78211675 8.49890411,6.847472 8.48547667,6.91784299 L8.47870089,6.98957179 L8.47870089,12.6303766 C8.47870089,12.834514 8.31908964,13 8.12219918,13 C7.94718543,13 7.80162687,12.8692456 7.77144118,12.6968169 L7.76569746,12.6303766 L7.76569746,6.98957179 C7.76569746,6.7348681 7.85022105,6.48910164 8.00330484,6.29267559 L8.07306321,6.21163163 L9.7730482,4.36818364 C9.83870406,4.29903917 9.87550344,4.20590023 9.87550344,4.10887026 C9.87550344,3.92741481 9.74939085,3.77649869 9.58308336,3.74520197 L9.51900173,3.73924684 L3.65801405,3.73924684 C3.56650254,3.73924684 3.47849535,3.77573264 3.41221316,3.84115036 C3.28544992,3.9662603 3.26697334,4.16501999 3.35977544,4.31148937 L3.39979826,4.3637183 L5.22918599,6.44541337 C5.39481136,6.62580819 5.49634282,6.85793924 5.51913778,7.10383941 L5.52404376,7.20995752 L5.52404376,10.0038633 C5.52404376,10.2080007 5.36443251,10.3734868 5.16754205,10.3734868 C4.99252831,10.3734868 4.84696974,10.2427324 4.81678406,10.0703036 L4.81104034,10.0038633 L4.81104034,7.20995752 C4.81104034,7.1387977 4.79124565,7.06968161 4.75472995,7.01057903 L4.71275441,6.95510947 L2.88336668,4.8734144 C2.47611043,4.42984155 2.49278544,3.72795663 2.92061137,3.30571056 C3.09460214,3.13398904 3.31849249,3.02872053 3.55566316,3.00508655 L3.65801405,3 L9.51900173,3 Z M13.1885069,10 C13.4094208,10 13.5885069,10.2238576 13.5885069,10.5 C13.5885069,10.7761424 13.4094208,11 13.1885069,11 L9.98850687,11 C9.76759297,11 9.58850687,10.7761424 9.58850687,10.5 C9.58850687,10.2238576 9.76759297,10 9.98850687,10 L13.1885069,10 Z M13.1885069,8 C13.4094208,8 13.5885069,8.22385763 13.5885069,8.5 C13.5885069,8.77614237 13.4094208,9 13.1885069,9 L9.98850687,9 C9.76759297,9 9.58850687,8.77614237 9.58850687,8.5 C9.58850687,8.22385763 9.76759297,8 9.98850687,8 L13.1885069,8 Z M13.1885069,6 C13.4094208,6 13.5885069,6.22385763 13.5885069,6.5 C13.5885069,6.77614237 13.4094208,7 13.1885069,7 L9.98850687,7 C9.76759297,7 9.58850687,6.77614237 9.58850687,6.5 C9.58850687,6.22385763 9.76759297,6 9.98850687,6 L13.1885069,6 Z" id="形状结合"></path>
                </g>
            </g>
        </g>
    </g>
</svg>