<?xml version="1.0" encoding="UTF-8"?>
<svg width="16px" height="16px" viewBox="0 0 16 16" version="1.1" xmlns="http://www.w3.org/2000/svg" xmlns:xlink="http://www.w3.org/1999/xlink">
    <title>常用购票人／编辑32备份</title>
    <g id="页面-1" stroke="none" stroke-width="1" fill="none" fill-rule="evenodd">
        <g id="案例档案-案例业务备份-2" transform="translate(-214.000000, -265.000000)" fill-rule="nonzero">
            <g id="编组-2" transform="translate(39.000000, 227.000000)">
                <g id="常用购票人／编辑32备份" transform="translate(175.000000, 38.000000)">
                    <rect id="矩形" fill="#000000" opacity="0" x="0" y="0" width="16" height="16"></rect>
                    <path d="M11,1 C13.209139,1 15,2.790861 15,5 L15,11 C15,13.209139 13.209139,15 11,15 L5,15 C2.790861,15 1,13.209139 1,11 L1,5 C1,2.790861 2.790861,1 5,1 L11,1 Z M11,2 L5,2 C3.40231912,2 2.09633912,3.24891996 2.00509269,4.82372721 L2,5 L2,11 C2,12.5976809 3.24891996,13.9036609 4.82372721,13.9949073 L5,14 L11,14 C12.5976809,14 13.9036609,12.75108 13.9949073,11.1762728 L14,11 L14,5 C14,3.40231912 12.75108,2.09633912 11.1762728,2.00509269 L11,2 Z M8,5 C8.27614237,5 8.5,5.22385763 8.5,5.5 L8.5,7.5 L10.5,7.5 C10.7761424,7.5 11,7.72385763 11,8 C11,8.27614237 10.7761424,8.5 10.5,8.5 L8.5,8.5 L8.5,10.5 C8.5,10.7761424 8.27614237,11 8,11 C7.72385763,11 7.5,10.7761424 7.5,10.5 L7.5,8.5 L5.5,8.5 C5.22385763,8.5 5,8.27614237 5,8 C5,7.72385763 5.22385763,7.5 5.5,7.5 L7.5,7.5 L7.5,5.5 C7.5,5.22385763 7.72385763,5 8,5 Z" id="形状结合" fill="#999999"></path>
                </g>
            </g>
        </g>
    </g>
</svg>