<?xml version="1.0" standalone="no"?><!DOCTYPE svg PUBLIC "-//W3C//DTD SVG 1.1//EN" "http://www.w3.org/Graphics/SVG/1.1/DTD/svg11.dtd"><svg t="1725344883484" class="icon" viewBox="0 0 1024 1024" version="1.1" xmlns="http://www.w3.org/2000/svg" p-id="7215" xmlns:xlink="http://www.w3.org/1999/xlink" width="200" height="200"><path d="M189.098667 208.042667a27.989333 27.989333 0 1 0 55.936 0 27.989333 27.989333 0 0 0-55.893334 0z" fill="#5693FF" opacity=".8" p-id="7216"></path><path d="M238.08 102.698667a27.989333 27.989333 0 1 0 55.893333 0 27.989333 27.989333 0 0 0-55.893333 0z" fill="#CBD3FF" opacity=".8" p-id="7217"></path><path d="M753.792 151.637333a27.989333 27.989333 0 1 0 55.978667 0 27.989333 27.989333 0 0 0-55.978667 0z" fill="#5693FF" opacity=".8" p-id="7218"></path><path d="M454.784 237.909333h-5.418667v0.554667a34.304 34.304 0 0 0-29.013333 33.834667v210.858666c0 17.109333 12.629333 31.232 29.013333 33.834667v0.512h16.64c18.944 0 34.346667-15.36 34.346667-34.346667V272.298667a34.389333 34.389333 0 0 0-34.389333-34.389334h-11.178667z" fill="#918DFF" opacity=".8" p-id="7219"></path><path d="M512 682.325333a209.792 209.792 0 0 1-209.536-209.578666V274.005333A209.792 209.792 0 0 1 512 64.469333a209.792 209.792 0 0 1 209.578667 209.536v198.741334A209.834667 209.834667 0 0 1 512 682.325333z m0-553.941333a145.792 145.792 0 0 0-145.621333 145.621333v198.741334A145.792 145.792 0 0 0 512 618.368a145.792 145.792 0 0 0 145.621333-145.621333V274.005333A145.792 145.792 0 0 0 512 128.426667z" fill="#7571FF" opacity=".8" p-id="7220"></path><path d="M512 825.216c-193.92 0-351.658667-149.888-351.658667-334.08a32 32 0 0 1 63.957334 0c0 148.949333 129.066667 270.165333 287.701333 270.165333 158.634667 0 287.701333-121.173333 287.701333-270.165333a32 32 0 0 1 63.957334 0c0 184.192-157.781333 334.08-351.658667 334.08z" fill="#7571FF" opacity=".8" p-id="7221"></path><path d="M512 959.573333a32 32 0 0 1-32-32v-134.314666a32 32 0 0 1 64 0v134.314666a32 32 0 0 1-32 32z" fill="#7571FF" opacity=".8" p-id="7222"></path></svg>