<?xml version="1.0" encoding="UTF-8"?>
<svg width="16px" height="16px" viewBox="0 0 16 16" version="1.1" xmlns="http://www.w3.org/2000/svg" xmlns:xlink="http://www.w3.org/1999/xlink">
    <title>删除</title>
    <g id="页面-1" stroke="none" stroke-width="1" fill="none" fill-rule="evenodd">
        <g id="案例档案-案例业务备份-2" transform="translate(-254.000000, -265.000000)" fill-rule="nonzero">
            <g id="编组-2" transform="translate(39.000000, 227.000000)">
                <g id="删除" transform="translate(215.000000, 38.000000)">
                    <rect id="矩形" fill="#000000" opacity="0" x="0" y="0" width="16" height="16"></rect>
                    <path d="M13.485625,4.8125 L12.985625,11.81875 C12.915945,13.0777005 11.8746273,14.0627678 10.61375,14.0625 L5.41125,14.0625 C4.150614,14.0625 3.10966672,13.0774595 3.04,11.81875 L2.54,4.8125 L1.12500001,4.8125 C0.848857633,4.8125 0.62500001,4.58864237 0.62500001,4.3125 C0.62500001,4.03635763 0.848857633,3.8125 1.12500001,3.8125 L14.875,3.8125 C15.1511424,3.8125 15.375,4.03635763 15.375,4.3125 C15.375,4.58864237 15.1511424,4.8125 14.875,4.8125 L13.485625,4.8125 Z M3.54125,4.8125 L4.038125,11.76375 C4.07859905,12.492487 4.68138993,13.0626278 5.41125,13.0625 L10.61375,13.0625 C11.3436101,13.0626278 11.946401,12.492487 11.986875,11.76375 L12.48375,4.8125 L3.54125,4.8125 Z M6.125,2.9375 L9.875,2.9375 C10.1511424,2.9375 10.375,2.71364237 10.375,2.4375 C10.375,2.16135763 10.1511424,1.9375 9.875,1.9375 L6.125,1.9375 C5.84885763,1.9375 5.625,2.16135763 5.625,2.4375 C5.625,2.71364237 5.84885763,2.9375 6.125,2.9375 Z M6.2625,7.75000001 L6.2625,10.751875 C6.2625,11.0280174 6.48635763,11.251875 6.7625,11.251875 C7.03864237,11.251875 7.2625,11.0280174 7.2625,10.751875 L7.2625,7.75000001 C7.2625,7.47385763 7.03864237,7.25000001 6.7625,7.25000001 C6.48635763,7.25000001 6.2625,7.47385763 6.2625,7.75000001 Z M8.7625,10.751875 C8.7625,11.0280174 8.98635762,11.251875 9.2625,11.251875 C9.53864237,11.251875 9.7625,11.0280174 9.7625,10.751875 L9.7625,7.75 C9.7625,7.47385763 9.53864237,7.25 9.2625,7.25 C8.98635762,7.25 8.7625,7.47385763 8.7625,7.75 L8.7625,10.751875 Z" id="形状" fill="#999999"></path>
                </g>
            </g>
        </g>
    </g>
</svg>